%TF.GenerationSoftware,KiCad,Pcbnew,8.0.6-unknown-202411051418~a3eff548b7~ubuntu20.04.1*%
%TF.CreationDate,2024-11-07T21:27:02-05:00*%
%TF.ProjectId,ARX,4152582e-6b69-4636-9164-5f7063625858,Revision I*%
%TF.SameCoordinates,Original*%
%TF.FileFunction,Drillmap*%
%TF.FilePolarity,Positive*%
%FSLAX45Y45*%
G04 Gerber Fmt 4.5, Leading zero omitted, Abs format (unit mm)*
G04 Created by KiCad (PCBNEW 8.0.6-unknown-202411051418~a3eff548b7~ubuntu20.04.1) date 2024-11-07 21:27:02*
%MOMM*%
%LPD*%
G01*
G04 APERTURE LIST*
%ADD10C,0.150000*%
%ADD11C,0.200000*%
G04 APERTURE END LIST*
D10*
X16085601Y-13053621D02*
X15704601Y-12863121D01*
X16276101Y-13053621D02*
X70251101Y-13053621D01*
X70441601Y-13053621D02*
X71648101Y-13053621D01*
X16276101Y-40815821D02*
X70251101Y-40815821D01*
X70441601Y-40815821D02*
X70822601Y-40625321D01*
X16085601Y-40815821D02*
X15704601Y-40625321D01*
X16085601Y-40815821D02*
X15704601Y-41006321D01*
X70441601Y-40815821D02*
X70822601Y-41006321D01*
X16276101Y-10513621D02*
X70251101Y-10513621D01*
X70251101Y-10513621D02*
X70251101Y-43355821D01*
X70441601Y-40815821D02*
X71648101Y-40815821D01*
X16085601Y-40815821D02*
X14879101Y-40815821D01*
X70441601Y-13053621D02*
X70822601Y-12863121D01*
X70441601Y-13053621D02*
X70822601Y-13244121D01*
X70251101Y-43355821D02*
X16276101Y-43355821D01*
X16085601Y-13053621D02*
X15704601Y-13244121D01*
X16276101Y-43355821D02*
X16276101Y-10513621D01*
X16085601Y-13053621D02*
X14879101Y-13053621D01*
D11*
X15132378Y-43674805D02*
X15132378Y-43474805D01*
X15132378Y-43474805D02*
X15179997Y-43474805D01*
X15179997Y-43474805D02*
X15208568Y-43484328D01*
X15208568Y-43484328D02*
X15227616Y-43503376D01*
X15227616Y-43503376D02*
X15237140Y-43522424D01*
X15237140Y-43522424D02*
X15246664Y-43560519D01*
X15246664Y-43560519D02*
X15246664Y-43589090D01*
X15246664Y-43589090D02*
X15237140Y-43627186D01*
X15237140Y-43627186D02*
X15227616Y-43646233D01*
X15227616Y-43646233D02*
X15208568Y-43665281D01*
X15208568Y-43665281D02*
X15179997Y-43674805D01*
X15179997Y-43674805D02*
X15132378Y-43674805D01*
X15332378Y-43674805D02*
X15332378Y-43541471D01*
X15332378Y-43579567D02*
X15341902Y-43560519D01*
X15341902Y-43560519D02*
X15351426Y-43550995D01*
X15351426Y-43550995D02*
X15370473Y-43541471D01*
X15370473Y-43541471D02*
X15389521Y-43541471D01*
X15456187Y-43674805D02*
X15456187Y-43541471D01*
X15456187Y-43474805D02*
X15446664Y-43484328D01*
X15446664Y-43484328D02*
X15456187Y-43493852D01*
X15456187Y-43493852D02*
X15465711Y-43484328D01*
X15465711Y-43484328D02*
X15456187Y-43474805D01*
X15456187Y-43474805D02*
X15456187Y-43493852D01*
X15579997Y-43674805D02*
X15560949Y-43665281D01*
X15560949Y-43665281D02*
X15551426Y-43646233D01*
X15551426Y-43646233D02*
X15551426Y-43474805D01*
X15684759Y-43674805D02*
X15665711Y-43665281D01*
X15665711Y-43665281D02*
X15656187Y-43646233D01*
X15656187Y-43646233D02*
X15656187Y-43474805D01*
X15913330Y-43674805D02*
X15913330Y-43474805D01*
X15913330Y-43474805D02*
X15979997Y-43617662D01*
X15979997Y-43617662D02*
X16046664Y-43474805D01*
X16046664Y-43474805D02*
X16046664Y-43674805D01*
X16227616Y-43674805D02*
X16227616Y-43570043D01*
X16227616Y-43570043D02*
X16218092Y-43550995D01*
X16218092Y-43550995D02*
X16199045Y-43541471D01*
X16199045Y-43541471D02*
X16160949Y-43541471D01*
X16160949Y-43541471D02*
X16141902Y-43550995D01*
X16227616Y-43665281D02*
X16208568Y-43674805D01*
X16208568Y-43674805D02*
X16160949Y-43674805D01*
X16160949Y-43674805D02*
X16141902Y-43665281D01*
X16141902Y-43665281D02*
X16132378Y-43646233D01*
X16132378Y-43646233D02*
X16132378Y-43627186D01*
X16132378Y-43627186D02*
X16141902Y-43608138D01*
X16141902Y-43608138D02*
X16160949Y-43598614D01*
X16160949Y-43598614D02*
X16208568Y-43598614D01*
X16208568Y-43598614D02*
X16227616Y-43589090D01*
X16322854Y-43541471D02*
X16322854Y-43741471D01*
X16322854Y-43550995D02*
X16341902Y-43541471D01*
X16341902Y-43541471D02*
X16379997Y-43541471D01*
X16379997Y-43541471D02*
X16399045Y-43550995D01*
X16399045Y-43550995D02*
X16408568Y-43560519D01*
X16408568Y-43560519D02*
X16418092Y-43579567D01*
X16418092Y-43579567D02*
X16418092Y-43636709D01*
X16418092Y-43636709D02*
X16408568Y-43655757D01*
X16408568Y-43655757D02*
X16399045Y-43665281D01*
X16399045Y-43665281D02*
X16379997Y-43674805D01*
X16379997Y-43674805D02*
X16341902Y-43674805D01*
X16341902Y-43674805D02*
X16322854Y-43665281D01*
X16503807Y-43655757D02*
X16513330Y-43665281D01*
X16513330Y-43665281D02*
X16503807Y-43674805D01*
X16503807Y-43674805D02*
X16494283Y-43665281D01*
X16494283Y-43665281D02*
X16503807Y-43655757D01*
X16503807Y-43655757D02*
X16503807Y-43674805D01*
X16503807Y-43550995D02*
X16513330Y-43560519D01*
X16513330Y-43560519D02*
X16503807Y-43570043D01*
X16503807Y-43570043D02*
X16494283Y-43560519D01*
X16494283Y-43560519D02*
X16503807Y-43550995D01*
X16503807Y-43550995D02*
X16503807Y-43570043D01*
M02*
