M48
; DRILL file {KiCad 8.0.6-unknown-202411051418~a3eff548b7~ubuntu20.04.1} date 2024-11-07T21:26:58-0500
; FORMAT={-:-/ absolute / metric / decimal}
; #@! TF.CreationDate,2024-11-07T21:26:58-05:00
; #@! TF.GenerationSoftware,Kicad,Pcbnew,8.0.6-unknown-202411051418~a3eff548b7~ubuntu20.04.1
; #@! TF.FileFunction,Plated,1,6,PTH
FMAT,2
METRIC
; #@! TA.AperFunction,Plated,PTH,ComponentDrill
T1C0.300
; #@! TA.AperFunction,Plated,PTH,ComponentDrill
T2C0.330
; #@! TA.AperFunction,Plated,PTH,ViaDrill
T3C0.400
; #@! TA.AperFunction,Plated,PTH,ComponentDrill
T4C0.400
; #@! TA.AperFunction,Plated,PTH,ComponentDrill
T5C0.840
; #@! TA.AperFunction,Plated,PTH,ComponentDrill
T6C1.000
; #@! TA.AperFunction,Plated,PTH,ComponentDrill
T7C1.194
; #@! TA.AperFunction,Plated,PTH,ComponentDrill
T8C1.780
; #@! TA.AperFunction,Plated,PTH,ComponentDrill
T9C3.000
; #@! TA.AperFunction,Plated,PTH,ComponentDrill
T10C3.500
; #@! TA.AperFunction,Plated,PTH,ComponentDrill
T11C5.080
; #@! TA.AperFunction,Plated,PTH,ComponentDrill
T12C6.299
%
G90
G05
T1
X178.648Y-147.308
X178.648Y-150.188
X178.648Y-154.798
X178.648Y-157.678
X178.648Y-162.288
X178.648Y-165.168
X178.648Y-169.778
X178.648Y-172.658
X178.648Y-197.058
X178.648Y-199.938
X178.648Y-204.548
X178.648Y-207.428
X178.648Y-212.038
X178.648Y-214.918
X178.648Y-219.528
X178.648Y-222.408
X178.648Y-227.018
X178.648Y-229.898
X178.648Y-234.508
X178.648Y-237.388
X180.076Y-147.308
X180.076Y-150.188
X180.076Y-154.798
X180.076Y-157.678
X180.076Y-162.288
X180.076Y-165.168
X180.076Y-169.778
X180.076Y-172.658
X180.076Y-197.058
X180.076Y-199.938
X180.076Y-204.548
X180.076Y-207.428
X180.076Y-212.038
X180.076Y-214.918
X180.076Y-219.528
X180.076Y-222.408
X180.076Y-227.018
X180.076Y-229.898
X180.076Y-234.508
X180.076Y-237.388
X181.503Y-147.308
X181.503Y-148.748
X181.503Y-150.188
X181.503Y-154.798
X181.503Y-156.238
X181.503Y-157.678
X181.503Y-162.288
X181.503Y-163.728
X181.503Y-165.168
X181.503Y-169.778
X181.503Y-171.218
X181.503Y-172.658
X181.503Y-197.058
X181.503Y-198.498
X181.503Y-199.938
X181.503Y-204.548
X181.503Y-205.988
X181.503Y-207.428
X181.503Y-212.038
X181.503Y-213.478
X181.503Y-214.918
X181.503Y-219.528
X181.503Y-220.968
X181.503Y-222.408
X181.503Y-227.018
X181.503Y-228.458
X181.503Y-229.898
X181.503Y-234.508
X181.503Y-235.948
X181.503Y-237.388
X182.931Y-147.308
X182.931Y-150.188
X182.931Y-154.798
X182.931Y-157.678
X182.931Y-162.288
X182.931Y-165.168
X182.931Y-169.778
X182.931Y-172.658
X182.931Y-197.058
X182.931Y-199.938
X182.931Y-204.548
X182.931Y-207.428
X182.931Y-212.038
X182.931Y-214.918
X182.931Y-219.528
X182.931Y-222.408
X182.931Y-227.018
X182.931Y-229.898
X182.931Y-234.508
X182.931Y-237.388
X184.358Y-147.308
X184.358Y-150.188
X184.358Y-154.798
X184.358Y-157.678
X184.358Y-162.288
X184.358Y-165.168
X184.358Y-169.778
X184.358Y-172.658
X184.358Y-197.058
X184.358Y-199.938
X184.358Y-204.548
X184.358Y-207.428
X184.358Y-212.038
X184.358Y-214.918
X184.358Y-219.528
X184.358Y-222.408
X184.358Y-227.018
X184.358Y-229.898
X184.358Y-234.508
X184.358Y-237.388
X226.059Y-167.772
X226.059Y-168.772
X226.809Y-168.272
X227.559Y-167.772
X227.559Y-168.772
X255.066Y-167.772
X255.066Y-168.772
X255.816Y-168.272
X256.566Y-167.772
X256.566Y-168.772
X282.423Y-167.772
X282.423Y-168.772
X283.173Y-168.272
X283.923Y-167.772
X283.923Y-168.772
X311.43Y-167.772
X311.43Y-168.772
X312.18Y-168.272
X312.93Y-167.772
X312.93Y-168.772
X338.787Y-167.772
X338.787Y-168.772
X339.537Y-168.272
X340.287Y-167.772
X340.287Y-168.772
X367.794Y-167.772
X367.794Y-168.772
X368.544Y-168.272
X369.294Y-167.772
X369.294Y-168.772
X395.151Y-167.772
X395.151Y-168.772
X395.901Y-168.272
X396.651Y-167.772
X396.651Y-168.772
X424.158Y-167.772
X424.158Y-168.772
X424.908Y-168.272
X425.658Y-167.772
X425.658Y-168.772
X451.515Y-167.772
X451.515Y-168.772
X452.265Y-168.272
X453.015Y-167.772
X453.015Y-168.772
X480.522Y-167.772
X480.522Y-168.772
X481.272Y-168.272
X482.022Y-167.772
X482.022Y-168.772
X507.879Y-167.772
X507.879Y-168.772
X508.629Y-168.272
X509.379Y-167.772
X509.379Y-168.772
X536.886Y-167.772
X536.886Y-168.772
X537.636Y-168.272
X538.386Y-167.772
X538.386Y-168.772
X564.242Y-167.772
X564.242Y-168.772
X564.992Y-168.272
X565.742Y-167.772
X565.742Y-168.772
X593.249Y-167.772
X593.249Y-168.772
X593.999Y-168.272
X594.749Y-167.772
X594.749Y-168.772
X620.606Y-167.772
X620.606Y-168.772
X621.356Y-168.272
X622.106Y-167.772
X622.106Y-168.772
X649.613Y-167.772
X649.613Y-168.772
X650.363Y-168.272
X651.113Y-167.772
X651.113Y-168.772
T2
X214.337Y-181.183
X214.337Y-181.767
X214.337Y-182.352
X214.636Y-344.364
X214.636Y-344.948
X214.636Y-345.532
X214.921Y-181.183
X214.921Y-181.767
X214.921Y-182.352
X215.22Y-344.364
X215.22Y-344.948
X215.22Y-345.532
X215.506Y-181.183
X215.506Y-181.767
X215.506Y-182.352
X215.805Y-344.364
X215.805Y-344.948
X215.805Y-345.532
X219.379Y-250.805
X219.379Y-251.389
X219.379Y-251.973
X219.697Y-262.441
X219.697Y-263.457
X219.697Y-264.473
X219.697Y-315.781
X219.697Y-316.797
X219.697Y-317.813
X219.963Y-250.805
X219.963Y-251.389
X219.963Y-251.973
X220.548Y-250.805
X220.548Y-251.389
X220.548Y-251.973
X220.713Y-262.441
X220.713Y-263.457
X220.713Y-264.473
X220.713Y-315.781
X220.713Y-316.797
X220.713Y-317.813
X221.729Y-262.441
X221.729Y-263.457
X221.729Y-264.473
X221.729Y-315.781
X221.729Y-316.797
X221.729Y-317.813
X243.344Y-181.183
X243.344Y-181.767
X243.344Y-182.352
X243.643Y-344.364
X243.643Y-344.948
X243.643Y-345.532
X243.928Y-181.183
X243.928Y-181.767
X243.928Y-182.352
X244.227Y-344.364
X244.227Y-344.948
X244.227Y-345.532
X244.513Y-181.183
X244.513Y-181.767
X244.513Y-182.352
X244.812Y-344.364
X244.812Y-344.948
X244.812Y-345.532
X248.386Y-250.805
X248.386Y-251.389
X248.386Y-251.973
X248.704Y-262.441
X248.704Y-263.457
X248.704Y-264.473
X248.704Y-315.781
X248.704Y-316.797
X248.704Y-317.813
X248.97Y-250.805
X248.97Y-251.389
X248.97Y-251.973
X249.555Y-250.805
X249.555Y-251.389
X249.555Y-251.973
X249.72Y-262.441
X249.72Y-263.457
X249.72Y-264.473
X249.72Y-315.781
X249.72Y-316.797
X249.72Y-317.813
X250.736Y-262.441
X250.736Y-263.457
X250.736Y-264.473
X250.736Y-315.781
X250.736Y-316.797
X250.736Y-317.813
X270.701Y-181.183
X270.701Y-181.767
X270.701Y-182.352
X271.0Y-344.364
X271.0Y-344.948
X271.0Y-345.532
X271.285Y-181.183
X271.285Y-181.767
X271.285Y-182.352
X271.584Y-344.364
X271.584Y-344.948
X271.584Y-345.532
X271.869Y-181.183
X271.869Y-181.767
X271.869Y-182.352
X272.169Y-344.364
X272.169Y-344.948
X272.169Y-345.532
X275.743Y-250.805
X275.743Y-251.389
X275.743Y-251.973
X276.061Y-262.441
X276.061Y-263.457
X276.061Y-264.473
X276.061Y-315.781
X276.061Y-316.797
X276.061Y-317.813
X276.327Y-250.805
X276.327Y-251.389
X276.327Y-251.973
X276.911Y-250.805
X276.911Y-251.389
X276.911Y-251.973
X277.077Y-262.441
X277.077Y-263.457
X277.077Y-264.473
X277.077Y-315.781
X277.077Y-316.797
X277.077Y-317.813
X278.093Y-262.441
X278.093Y-263.457
X278.093Y-264.473
X278.093Y-315.781
X278.093Y-316.797
X278.093Y-317.813
X299.708Y-181.183
X299.708Y-181.767
X299.708Y-182.352
X300.007Y-344.364
X300.007Y-344.948
X300.007Y-345.532
X300.292Y-181.183
X300.292Y-181.767
X300.292Y-182.352
X300.591Y-344.364
X300.591Y-344.948
X300.591Y-345.532
X300.876Y-181.183
X300.876Y-181.767
X300.876Y-182.352
X301.176Y-344.364
X301.176Y-344.948
X301.176Y-345.532
X304.75Y-250.805
X304.75Y-251.389
X304.75Y-251.973
X305.068Y-262.441
X305.068Y-263.457
X305.068Y-264.473
X305.068Y-315.781
X305.068Y-316.797
X305.068Y-317.813
X305.334Y-250.805
X305.334Y-251.389
X305.334Y-251.973
X305.918Y-250.805
X305.918Y-251.389
X305.918Y-251.973
X306.084Y-262.441
X306.084Y-263.457
X306.084Y-264.473
X306.084Y-315.781
X306.084Y-316.797
X306.084Y-317.813
X307.1Y-262.441
X307.1Y-263.457
X307.1Y-264.473
X307.1Y-315.781
X307.1Y-316.797
X307.1Y-317.813
X327.065Y-181.183
X327.065Y-181.767
X327.065Y-182.352
X327.364Y-344.364
X327.364Y-344.948
X327.364Y-345.532
X327.649Y-181.183
X327.649Y-181.767
X327.649Y-182.352
X327.948Y-344.364
X327.948Y-344.948
X327.948Y-345.532
X328.233Y-181.183
X328.233Y-181.767
X328.233Y-182.352
X328.532Y-344.364
X328.532Y-344.948
X328.532Y-345.532
X332.107Y-250.805
X332.107Y-251.389
X332.107Y-251.973
X332.425Y-262.441
X332.425Y-263.457
X332.425Y-264.473
X332.425Y-315.781
X332.425Y-316.797
X332.425Y-317.813
X332.691Y-250.805
X332.691Y-251.389
X332.691Y-251.973
X333.275Y-250.805
X333.275Y-251.389
X333.275Y-251.973
X333.441Y-262.441
X333.441Y-263.457
X333.441Y-264.473
X333.441Y-315.781
X333.441Y-316.797
X333.441Y-317.813
X334.457Y-262.441
X334.457Y-263.457
X334.457Y-264.473
X334.457Y-315.781
X334.457Y-316.797
X334.457Y-317.813
X356.072Y-181.183
X356.072Y-181.767
X356.072Y-182.352
X356.371Y-344.364
X356.371Y-344.948
X356.371Y-345.532
X356.656Y-181.183
X356.656Y-181.767
X356.656Y-182.352
X356.955Y-344.364
X356.955Y-344.948
X356.955Y-345.532
X357.24Y-181.183
X357.24Y-181.767
X357.24Y-182.352
X357.539Y-344.364
X357.539Y-344.948
X357.539Y-345.532
X361.114Y-250.805
X361.114Y-251.389
X361.114Y-251.973
X361.432Y-262.441
X361.432Y-263.457
X361.432Y-264.473
X361.432Y-315.781
X361.432Y-316.797
X361.432Y-317.813
X361.698Y-250.805
X361.698Y-251.389
X361.698Y-251.973
X362.282Y-250.805
X362.282Y-251.389
X362.282Y-251.973
X362.448Y-262.441
X362.448Y-263.457
X362.448Y-264.473
X362.448Y-315.781
X362.448Y-316.797
X362.448Y-317.813
X363.464Y-262.441
X363.464Y-263.457
X363.464Y-264.473
X363.464Y-315.781
X363.464Y-316.797
X363.464Y-317.813
X383.429Y-181.183
X383.429Y-181.767
X383.429Y-182.352
X383.728Y-344.364
X383.728Y-344.948
X383.728Y-345.532
X384.013Y-181.183
X384.013Y-181.767
X384.013Y-182.352
X384.312Y-344.364
X384.312Y-344.948
X384.312Y-345.532
X384.597Y-181.183
X384.597Y-181.767
X384.597Y-182.352
X384.896Y-344.364
X384.896Y-344.948
X384.896Y-345.532
X388.471Y-250.805
X388.471Y-251.389
X388.471Y-251.973
X388.789Y-262.441
X388.789Y-263.457
X388.789Y-264.473
X388.789Y-315.781
X388.789Y-316.797
X388.789Y-317.813
X389.055Y-250.805
X389.055Y-251.389
X389.055Y-251.973
X389.639Y-250.805
X389.639Y-251.389
X389.639Y-251.973
X389.805Y-262.441
X389.805Y-263.457
X389.805Y-264.473
X389.805Y-315.781
X389.805Y-316.797
X389.805Y-317.813
X390.821Y-262.441
X390.821Y-263.457
X390.821Y-264.473
X390.821Y-315.781
X390.821Y-316.797
X390.821Y-317.813
X412.436Y-181.183
X412.436Y-181.767
X412.436Y-182.352
X412.735Y-344.364
X412.735Y-344.948
X412.735Y-345.532
X413.02Y-181.183
X413.02Y-181.767
X413.02Y-182.352
X413.319Y-344.364
X413.319Y-344.948
X413.319Y-345.532
X413.604Y-181.183
X413.604Y-181.767
X413.604Y-182.352
X413.903Y-344.364
X413.903Y-344.948
X413.903Y-345.532
X417.478Y-250.805
X417.478Y-251.389
X417.478Y-251.973
X417.796Y-262.441
X417.796Y-263.457
X417.796Y-264.473
X417.796Y-315.781
X417.796Y-316.797
X417.796Y-317.813
X418.062Y-250.805
X418.062Y-251.389
X418.062Y-251.973
X418.646Y-250.805
X418.646Y-251.389
X418.646Y-251.973
X418.812Y-262.441
X418.812Y-263.457
X418.812Y-264.473
X418.812Y-315.781
X418.812Y-316.797
X418.812Y-317.813
X419.828Y-262.441
X419.828Y-263.457
X419.828Y-264.473
X419.828Y-315.781
X419.828Y-316.797
X419.828Y-317.813
X439.793Y-181.183
X439.793Y-181.767
X439.793Y-182.352
X440.092Y-344.364
X440.092Y-344.948
X440.092Y-345.532
X440.377Y-181.183
X440.377Y-181.767
X440.377Y-182.352
X440.676Y-344.364
X440.676Y-344.948
X440.676Y-345.532
X440.961Y-181.183
X440.961Y-181.767
X440.961Y-182.352
X441.26Y-344.364
X441.26Y-344.948
X441.26Y-345.532
X444.835Y-250.805
X444.835Y-251.389
X444.835Y-251.973
X445.153Y-262.441
X445.153Y-263.457
X445.153Y-264.473
X445.153Y-315.781
X445.153Y-316.797
X445.153Y-317.813
X445.419Y-250.805
X445.419Y-251.389
X445.419Y-251.973
X446.003Y-250.805
X446.003Y-251.389
X446.003Y-251.973
X446.169Y-262.441
X446.169Y-263.457
X446.169Y-264.473
X446.169Y-315.781
X446.169Y-316.797
X446.169Y-317.813
X447.185Y-262.441
X447.185Y-263.457
X447.185Y-264.473
X447.185Y-315.781
X447.185Y-316.797
X447.185Y-317.813
X468.8Y-181.183
X468.8Y-181.767
X468.8Y-182.352
X469.099Y-344.364
X469.099Y-344.948
X469.099Y-345.532
X469.384Y-181.183
X469.384Y-181.767
X469.384Y-182.352
X469.683Y-344.364
X469.683Y-344.948
X469.683Y-345.532
X469.968Y-181.183
X469.968Y-181.767
X469.968Y-182.352
X470.267Y-344.364
X470.267Y-344.948
X470.267Y-345.532
X473.842Y-250.805
X473.842Y-251.389
X473.842Y-251.973
X474.16Y-262.441
X474.16Y-263.457
X474.16Y-264.473
X474.16Y-315.781
X474.16Y-316.797
X474.16Y-317.813
X474.426Y-250.805
X474.426Y-251.389
X474.426Y-251.973
X475.01Y-250.805
X475.01Y-251.389
X475.01Y-251.973
X475.176Y-262.441
X475.176Y-263.457
X475.176Y-264.473
X475.176Y-315.781
X475.176Y-316.797
X475.176Y-317.813
X476.192Y-262.441
X476.192Y-263.457
X476.192Y-264.473
X476.192Y-315.781
X476.192Y-316.797
X476.192Y-317.813
X496.156Y-181.183
X496.156Y-181.767
X496.156Y-182.352
X496.455Y-344.364
X496.455Y-344.948
X496.455Y-345.532
X496.741Y-181.183
X496.741Y-181.767
X496.741Y-182.352
X497.04Y-344.364
X497.04Y-344.948
X497.04Y-345.532
X497.325Y-181.183
X497.325Y-181.767
X497.325Y-182.352
X497.624Y-344.364
X497.624Y-344.948
X497.624Y-345.532
X501.198Y-250.805
X501.198Y-251.389
X501.198Y-251.973
X501.517Y-262.441
X501.517Y-263.457
X501.517Y-264.473
X501.517Y-315.781
X501.517Y-316.797
X501.517Y-317.813
X501.783Y-250.805
X501.783Y-251.389
X501.783Y-251.973
X502.367Y-250.805
X502.367Y-251.389
X502.367Y-251.973
X502.533Y-262.441
X502.533Y-263.457
X502.533Y-264.473
X502.533Y-315.781
X502.533Y-316.797
X502.533Y-317.813
X503.549Y-262.441
X503.549Y-263.457
X503.549Y-264.473
X503.549Y-315.781
X503.549Y-316.797
X503.549Y-317.813
X525.163Y-181.183
X525.163Y-181.767
X525.163Y-182.352
X525.462Y-344.364
X525.462Y-344.948
X525.462Y-345.532
X525.748Y-181.183
X525.748Y-181.767
X525.748Y-182.352
X526.047Y-344.364
X526.047Y-344.948
X526.047Y-345.532
X526.332Y-181.183
X526.332Y-181.767
X526.332Y-182.352
X526.631Y-344.364
X526.631Y-344.948
X526.631Y-345.532
X530.205Y-250.805
X530.205Y-251.389
X530.205Y-251.973
X530.524Y-262.441
X530.524Y-263.457
X530.524Y-264.473
X530.524Y-315.781
X530.524Y-316.797
X530.524Y-317.813
X530.79Y-250.805
X530.79Y-251.389
X530.79Y-251.973
X531.374Y-250.805
X531.374Y-251.389
X531.374Y-251.973
X531.54Y-262.441
X531.54Y-263.457
X531.54Y-264.473
X531.54Y-315.781
X531.54Y-316.797
X531.54Y-317.813
X532.556Y-262.441
X532.556Y-263.457
X532.556Y-264.473
X532.556Y-315.781
X532.556Y-316.797
X532.556Y-317.813
X552.52Y-181.183
X552.52Y-181.767
X552.52Y-182.352
X552.819Y-344.364
X552.819Y-344.948
X552.819Y-345.532
X553.104Y-181.183
X553.104Y-181.767
X553.104Y-182.352
X553.403Y-344.364
X553.403Y-344.948
X553.403Y-345.532
X553.689Y-181.183
X553.689Y-181.767
X553.689Y-182.352
X553.988Y-344.364
X553.988Y-344.948
X553.988Y-345.532
X557.562Y-250.805
X557.562Y-251.389
X557.562Y-251.973
X557.88Y-262.441
X557.88Y-263.457
X557.88Y-264.473
X557.88Y-315.781
X557.88Y-316.797
X557.88Y-317.813
X558.146Y-250.805
X558.146Y-251.389
X558.146Y-251.973
X558.731Y-250.805
X558.731Y-251.389
X558.731Y-251.973
X558.896Y-262.441
X558.896Y-263.457
X558.896Y-264.473
X558.896Y-315.781
X558.896Y-316.797
X558.896Y-317.813
X559.912Y-262.441
X559.912Y-263.457
X559.912Y-264.473
X559.912Y-315.781
X559.912Y-316.797
X559.912Y-317.813
X581.527Y-181.183
X581.527Y-181.767
X581.527Y-182.352
X581.826Y-344.364
X581.826Y-344.948
X581.826Y-345.532
X582.111Y-181.183
X582.111Y-181.767
X582.111Y-182.352
X582.41Y-344.364
X582.41Y-344.948
X582.41Y-345.532
X582.696Y-181.183
X582.696Y-181.767
X582.696Y-182.352
X582.995Y-344.364
X582.995Y-344.948
X582.995Y-345.532
X586.569Y-250.805
X586.569Y-251.389
X586.569Y-251.973
X586.887Y-262.441
X586.887Y-263.457
X586.887Y-264.473
X586.887Y-315.781
X586.887Y-316.797
X586.887Y-317.813
X587.153Y-250.805
X587.153Y-251.389
X587.153Y-251.973
X587.738Y-250.805
X587.738Y-251.389
X587.738Y-251.973
X587.903Y-262.441
X587.903Y-263.457
X587.903Y-264.473
X587.903Y-315.781
X587.903Y-316.797
X587.903Y-317.813
X588.919Y-262.441
X588.919Y-263.457
X588.919Y-264.473
X588.919Y-315.781
X588.919Y-316.797
X588.919Y-317.813
X608.884Y-181.183
X608.884Y-181.767
X608.884Y-182.352
X609.183Y-344.364
X609.183Y-344.948
X609.183Y-345.532
X609.468Y-181.183
X609.468Y-181.767
X609.468Y-182.352
X609.767Y-344.364
X609.767Y-344.948
X609.767Y-345.532
X610.052Y-181.183
X610.052Y-181.767
X610.052Y-182.352
X610.352Y-344.364
X610.352Y-344.948
X610.352Y-345.532
X613.926Y-250.805
X613.926Y-251.389
X613.926Y-251.973
X614.244Y-262.441
X614.244Y-263.457
X614.244Y-264.473
X614.244Y-315.781
X614.244Y-316.797
X614.244Y-317.813
X614.51Y-250.805
X614.51Y-251.389
X614.51Y-251.973
X615.094Y-250.805
X615.094Y-251.389
X615.094Y-251.973
X615.26Y-262.441
X615.26Y-263.457
X615.26Y-264.473
X615.26Y-315.781
X615.26Y-316.797
X615.26Y-317.813
X616.276Y-262.441
X616.276Y-263.457
X616.276Y-264.473
X616.276Y-315.781
X616.276Y-316.797
X616.276Y-317.813
X637.891Y-181.183
X637.891Y-181.767
X637.891Y-182.352
X638.19Y-344.364
X638.19Y-344.948
X638.19Y-345.532
X638.475Y-181.183
X638.475Y-181.767
X638.475Y-182.352
X638.774Y-344.364
X638.774Y-344.948
X638.774Y-345.532
X639.059Y-181.183
X639.059Y-181.767
X639.059Y-182.352
X639.359Y-344.364
X639.359Y-344.948
X639.359Y-345.532
X642.933Y-250.805
X642.933Y-251.389
X642.933Y-251.973
X643.251Y-262.441
X643.251Y-263.457
X643.251Y-264.473
X643.251Y-315.781
X643.251Y-316.797
X643.251Y-317.813
X643.517Y-250.805
X643.517Y-251.389
X643.517Y-251.973
X644.101Y-250.805
X644.101Y-251.389
X644.101Y-251.973
X644.267Y-262.441
X644.267Y-263.457
X644.267Y-264.473
X644.267Y-315.781
X644.267Y-316.797
X644.267Y-317.813
X645.283Y-262.441
X645.283Y-263.457
X645.283Y-264.473
X645.283Y-315.781
X645.283Y-316.797
X645.283Y-317.813
T3
X165.174Y-184.076
X166.571Y-182.933
X166.571Y-247.921
X166.571Y-258.371
X167.828Y-259.641
X167.968Y-249.064
X169.111Y-259.359
X184.19Y-280.205
X188.241Y-167.852
X188.415Y-277.02
X188.499Y-217.602
X189.732Y-279.588
X190.959Y-181.911
X190.959Y-186.761
X191.217Y-231.661
X191.217Y-236.511
X193.734Y-184.336
X193.992Y-234.086
X196.509Y-181.911
X196.509Y-186.761
X196.767Y-231.661
X196.767Y-236.511
X200.415Y-164.77
X200.542Y-167.818
X200.773Y-228.154
X201.669Y-160.672
X201.685Y-166.294
X201.927Y-210.422
X202.077Y-227.011
X202.812Y-161.976
X202.828Y-164.77
X202.955Y-167.818
X203.07Y-211.726
X203.401Y-234.769
X203.401Y-237.817
X203.735Y-178.404
X204.925Y-236.293
X205.039Y-177.261
X205.749Y-160.579
X206.449Y-234.769
X206.449Y-237.817
X207.146Y-162.294
X210.341Y-174.054
X210.373Y-178.894
X211.23Y-180.767
X211.23Y-182.267
X211.23Y-360.758
X211.23Y-365.246
X211.317Y-270.294
X211.317Y-277.546
X211.317Y-284.798
X211.416Y-199.311
X211.416Y-205.598
X211.416Y-211.884
X211.416Y-218.171
X211.444Y-323.576
X211.444Y-326.497
X211.486Y-347.523
X211.529Y-343.948
X211.529Y-345.448
X212.449Y-268.646
X212.449Y-286.445
X212.449Y-275.898
X212.46Y-323.576
X212.46Y-330.942
X212.514Y-291.268
X212.514Y-305.772
X212.548Y-198.092
X212.548Y-204.379
X212.548Y-219.39
X212.672Y-366.486
X212.672Y-337.725
X212.95Y-298.52
X213.135Y-183.511
X213.135Y-184.45
X213.135Y-185.612
X213.18Y-257.028
X213.197Y-369.468
X213.434Y-346.691
X213.434Y-347.631
X213.434Y-348.393
X213.646Y-292.915
X213.646Y-307.419
X213.921Y-178.735
X213.921Y-184.45
X213.921Y-185.612
X214.082Y-297.3
X214.22Y-341.916
X214.22Y-347.631
X214.22Y-348.393
X214.24Y-247.341
X214.546Y-363.184
X215.929Y-253.981
X216.272Y-250.389
X216.272Y-251.889
X216.415Y-373.339
X216.531Y-316.797
X216.691Y-178.608
X217.475Y-196.974
X217.758Y-366.486
X217.811Y-228.631
X217.811Y-229.647
X218.022Y-337.979
X218.088Y-181.529
X218.177Y-253.132
X218.177Y-254.072
X218.177Y-254.834
X218.231Y-311.232
X218.419Y-188.542
X218.466Y-192.656
X218.963Y-248.357
X218.963Y-254.072
X218.963Y-254.834
X218.963Y-260.522
X218.963Y-266.391
X218.963Y-313.862
X218.963Y-319.731
X219.197Y-339.154
X219.635Y-313.152
X219.813Y-225.124
X219.943Y-307.041
X219.963Y-266.391
X220.282Y-168.872
X220.344Y-269.771
X220.451Y-186.863
X220.451Y-189.276
X220.451Y-191.689
X220.463Y-222.232
X220.533Y-267.624
X220.533Y-178.132
X220.679Y-173.104
X220.679Y-175.004
X220.864Y-194.102
X220.893Y-312.417
X220.978Y-344.448
X220.978Y-346.885
X220.978Y-349.298
X220.978Y-351.711
X220.981Y-342.043
X221.463Y-313.862
X221.655Y-308.532
X221.733Y-248.23
X221.864Y-160.889
X221.864Y-162.303
X221.893Y-267.624
X222.094Y-304.277
X222.094Y-310.563
X222.094Y-297.99
X222.463Y-260.522
X222.463Y-266.391
X222.463Y-313.862
X222.463Y-319.731
X223.13Y-251.151
X223.225Y-247.754
X223.226Y-303.058
X223.226Y-309.344
X223.226Y-296.771
X223.457Y-164.335
X223.735Y-205.598
X223.735Y-211.884
X223.785Y-172.717
X223.848Y-339.211
X223.888Y-174.59
X223.888Y-176.622
X224.4Y-246.579
X224.867Y-204.379
X225.118Y-325.818
X225.118Y-340.43
X225.655Y-253.945
X225.655Y-257.882
X225.809Y-170.939
X226.071Y-186.863
X226.071Y-189.276
X226.071Y-191.689
X226.071Y-194.102
X226.439Y-344.448
X226.442Y-349.298
X226.442Y-351.711
X226.442Y-342.043
X226.442Y-346.885
X227.141Y-260.206
X227.326Y-290.136
X227.858Y-267.487
X228.122Y-174.59
X228.122Y-176.622
X228.541Y-278.702
X228.546Y-291.268
X228.591Y-249.97
X228.748Y-367.876
X228.833Y-174.538
X228.977Y-271.878
X228.977Y-283.087
X229.2Y-219.303
X229.207Y-198.092
X229.468Y-169.747
X229.673Y-277.482
X229.861Y-236.577
X229.861Y-251.189
X229.941Y-264.2
X230.018Y-369.095
X230.103Y-160.652
X230.109Y-270.23
X230.109Y-284.734
X230.339Y-199.311
X230.419Y-218.171
X230.611Y-162.684
X231.116Y-257.882
X231.116Y-261.438
X231.116Y-253.945
X231.129Y-325.383
X231.129Y-331.883
X232.482Y-339.36
X232.643Y-160.652
X232.643Y-162.684
X232.77Y-164.335
X232.897Y-165.351
X232.897Y-168.526
X233.391Y-236.617
X233.391Y-238.522
X233.752Y-338.141
X233.836Y-326.033
X233.836Y-333.183
X233.881Y-230.685
X234.407Y-237.633
X235.296Y-236.617
X235.296Y-238.522
X235.955Y-322.56
X236.082Y-164.826
X236.082Y-196.322
X236.543Y-260.257
X237.987Y-333.101
X238.205Y-177.719
X238.329Y-325.383
X238.329Y-326.683
X238.329Y-327.983
X238.412Y-338.218
X239.348Y-174.054
X239.38Y-178.894
X239.682Y-334.924
X239.682Y-339.437
X240.237Y-180.767
X240.237Y-182.267
X240.237Y-360.758
X240.237Y-365.246
X240.324Y-270.294
X240.324Y-277.546
X240.324Y-284.798
X240.423Y-199.311
X240.423Y-205.598
X240.423Y-211.884
X240.423Y-218.171
X240.493Y-347.523
X240.536Y-343.948
X240.536Y-345.448
X241.036Y-326.033
X241.036Y-327.333
X241.036Y-328.633
X241.036Y-331.883
X241.036Y-333.183
X241.456Y-286.445
X241.456Y-275.898
X241.456Y-271.941
X241.521Y-291.268
X241.521Y-305.772
X241.555Y-198.092
X241.555Y-204.379
X241.555Y-219.39
X241.679Y-366.486
X241.679Y-337.725
X241.957Y-298.52
X242.142Y-183.511
X242.142Y-184.45
X242.142Y-185.612
X242.204Y-369.468
X242.441Y-346.691
X242.441Y-347.631
X242.441Y-348.393
X242.653Y-292.915
X242.653Y-307.419
X242.769Y-267.726
X242.928Y-178.735
X242.928Y-184.45
X242.928Y-185.612
X243.089Y-297.3
X243.227Y-341.916
X243.227Y-347.631
X243.227Y-348.393
X243.247Y-247.341
X243.553Y-363.184
X244.936Y-253.981
X245.279Y-250.389
X245.279Y-251.889
X245.422Y-373.339
X245.538Y-316.797
X245.698Y-178.608
X246.482Y-196.974
X246.765Y-366.486
X246.812Y-229.647
X246.818Y-228.631
X247.029Y-337.979
X247.095Y-181.529
X247.184Y-253.132
X247.184Y-254.072
X247.184Y-254.834
X247.238Y-311.232
X247.426Y-188.542
X247.828Y-189.481
X247.97Y-248.357
X247.97Y-254.072
X247.97Y-254.834
X247.97Y-260.522
X247.97Y-266.391
X247.97Y-313.862
X247.97Y-319.731
X248.204Y-339.154
X248.299Y-346.885
X248.642Y-313.152
X248.82Y-225.124
X248.95Y-307.041
X248.97Y-266.391
X249.289Y-168.872
X249.351Y-269.771
X249.458Y-186.863
X249.458Y-189.276
X249.458Y-191.689
X249.47Y-222.232
X249.54Y-267.624
X249.54Y-178.132
X249.686Y-173.104
X249.686Y-175.004
X249.871Y-194.102
X249.9Y-312.465
X249.985Y-344.448
X249.985Y-349.298
X249.985Y-351.711
X249.988Y-342.043
X250.169Y-346.885
X250.47Y-313.862
X250.662Y-308.532
X250.74Y-248.23
X250.74Y-259.74
X250.871Y-160.889
X250.871Y-162.303
X250.9Y-267.624
X251.101Y-304.277
X251.101Y-310.563
X251.101Y-297.99
X251.47Y-260.522
X251.47Y-266.391
X251.47Y-313.862
X251.47Y-319.731
X252.137Y-251.151
X252.232Y-247.754
X252.233Y-303.058
X252.233Y-309.344
X252.233Y-296.771
X252.464Y-164.335
X252.742Y-205.598
X252.742Y-211.884
X252.792Y-172.717
X252.855Y-339.211
X252.895Y-174.59
X252.895Y-176.622
X253.407Y-246.579
X253.874Y-204.379
X254.125Y-325.818
X254.125Y-340.43
X254.662Y-253.945
X254.662Y-257.882
X254.816Y-170.939
X255.078Y-186.863
X255.078Y-189.276
X255.078Y-191.689
X255.078Y-194.102
X255.446Y-344.448
X255.449Y-349.298
X255.449Y-351.711
X255.449Y-342.043
X255.449Y-346.885
X256.148Y-260.206
X256.333Y-290.136
X257.129Y-174.59
X257.129Y-176.622
X257.548Y-278.702
X257.553Y-291.268
X257.598Y-249.97
X257.755Y-367.876
X257.84Y-174.538
X257.984Y-271.878
X257.984Y-283.087
X258.123Y-318.81
X258.123Y-319.923
X258.123Y-321.066
X258.123Y-322.209
X258.123Y-323.352
X258.123Y-324.495
X258.123Y-325.638
X258.207Y-219.303
X258.214Y-198.092
X258.475Y-169.747
X258.68Y-277.482
X258.868Y-236.577
X258.868Y-251.189
X258.948Y-262.613
X258.948Y-264.2
X259.025Y-369.095
X259.11Y-160.652
X259.116Y-270.23
X259.116Y-284.734
X259.266Y-326.654
X259.346Y-199.311
X259.426Y-218.171
X259.618Y-162.684
X260.123Y-257.882
X260.123Y-253.945
X261.65Y-160.652
X261.65Y-162.684
X261.777Y-164.335
X261.904Y-165.351
X261.904Y-168.526
X266.705Y-174.054
X266.737Y-178.894
X267.594Y-180.767
X267.594Y-182.267
X267.594Y-360.758
X267.594Y-365.246
X267.681Y-270.294
X267.681Y-277.546
X267.681Y-284.798
X267.78Y-199.311
X267.78Y-205.598
X267.78Y-211.884
X267.78Y-218.171
X267.808Y-323.576
X267.808Y-326.497
X267.85Y-347.523
X267.893Y-343.948
X267.893Y-345.448
X268.813Y-268.646
X268.813Y-286.445
X268.813Y-275.898
X268.824Y-323.576
X268.824Y-330.942
X268.878Y-291.268
X268.878Y-305.772
X268.912Y-198.092
X268.912Y-204.379
X268.912Y-219.39
X269.036Y-366.486
X269.036Y-337.725
X269.314Y-298.52
X269.499Y-183.511
X269.499Y-184.45
X269.499Y-185.612
X269.561Y-369.468
X269.798Y-346.691
X269.798Y-347.631
X269.798Y-348.393
X270.01Y-292.915
X270.01Y-307.419
X270.285Y-178.735
X270.285Y-184.45
X270.285Y-185.612
X270.446Y-297.3
X270.584Y-341.916
X270.584Y-347.631
X270.584Y-348.393
X270.604Y-247.341
X270.909Y-363.184
X272.293Y-253.981
X272.636Y-250.389
X272.636Y-251.889
X272.779Y-373.339
X272.895Y-316.797
X273.055Y-178.608
X273.839Y-196.974
X274.122Y-366.486
X274.175Y-228.631
X274.175Y-229.647
X274.386Y-337.979
X274.452Y-181.529
X274.541Y-253.132
X274.541Y-254.072
X274.541Y-254.834
X274.595Y-311.232
X274.783Y-188.542
X274.83Y-192.656
X275.327Y-248.357
X275.327Y-254.072
X275.327Y-254.834
X275.327Y-260.522
X275.327Y-266.391
X275.327Y-313.862
X275.327Y-319.731
X275.561Y-339.154
X275.999Y-313.152
X276.177Y-225.124
X276.307Y-307.041
X276.327Y-266.391
X276.645Y-168.872
X276.708Y-269.771
X276.815Y-186.863
X276.815Y-189.276
X276.815Y-191.689
X276.827Y-222.232
X276.897Y-267.624
X276.897Y-178.132
X277.043Y-173.104
X277.043Y-175.004
X277.228Y-194.102
X277.257Y-312.417
X277.342Y-344.448
X277.342Y-346.885
X277.342Y-349.298
X277.342Y-351.711
X277.345Y-342.043
X277.827Y-313.862
X278.019Y-308.532
X278.097Y-248.23
X278.228Y-160.889
X278.228Y-162.303
X278.257Y-267.624
X278.458Y-304.277
X278.458Y-310.563
X278.458Y-297.99
X278.827Y-260.522
X278.827Y-266.391
X278.827Y-313.862
X278.827Y-319.731
X279.494Y-251.151
X279.589Y-247.754
X279.59Y-303.058
X279.59Y-309.344
X279.59Y-296.771
X279.82Y-164.335
X280.099Y-205.598
X280.099Y-211.884
X280.149Y-172.717
X280.212Y-339.211
X280.252Y-174.59
X280.252Y-176.622
X280.764Y-246.579
X281.231Y-204.379
X281.482Y-325.818
X281.482Y-340.43
X282.019Y-253.945
X282.019Y-257.882
X282.173Y-170.939
X282.435Y-186.863
X282.435Y-189.276
X282.435Y-191.689
X282.435Y-194.102
X282.803Y-344.448
X282.806Y-349.298
X282.806Y-351.711
X282.806Y-342.043
X282.806Y-346.885
X283.505Y-260.206
X283.69Y-290.136
X284.222Y-267.487
X284.486Y-174.59
X284.486Y-176.622
X284.905Y-278.702
X284.909Y-291.268
X284.955Y-249.97
X285.112Y-367.876
X285.197Y-174.538
X285.341Y-271.878
X285.341Y-283.087
X285.564Y-219.303
X285.571Y-198.092
X285.832Y-169.747
X286.037Y-277.482
X286.225Y-236.577
X286.225Y-251.189
X286.305Y-264.2
X286.382Y-369.095
X286.467Y-160.652
X286.473Y-270.23
X286.473Y-284.734
X286.703Y-199.311
X286.783Y-218.171
X286.975Y-162.684
X287.48Y-257.882
X287.48Y-261.438
X287.48Y-253.945
X287.492Y-325.383
X287.492Y-331.883
X288.846Y-339.36
X289.007Y-160.652
X289.007Y-162.684
X289.134Y-164.335
X289.261Y-165.351
X289.261Y-168.526
X289.755Y-236.617
X289.755Y-238.522
X290.116Y-338.141
X290.2Y-326.033
X290.2Y-333.183
X290.244Y-230.685
X290.771Y-237.633
X291.66Y-236.617
X291.66Y-238.522
X292.319Y-322.56
X292.446Y-164.826
X292.446Y-196.322
X292.907Y-260.257
X294.351Y-333.101
X294.569Y-177.719
X294.692Y-325.383
X294.692Y-326.683
X294.692Y-327.983
X294.776Y-338.218
X295.712Y-174.054
X295.744Y-178.894
X296.046Y-334.924
X296.046Y-339.437
X296.601Y-180.767
X296.601Y-182.267
X296.601Y-360.758
X296.601Y-365.246
X296.688Y-270.294
X296.688Y-277.546
X296.688Y-284.798
X296.787Y-199.311
X296.787Y-205.598
X296.787Y-211.884
X296.787Y-218.171
X296.857Y-347.523
X296.9Y-343.948
X296.9Y-345.448
X297.4Y-326.033
X297.4Y-327.333
X297.4Y-328.633
X297.4Y-331.883
X297.4Y-333.183
X297.82Y-286.445
X297.82Y-275.898
X297.82Y-271.941
X297.885Y-291.268
X297.885Y-305.772
X297.919Y-198.092
X297.919Y-204.379
X297.919Y-219.39
X298.043Y-366.486
X298.043Y-337.725
X298.321Y-298.52
X298.506Y-183.511
X298.506Y-184.45
X298.506Y-185.612
X298.568Y-369.468
X298.805Y-346.691
X298.805Y-347.631
X298.805Y-348.393
X299.017Y-292.915
X299.017Y-307.419
X299.133Y-267.726
X299.292Y-178.735
X299.292Y-184.45
X299.292Y-185.612
X299.453Y-297.3
X299.591Y-341.916
X299.591Y-347.631
X299.591Y-348.393
X299.611Y-247.341
X299.916Y-363.184
X301.3Y-253.981
X301.643Y-250.389
X301.643Y-251.889
X301.786Y-373.339
X301.902Y-316.797
X302.062Y-178.608
X302.846Y-196.974
X303.129Y-366.486
X303.176Y-229.647
X303.182Y-228.631
X303.393Y-337.979
X303.459Y-181.529
X303.548Y-253.132
X303.548Y-254.072
X303.548Y-254.834
X303.602Y-311.232
X303.79Y-188.542
X304.192Y-189.481
X304.334Y-248.357
X304.334Y-254.072
X304.334Y-254.834
X304.334Y-260.522
X304.334Y-266.391
X304.334Y-313.862
X304.334Y-319.731
X304.568Y-339.154
X304.663Y-346.885
X305.006Y-313.152
X305.184Y-225.124
X305.314Y-307.041
X305.334Y-266.391
X305.652Y-168.872
X305.715Y-269.771
X305.822Y-186.863
X305.822Y-189.276
X305.822Y-191.689
X305.834Y-222.232
X305.904Y-267.624
X305.904Y-178.132
X306.05Y-173.104
X306.05Y-175.004
X306.235Y-194.102
X306.264Y-312.465
X306.349Y-344.448
X306.349Y-349.298
X306.349Y-351.711
X306.352Y-342.043
X306.533Y-346.885
X306.834Y-313.862
X307.026Y-308.532
X307.104Y-248.23
X307.104Y-259.74
X307.235Y-160.889
X307.235Y-162.303
X307.264Y-267.624
X307.465Y-304.277
X307.465Y-310.563
X307.465Y-297.99
X307.834Y-260.522
X307.834Y-266.391
X307.834Y-313.862
X307.834Y-319.731
X308.501Y-251.151
X308.596Y-247.754
X308.597Y-303.058
X308.597Y-309.344
X308.597Y-296.771
X308.827Y-164.335
X309.106Y-205.598
X309.106Y-211.884
X309.156Y-172.717
X309.219Y-339.211
X309.259Y-174.59
X309.259Y-176.622
X309.771Y-246.579
X310.238Y-204.379
X310.489Y-325.818
X310.489Y-340.43
X311.026Y-253.945
X311.026Y-257.882
X311.18Y-170.939
X311.442Y-186.863
X311.442Y-189.276
X311.442Y-191.689
X311.442Y-194.102
X311.81Y-344.448
X311.813Y-349.298
X311.813Y-351.711
X311.813Y-342.043
X311.813Y-346.885
X312.512Y-260.206
X312.697Y-290.136
X313.493Y-174.59
X313.493Y-176.622
X313.912Y-278.702
X313.916Y-291.268
X313.962Y-249.97
X314.119Y-367.876
X314.204Y-174.538
X314.348Y-271.878
X314.348Y-283.087
X314.487Y-318.81
X314.487Y-319.923
X314.487Y-321.066
X314.487Y-322.209
X314.487Y-323.352
X314.487Y-324.495
X314.487Y-325.638
X314.571Y-219.303
X314.578Y-198.092
X314.839Y-169.747
X315.044Y-277.482
X315.232Y-236.577
X315.232Y-251.189
X315.312Y-262.613
X315.312Y-264.2
X315.389Y-369.095
X315.474Y-160.652
X315.48Y-270.23
X315.48Y-284.734
X315.63Y-326.654
X315.71Y-199.311
X315.79Y-218.171
X315.982Y-162.684
X316.487Y-257.882
X316.487Y-253.945
X318.014Y-160.652
X318.014Y-162.684
X318.141Y-164.335
X318.268Y-165.351
X318.268Y-168.526
X323.069Y-174.054
X323.101Y-178.894
X323.958Y-180.767
X323.958Y-182.267
X323.958Y-360.758
X323.958Y-365.246
X324.045Y-270.294
X324.045Y-277.546
X324.045Y-284.798
X324.144Y-199.311
X324.144Y-205.598
X324.144Y-211.884
X324.144Y-218.171
X324.172Y-323.576
X324.172Y-326.497
X324.214Y-347.523
X324.257Y-343.948
X324.257Y-345.448
X325.177Y-268.646
X325.177Y-286.445
X325.177Y-275.898
X325.188Y-323.576
X325.188Y-330.942
X325.242Y-291.268
X325.242Y-305.772
X325.276Y-198.092
X325.276Y-204.379
X325.276Y-219.39
X325.4Y-366.486
X325.4Y-337.725
X325.678Y-298.52
X325.863Y-183.511
X325.863Y-184.45
X325.863Y-185.612
X325.925Y-369.468
X326.162Y-346.691
X326.162Y-347.631
X326.162Y-348.393
X326.374Y-292.915
X326.374Y-307.419
X326.649Y-178.735
X326.649Y-184.45
X326.649Y-185.612
X326.81Y-297.3
X326.948Y-341.916
X326.948Y-347.631
X326.948Y-348.393
X326.968Y-247.341
X327.273Y-363.184
X328.657Y-253.981
X329.0Y-250.389
X329.0Y-251.889
X329.143Y-373.339
X329.259Y-316.797
X329.419Y-178.608
X330.203Y-196.974
X330.486Y-366.486
X330.539Y-228.631
X330.539Y-229.647
X330.75Y-337.979
X330.816Y-181.529
X330.905Y-253.132
X330.905Y-254.072
X330.905Y-254.834
X330.959Y-311.232
X331.147Y-188.542
X331.194Y-192.656
X331.691Y-248.357
X331.691Y-254.072
X331.691Y-254.834
X331.691Y-260.522
X331.691Y-266.391
X331.691Y-313.862
X331.691Y-319.731
X331.925Y-339.154
X332.363Y-313.152
X332.541Y-225.124
X332.671Y-307.041
X332.691Y-266.391
X333.009Y-168.872
X333.072Y-269.771
X333.179Y-186.863
X333.179Y-189.276
X333.179Y-191.689
X333.191Y-222.232
X333.261Y-267.624
X333.261Y-178.132
X333.407Y-173.104
X333.407Y-175.004
X333.592Y-194.102
X333.621Y-312.417
X333.706Y-344.448
X333.706Y-346.885
X333.706Y-349.298
X333.706Y-351.711
X333.709Y-342.043
X334.191Y-313.862
X334.383Y-308.532
X334.461Y-248.23
X334.592Y-160.889
X334.592Y-162.303
X334.621Y-267.624
X334.822Y-304.277
X334.822Y-310.563
X334.822Y-297.99
X335.191Y-260.522
X335.191Y-266.391
X335.191Y-313.862
X335.191Y-319.731
X335.858Y-251.151
X335.953Y-247.754
X335.954Y-303.058
X335.954Y-309.344
X335.954Y-296.771
X336.184Y-164.335
X336.463Y-205.598
X336.463Y-211.884
X336.513Y-172.717
X336.576Y-339.211
X336.616Y-174.59
X336.616Y-176.622
X337.128Y-246.579
X337.595Y-204.379
X337.846Y-325.818
X337.846Y-340.43
X338.383Y-253.945
X338.383Y-257.882
X338.537Y-170.939
X338.799Y-186.863
X338.799Y-189.276
X338.799Y-191.689
X338.799Y-194.102
X339.167Y-344.448
X339.17Y-349.298
X339.17Y-351.711
X339.17Y-342.043
X339.17Y-346.885
X339.869Y-260.206
X340.054Y-290.136
X340.586Y-267.487
X340.85Y-174.59
X340.85Y-176.622
X341.269Y-278.702
X341.273Y-291.268
X341.319Y-249.97
X341.476Y-367.876
X341.561Y-174.538
X341.705Y-271.878
X341.705Y-283.087
X341.928Y-219.303
X341.935Y-198.092
X342.196Y-169.747
X342.401Y-277.482
X342.589Y-236.577
X342.589Y-251.189
X342.669Y-264.2
X342.746Y-369.095
X342.831Y-160.652
X342.837Y-270.23
X342.837Y-284.734
X343.067Y-199.311
X343.147Y-218.171
X343.339Y-162.684
X343.844Y-257.882
X343.844Y-261.438
X343.844Y-253.945
X343.856Y-325.383
X343.856Y-331.883
X345.21Y-339.36
X345.371Y-160.652
X345.371Y-162.684
X345.498Y-164.335
X345.625Y-165.351
X345.625Y-168.526
X346.119Y-236.617
X346.119Y-238.522
X346.48Y-338.141
X346.563Y-326.033
X346.563Y-333.183
X346.608Y-230.685
X347.135Y-237.633
X348.024Y-236.617
X348.024Y-238.522
X348.683Y-322.56
X348.81Y-164.826
X348.81Y-196.322
X349.271Y-260.257
X350.715Y-333.101
X350.933Y-177.719
X351.056Y-325.383
X351.056Y-326.683
X351.056Y-327.983
X351.14Y-338.218
X352.076Y-174.054
X352.108Y-178.894
X352.41Y-334.924
X352.41Y-339.437
X352.965Y-180.767
X352.965Y-182.267
X352.965Y-360.758
X352.965Y-365.246
X353.052Y-270.294
X353.052Y-277.546
X353.052Y-284.798
X353.151Y-199.311
X353.151Y-205.598
X353.151Y-211.884
X353.151Y-218.171
X353.221Y-347.523
X353.264Y-343.948
X353.264Y-345.448
X353.763Y-326.033
X353.763Y-327.333
X353.763Y-328.633
X353.763Y-331.883
X353.763Y-333.183
X354.184Y-286.445
X354.184Y-275.898
X354.184Y-271.941
X354.249Y-291.268
X354.249Y-305.772
X354.283Y-198.092
X354.283Y-204.379
X354.283Y-219.39
X354.407Y-366.486
X354.407Y-337.725
X354.685Y-298.52
X354.87Y-183.511
X354.87Y-184.45
X354.87Y-185.612
X354.932Y-369.468
X355.169Y-346.691
X355.169Y-347.631
X355.169Y-348.393
X355.381Y-292.915
X355.381Y-307.419
X355.496Y-267.726
X355.656Y-178.735
X355.656Y-184.45
X355.656Y-185.612
X355.817Y-297.3
X355.955Y-341.916
X355.955Y-347.631
X355.955Y-348.393
X355.975Y-247.341
X356.28Y-363.184
X357.664Y-253.981
X358.007Y-250.389
X358.007Y-251.889
X358.15Y-373.339
X358.266Y-316.797
X358.426Y-178.608
X359.21Y-196.974
X359.493Y-366.486
X359.54Y-229.647
X359.546Y-228.631
X359.757Y-337.979
X359.823Y-181.529
X359.912Y-253.132
X359.912Y-254.072
X359.912Y-254.834
X359.966Y-311.232
X360.154Y-188.542
X360.556Y-189.481
X360.698Y-248.357
X360.698Y-254.072
X360.698Y-254.834
X360.698Y-260.522
X360.698Y-266.391
X360.698Y-313.862
X360.698Y-319.731
X360.932Y-339.154
X361.027Y-346.885
X361.37Y-313.152
X361.548Y-225.124
X361.678Y-307.041
X361.698Y-266.391
X362.016Y-168.872
X362.079Y-269.771
X362.186Y-186.863
X362.186Y-189.276
X362.186Y-191.689
X362.198Y-222.232
X362.268Y-267.624
X362.268Y-178.132
X362.414Y-173.104
X362.414Y-175.004
X362.599Y-194.102
X362.628Y-312.465
X362.713Y-344.448
X362.713Y-349.298
X362.713Y-351.711
X362.716Y-342.043
X362.897Y-346.885
X363.198Y-313.862
X363.39Y-308.532
X363.468Y-248.23
X363.468Y-259.74
X363.599Y-160.889
X363.599Y-162.303
X363.628Y-267.624
X363.829Y-304.277
X363.829Y-310.563
X363.829Y-297.99
X364.198Y-260.522
X364.198Y-266.391
X364.198Y-313.862
X364.198Y-319.731
X364.865Y-251.151
X364.96Y-247.754
X364.961Y-303.058
X364.961Y-309.344
X364.961Y-296.771
X365.191Y-164.335
X365.47Y-205.598
X365.47Y-211.884
X365.52Y-172.717
X365.583Y-339.211
X365.623Y-174.59
X365.623Y-176.622
X366.135Y-246.579
X366.602Y-204.379
X366.853Y-325.818
X366.853Y-340.43
X367.39Y-253.945
X367.39Y-257.882
X367.544Y-170.939
X367.806Y-186.863
X367.806Y-189.276
X367.806Y-191.689
X367.806Y-194.102
X368.174Y-344.448
X368.177Y-349.298
X368.177Y-351.711
X368.177Y-342.043
X368.177Y-346.885
X368.876Y-260.206
X369.061Y-290.136
X369.857Y-174.59
X369.857Y-176.622
X370.276Y-278.702
X370.28Y-291.268
X370.326Y-249.97
X370.483Y-367.876
X370.568Y-174.538
X370.712Y-271.878
X370.712Y-283.087
X370.851Y-318.81
X370.851Y-319.923
X370.851Y-321.066
X370.851Y-322.209
X370.851Y-323.352
X370.851Y-324.495
X370.851Y-325.638
X370.935Y-219.303
X370.942Y-198.092
X371.203Y-169.747
X371.408Y-277.482
X371.596Y-236.577
X371.596Y-251.189
X371.676Y-262.613
X371.676Y-264.2
X371.753Y-369.095
X371.838Y-160.652
X371.844Y-270.23
X371.844Y-284.734
X371.994Y-326.654
X372.074Y-199.311
X372.154Y-218.171
X372.346Y-162.684
X372.851Y-257.882
X372.851Y-253.945
X374.378Y-160.652
X374.378Y-162.684
X374.505Y-164.335
X374.632Y-165.351
X374.632Y-168.526
X379.433Y-174.054
X379.465Y-178.894
X380.322Y-180.767
X380.322Y-182.267
X380.322Y-360.758
X380.322Y-365.246
X380.409Y-270.294
X380.409Y-277.546
X380.409Y-284.798
X380.508Y-199.311
X380.508Y-205.598
X380.508Y-211.884
X380.508Y-218.171
X380.536Y-323.576
X380.536Y-326.497
X380.578Y-347.523
X380.621Y-343.948
X380.621Y-345.448
X381.541Y-268.646
X381.541Y-286.445
X381.541Y-275.898
X381.552Y-323.576
X381.552Y-330.942
X381.606Y-291.268
X381.606Y-305.772
X381.64Y-198.092
X381.64Y-204.379
X381.64Y-219.39
X381.764Y-366.486
X381.764Y-337.725
X382.042Y-298.52
X382.227Y-183.511
X382.227Y-184.45
X382.227Y-185.612
X382.289Y-369.468
X382.526Y-346.691
X382.526Y-347.631
X382.526Y-348.393
X382.738Y-292.915
X382.738Y-307.419
X383.013Y-178.735
X383.013Y-184.45
X383.013Y-185.612
X383.174Y-297.3
X383.312Y-341.916
X383.312Y-347.631
X383.312Y-348.393
X383.332Y-247.341
X383.637Y-363.184
X385.021Y-253.981
X385.364Y-250.389
X385.364Y-251.889
X385.507Y-373.339
X385.622Y-316.797
X385.783Y-178.608
X386.567Y-196.974
X386.85Y-366.486
X386.903Y-228.631
X386.903Y-229.647
X387.114Y-337.979
X387.18Y-181.529
X387.269Y-253.132
X387.269Y-254.072
X387.269Y-254.834
X387.323Y-311.232
X387.511Y-188.542
X387.557Y-192.656
X388.055Y-248.357
X388.055Y-254.072
X388.055Y-254.834
X388.055Y-260.522
X388.055Y-266.391
X388.055Y-313.862
X388.055Y-319.731
X388.289Y-339.154
X388.727Y-313.152
X388.905Y-225.124
X389.035Y-307.041
X389.055Y-266.391
X389.373Y-168.872
X389.436Y-269.771
X389.543Y-186.863
X389.543Y-189.276
X389.543Y-191.689
X389.555Y-222.232
X389.625Y-267.624
X389.625Y-178.132
X389.771Y-173.104
X389.771Y-175.004
X389.956Y-194.102
X389.985Y-312.417
X390.07Y-344.448
X390.07Y-346.885
X390.07Y-349.298
X390.07Y-351.711
X390.073Y-342.043
X390.555Y-313.862
X390.747Y-308.532
X390.825Y-248.23
X390.956Y-160.889
X390.956Y-162.303
X390.985Y-267.624
X391.186Y-304.277
X391.186Y-310.563
X391.186Y-297.99
X391.555Y-260.522
X391.555Y-266.391
X391.555Y-313.862
X391.555Y-319.731
X392.222Y-251.151
X392.317Y-247.754
X392.318Y-303.058
X392.318Y-309.344
X392.318Y-296.771
X392.548Y-164.335
X392.827Y-205.598
X392.827Y-211.884
X392.877Y-172.717
X392.94Y-339.211
X392.98Y-174.59
X392.98Y-176.622
X393.492Y-246.579
X393.959Y-204.379
X394.21Y-325.818
X394.21Y-340.43
X394.747Y-253.945
X394.747Y-257.882
X394.901Y-170.939
X395.163Y-186.863
X395.163Y-189.276
X395.163Y-191.689
X395.163Y-194.102
X395.531Y-344.448
X395.534Y-349.298
X395.534Y-351.711
X395.534Y-342.043
X395.534Y-346.885
X396.233Y-260.206
X396.418Y-290.136
X396.95Y-267.487
X397.214Y-174.59
X397.214Y-176.622
X397.633Y-278.702
X397.637Y-291.268
X397.683Y-249.97
X397.84Y-367.876
X397.925Y-174.538
X398.069Y-271.878
X398.069Y-283.087
X398.291Y-219.303
X398.299Y-198.092
X398.56Y-169.747
X398.765Y-277.482
X398.953Y-236.577
X398.953Y-251.189
X399.033Y-264.2
X399.11Y-369.095
X399.195Y-160.652
X399.201Y-270.23
X399.201Y-284.734
X399.431Y-199.311
X399.511Y-218.171
X399.703Y-162.684
X400.208Y-257.882
X400.208Y-261.438
X400.208Y-253.945
X400.22Y-325.383
X400.22Y-331.883
X401.574Y-339.36
X401.735Y-160.652
X401.735Y-162.684
X401.862Y-164.335
X401.989Y-165.351
X401.989Y-168.526
X402.483Y-236.617
X402.483Y-238.522
X402.844Y-338.141
X402.927Y-326.033
X402.927Y-333.183
X402.972Y-230.685
X403.499Y-237.633
X404.388Y-236.617
X404.388Y-238.522
X405.047Y-322.56
X405.174Y-164.826
X405.174Y-196.322
X405.635Y-260.257
X407.079Y-333.101
X407.297Y-177.719
X407.42Y-325.383
X407.42Y-326.683
X407.42Y-327.983
X407.504Y-338.218
X408.44Y-174.054
X408.472Y-178.894
X408.774Y-334.924
X408.774Y-339.437
X409.329Y-180.767
X409.329Y-182.267
X409.329Y-360.758
X409.329Y-365.246
X409.416Y-270.294
X409.416Y-277.546
X409.416Y-284.798
X409.515Y-199.311
X409.515Y-205.598
X409.515Y-211.884
X409.515Y-218.171
X409.585Y-347.523
X409.628Y-343.948
X409.628Y-345.448
X410.127Y-326.033
X410.127Y-327.333
X410.127Y-328.633
X410.127Y-331.883
X410.127Y-333.183
X410.548Y-286.445
X410.548Y-275.898
X410.548Y-271.941
X410.613Y-291.268
X410.613Y-305.772
X410.647Y-198.092
X410.647Y-204.379
X410.647Y-219.39
X410.771Y-366.486
X410.771Y-337.725
X411.049Y-298.52
X411.234Y-183.511
X411.234Y-184.45
X411.234Y-185.612
X411.296Y-369.468
X411.533Y-346.691
X411.533Y-347.631
X411.533Y-348.393
X411.745Y-292.915
X411.745Y-307.419
X411.86Y-267.726
X412.02Y-178.735
X412.02Y-184.45
X412.02Y-185.612
X412.181Y-297.3
X412.319Y-341.916
X412.319Y-347.631
X412.319Y-348.393
X412.339Y-247.341
X412.644Y-363.184
X414.028Y-253.981
X414.371Y-250.389
X414.371Y-251.889
X414.514Y-373.339
X414.629Y-316.797
X414.79Y-178.608
X415.574Y-196.974
X415.857Y-366.486
X415.904Y-229.647
X415.91Y-228.631
X416.121Y-337.979
X416.187Y-181.529
X416.276Y-253.132
X416.276Y-254.072
X416.276Y-254.834
X416.33Y-311.232
X416.518Y-188.542
X416.92Y-189.481
X417.062Y-248.357
X417.062Y-254.072
X417.062Y-254.834
X417.062Y-260.522
X417.062Y-266.391
X417.062Y-313.862
X417.062Y-319.731
X417.296Y-339.154
X417.391Y-346.885
X417.734Y-313.152
X417.912Y-225.124
X418.042Y-307.041
X418.062Y-266.391
X418.38Y-168.872
X418.443Y-269.771
X418.55Y-186.863
X418.55Y-189.276
X418.55Y-191.689
X418.562Y-222.232
X418.632Y-267.624
X418.632Y-178.132
X418.778Y-173.104
X418.778Y-175.004
X418.963Y-194.102
X418.992Y-312.465
X419.077Y-344.448
X419.077Y-349.298
X419.077Y-351.711
X419.08Y-342.043
X419.261Y-346.885
X419.562Y-313.862
X419.754Y-308.532
X419.832Y-248.23
X419.832Y-259.74
X419.963Y-160.889
X419.963Y-162.303
X419.992Y-267.624
X420.193Y-304.277
X420.193Y-310.563
X420.193Y-297.99
X420.562Y-260.522
X420.562Y-266.391
X420.562Y-313.862
X420.562Y-319.731
X421.229Y-251.151
X421.324Y-247.754
X421.325Y-303.058
X421.325Y-309.344
X421.325Y-296.771
X421.555Y-164.335
X421.834Y-205.598
X421.834Y-211.884
X421.884Y-172.717
X421.947Y-339.211
X421.987Y-174.59
X421.987Y-176.622
X422.499Y-246.579
X422.966Y-204.379
X423.217Y-325.818
X423.217Y-340.43
X423.754Y-253.945
X423.754Y-257.882
X423.908Y-170.939
X424.17Y-186.863
X424.17Y-189.276
X424.17Y-191.689
X424.17Y-194.102
X424.538Y-344.448
X424.541Y-349.298
X424.541Y-351.711
X424.541Y-342.043
X424.541Y-346.885
X425.24Y-260.206
X425.425Y-290.136
X426.221Y-174.59
X426.221Y-176.622
X426.64Y-278.702
X426.644Y-291.268
X426.69Y-249.97
X426.847Y-367.876
X426.932Y-174.538
X427.076Y-271.878
X427.076Y-283.087
X427.215Y-318.81
X427.215Y-319.923
X427.215Y-321.066
X427.215Y-322.209
X427.215Y-323.352
X427.215Y-324.495
X427.215Y-325.638
X427.298Y-219.303
X427.306Y-198.092
X427.567Y-169.747
X427.772Y-277.482
X427.96Y-236.577
X427.96Y-251.189
X428.04Y-262.613
X428.04Y-264.2
X428.117Y-369.095
X428.202Y-160.652
X428.208Y-270.23
X428.208Y-284.734
X428.358Y-326.654
X428.438Y-199.311
X428.518Y-218.171
X428.71Y-162.684
X429.215Y-257.882
X429.215Y-253.945
X430.742Y-160.652
X430.742Y-162.684
X430.869Y-164.335
X430.996Y-165.351
X430.996Y-168.526
X435.797Y-174.054
X435.829Y-178.894
X436.686Y-180.767
X436.686Y-182.267
X436.686Y-360.758
X436.686Y-365.246
X436.773Y-270.294
X436.773Y-277.546
X436.773Y-284.798
X436.872Y-199.311
X436.872Y-205.598
X436.872Y-211.884
X436.872Y-218.171
X436.9Y-323.576
X436.9Y-326.497
X436.942Y-347.523
X436.985Y-343.948
X436.985Y-345.448
X437.905Y-268.646
X437.905Y-286.445
X437.905Y-275.898
X437.916Y-323.576
X437.916Y-330.942
X437.97Y-291.268
X437.97Y-305.772
X438.004Y-198.092
X438.004Y-204.379
X438.004Y-219.39
X438.127Y-366.486
X438.128Y-337.725
X438.406Y-298.52
X438.591Y-183.511
X438.591Y-184.45
X438.591Y-185.612
X438.652Y-369.468
X438.89Y-346.691
X438.89Y-347.631
X438.89Y-348.393
X439.102Y-292.915
X439.102Y-307.419
X439.377Y-178.735
X439.377Y-184.45
X439.377Y-185.612
X439.538Y-297.3
X439.676Y-341.916
X439.676Y-347.631
X439.676Y-348.393
X439.696Y-247.341
X440.001Y-363.184
X441.385Y-253.981
X441.728Y-250.389
X441.728Y-251.889
X441.87Y-373.339
X441.986Y-316.797
X442.147Y-178.608
X442.93Y-196.974
X443.213Y-366.486
X443.267Y-228.631
X443.267Y-229.647
X443.478Y-337.979
X443.544Y-181.529
X443.633Y-253.132
X443.633Y-254.072
X443.633Y-254.834
X443.687Y-311.232
X443.875Y-188.542
X443.921Y-192.656
X444.419Y-248.357
X444.419Y-254.072
X444.419Y-254.834
X444.419Y-260.522
X444.419Y-266.391
X444.419Y-313.862
X444.419Y-319.731
X444.653Y-339.154
X445.091Y-313.152
X445.269Y-225.124
X445.399Y-307.041
X445.419Y-266.391
X445.737Y-168.872
X445.8Y-269.771
X445.907Y-186.863
X445.907Y-189.276
X445.907Y-191.689
X445.919Y-222.232
X445.989Y-267.624
X445.989Y-178.132
X446.135Y-173.104
X446.135Y-175.004
X446.32Y-194.102
X446.349Y-312.417
X446.434Y-344.448
X446.434Y-346.885
X446.434Y-349.298
X446.434Y-351.711
X446.437Y-342.043
X446.919Y-313.862
X447.111Y-308.532
X447.189Y-248.23
X447.32Y-160.889
X447.32Y-162.303
X447.349Y-267.624
X447.55Y-304.277
X447.55Y-310.563
X447.55Y-297.99
X447.919Y-260.522
X447.919Y-266.391
X447.919Y-313.862
X447.919Y-319.731
X448.586Y-251.151
X448.681Y-247.754
X448.682Y-303.058
X448.682Y-309.344
X448.682Y-296.771
X448.912Y-164.335
X449.191Y-205.598
X449.191Y-211.884
X449.241Y-172.717
X449.304Y-339.211
X449.344Y-174.59
X449.344Y-176.622
X449.856Y-246.579
X450.323Y-204.379
X450.574Y-325.818
X450.574Y-340.43
X451.111Y-253.945
X451.111Y-257.882
X451.265Y-170.939
X451.527Y-186.863
X451.527Y-189.276
X451.527Y-191.689
X451.527Y-194.102
X451.895Y-344.448
X451.898Y-349.298
X451.898Y-351.711
X451.898Y-342.043
X451.898Y-346.885
X452.597Y-260.206
X452.782Y-290.136
X453.314Y-267.487
X453.578Y-174.59
X453.578Y-176.622
X453.997Y-278.702
X454.001Y-291.268
X454.047Y-249.97
X454.204Y-367.876
X454.289Y-174.538
X454.433Y-271.878
X454.433Y-283.087
X454.655Y-219.303
X454.663Y-198.092
X454.924Y-169.747
X455.129Y-277.482
X455.317Y-236.577
X455.317Y-251.189
X455.397Y-264.2
X455.474Y-369.095
X455.559Y-160.652
X455.565Y-270.23
X455.565Y-284.734
X455.795Y-199.311
X455.874Y-218.171
X456.067Y-162.684
X456.572Y-257.882
X456.572Y-261.438
X456.572Y-253.945
X456.584Y-325.383
X456.584Y-331.883
X457.938Y-339.36
X458.099Y-160.652
X458.099Y-162.684
X458.226Y-164.335
X458.353Y-165.351
X458.353Y-168.526
X458.847Y-236.617
X458.847Y-238.522
X459.208Y-338.141
X459.291Y-326.033
X459.291Y-333.183
X459.336Y-230.685
X459.863Y-237.633
X460.752Y-236.617
X460.752Y-238.522
X461.411Y-322.56
X461.538Y-164.826
X461.538Y-196.322
X461.999Y-260.257
X463.443Y-333.101
X463.661Y-177.719
X463.784Y-325.383
X463.784Y-326.683
X463.784Y-327.983
X463.868Y-338.218
X464.804Y-174.054
X464.836Y-178.894
X465.138Y-334.924
X465.138Y-339.437
X465.693Y-180.767
X465.693Y-182.267
X465.693Y-360.758
X465.693Y-365.246
X465.78Y-270.294
X465.78Y-277.546
X465.78Y-284.798
X465.879Y-199.311
X465.879Y-205.598
X465.879Y-211.884
X465.879Y-218.171
X465.949Y-347.523
X465.992Y-343.948
X465.992Y-345.448
X466.491Y-326.033
X466.491Y-327.333
X466.491Y-328.633
X466.491Y-331.883
X466.491Y-333.183
X466.912Y-286.445
X466.912Y-275.898
X466.912Y-271.941
X466.977Y-291.268
X466.977Y-305.772
X467.011Y-198.092
X467.011Y-204.379
X467.011Y-219.39
X467.134Y-366.486
X467.135Y-337.725
X467.413Y-298.52
X467.598Y-183.511
X467.598Y-184.45
X467.598Y-185.612
X467.659Y-369.468
X467.897Y-346.691
X467.897Y-347.631
X467.897Y-348.393
X468.109Y-292.915
X468.109Y-307.419
X468.224Y-267.726
X468.384Y-178.735
X468.384Y-184.45
X468.384Y-185.612
X468.545Y-297.3
X468.683Y-341.916
X468.683Y-347.631
X468.683Y-348.393
X468.703Y-247.341
X469.008Y-363.184
X470.392Y-253.981
X470.735Y-250.389
X470.735Y-251.889
X470.877Y-373.339
X470.993Y-316.797
X471.154Y-178.608
X471.937Y-196.974
X472.22Y-366.486
X472.268Y-229.647
X472.274Y-228.631
X472.485Y-337.979
X472.551Y-181.529
X472.64Y-253.132
X472.64Y-254.072
X472.64Y-254.834
X472.694Y-311.232
X472.882Y-188.542
X473.284Y-189.481
X473.426Y-248.357
X473.426Y-254.072
X473.426Y-254.834
X473.426Y-260.522
X473.426Y-266.391
X473.426Y-313.862
X473.426Y-319.731
X473.66Y-339.154
X473.755Y-346.885
X474.098Y-313.152
X474.276Y-225.124
X474.406Y-307.041
X474.426Y-266.391
X474.744Y-168.872
X474.807Y-269.771
X474.914Y-186.863
X474.914Y-189.276
X474.914Y-191.689
X474.926Y-222.232
X474.996Y-267.624
X474.996Y-178.132
X475.142Y-173.104
X475.142Y-175.004
X475.327Y-194.102
X475.356Y-312.465
X475.441Y-344.448
X475.441Y-349.298
X475.441Y-351.711
X475.444Y-342.043
X475.625Y-346.885
X475.926Y-313.862
X476.118Y-308.532
X476.196Y-248.23
X476.196Y-259.74
X476.327Y-160.889
X476.327Y-162.303
X476.356Y-267.624
X476.557Y-304.277
X476.557Y-310.563
X476.557Y-297.99
X476.926Y-260.522
X476.926Y-266.391
X476.926Y-313.862
X476.926Y-319.731
X477.593Y-251.151
X477.688Y-247.754
X477.689Y-303.058
X477.689Y-309.344
X477.689Y-296.771
X477.919Y-164.335
X478.198Y-205.598
X478.198Y-211.884
X478.248Y-172.717
X478.311Y-339.211
X478.351Y-174.59
X478.351Y-176.622
X478.863Y-246.579
X479.33Y-204.379
X479.581Y-325.818
X479.581Y-340.43
X480.118Y-253.945
X480.118Y-257.882
X480.272Y-170.939
X480.534Y-186.863
X480.534Y-189.276
X480.534Y-191.689
X480.534Y-194.102
X480.902Y-344.448
X480.905Y-349.298
X480.905Y-351.711
X480.905Y-342.043
X480.905Y-346.885
X481.604Y-260.206
X481.789Y-290.136
X482.585Y-174.59
X482.585Y-176.622
X483.004Y-278.702
X483.008Y-291.268
X483.054Y-249.97
X483.211Y-367.876
X483.296Y-174.538
X483.44Y-271.878
X483.44Y-283.087
X483.579Y-318.81
X483.579Y-319.923
X483.579Y-321.066
X483.579Y-322.209
X483.579Y-323.352
X483.579Y-324.495
X483.579Y-325.638
X483.662Y-219.303
X483.67Y-198.092
X483.931Y-169.747
X484.136Y-277.482
X484.324Y-236.577
X484.324Y-251.189
X484.404Y-262.613
X484.404Y-264.2
X484.481Y-369.095
X484.566Y-160.652
X484.572Y-270.23
X484.572Y-284.734
X484.722Y-326.654
X484.802Y-199.311
X484.881Y-218.171
X485.074Y-162.684
X485.579Y-257.882
X485.579Y-253.945
X487.106Y-160.652
X487.106Y-162.684
X487.233Y-164.335
X487.36Y-165.351
X487.36Y-168.526
X492.161Y-174.054
X492.193Y-178.894
X493.05Y-180.767
X493.05Y-182.267
X493.05Y-360.758
X493.05Y-365.246
X493.137Y-270.294
X493.137Y-277.546
X493.137Y-284.798
X493.236Y-199.311
X493.236Y-205.598
X493.236Y-211.884
X493.236Y-218.171
X493.263Y-323.576
X493.263Y-326.497
X493.306Y-347.523
X493.349Y-343.948
X493.349Y-345.448
X494.269Y-268.646
X494.269Y-286.445
X494.269Y-275.898
X494.279Y-323.576
X494.279Y-330.942
X494.334Y-291.268
X494.334Y-305.772
X494.368Y-198.092
X494.368Y-204.379
X494.368Y-219.39
X494.491Y-366.486
X494.492Y-337.725
X494.77Y-298.52
X494.955Y-183.511
X494.955Y-184.45
X494.955Y-185.612
X495.016Y-369.468
X495.254Y-346.691
X495.254Y-347.631
X495.254Y-348.393
X495.466Y-292.915
X495.466Y-307.419
X495.741Y-178.735
X495.741Y-184.45
X495.741Y-185.612
X495.902Y-297.3
X496.04Y-341.916
X496.04Y-347.631
X496.04Y-348.393
X496.06Y-247.341
X496.365Y-363.184
X497.749Y-253.981
X498.092Y-250.389
X498.092Y-251.889
X498.234Y-373.339
X498.35Y-316.797
X498.511Y-178.608
X499.294Y-196.974
X499.577Y-366.486
X499.631Y-228.631
X499.631Y-229.647
X499.842Y-337.979
X499.908Y-181.529
X499.997Y-253.132
X499.997Y-254.072
X499.997Y-254.834
X500.051Y-311.232
X500.239Y-188.542
X500.285Y-192.656
X500.783Y-248.357
X500.783Y-254.072
X500.783Y-254.834
X500.783Y-260.522
X500.783Y-266.391
X500.783Y-313.862
X500.783Y-319.731
X501.017Y-339.154
X501.455Y-313.152
X501.633Y-225.124
X501.763Y-307.041
X501.783Y-266.391
X502.101Y-168.872
X502.164Y-269.771
X502.271Y-186.863
X502.271Y-189.276
X502.271Y-191.689
X502.283Y-222.232
X502.352Y-267.624
X502.353Y-178.132
X502.498Y-173.104
X502.498Y-175.004
X502.684Y-194.102
X502.713Y-312.417
X502.798Y-344.448
X502.798Y-346.885
X502.798Y-349.298
X502.798Y-351.711
X502.801Y-342.043
X503.283Y-313.862
X503.475Y-308.532
X503.553Y-248.23
X503.684Y-160.889
X503.684Y-162.303
X503.713Y-267.624
X503.914Y-304.277
X503.914Y-310.563
X503.914Y-297.99
X504.283Y-260.522
X504.283Y-266.391
X504.283Y-313.862
X504.283Y-319.731
X504.95Y-251.151
X505.045Y-247.754
X505.046Y-303.058
X505.046Y-309.344
X505.046Y-296.771
X505.276Y-164.335
X505.555Y-205.598
X505.555Y-211.884
X505.605Y-172.717
X505.668Y-339.211
X505.708Y-174.59
X505.708Y-176.622
X506.22Y-246.579
X506.687Y-204.379
X506.938Y-325.818
X506.938Y-340.43
X507.475Y-253.945
X507.475Y-257.882
X507.629Y-170.939
X507.891Y-186.863
X507.891Y-189.276
X507.891Y-191.689
X507.891Y-194.102
X508.259Y-344.448
X508.262Y-349.298
X508.262Y-351.711
X508.262Y-342.043
X508.262Y-346.885
X508.961Y-260.206
X509.146Y-290.136
X509.678Y-267.487
X509.942Y-174.59
X509.942Y-176.622
X510.361Y-278.702
X510.365Y-291.268
X510.411Y-249.97
X510.568Y-367.876
X510.653Y-174.538
X510.797Y-271.878
X510.797Y-283.087
X511.019Y-219.303
X511.027Y-198.092
X511.288Y-169.747
X511.493Y-277.482
X511.681Y-236.577
X511.681Y-251.189
X511.761Y-264.2
X511.838Y-369.095
X511.923Y-160.652
X511.929Y-270.23
X511.929Y-284.734
X512.159Y-199.311
X512.238Y-218.171
X512.431Y-162.684
X512.936Y-257.882
X512.936Y-261.438
X512.936Y-253.945
X512.948Y-325.383
X512.948Y-331.883
X514.301Y-339.36
X514.463Y-160.652
X514.463Y-162.684
X514.59Y-164.335
X514.717Y-165.351
X514.717Y-168.526
X515.211Y-236.617
X515.211Y-238.522
X515.571Y-338.141
X515.655Y-326.033
X515.655Y-333.183
X515.7Y-230.685
X516.227Y-237.633
X517.116Y-236.617
X517.116Y-238.522
X517.774Y-322.56
X517.901Y-164.826
X517.901Y-196.322
X518.362Y-260.257
X519.806Y-333.101
X520.025Y-177.719
X520.148Y-325.383
X520.148Y-326.683
X520.148Y-327.983
X520.231Y-338.218
X521.168Y-174.054
X521.2Y-178.894
X521.501Y-334.924
X521.501Y-339.437
X522.057Y-180.767
X522.057Y-182.267
X522.057Y-360.758
X522.057Y-365.246
X522.144Y-270.294
X522.144Y-277.546
X522.144Y-284.798
X522.243Y-199.311
X522.243Y-205.598
X522.243Y-211.884
X522.243Y-218.171
X522.313Y-347.523
X522.356Y-343.948
X522.356Y-345.448
X522.855Y-326.033
X522.855Y-327.333
X522.855Y-328.633
X522.855Y-331.883
X522.855Y-333.183
X523.276Y-286.445
X523.276Y-275.898
X523.276Y-271.941
X523.341Y-291.268
X523.341Y-305.772
X523.375Y-198.092
X523.375Y-204.379
X523.375Y-219.39
X523.498Y-366.486
X523.499Y-337.725
X523.777Y-298.52
X523.962Y-183.511
X523.962Y-184.45
X523.962Y-185.612
X524.023Y-369.468
X524.261Y-346.691
X524.261Y-347.631
X524.261Y-348.393
X524.473Y-292.915
X524.473Y-307.419
X524.588Y-267.726
X524.748Y-178.735
X524.748Y-184.45
X524.748Y-185.612
X524.909Y-297.3
X525.047Y-341.916
X525.047Y-347.631
X525.047Y-348.393
X525.067Y-247.341
X525.372Y-363.184
X526.756Y-253.981
X527.099Y-250.389
X527.099Y-251.889
X527.241Y-373.339
X527.357Y-316.797
X527.518Y-178.608
X528.301Y-196.974
X528.584Y-366.486
X528.631Y-229.647
X528.638Y-228.631
X528.849Y-337.979
X528.915Y-181.529
X529.004Y-253.132
X529.004Y-254.072
X529.004Y-254.834
X529.058Y-311.232
X529.246Y-188.542
X529.647Y-189.481
X529.79Y-248.357
X529.79Y-254.072
X529.79Y-254.834
X529.79Y-260.522
X529.79Y-266.391
X529.79Y-313.862
X529.79Y-319.731
X530.024Y-339.154
X530.119Y-346.885
X530.462Y-313.152
X530.64Y-225.124
X530.77Y-307.041
X530.79Y-266.391
X531.108Y-168.872
X531.171Y-269.771
X531.278Y-186.863
X531.278Y-189.276
X531.278Y-191.689
X531.29Y-222.232
X531.359Y-267.624
X531.36Y-178.132
X531.505Y-173.104
X531.505Y-175.004
X531.691Y-194.102
X531.72Y-312.465
X531.805Y-344.448
X531.805Y-349.298
X531.805Y-351.711
X531.808Y-342.043
X531.989Y-346.885
X532.29Y-313.862
X532.482Y-308.532
X532.56Y-248.23
X532.56Y-259.74
X532.691Y-160.889
X532.691Y-162.303
X532.72Y-267.624
X532.921Y-304.277
X532.921Y-310.563
X532.921Y-297.99
X533.29Y-260.522
X533.29Y-266.391
X533.29Y-313.862
X533.29Y-319.731
X533.957Y-251.151
X534.052Y-247.754
X534.053Y-303.058
X534.053Y-309.344
X534.053Y-296.771
X534.283Y-164.335
X534.562Y-205.598
X534.562Y-211.884
X534.612Y-172.717
X534.675Y-339.211
X534.715Y-174.59
X534.715Y-176.622
X535.227Y-246.579
X535.694Y-204.379
X535.945Y-325.818
X535.945Y-340.43
X536.482Y-253.945
X536.482Y-257.882
X536.636Y-170.939
X536.898Y-186.863
X536.898Y-189.276
X536.898Y-191.689
X536.898Y-194.102
X537.266Y-344.448
X537.269Y-349.298
X537.269Y-351.711
X537.269Y-342.043
X537.269Y-346.885
X537.968Y-260.206
X538.153Y-290.136
X538.949Y-174.59
X538.949Y-176.622
X539.368Y-278.702
X539.372Y-291.268
X539.418Y-249.97
X539.575Y-367.876
X539.66Y-174.538
X539.804Y-271.878
X539.804Y-283.087
X539.943Y-318.81
X539.943Y-319.923
X539.943Y-321.066
X539.943Y-322.209
X539.943Y-323.352
X539.943Y-324.495
X539.943Y-325.638
X540.026Y-219.303
X540.034Y-198.092
X540.295Y-169.747
X540.5Y-277.482
X540.688Y-236.577
X540.688Y-251.189
X540.768Y-262.613
X540.768Y-264.2
X540.845Y-369.095
X540.93Y-160.652
X540.936Y-270.23
X540.936Y-284.734
X541.086Y-326.654
X541.166Y-199.311
X541.245Y-218.171
X541.438Y-162.684
X541.943Y-257.882
X541.943Y-253.945
X543.47Y-160.652
X543.47Y-162.684
X543.597Y-164.335
X543.724Y-165.351
X543.724Y-168.526
X548.524Y-174.054
X548.556Y-178.894
X549.413Y-180.767
X549.413Y-182.267
X549.413Y-360.758
X549.413Y-365.246
X549.5Y-270.294
X549.5Y-277.546
X549.5Y-284.798
X549.599Y-199.311
X549.599Y-205.598
X549.599Y-211.884
X549.599Y-218.171
X549.627Y-323.576
X549.627Y-326.497
X549.669Y-347.523
X549.712Y-343.948
X549.712Y-345.448
X550.632Y-268.646
X550.632Y-286.445
X550.632Y-275.898
X550.643Y-323.576
X550.643Y-330.942
X550.697Y-291.268
X550.697Y-305.772
X550.731Y-198.092
X550.731Y-204.379
X550.731Y-219.39
X550.855Y-366.486
X550.855Y-337.725
X551.133Y-298.52
X551.318Y-183.511
X551.318Y-184.45
X551.318Y-185.612
X551.38Y-369.468
X551.617Y-346.691
X551.617Y-347.631
X551.617Y-348.393
X551.829Y-292.915
X551.829Y-307.419
X552.104Y-178.735
X552.104Y-184.45
X552.104Y-185.612
X552.265Y-297.3
X552.403Y-341.916
X552.403Y-347.631
X552.403Y-348.393
X552.423Y-247.341
X552.729Y-363.184
X554.112Y-253.981
X554.455Y-250.389
X554.455Y-251.889
X554.598Y-373.339
X554.714Y-316.797
X554.874Y-178.608
X555.658Y-196.974
X555.941Y-366.486
X555.994Y-228.631
X555.994Y-229.647
X556.205Y-337.979
X556.271Y-181.529
X556.36Y-253.132
X556.36Y-254.072
X556.36Y-254.834
X556.414Y-311.232
X556.602Y-188.542
X556.649Y-192.656
X557.146Y-248.357
X557.146Y-254.072
X557.146Y-254.834
X557.146Y-260.522
X557.146Y-266.391
X557.146Y-313.862
X557.146Y-319.731
X557.38Y-339.154
X557.818Y-313.152
X557.996Y-225.124
X558.126Y-307.041
X558.146Y-266.391
X558.465Y-168.872
X558.527Y-269.771
X558.634Y-186.863
X558.634Y-189.276
X558.634Y-191.689
X558.646Y-222.232
X558.716Y-267.624
X558.716Y-178.132
X558.862Y-173.104
X558.862Y-175.004
X559.047Y-194.102
X559.076Y-312.417
X559.161Y-344.448
X559.161Y-346.885
X559.161Y-349.298
X559.161Y-351.711
X559.164Y-342.043
X559.646Y-313.862
X559.838Y-308.532
X559.916Y-248.23
X560.047Y-160.889
X560.047Y-162.303
X560.076Y-267.624
X560.277Y-304.277
X560.277Y-310.563
X560.277Y-297.99
X560.646Y-260.522
X560.646Y-266.391
X560.646Y-313.862
X560.646Y-319.731
X561.313Y-251.151
X561.408Y-247.754
X561.409Y-303.058
X561.409Y-309.344
X561.409Y-296.771
X561.64Y-164.335
X561.918Y-205.598
X561.918Y-211.884
X561.968Y-172.717
X562.031Y-339.211
X562.071Y-174.59
X562.071Y-176.622
X562.583Y-246.579
X563.05Y-204.379
X563.301Y-325.818
X563.301Y-340.43
X563.838Y-253.945
X563.838Y-257.882
X563.992Y-170.939
X564.254Y-186.863
X564.254Y-189.276
X564.254Y-191.689
X564.254Y-194.102
X564.622Y-344.448
X564.625Y-349.298
X564.625Y-351.711
X564.625Y-342.043
X564.625Y-346.885
X565.324Y-260.206
X565.509Y-290.136
X566.041Y-267.487
X566.305Y-174.59
X566.305Y-176.622
X566.724Y-278.702
X566.729Y-291.268
X566.774Y-249.97
X566.931Y-367.876
X567.016Y-174.538
X567.16Y-271.878
X567.16Y-283.087
X567.383Y-219.303
X567.39Y-198.092
X567.651Y-169.747
X567.856Y-277.482
X568.044Y-236.577
X568.044Y-251.189
X568.124Y-264.2
X568.201Y-369.095
X568.286Y-160.652
X568.292Y-270.23
X568.292Y-284.734
X568.522Y-199.311
X568.602Y-218.171
X568.794Y-162.684
X569.299Y-257.882
X569.299Y-261.438
X569.299Y-253.945
X569.312Y-325.383
X569.312Y-331.883
X570.665Y-339.36
X570.826Y-160.652
X570.826Y-162.684
X570.953Y-164.335
X571.08Y-165.351
X571.08Y-168.526
X571.574Y-236.617
X571.574Y-238.522
X571.935Y-338.141
X572.019Y-326.033
X572.019Y-333.183
X572.064Y-230.685
X572.59Y-237.633
X573.479Y-236.617
X573.479Y-238.522
X574.138Y-322.56
X574.265Y-164.826
X574.265Y-196.322
X574.726Y-260.257
X576.17Y-333.101
X576.388Y-177.719
X576.512Y-325.383
X576.512Y-326.683
X576.512Y-327.983
X576.595Y-338.218
X577.531Y-174.054
X577.563Y-178.894
X577.865Y-334.924
X577.865Y-339.437
X578.42Y-180.767
X578.42Y-182.267
X578.42Y-360.758
X578.42Y-365.246
X578.507Y-270.294
X578.507Y-277.546
X578.507Y-284.798
X578.606Y-199.311
X578.606Y-205.598
X578.606Y-211.884
X578.606Y-218.171
X578.676Y-347.523
X578.719Y-343.948
X578.719Y-345.448
X579.219Y-326.033
X579.219Y-327.333
X579.219Y-328.633
X579.219Y-331.883
X579.219Y-333.183
X579.639Y-286.445
X579.639Y-275.898
X579.639Y-271.941
X579.704Y-291.268
X579.704Y-305.772
X579.738Y-198.092
X579.738Y-204.379
X579.738Y-219.39
X579.862Y-366.486
X579.862Y-337.725
X580.14Y-298.52
X580.325Y-183.511
X580.325Y-184.45
X580.325Y-185.612
X580.387Y-369.468
X580.624Y-346.691
X580.624Y-347.631
X580.624Y-348.393
X580.836Y-292.915
X580.836Y-307.419
X580.952Y-267.726
X581.111Y-178.735
X581.111Y-184.45
X581.111Y-185.612
X581.272Y-297.3
X581.41Y-341.916
X581.41Y-347.631
X581.41Y-348.393
X581.43Y-247.341
X581.736Y-363.184
X583.119Y-253.981
X583.462Y-250.389
X583.462Y-251.889
X583.605Y-373.339
X583.721Y-316.797
X583.881Y-178.608
X584.665Y-196.974
X584.948Y-366.486
X584.995Y-229.647
X585.001Y-228.631
X585.212Y-337.979
X585.278Y-181.529
X585.367Y-253.132
X585.367Y-254.072
X585.367Y-254.834
X585.421Y-311.232
X585.609Y-188.542
X586.011Y-189.481
X586.153Y-248.357
X586.153Y-254.072
X586.153Y-254.834
X586.153Y-260.522
X586.153Y-266.391
X586.153Y-313.862
X586.153Y-319.731
X586.387Y-339.154
X586.482Y-346.885
X586.825Y-313.152
X587.003Y-225.124
X587.133Y-307.041
X587.153Y-266.391
X587.472Y-168.872
X587.534Y-269.771
X587.641Y-186.863
X587.641Y-189.276
X587.641Y-191.689
X587.653Y-222.232
X587.723Y-267.624
X587.723Y-178.132
X587.869Y-173.104
X587.869Y-175.004
X588.054Y-194.102
X588.083Y-312.465
X588.168Y-344.448
X588.168Y-349.298
X588.168Y-351.711
X588.171Y-342.043
X588.352Y-346.885
X588.653Y-313.862
X588.845Y-308.532
X588.923Y-248.23
X588.923Y-259.74
X589.054Y-160.889
X589.054Y-162.303
X589.083Y-267.624
X589.284Y-304.277
X589.284Y-310.563
X589.284Y-297.99
X589.653Y-260.522
X589.653Y-266.391
X589.653Y-313.862
X589.653Y-319.731
X590.32Y-251.151
X590.415Y-247.754
X590.416Y-303.058
X590.416Y-309.344
X590.416Y-296.771
X590.647Y-164.335
X590.925Y-205.598
X590.925Y-211.884
X590.975Y-172.717
X591.038Y-339.211
X591.078Y-174.59
X591.078Y-176.622
X591.59Y-246.579
X592.057Y-204.379
X592.308Y-325.818
X592.308Y-340.43
X592.845Y-253.945
X592.845Y-257.882
X592.999Y-170.939
X593.261Y-186.863
X593.261Y-189.276
X593.261Y-191.689
X593.261Y-194.102
X593.629Y-344.448
X593.632Y-349.298
X593.632Y-351.711
X593.632Y-342.043
X593.632Y-346.885
X594.331Y-260.206
X594.516Y-290.136
X595.312Y-174.59
X595.312Y-176.622
X595.731Y-278.702
X595.736Y-291.268
X595.781Y-249.97
X595.938Y-367.876
X596.023Y-174.538
X596.167Y-271.878
X596.167Y-283.087
X596.306Y-318.81
X596.306Y-319.923
X596.306Y-321.066
X596.306Y-322.209
X596.306Y-323.352
X596.306Y-324.495
X596.306Y-325.638
X596.39Y-219.303
X596.397Y-198.092
X596.658Y-169.747
X596.863Y-277.482
X597.051Y-236.577
X597.051Y-251.189
X597.131Y-262.613
X597.131Y-264.2
X597.208Y-369.095
X597.293Y-160.652
X597.299Y-270.23
X597.299Y-284.734
X597.449Y-326.654
X597.529Y-199.311
X597.609Y-218.171
X597.801Y-162.684
X598.306Y-257.882
X598.306Y-253.945
X599.833Y-160.652
X599.833Y-162.684
X599.96Y-164.335
X600.087Y-165.351
X600.087Y-168.526
X604.888Y-174.054
X604.92Y-178.894
X605.777Y-180.767
X605.777Y-182.267
X605.777Y-360.758
X605.777Y-365.246
X605.864Y-270.294
X605.864Y-277.546
X605.864Y-284.798
X605.963Y-199.311
X605.963Y-205.598
X605.963Y-211.884
X605.963Y-218.171
X605.991Y-323.576
X605.991Y-326.497
X606.033Y-347.523
X606.076Y-343.948
X606.076Y-345.448
X606.996Y-268.646
X606.996Y-286.445
X606.996Y-275.898
X607.007Y-323.576
X607.007Y-330.942
X607.061Y-291.268
X607.061Y-305.772
X607.095Y-198.092
X607.095Y-204.379
X607.095Y-219.39
X607.219Y-366.486
X607.219Y-337.725
X607.497Y-298.52
X607.682Y-183.511
X607.682Y-184.45
X607.682Y-185.612
X607.744Y-369.468
X607.981Y-346.691
X607.981Y-347.631
X607.981Y-348.393
X608.193Y-292.915
X608.193Y-307.419
X608.468Y-178.735
X608.468Y-184.45
X608.468Y-185.612
X608.629Y-297.3
X608.767Y-341.916
X608.767Y-347.631
X608.767Y-348.393
X608.787Y-247.341
X609.092Y-363.184
X610.476Y-253.981
X610.819Y-250.389
X610.819Y-251.889
X610.962Y-373.339
X611.078Y-316.797
X611.238Y-178.608
X612.022Y-196.974
X612.305Y-366.486
X612.358Y-228.631
X612.358Y-229.647
X612.569Y-337.979
X612.635Y-181.529
X612.724Y-253.132
X612.724Y-254.072
X612.724Y-254.834
X612.778Y-311.232
X612.966Y-188.542
X613.013Y-192.656
X613.51Y-248.357
X613.51Y-254.072
X613.51Y-254.834
X613.51Y-260.522
X613.51Y-266.391
X613.51Y-313.862
X613.51Y-319.731
X613.744Y-339.154
X614.182Y-313.152
X614.36Y-225.124
X614.49Y-307.041
X614.51Y-266.391
X614.828Y-168.872
X614.891Y-269.771
X614.998Y-186.863
X614.998Y-189.276
X614.998Y-191.689
X615.01Y-222.232
X615.08Y-267.624
X615.08Y-178.132
X615.226Y-173.104
X615.226Y-175.004
X615.411Y-194.102
X615.44Y-312.417
X615.525Y-344.448
X615.525Y-346.885
X615.525Y-349.298
X615.525Y-351.711
X615.528Y-342.043
X616.01Y-313.862
X616.202Y-308.532
X616.28Y-248.23
X616.411Y-160.889
X616.411Y-162.303
X616.44Y-267.624
X616.641Y-304.277
X616.641Y-310.563
X616.641Y-297.99
X617.01Y-260.522
X617.01Y-266.391
X617.01Y-313.862
X617.01Y-319.731
X617.677Y-251.151
X617.772Y-247.754
X617.773Y-303.058
X617.773Y-309.344
X617.773Y-296.771
X618.003Y-164.335
X618.282Y-205.598
X618.282Y-211.884
X618.332Y-172.717
X618.395Y-339.211
X618.435Y-174.59
X618.435Y-176.622
X618.947Y-246.579
X619.414Y-204.379
X619.665Y-325.818
X619.665Y-340.43
X620.202Y-253.945
X620.202Y-257.882
X620.356Y-170.939
X620.618Y-186.863
X620.618Y-189.276
X620.618Y-191.689
X620.618Y-194.102
X620.986Y-344.448
X620.989Y-349.298
X620.989Y-351.711
X620.989Y-342.043
X620.989Y-346.885
X621.688Y-260.206
X621.873Y-290.136
X622.405Y-267.487
X622.669Y-174.59
X622.669Y-176.622
X623.088Y-278.702
X623.092Y-291.268
X623.138Y-249.97
X623.295Y-367.876
X623.38Y-174.538
X623.524Y-271.878
X623.524Y-283.087
X623.747Y-219.303
X623.754Y-198.092
X624.015Y-169.747
X624.22Y-277.482
X624.408Y-236.577
X624.408Y-251.189
X624.488Y-264.2
X624.565Y-369.095
X624.65Y-160.652
X624.656Y-270.23
X624.656Y-284.734
X624.886Y-199.311
X624.966Y-218.171
X625.158Y-162.684
X625.663Y-257.882
X625.663Y-261.438
X625.663Y-253.945
X625.675Y-325.383
X625.675Y-331.883
X627.029Y-339.36
X627.19Y-160.652
X627.19Y-162.684
X627.317Y-164.335
X627.444Y-165.351
X627.444Y-168.526
X627.766Y-280.985
X627.938Y-236.617
X627.938Y-238.522
X628.299Y-338.141
X628.383Y-326.033
X628.383Y-333.183
X628.427Y-230.685
X628.954Y-237.633
X629.843Y-236.617
X629.843Y-238.522
X630.334Y-279.588
X630.502Y-322.56
X630.629Y-164.826
X630.629Y-196.322
X630.952Y-276.76
X631.09Y-260.257
X632.534Y-333.101
X632.731Y-354.103
X632.752Y-177.719
X632.875Y-325.383
X632.875Y-326.683
X632.875Y-327.983
X632.959Y-338.218
X633.895Y-174.054
X633.927Y-178.894
X634.229Y-334.924
X634.229Y-339.437
X634.784Y-180.767
X634.784Y-182.267
X634.784Y-360.758
X634.784Y-365.246
X634.871Y-270.294
X634.871Y-277.546
X634.871Y-284.798
X634.97Y-199.311
X634.97Y-205.598
X634.97Y-211.884
X634.97Y-218.171
X635.04Y-347.523
X635.083Y-343.948
X635.083Y-345.448
X635.299Y-352.024
X635.583Y-326.033
X635.583Y-327.333
X635.583Y-328.633
X635.583Y-331.883
X635.583Y-333.183
X635.917Y-358.328
X636.003Y-286.445
X636.003Y-275.898
X636.003Y-271.941
X636.068Y-291.268
X636.068Y-305.772
X636.102Y-198.092
X636.102Y-204.379
X636.102Y-219.39
X636.226Y-366.486
X636.226Y-337.725
X636.504Y-298.52
X636.689Y-183.511
X636.689Y-184.45
X636.689Y-185.612
X636.751Y-369.468
X636.988Y-346.691
X636.988Y-347.631
X636.988Y-348.393
X637.2Y-292.915
X637.2Y-307.419
X637.316Y-267.726
X637.475Y-178.735
X637.475Y-184.45
X637.475Y-185.612
X637.636Y-297.3
X637.774Y-341.916
X637.774Y-347.631
X637.774Y-348.393
X637.794Y-247.341
X638.099Y-363.184
X639.483Y-253.981
X639.826Y-250.389
X639.826Y-251.889
X639.969Y-373.339
X640.085Y-316.797
X640.245Y-178.608
X641.029Y-196.974
X641.312Y-366.486
X641.359Y-229.647
X641.365Y-228.631
X641.576Y-337.979
X641.642Y-181.529
X641.731Y-253.132
X641.731Y-254.072
X641.731Y-254.834
X641.785Y-311.232
X641.973Y-188.542
X642.375Y-189.481
X642.517Y-248.357
X642.517Y-254.072
X642.517Y-254.834
X642.517Y-260.522
X642.517Y-266.391
X642.517Y-313.862
X642.517Y-319.731
X642.751Y-339.154
X642.846Y-346.885
X643.189Y-313.152
X643.367Y-225.124
X643.497Y-307.041
X643.517Y-266.391
X643.835Y-168.872
X643.898Y-269.771
X644.005Y-186.863
X644.005Y-189.276
X644.005Y-191.689
X644.017Y-222.232
X644.087Y-267.624
X644.087Y-178.132
X644.233Y-173.104
X644.233Y-175.004
X644.418Y-194.102
X644.447Y-312.465
X644.532Y-344.448
X644.532Y-349.298
X644.532Y-351.711
X644.535Y-342.043
X644.716Y-346.885
X645.017Y-313.862
X645.209Y-308.532
X645.287Y-248.23
X645.287Y-259.74
X645.418Y-160.889
X645.418Y-162.303
X645.447Y-267.624
X645.648Y-304.277
X645.648Y-310.563
X645.648Y-297.99
X646.017Y-260.522
X646.017Y-266.391
X646.017Y-313.862
X646.017Y-319.731
X646.684Y-251.151
X646.779Y-247.754
X646.78Y-303.058
X646.78Y-309.344
X646.78Y-296.771
X647.01Y-164.335
X647.289Y-205.598
X647.289Y-211.884
X647.339Y-172.717
X647.402Y-339.211
X647.442Y-174.59
X647.442Y-176.622
X647.954Y-246.579
X648.421Y-204.379
X648.672Y-325.818
X648.672Y-340.43
X648.869Y-180.528
X648.869Y-183.576
X649.209Y-253.945
X649.209Y-257.882
X649.363Y-170.939
X649.625Y-186.863
X649.625Y-189.276
X649.625Y-191.689
X649.625Y-194.102
X649.993Y-344.448
X649.996Y-349.298
X649.996Y-351.711
X649.996Y-342.043
X649.996Y-346.885
X650.393Y-182.052
X650.695Y-260.206
X650.88Y-290.136
X651.676Y-174.59
X651.676Y-176.622
X651.917Y-180.528
X651.917Y-183.576
X652.095Y-278.702
X652.099Y-291.268
X652.145Y-249.97
X652.302Y-367.876
X652.387Y-174.538
X652.531Y-271.878
X652.531Y-283.087
X652.67Y-318.81
X652.67Y-319.923
X652.67Y-321.066
X652.67Y-322.209
X652.67Y-323.352
X652.67Y-324.495
X652.67Y-325.638
X652.754Y-219.303
X652.761Y-198.092
X653.022Y-169.747
X653.227Y-277.482
X653.415Y-236.577
X653.415Y-251.189
X653.495Y-262.613
X653.495Y-264.2
X653.572Y-369.095
X653.657Y-160.652
X653.663Y-270.23
X653.663Y-284.734
X653.813Y-326.654
X653.893Y-199.311
X653.973Y-218.171
X654.165Y-162.684
X654.67Y-257.882
X654.67Y-253.945
X656.197Y-160.652
X656.197Y-162.684
X656.324Y-164.335
X656.451Y-165.351
X656.451Y-168.526
X660.069Y-243.221
X660.069Y-246.269
X661.338Y-188.127
X661.338Y-191.175
X661.593Y-244.745
X662.862Y-189.651
X663.117Y-243.221
X663.117Y-246.269
X664.386Y-188.127
X664.386Y-191.175
X665.729Y-260.592
X665.729Y-265.023
X669.412Y-309.417
X670.284Y-211.52
X670.284Y-218.127
X670.284Y-238.441
X670.284Y-245.048
X670.284Y-273.967
X670.284Y-294.281
X670.284Y-300.888
X670.284Y-267.36
X670.301Y-311.833
X670.301Y-316.783
X670.309Y-250.572
X672.824Y-211.52
X672.824Y-218.127
X672.824Y-238.441
X672.824Y-245.048
X672.824Y-273.967
X672.824Y-294.281
X672.824Y-300.888
X672.824Y-267.36
X673.095Y-324.097
X673.603Y-257.982
X673.73Y-308.531
X675.0Y-310.566
X675.025Y-377.504
X675.364Y-211.52
X675.364Y-273.967
X675.364Y-218.127
X675.364Y-238.441
X675.364Y-245.048
X675.364Y-294.281
X675.364Y-300.888
X675.364Y-267.36
X675.421Y-251.378
X675.421Y-258.899
X675.716Y-247.905
X676.126Y-376.155
X676.126Y-379.964
X676.126Y-381.484
X676.637Y-253.184
X676.73Y-338.308
X676.73Y-342.372
X676.834Y-260.312
X677.334Y-257.881
X677.334Y-251.987
X677.548Y-254.255
X677.744Y-375.504
X677.762Y-339.34
X677.762Y-341.34
X677.834Y-260.312
X677.904Y-211.52
X677.904Y-218.127
X677.904Y-238.441
X677.904Y-245.048
X677.904Y-273.967
X677.904Y-294.281
X677.904Y-300.888
X677.904Y-267.36
X677.929Y-195.366
X677.929Y-199.684
X678.102Y-192.423
X678.299Y-313.83
X678.334Y-251.987
X678.334Y-257.881
X678.391Y-369.646
X678.441Y-261.216
X678.572Y-256.175
X678.798Y-378.679
X679.334Y-251.987
X679.561Y-261.123
X679.832Y-315.497
X679.834Y-257.881
X679.834Y-249.556
X680.088Y-197.525
X680.334Y-260.312
X680.334Y-251.987
X680.444Y-211.52
X680.444Y-218.127
X680.444Y-238.441
X680.444Y-245.048
X680.444Y-273.967
X680.444Y-294.281
X680.444Y-300.888
X680.444Y-267.36
X680.834Y-257.881
X681.0Y-204.658
X681.099Y-316.764
X681.235Y-253.757
X681.334Y-260.312
X681.334Y-251.987
X681.693Y-365.836
X681.834Y-257.881
X682.016Y-203.388
X682.247Y-195.366
X682.247Y-199.684
X682.334Y-260.312
X682.531Y-253.684
X682.531Y-256.184
X682.531Y-252.684
X682.531Y-257.184
X682.963Y-375.504
X682.984Y-211.52
X682.984Y-238.441
X682.984Y-245.048
X682.984Y-273.967
X682.984Y-294.281
X682.984Y-300.888
X682.984Y-218.127
X682.984Y-267.36
X683.013Y-250.771
X683.5Y-309.798
X683.699Y-367.004
X683.699Y-368.504
X683.699Y-370.004
X683.699Y-371.504
X683.754Y-259.589
X684.142Y-203.388
X684.255Y-317.399
X684.255Y-322.225
X684.868Y-379.187
X684.962Y-253.184
X684.962Y-255.684
X684.962Y-256.684
X684.962Y-257.684
X685.524Y-211.52
X685.524Y-218.127
X685.524Y-238.441
X685.524Y-245.048
X685.524Y-273.967
X685.524Y-294.281
X685.524Y-300.888
X685.524Y-267.36
X686.138Y-374.004
X686.324Y-362.036
X686.682Y-376.673
X686.763Y-200.767
X686.763Y-206.009
X687.048Y-368.446
X687.827Y-258.319
X687.909Y-374.201
X688.064Y-211.52
X688.064Y-218.127
X688.064Y-238.441
X688.064Y-245.048
X688.064Y-294.281
X688.064Y-300.888
X688.064Y-267.36
X688.064Y-273.967
X689.384Y-203.388
X689.66Y-374.201
X690.867Y-374.278
X691.023Y-377.004
X691.023Y-378.004
X692.128Y-365.09
X692.293Y-366.321
X692.324Y-221.47
X692.905Y-203.388
X693.69Y-378.504
X693.817Y-374.599
X693.944Y-371.424
X693.944Y-372.424
X693.944Y-373.424
X694.033Y-365.09
X694.105Y-367.357
X694.198Y-370.408
X694.359Y-369.1
X694.647Y-356.327
X694.824Y-238.559
X695.526Y-200.767
X695.526Y-206.009
X695.938Y-365.09
X697.843Y-365.09
X698.147Y-203.388
X698.447Y-375.389
X698.519Y-369.141
X698.519Y-371.675
X698.519Y-372.824
T4
X214.412Y-327.83
X217.778Y-326.56
X217.778Y-327.83
X217.778Y-329.1
X219.048Y-326.56
X219.048Y-327.83
X219.048Y-329.1
X219.155Y-238.59
X219.312Y-356.495
X222.521Y-237.32
X222.521Y-238.59
X222.521Y-239.86
X222.678Y-355.225
X222.678Y-356.495
X222.678Y-357.765
X223.791Y-237.32
X223.791Y-238.59
X223.791Y-239.86
X223.948Y-355.225
X223.948Y-356.495
X223.948Y-357.765
X232.653Y-269.552
X232.653Y-271.457
X232.653Y-273.362
X234.558Y-269.552
X234.558Y-271.447
X234.558Y-273.362
X236.463Y-269.552
X236.463Y-271.457
X236.463Y-273.362
X243.419Y-327.83
X246.785Y-326.56
X246.785Y-327.83
X246.785Y-329.1
X248.055Y-326.56
X248.055Y-327.83
X248.055Y-329.1
X248.162Y-238.59
X248.319Y-356.495
X251.528Y-237.32
X251.528Y-238.59
X251.528Y-239.86
X251.685Y-355.225
X251.685Y-356.495
X251.685Y-357.765
X252.798Y-237.32
X252.798Y-238.59
X252.798Y-239.86
X252.955Y-355.225
X252.955Y-356.495
X252.955Y-357.765
X270.776Y-327.83
X274.142Y-326.56
X274.142Y-327.83
X274.142Y-329.1
X275.412Y-326.56
X275.412Y-327.83
X275.412Y-329.1
X275.519Y-238.59
X275.676Y-356.495
X278.885Y-237.32
X278.885Y-238.59
X278.885Y-239.86
X279.042Y-355.225
X279.042Y-356.495
X279.042Y-357.765
X280.155Y-237.32
X280.155Y-238.59
X280.155Y-239.86
X280.312Y-355.225
X280.312Y-356.495
X280.312Y-357.765
X289.017Y-269.552
X289.017Y-271.457
X289.017Y-273.362
X290.922Y-269.552
X290.922Y-271.447
X290.922Y-273.362
X292.827Y-269.552
X292.827Y-271.457
X292.827Y-273.362
X299.783Y-327.83
X303.149Y-326.56
X303.149Y-327.83
X303.149Y-329.1
X304.419Y-326.56
X304.419Y-327.83
X304.419Y-329.1
X304.526Y-238.59
X304.683Y-356.495
X307.892Y-237.32
X307.892Y-238.59
X307.892Y-239.86
X308.049Y-355.225
X308.049Y-356.495
X308.049Y-357.765
X309.162Y-237.32
X309.162Y-238.59
X309.162Y-239.86
X309.319Y-355.225
X309.319Y-356.495
X309.319Y-357.765
X327.14Y-327.83
X330.506Y-326.56
X330.506Y-327.83
X330.506Y-329.1
X331.776Y-326.56
X331.776Y-327.83
X331.776Y-329.1
X331.883Y-238.59
X332.04Y-356.495
X335.248Y-237.32
X335.248Y-238.59
X335.248Y-239.86
X335.406Y-355.225
X335.406Y-356.495
X335.406Y-357.765
X336.518Y-237.32
X336.518Y-238.59
X336.518Y-239.86
X336.676Y-355.225
X336.676Y-356.495
X336.676Y-357.765
X345.381Y-269.552
X345.381Y-271.457
X345.381Y-273.362
X347.286Y-269.552
X347.286Y-271.447
X347.286Y-273.362
X349.191Y-269.552
X349.191Y-271.457
X349.191Y-273.362
X356.147Y-327.83
X359.513Y-326.56
X359.513Y-327.83
X359.513Y-329.1
X360.783Y-326.56
X360.783Y-327.83
X360.783Y-329.1
X360.89Y-238.59
X361.047Y-356.495
X364.255Y-237.32
X364.255Y-238.59
X364.255Y-239.86
X364.413Y-355.225
X364.413Y-356.495
X364.413Y-357.765
X365.525Y-237.32
X365.525Y-238.59
X365.525Y-239.86
X365.683Y-355.225
X365.683Y-356.495
X365.683Y-357.765
X383.504Y-327.83
X386.869Y-326.56
X386.869Y-327.83
X386.869Y-329.1
X388.139Y-326.56
X388.139Y-327.83
X388.139Y-329.1
X388.247Y-238.59
X388.404Y-356.495
X391.612Y-237.32
X391.612Y-238.59
X391.612Y-239.86
X391.769Y-355.225
X391.769Y-356.495
X391.769Y-357.765
X392.882Y-237.32
X392.882Y-238.59
X392.882Y-239.86
X393.039Y-355.225
X393.039Y-356.495
X393.039Y-357.765
X401.745Y-269.552
X401.745Y-271.457
X401.745Y-273.362
X403.65Y-269.552
X403.65Y-271.447
X403.65Y-273.362
X405.555Y-269.552
X405.555Y-271.457
X405.555Y-273.362
X412.511Y-327.83
X415.876Y-326.56
X415.876Y-327.83
X415.876Y-329.1
X417.146Y-326.56
X417.146Y-327.83
X417.146Y-329.1
X417.254Y-238.59
X417.411Y-356.495
X420.619Y-237.32
X420.619Y-238.59
X420.619Y-239.86
X420.776Y-355.225
X420.776Y-356.495
X420.776Y-357.765
X421.889Y-237.32
X421.889Y-238.59
X421.889Y-239.86
X422.046Y-355.225
X422.046Y-356.495
X422.046Y-357.765
X439.868Y-327.83
X443.233Y-326.56
X443.233Y-327.83
X443.233Y-329.1
X444.503Y-326.56
X444.503Y-327.83
X444.503Y-329.1
X444.611Y-238.59
X444.768Y-356.495
X447.976Y-237.32
X447.976Y-238.59
X447.976Y-239.86
X448.133Y-355.225
X448.133Y-356.495
X448.133Y-357.765
X449.246Y-237.32
X449.246Y-238.59
X449.246Y-239.86
X449.403Y-355.225
X449.403Y-356.495
X449.403Y-357.765
X458.109Y-269.552
X458.109Y-271.457
X458.109Y-273.362
X460.014Y-269.552
X460.014Y-271.447
X460.014Y-273.362
X461.919Y-269.552
X461.919Y-271.457
X461.919Y-273.362
X468.875Y-327.83
X472.24Y-326.56
X472.24Y-327.83
X472.24Y-329.1
X473.51Y-326.56
X473.51Y-327.83
X473.51Y-329.1
X473.618Y-238.59
X473.775Y-356.495
X476.983Y-237.32
X476.983Y-238.59
X476.983Y-239.86
X477.14Y-355.225
X477.14Y-356.495
X477.14Y-357.765
X478.253Y-237.32
X478.253Y-238.59
X478.253Y-239.86
X478.41Y-355.225
X478.41Y-356.495
X478.41Y-357.765
X496.232Y-327.83
X499.597Y-326.56
X499.597Y-327.83
X499.597Y-329.1
X500.867Y-326.56
X500.867Y-327.83
X500.867Y-329.1
X500.974Y-238.59
X501.132Y-356.495
X504.34Y-237.32
X504.34Y-238.59
X504.34Y-239.86
X504.497Y-355.225
X504.497Y-356.495
X504.497Y-357.765
X505.61Y-237.32
X505.61Y-238.59
X505.61Y-239.86
X505.767Y-355.225
X505.767Y-356.495
X505.767Y-357.765
X514.472Y-269.552
X514.472Y-271.457
X514.472Y-273.362
X516.377Y-269.552
X516.377Y-271.447
X516.377Y-273.362
X518.282Y-269.552
X518.282Y-271.457
X518.282Y-273.362
X525.239Y-327.83
X528.604Y-326.56
X528.604Y-327.83
X528.604Y-329.1
X529.874Y-326.56
X529.874Y-327.83
X529.874Y-329.1
X529.981Y-238.59
X530.139Y-356.495
X533.347Y-237.32
X533.347Y-238.59
X533.347Y-239.86
X533.504Y-355.225
X533.504Y-356.495
X533.504Y-357.765
X534.617Y-237.32
X534.617Y-238.59
X534.617Y-239.86
X534.774Y-355.225
X534.774Y-356.495
X534.774Y-357.765
X552.595Y-327.83
X555.961Y-326.56
X555.961Y-327.83
X555.961Y-329.1
X557.231Y-326.56
X557.231Y-327.83
X557.231Y-329.1
X557.338Y-238.59
X557.495Y-356.495
X560.704Y-237.32
X560.704Y-238.59
X560.704Y-239.86
X560.861Y-355.225
X560.861Y-356.495
X560.861Y-357.765
X561.974Y-237.32
X561.974Y-238.59
X561.974Y-239.86
X562.131Y-355.225
X562.131Y-356.495
X562.131Y-357.765
X570.836Y-269.552
X570.836Y-271.457
X570.836Y-273.362
X572.741Y-269.552
X572.741Y-271.447
X572.741Y-273.362
X574.646Y-269.552
X574.646Y-271.457
X574.646Y-273.362
X581.602Y-327.83
X584.968Y-326.56
X584.968Y-327.83
X584.968Y-329.1
X586.238Y-326.56
X586.238Y-327.83
X586.238Y-329.1
X586.345Y-238.59
X586.502Y-356.495
X589.711Y-237.32
X589.711Y-238.59
X589.711Y-239.86
X589.868Y-355.225
X589.868Y-356.495
X589.868Y-357.765
X590.981Y-237.32
X590.981Y-238.59
X590.981Y-239.86
X591.138Y-355.225
X591.138Y-356.495
X591.138Y-357.765
X608.959Y-327.83
X612.325Y-326.56
X612.325Y-327.83
X612.325Y-329.1
X613.595Y-326.56
X613.595Y-327.83
X613.595Y-329.1
X613.702Y-238.59
X613.859Y-356.495
X617.068Y-237.32
X617.068Y-238.59
X617.068Y-239.86
X617.225Y-355.225
X617.225Y-356.495
X617.225Y-357.765
X618.338Y-237.32
X618.338Y-238.59
X618.338Y-239.86
X618.495Y-355.225
X618.495Y-356.495
X618.495Y-357.765
X627.2Y-269.552
X627.2Y-271.457
X627.2Y-273.362
X629.105Y-269.552
X629.105Y-271.447
X629.105Y-273.362
X631.01Y-269.552
X631.01Y-271.457
X631.01Y-273.362
X637.966Y-327.83
X641.332Y-326.56
X641.332Y-327.83
X641.332Y-329.1
X642.602Y-326.56
X642.602Y-327.83
X642.602Y-329.1
X642.709Y-238.59
X642.866Y-356.495
X646.075Y-237.32
X646.075Y-238.59
X646.075Y-239.86
X646.232Y-355.225
X646.232Y-356.495
X646.232Y-357.765
X647.345Y-237.32
X647.345Y-238.59
X647.345Y-239.86
X647.502Y-355.225
X647.502Y-356.495
X647.502Y-357.765
T5
X167.841Y-116.566
X167.841Y-119.106
X167.841Y-419.588
X167.841Y-422.128
X169.111Y-117.836
X169.111Y-420.858
X170.381Y-116.566
X170.381Y-119.106
X170.381Y-419.588
X170.381Y-422.128
X214.151Y-141.966
X214.151Y-144.506
X215.421Y-143.236
X216.691Y-141.966
X216.691Y-144.506
X219.35Y-389.108
X219.35Y-391.648
X220.62Y-390.378
X221.89Y-389.108
X221.89Y-391.648
X243.158Y-147.046
X243.158Y-149.586
X244.428Y-148.316
X245.698Y-147.046
X245.698Y-149.586
X248.357Y-394.188
X248.357Y-396.728
X249.627Y-395.458
X250.897Y-394.188
X250.897Y-396.728
X270.515Y-141.966
X270.515Y-144.506
X271.785Y-143.236
X273.055Y-141.966
X273.055Y-144.506
X275.714Y-389.108
X275.714Y-391.648
X276.984Y-390.378
X278.254Y-389.108
X278.254Y-391.648
X299.522Y-147.046
X299.522Y-149.586
X300.792Y-148.316
X302.062Y-147.046
X302.062Y-149.586
X304.721Y-394.188
X304.721Y-396.728
X305.991Y-395.458
X307.261Y-394.188
X307.261Y-396.728
X326.879Y-141.966
X326.879Y-144.506
X328.149Y-143.236
X329.419Y-141.966
X329.419Y-144.506
X332.078Y-389.108
X332.078Y-391.648
X333.348Y-390.378
X334.618Y-389.108
X334.618Y-391.648
X355.886Y-147.046
X355.886Y-149.586
X357.156Y-148.316
X358.426Y-147.046
X358.426Y-149.586
X361.085Y-394.188
X361.085Y-396.728
X362.355Y-395.458
X363.625Y-394.188
X363.625Y-396.728
X383.243Y-141.966
X383.243Y-144.506
X384.513Y-143.236
X385.783Y-141.966
X385.783Y-144.506
X388.442Y-389.108
X388.442Y-391.648
X389.712Y-390.378
X390.982Y-389.108
X390.982Y-391.648
X412.25Y-147.046
X412.25Y-149.586
X413.52Y-148.316
X414.79Y-147.046
X414.79Y-149.586
X417.449Y-394.188
X417.449Y-396.728
X418.719Y-395.458
X419.989Y-394.188
X419.989Y-396.728
X439.607Y-141.966
X439.607Y-144.506
X440.877Y-143.236
X442.147Y-141.966
X442.147Y-144.506
X444.806Y-389.108
X444.806Y-391.648
X446.076Y-390.378
X447.346Y-389.108
X447.346Y-391.648
X468.614Y-147.046
X468.614Y-149.586
X469.884Y-148.316
X471.154Y-147.046
X471.154Y-149.586
X473.813Y-394.188
X473.813Y-396.728
X475.083Y-395.458
X476.353Y-394.188
X476.353Y-396.728
X495.971Y-141.966
X495.971Y-144.506
X497.241Y-143.236
X498.511Y-141.966
X498.511Y-144.506
X501.17Y-389.108
X501.17Y-391.648
X502.44Y-390.378
X503.71Y-389.108
X503.71Y-391.648
X524.978Y-147.046
X524.978Y-149.586
X526.248Y-148.316
X527.518Y-147.046
X527.518Y-149.586
X530.177Y-394.188
X530.177Y-396.728
X531.447Y-395.458
X532.717Y-394.188
X532.717Y-396.728
X552.334Y-141.966
X552.334Y-144.506
X553.604Y-143.236
X554.874Y-141.966
X554.874Y-144.506
X557.533Y-389.108
X557.533Y-391.648
X558.803Y-390.378
X560.073Y-389.108
X560.073Y-391.648
X581.341Y-147.046
X581.341Y-149.586
X582.611Y-148.316
X583.881Y-147.046
X583.881Y-149.586
X586.54Y-394.188
X586.54Y-396.728
X587.81Y-395.458
X589.08Y-394.188
X589.08Y-396.728
X608.698Y-141.966
X608.698Y-144.506
X609.968Y-143.236
X611.238Y-141.966
X611.238Y-144.506
X613.897Y-389.108
X613.897Y-391.648
X615.167Y-390.378
X616.437Y-389.108
X616.437Y-391.648
X637.705Y-147.046
X637.705Y-149.586
X638.975Y-148.316
X640.245Y-147.046
X640.245Y-149.586
X642.904Y-394.188
X642.904Y-396.728
X644.174Y-395.458
X645.444Y-394.188
X645.444Y-396.728
X694.891Y-116.566
X694.891Y-119.106
X694.891Y-419.588
X694.891Y-422.128
X696.161Y-117.836
X696.161Y-420.858
X697.431Y-116.566
X697.431Y-119.106
X697.431Y-419.588
X697.431Y-422.128
T6
X670.284Y-227.014
X670.284Y-229.554
X670.284Y-282.854
X670.284Y-285.394
X672.824Y-227.014
X672.824Y-229.554
X672.824Y-282.854
X672.824Y-285.394
X675.364Y-227.014
X675.364Y-229.554
X675.364Y-282.854
X675.364Y-285.394
X677.904Y-227.014
X677.904Y-229.554
X677.904Y-282.854
X677.904Y-285.394
X680.444Y-227.014
X680.444Y-229.554
X680.444Y-282.854
X680.444Y-285.394
X682.984Y-227.014
X682.984Y-229.554
X682.984Y-282.854
X682.984Y-285.394
X685.524Y-227.014
X685.524Y-229.554
X685.524Y-282.854
X685.524Y-285.394
X687.065Y-315.894
X687.065Y-320.72
X687.429Y-344.754
X687.429Y-347.294
X687.429Y-349.834
X687.429Y-352.374
X687.429Y-382.797
X687.429Y-385.337
X687.429Y-387.877
X687.429Y-390.417
X688.064Y-227.014
X688.064Y-229.554
X688.064Y-282.854
X688.064Y-285.394
X689.605Y-315.894
X689.605Y-320.72
X689.969Y-344.754
X689.969Y-347.294
X689.969Y-349.834
X689.969Y-352.374
X689.969Y-382.797
X689.969Y-385.337
X689.969Y-387.877
X689.969Y-390.417
X694.824Y-247.064
X694.824Y-249.604
X694.824Y-252.144
X694.824Y-254.684
X694.824Y-257.224
X694.824Y-259.764
T7
X686.667Y-325.683
X686.667Y-328.223
X686.667Y-330.763
X686.667Y-333.303
T8
X179.913Y-148.748
X179.913Y-156.238
X179.913Y-163.728
X179.913Y-171.218
X179.913Y-198.498
X179.913Y-205.988
X179.913Y-213.478
X179.913Y-220.968
X179.913Y-228.458
X179.913Y-235.948
X183.093Y-148.748
X183.093Y-156.238
X183.093Y-163.728
X183.093Y-171.218
X183.093Y-198.498
X183.093Y-205.988
X183.093Y-213.478
X183.093Y-220.968
X183.093Y-228.458
X183.093Y-235.948
X189.289Y-154.639
X189.289Y-158.039
X189.547Y-204.389
X189.547Y-207.789
X199.209Y-154.639
X199.209Y-158.039
X199.467Y-204.389
X199.467Y-207.789
T9
X166.783Y-143.998
X166.783Y-175.968
X166.783Y-193.748
X166.783Y-240.698
T10
X168.476Y-136.251
X168.476Y-402.443
X342.162Y-402.443
X349.451Y-136.251
X511.254Y-402.443
X518.996Y-136.251
X696.796Y-136.251
X696.796Y-402.443
T11
X208.682Y-384.028
X208.682Y-396.728
X227.359Y-136.886
X227.359Y-149.586
X237.689Y-389.108
X237.689Y-401.808
X256.366Y-141.966
X256.366Y-154.666
X265.046Y-384.028
X265.046Y-396.728
X283.723Y-136.886
X283.723Y-149.586
X294.053Y-389.108
X294.053Y-401.808
X312.73Y-141.966
X312.73Y-154.666
X321.41Y-384.028
X321.41Y-396.728
X340.087Y-136.886
X340.087Y-149.586
X350.417Y-389.108
X350.417Y-401.808
X369.094Y-141.966
X369.094Y-154.666
X377.774Y-384.028
X377.774Y-396.728
X396.451Y-136.886
X396.451Y-149.586
X406.781Y-389.108
X406.781Y-401.808
X425.458Y-141.966
X425.458Y-154.666
X434.138Y-384.028
X434.138Y-396.728
X452.815Y-136.886
X452.815Y-149.586
X463.145Y-389.108
X463.145Y-401.808
X481.822Y-141.966
X481.822Y-154.666
X490.502Y-384.028
X490.502Y-396.728
X509.179Y-136.886
X509.179Y-149.586
X519.509Y-389.108
X519.509Y-401.808
X538.186Y-141.966
X538.186Y-154.666
X546.865Y-384.028
X546.865Y-396.728
X565.542Y-136.886
X565.542Y-149.586
X575.872Y-389.108
X575.872Y-401.808
X594.549Y-141.966
X594.549Y-154.666
X603.229Y-384.028
X603.229Y-396.728
X621.906Y-136.886
X621.906Y-149.586
X632.236Y-389.108
X632.236Y-401.808
X650.913Y-141.966
X650.913Y-154.666
T12
X179.271Y-366.883
X179.271Y-401.173
X686.001Y-137.521
X686.001Y-171.811
M30
