G04 #@! TF.GenerationSoftware,KiCad,Pcbnew,8.0.6-unknown-202411051418~a3eff548b7~ubuntu20.04.1*
G04 #@! TF.CreationDate,2024-11-07T21:25:44-05:00*
G04 #@! TF.ProjectId,ARX,4152582e-6b69-4636-9164-5f7063625858,Revision I*
G04 #@! TF.SameCoordinates,Original*
G04 #@! TF.FileFunction,Soldermask,Bot*
G04 #@! TF.FilePolarity,Negative*
%FSLAX46Y46*%
G04 Gerber Fmt 4.6, Leading zero omitted, Abs format (unit mm)*
G04 Created by KiCad (PCBNEW 8.0.6-unknown-202411051418~a3eff548b7~ubuntu20.04.1) date 2024-11-07 21:25:44*
%MOMM*%
%LPD*%
G01*
G04 APERTURE LIST*
G04 Aperture macros list*
%AMRoundRect*
0 Rectangle with rounded corners*
0 $1 Rounding radius*
0 $2 $3 $4 $5 $6 $7 $8 $9 X,Y pos of 4 corners*
0 Add a 4 corners polygon primitive as box body*
4,1,4,$2,$3,$4,$5,$6,$7,$8,$9,$2,$3,0*
0 Add four circle primitives for the rounded corners*
1,1,$1+$1,$2,$3*
1,1,$1+$1,$4,$5*
1,1,$1+$1,$6,$7*
1,1,$1+$1,$8,$9*
0 Add four rect primitives between the rounded corners*
20,1,$1+$1,$2,$3,$4,$5,0*
20,1,$1+$1,$4,$5,$6,$7,0*
20,1,$1+$1,$6,$7,$8,$9,0*
20,1,$1+$1,$8,$9,$2,$3,0*%
G04 Aperture macros list end*
%ADD10C,7.000000*%
%ADD11C,0.584200*%
%ADD12C,0.762000*%
%ADD13C,1.240000*%
%ADD14C,5.588000*%
%ADD15C,0.600000*%
%ADD16C,4.000000*%
%ADD17R,0.600000X0.600000*%
%ADD18R,3.430000X3.780000*%
%ADD19R,1.700000X1.700000*%
%ADD20O,1.700000X1.700000*%
%ADD21R,1.905000X1.905000*%
%ADD22O,1.905000X1.905000*%
%ADD23C,2.780000*%
%ADD24C,6.807200*%
%ADD25RoundRect,0.250000X-0.475000X0.337500X-0.475000X-0.337500X0.475000X-0.337500X0.475000X0.337500X0*%
%ADD26RoundRect,0.250000X-0.450000X0.350000X-0.450000X-0.350000X0.450000X-0.350000X0.450000X0.350000X0*%
%ADD27RoundRect,0.250000X-0.337500X-0.475000X0.337500X-0.475000X0.337500X0.475000X-0.337500X0.475000X0*%
%ADD28RoundRect,0.280000X0.520000X0.620000X-0.520000X0.620000X-0.520000X-0.620000X0.520000X-0.620000X0*%
%ADD29RoundRect,0.280000X-0.520000X-0.620000X0.520000X-0.620000X0.520000X0.620000X-0.520000X0.620000X0*%
%ADD30R,1.750000X0.450000*%
%ADD31R,3.450001X3.450001*%
%ADD32RoundRect,0.250000X0.450000X-0.350000X0.450000X0.350000X-0.450000X0.350000X-0.450000X-0.350000X0*%
%ADD33RoundRect,0.250000X-0.350000X-0.450000X0.350000X-0.450000X0.350000X0.450000X-0.350000X0.450000X0*%
%ADD34RoundRect,0.250000X-0.412500X-0.650000X0.412500X-0.650000X0.412500X0.650000X-0.412500X0.650000X0*%
%ADD35RoundRect,0.250000X-1.500000X-0.650000X1.500000X-0.650000X1.500000X0.650000X-1.500000X0.650000X0*%
%ADD36RoundRect,0.162500X-0.162500X0.617500X-0.162500X-0.617500X0.162500X-0.617500X0.162500X0.617500X0*%
%ADD37RoundRect,0.250000X-0.650000X0.412500X-0.650000X-0.412500X0.650000X-0.412500X0.650000X0.412500X0*%
%ADD38RoundRect,0.200000X-0.200000X0.900000X-0.200000X-0.900000X0.200000X-0.900000X0.200000X0.900000X0*%
%ADD39C,0.800000*%
%ADD40RoundRect,0.249997X-2.650003X2.950003X-2.650003X-2.950003X2.650003X-2.950003X2.650003X2.950003X0*%
%ADD41RoundRect,0.280000X0.620000X-0.520000X0.620000X0.520000X-0.620000X0.520000X-0.620000X-0.520000X0*%
%ADD42RoundRect,0.280000X-0.620000X0.520000X-0.620000X-0.520000X0.620000X-0.520000X0.620000X0.520000X0*%
%ADD43RoundRect,0.075000X-0.662500X-0.075000X0.662500X-0.075000X0.662500X0.075000X-0.662500X0.075000X0*%
%ADD44C,3.000000*%
%ADD45RoundRect,0.250000X0.350000X0.450000X-0.350000X0.450000X-0.350000X-0.450000X0.350000X-0.450000X0*%
%ADD46RoundRect,0.100000X0.100000X-0.712500X0.100000X0.712500X-0.100000X0.712500X-0.100000X-0.712500X0*%
G04 APERTURE END LIST*
D10*
X342162150Y-402443208D03*
D11*
X389639082Y-250805024D03*
X389054882Y-250805024D03*
X388470682Y-250805024D03*
X389639082Y-251389224D03*
X389054882Y-251389224D03*
X388470682Y-251389224D03*
X389639082Y-251973424D03*
X389054882Y-251973424D03*
X388470682Y-251973424D03*
D12*
X586345282Y-238589625D03*
X589710782Y-237319625D03*
X589710782Y-238589625D03*
X589710782Y-239859625D03*
X590980782Y-237319625D03*
X590980782Y-238589625D03*
X590980782Y-239859625D03*
D11*
X384896182Y-344363566D03*
X384311982Y-344363566D03*
X383727782Y-344363566D03*
X384896182Y-344947766D03*
X384311982Y-344947766D03*
X383727782Y-344947766D03*
X384896182Y-345531966D03*
X384311982Y-345531966D03*
X383727782Y-345531966D03*
X413903183Y-344363566D03*
X413318983Y-344363566D03*
X412734783Y-344363566D03*
X413903183Y-344947766D03*
X413318983Y-344947766D03*
X412734783Y-344947766D03*
X413903183Y-345531966D03*
X413318983Y-345531966D03*
X412734783Y-345531966D03*
X248704384Y-315780723D03*
X248704384Y-316796723D03*
X248704384Y-317812723D03*
X249720384Y-315780723D03*
X249720384Y-316796723D03*
X249720384Y-317812723D03*
X250736384Y-315780723D03*
X250736384Y-316796723D03*
X250736384Y-317812723D03*
D12*
X529981449Y-238589625D03*
X533346949Y-237319625D03*
X533346949Y-238589625D03*
X533346949Y-239859625D03*
X534616949Y-237319625D03*
X534616949Y-238589625D03*
X534616949Y-239859625D03*
D11*
X470267016Y-344363566D03*
X469682816Y-344363566D03*
X469098616Y-344363566D03*
X470267016Y-344947766D03*
X469682816Y-344947766D03*
X469098616Y-344947766D03*
X470267016Y-345531966D03*
X469682816Y-345531966D03*
X469098616Y-345531966D03*
D12*
X444767715Y-356495366D03*
X448133215Y-355225366D03*
X448133215Y-356495366D03*
X448133215Y-357765366D03*
X449403215Y-355225366D03*
X449403215Y-356495366D03*
X449403215Y-357765366D03*
D13*
X609968213Y-143236208D03*
X608698213Y-141966208D03*
X608698213Y-144506208D03*
X611238213Y-141966208D03*
X611238213Y-144506208D03*
D14*
X621906213Y-149586208D03*
X621906213Y-136886208D03*
D11*
X469967915Y-181183135D03*
X469383715Y-181183135D03*
X468799515Y-181183135D03*
X469967915Y-181767335D03*
X469383715Y-181767335D03*
X468799515Y-181767335D03*
X469967915Y-182351535D03*
X469383715Y-182351535D03*
X468799515Y-182351535D03*
D12*
X383503881Y-327830167D03*
X386869381Y-326560167D03*
X386869381Y-327830167D03*
X386869381Y-329100167D03*
X388139381Y-326560167D03*
X388139381Y-327830167D03*
X388139381Y-329100167D03*
D11*
X639358515Y-344363566D03*
X638774315Y-344363566D03*
X638190115Y-344363566D03*
X639358515Y-344947766D03*
X638774315Y-344947766D03*
X638190115Y-344947766D03*
X639358515Y-345531966D03*
X638774315Y-345531966D03*
X638190115Y-345531966D03*
D13*
X244428383Y-148316208D03*
X243158383Y-147046208D03*
X243158383Y-149586208D03*
X245698383Y-147046208D03*
X245698383Y-149586208D03*
D14*
X256366383Y-154666208D03*
X256366383Y-141966208D03*
D13*
X526247548Y-148316208D03*
X524977548Y-147046208D03*
X524977548Y-149586208D03*
X527517548Y-147046208D03*
X527517548Y-149586208D03*
D14*
X538185548Y-154666208D03*
X538185548Y-141966208D03*
D11*
X586887382Y-315780723D03*
X586887382Y-316796723D03*
X586887382Y-317812723D03*
X587903382Y-315780723D03*
X587903382Y-316796723D03*
X587903382Y-317812723D03*
X588919382Y-315780723D03*
X588919382Y-316796723D03*
X588919382Y-317812723D03*
X357539350Y-344363566D03*
X356955150Y-344363566D03*
X356370950Y-344363566D03*
X357539350Y-344947766D03*
X356955150Y-344947766D03*
X356370950Y-344947766D03*
X357539350Y-345531966D03*
X356955150Y-345531966D03*
X356370950Y-345531966D03*
D15*
X367794050Y-168772335D03*
X369294050Y-168772335D03*
X368544050Y-168272335D03*
X367794050Y-167772335D03*
X369294050Y-167772335D03*
D11*
X476191716Y-264472723D03*
X476191716Y-263456723D03*
X476191716Y-262440723D03*
X475175716Y-264472723D03*
X475175716Y-263456723D03*
X475175716Y-262440723D03*
X474159716Y-264472723D03*
X474159716Y-263456723D03*
X474159716Y-262440723D03*
D12*
X270776215Y-327830167D03*
X274141715Y-326560167D03*
X274141715Y-327830167D03*
X274141715Y-329100167D03*
X275411715Y-326560167D03*
X275411715Y-327830167D03*
X275411715Y-329100167D03*
D16*
X166783213Y-193748208D03*
X166783213Y-240698208D03*
D17*
X184358213Y-197058208D03*
X182930713Y-197058208D03*
X181503213Y-197058208D03*
X180075713Y-197058208D03*
X178648213Y-197058208D03*
D18*
X183093213Y-198498208D03*
D17*
X181503213Y-198498208D03*
D18*
X179913213Y-198498208D03*
D17*
X184358213Y-199938208D03*
X182930713Y-199938208D03*
X181503213Y-199938208D03*
X180075713Y-199938208D03*
X178648213Y-199938208D03*
D15*
X184358213Y-204548208D03*
X182930713Y-204548208D03*
X181503213Y-204548208D03*
X180075713Y-204548208D03*
X178648213Y-204548208D03*
D18*
X183093213Y-205988208D03*
D15*
X181503213Y-205988208D03*
D18*
X179913213Y-205988208D03*
D15*
X184358213Y-207428208D03*
X182930713Y-207428208D03*
X181503213Y-207428208D03*
X180075713Y-207428208D03*
X178648213Y-207428208D03*
X184358213Y-212038208D03*
X182930713Y-212038208D03*
X181503213Y-212038208D03*
X180075713Y-212038208D03*
X178648213Y-212038208D03*
D18*
X183093213Y-213478208D03*
D15*
X181503213Y-213478208D03*
D18*
X179913213Y-213478208D03*
D15*
X184358213Y-214918208D03*
X182930713Y-214918208D03*
X181503213Y-214918208D03*
X180075713Y-214918208D03*
X178648213Y-214918208D03*
X184358213Y-219528208D03*
X182930713Y-219528208D03*
X181503213Y-219528208D03*
X180075713Y-219528208D03*
X178648213Y-219528208D03*
D18*
X183093213Y-220968208D03*
D15*
X181503213Y-220968208D03*
D18*
X179913213Y-220968208D03*
D15*
X184358213Y-222408208D03*
X182930713Y-222408208D03*
X181503213Y-222408208D03*
X180075713Y-222408208D03*
X178648213Y-222408208D03*
X184358213Y-227018208D03*
X182930713Y-227018208D03*
X181503213Y-227018208D03*
X180075713Y-227018208D03*
X178648213Y-227018208D03*
D18*
X183093213Y-228458208D03*
D15*
X181503213Y-228458208D03*
D18*
X179913213Y-228458208D03*
D15*
X184358213Y-229898208D03*
X182930713Y-229898208D03*
X181503213Y-229898208D03*
X180075713Y-229898208D03*
X178648213Y-229898208D03*
X184358213Y-234508208D03*
X182930713Y-234508208D03*
X181503213Y-234508208D03*
X180075713Y-234508208D03*
X178648213Y-234508208D03*
D18*
X183093213Y-235948208D03*
D15*
X181503213Y-235948208D03*
D18*
X179913213Y-235948208D03*
D15*
X184358213Y-237388208D03*
X182930713Y-237388208D03*
X181503213Y-237388208D03*
X180075713Y-237388208D03*
X178648213Y-237388208D03*
D13*
X328149048Y-143236208D03*
X326879048Y-141966208D03*
X326879048Y-144506208D03*
X329419048Y-141966208D03*
X329419048Y-144506208D03*
D14*
X340087048Y-149586208D03*
X340087048Y-136886208D03*
D12*
X500974448Y-238589625D03*
X504339948Y-237319625D03*
X504339948Y-238589625D03*
X504339948Y-239859625D03*
X505609948Y-237319625D03*
X505609948Y-238589625D03*
X505609948Y-239859625D03*
D11*
X278093216Y-264472723D03*
X278093216Y-263456723D03*
X278093216Y-262440723D03*
X277077216Y-264472723D03*
X277077216Y-263456723D03*
X277077216Y-262440723D03*
X276061216Y-264472723D03*
X276061216Y-263456723D03*
X276061216Y-262440723D03*
D15*
X451514715Y-168772335D03*
X453014715Y-168772335D03*
X452264715Y-168272335D03*
X451514715Y-167772335D03*
X453014715Y-167772335D03*
D11*
X553987681Y-344363566D03*
X553403481Y-344363566D03*
X552819281Y-344363566D03*
X553987681Y-344947766D03*
X553403481Y-344947766D03*
X552819281Y-344947766D03*
X553987681Y-345531966D03*
X553403481Y-345531966D03*
X552819281Y-345531966D03*
D12*
X214412382Y-327830167D03*
X217777882Y-326560167D03*
X217777882Y-327830167D03*
X217777882Y-329100167D03*
X219047882Y-326560167D03*
X219047882Y-327830167D03*
X219047882Y-329100167D03*
D11*
X441260015Y-344363566D03*
X440675815Y-344363566D03*
X440091615Y-344363566D03*
X441260015Y-344947766D03*
X440675815Y-344947766D03*
X440091615Y-344947766D03*
X441260015Y-345531966D03*
X440675815Y-345531966D03*
X440091615Y-345531966D03*
D13*
X475082816Y-395458208D03*
X476352816Y-396728208D03*
X476352816Y-394188208D03*
X473812816Y-396728208D03*
X473812816Y-394188208D03*
D14*
X463144816Y-389108208D03*
X463144816Y-401808208D03*
D12*
X361047050Y-356495366D03*
X364412550Y-355225366D03*
X364412550Y-356495366D03*
X364412550Y-357765366D03*
X365682550Y-355225366D03*
X365682550Y-356495366D03*
X365682550Y-357765366D03*
X613859214Y-356495366D03*
X617224714Y-355225366D03*
X617224714Y-356495366D03*
X617224714Y-357765366D03*
X618494714Y-355225366D03*
X618494714Y-356495366D03*
X618494714Y-357765366D03*
D15*
X395150882Y-168772335D03*
X396650882Y-168772335D03*
X395900882Y-168272335D03*
X395150882Y-167772335D03*
X396650882Y-167772335D03*
D11*
X526331748Y-181183135D03*
X525747548Y-181183135D03*
X525163348Y-181183135D03*
X526331748Y-181767335D03*
X525747548Y-181767335D03*
X525163348Y-181767335D03*
X526331748Y-182351535D03*
X525747548Y-182351535D03*
X525163348Y-182351535D03*
D19*
X670284213Y-282853966D03*
D20*
X672824213Y-282853966D03*
X675364213Y-282853966D03*
X677904213Y-282853966D03*
X680444213Y-282853966D03*
X682984213Y-282853966D03*
X685524213Y-282853966D03*
X688064213Y-282853966D03*
X670284213Y-285393966D03*
X672824213Y-285393966D03*
X675364213Y-285393966D03*
X677904213Y-285393966D03*
X680444213Y-285393966D03*
X682984213Y-285393966D03*
X685524213Y-285393966D03*
X688064213Y-285393966D03*
D12*
X557338281Y-238589625D03*
X560703781Y-237319625D03*
X560703781Y-238589625D03*
X560703781Y-239859625D03*
X561973781Y-237319625D03*
X561973781Y-238589625D03*
X561973781Y-239859625D03*
D19*
X689969213Y-390416850D03*
D20*
X687429213Y-390416850D03*
X689969213Y-387876850D03*
X687429213Y-387876850D03*
X689969213Y-385336850D03*
X687429213Y-385336850D03*
X689969213Y-382796850D03*
X687429213Y-382796850D03*
D11*
X610351514Y-344363566D03*
X609767314Y-344363566D03*
X609183114Y-344363566D03*
X610351514Y-344947766D03*
X609767314Y-344947766D03*
X609183114Y-344947766D03*
X610351514Y-345531966D03*
X609767314Y-345531966D03*
X609183114Y-345531966D03*
D15*
X564242381Y-168772335D03*
X565742381Y-168772335D03*
X564992381Y-168272335D03*
X564242381Y-167772335D03*
X565742381Y-167772335D03*
X620606214Y-168772335D03*
X622106214Y-168772335D03*
X621356214Y-168272335D03*
X620606214Y-167772335D03*
X622106214Y-167772335D03*
D11*
X588919382Y-264472723D03*
X588919382Y-263456723D03*
X588919382Y-262440723D03*
X587903382Y-264472723D03*
X587903382Y-263456723D03*
X587903382Y-262440723D03*
X586887382Y-264472723D03*
X586887382Y-263456723D03*
X586887382Y-262440723D03*
D15*
X480521716Y-168772335D03*
X482021716Y-168772335D03*
X481271716Y-168272335D03*
X480521716Y-167772335D03*
X482021716Y-167772335D03*
D11*
X446002915Y-250805024D03*
X445418715Y-250805024D03*
X444834515Y-250805024D03*
X446002915Y-251389224D03*
X445418715Y-251389224D03*
X444834515Y-251389224D03*
X446002915Y-251973424D03*
X445418715Y-251973424D03*
X444834515Y-251973424D03*
D12*
X473617616Y-238589625D03*
X476983116Y-237319625D03*
X476983116Y-238589625D03*
X476983116Y-239859625D03*
X478253116Y-237319625D03*
X478253116Y-238589625D03*
X478253116Y-239859625D03*
X552595380Y-327830167D03*
X555960880Y-326560167D03*
X555960880Y-327830167D03*
X555960880Y-329100167D03*
X557230880Y-326560167D03*
X557230880Y-327830167D03*
X557230880Y-329100167D03*
X468874715Y-327830167D03*
X472240215Y-326560167D03*
X472240215Y-327830167D03*
X472240215Y-329100167D03*
X473510215Y-326560167D03*
X473510215Y-327830167D03*
X473510215Y-329100167D03*
D11*
X361432050Y-315780723D03*
X361432050Y-316796723D03*
X361432050Y-317812723D03*
X362448050Y-315780723D03*
X362448050Y-316796723D03*
X362448050Y-317812723D03*
X363464050Y-315780723D03*
X363464050Y-316796723D03*
X363464050Y-317812723D03*
X388788882Y-315780723D03*
X388788882Y-316796723D03*
X388788882Y-317812723D03*
X389804882Y-315780723D03*
X389804882Y-316796723D03*
X389804882Y-317812723D03*
X390820882Y-315780723D03*
X390820882Y-316796723D03*
X390820882Y-317812723D03*
D12*
X219312383Y-356495366D03*
X222677883Y-355225366D03*
X222677883Y-356495366D03*
X222677883Y-357765366D03*
X223947883Y-355225366D03*
X223947883Y-356495366D03*
X223947883Y-357765366D03*
D11*
X501516548Y-315780723D03*
X501516548Y-316796723D03*
X501516548Y-317812723D03*
X502532548Y-315780723D03*
X502532548Y-316796723D03*
X502532548Y-317812723D03*
X503548548Y-315780723D03*
X503548548Y-316796723D03*
X503548548Y-317812723D03*
D13*
X469883715Y-148316208D03*
X468613715Y-147046208D03*
X468613715Y-149586208D03*
X471153715Y-147046208D03*
X471153715Y-149586208D03*
D14*
X481821715Y-154666208D03*
X481821715Y-141966208D03*
D13*
X220620483Y-390378208D03*
X221890483Y-391648208D03*
X221890483Y-389108208D03*
X219350483Y-391648208D03*
X219350483Y-389108208D03*
D14*
X208682483Y-384028208D03*
X208682483Y-396728208D03*
D11*
X497324747Y-181183135D03*
X496740547Y-181183135D03*
X496156347Y-181183135D03*
X497324747Y-181767335D03*
X496740547Y-181767335D03*
X496156347Y-181767335D03*
X497324747Y-182351535D03*
X496740547Y-182351535D03*
X496156347Y-182351535D03*
X357240249Y-181183135D03*
X356656049Y-181183135D03*
X356071849Y-181183135D03*
X357240249Y-181767335D03*
X356656049Y-181767335D03*
X356071849Y-181767335D03*
X357240249Y-182351535D03*
X356656049Y-182351535D03*
X356071849Y-182351535D03*
D10*
X518996012Y-136251208D03*
D19*
X689969213Y-352374335D03*
D20*
X687429213Y-352374335D03*
X689969213Y-349834335D03*
X687429213Y-349834335D03*
X689969213Y-347294335D03*
X687429213Y-347294335D03*
X689969213Y-344754335D03*
X687429213Y-344754335D03*
D11*
X532555549Y-264472723D03*
X532555549Y-263456723D03*
X532555549Y-262440723D03*
X531539549Y-264472723D03*
X531539549Y-263456723D03*
X531539549Y-262440723D03*
X530523549Y-264472723D03*
X530523549Y-263456723D03*
X530523549Y-262440723D03*
D15*
X536885549Y-168772335D03*
X538385549Y-168772335D03*
X537635549Y-168272335D03*
X536885549Y-167772335D03*
X538385549Y-167772335D03*
D12*
X525238548Y-327830167D03*
X528604048Y-326560167D03*
X528604048Y-327830167D03*
X528604048Y-329100167D03*
X529874048Y-326560167D03*
X529874048Y-327830167D03*
X529874048Y-329100167D03*
X496231547Y-327830167D03*
X499597047Y-326560167D03*
X499597047Y-327830167D03*
X499597047Y-329100167D03*
X500867047Y-326560167D03*
X500867047Y-327830167D03*
X500867047Y-329100167D03*
D10*
X349451012Y-136251208D03*
D11*
X419827883Y-264472723D03*
X419827883Y-263456723D03*
X419827883Y-262440723D03*
X418811883Y-264472723D03*
X418811883Y-263456723D03*
X418811883Y-262440723D03*
X417795883Y-264472723D03*
X417795883Y-263456723D03*
X417795883Y-262440723D03*
X440960914Y-181183135D03*
X440376714Y-181183135D03*
X439792514Y-181183135D03*
X440960914Y-181767335D03*
X440376714Y-181767335D03*
X439792514Y-181767335D03*
X440960914Y-182351535D03*
X440376714Y-182351535D03*
X439792514Y-182351535D03*
D10*
X168476012Y-136251208D03*
D11*
X276911416Y-250805024D03*
X276327216Y-250805024D03*
X275743016Y-250805024D03*
X276911416Y-251389224D03*
X276327216Y-251389224D03*
X275743016Y-251389224D03*
X276911416Y-251973424D03*
X276327216Y-251973424D03*
X275743016Y-251973424D03*
X558730581Y-250805024D03*
X558146381Y-250805024D03*
X557562181Y-250805024D03*
X558730581Y-251389224D03*
X558146381Y-251389224D03*
X557562181Y-251389224D03*
X558730581Y-251973424D03*
X558146381Y-251973424D03*
X557562181Y-251973424D03*
D13*
X587810482Y-395458208D03*
X589080482Y-396728208D03*
X589080482Y-394188208D03*
X586540482Y-396728208D03*
X586540482Y-394188208D03*
D14*
X575872482Y-389108208D03*
X575872482Y-401808208D03*
D13*
X497240547Y-143236208D03*
X495970547Y-141966208D03*
X495970547Y-144506208D03*
X498510547Y-141966208D03*
X498510547Y-144506208D03*
D14*
X509178547Y-149586208D03*
X509178547Y-136886208D03*
D21*
X686667213Y-325682966D03*
D22*
X686667213Y-328222966D03*
X686667213Y-330762966D03*
X686667213Y-333302966D03*
D11*
X334457049Y-264472723D03*
X334457049Y-263456723D03*
X334457049Y-262440723D03*
X333441049Y-264472723D03*
X333441049Y-263456723D03*
X333441049Y-262440723D03*
X332425049Y-264472723D03*
X332425049Y-263456723D03*
X332425049Y-262440723D03*
D13*
X271785215Y-143236208D03*
X270515215Y-141966208D03*
X270515215Y-144506208D03*
X273055215Y-141966208D03*
X273055215Y-144506208D03*
D14*
X283723215Y-149586208D03*
X283723215Y-136886208D03*
D11*
X363464050Y-264472723D03*
X363464050Y-263456723D03*
X363464050Y-262440723D03*
X362448050Y-264472723D03*
X362448050Y-263456723D03*
X362448050Y-262440723D03*
X361432050Y-264472723D03*
X361432050Y-263456723D03*
X361432050Y-262440723D03*
X557880381Y-315780723D03*
X557880381Y-316796723D03*
X557880381Y-317812723D03*
X558896381Y-315780723D03*
X558896381Y-316796723D03*
X558896381Y-317812723D03*
X559912381Y-315780723D03*
X559912381Y-316796723D03*
X559912381Y-317812723D03*
X300876416Y-181183135D03*
X300292216Y-181183135D03*
X299708016Y-181183135D03*
X300876416Y-181767335D03*
X300292216Y-181767335D03*
X299708016Y-181767335D03*
X300876416Y-182351535D03*
X300292216Y-182351535D03*
X299708016Y-182351535D03*
D13*
X582611381Y-148316208D03*
X581341381Y-147046208D03*
X581341381Y-149586208D03*
X583881381Y-147046208D03*
X583881381Y-149586208D03*
D14*
X594549381Y-154666208D03*
X594549381Y-141966208D03*
D12*
X530138549Y-356495366D03*
X533504049Y-355225366D03*
X533504049Y-356495366D03*
X533504049Y-357765366D03*
X534774049Y-355225366D03*
X534774049Y-356495366D03*
X534774049Y-357765366D03*
D11*
X333275249Y-250805024D03*
X332691049Y-250805024D03*
X332106849Y-250805024D03*
X333275249Y-251389224D03*
X332691049Y-251389224D03*
X332106849Y-251389224D03*
X333275249Y-251973424D03*
X332691049Y-251973424D03*
X332106849Y-251973424D03*
D12*
X360889950Y-238589625D03*
X364255450Y-237319625D03*
X364255450Y-238589625D03*
X364255450Y-239859625D03*
X365525450Y-237319625D03*
X365525450Y-238589625D03*
X365525450Y-239859625D03*
X332040049Y-356495366D03*
X335405549Y-355225366D03*
X335405549Y-356495366D03*
X335405549Y-357765366D03*
X336675549Y-355225366D03*
X336675549Y-356495366D03*
X336675549Y-357765366D03*
D11*
X526630849Y-344363566D03*
X526046649Y-344363566D03*
X525462449Y-344363566D03*
X526630849Y-344947766D03*
X526046649Y-344947766D03*
X525462449Y-344947766D03*
X526630849Y-345531966D03*
X526046649Y-345531966D03*
X525462449Y-345531966D03*
D13*
X558803481Y-390378208D03*
X560073481Y-391648208D03*
X560073481Y-389108208D03*
X557533481Y-391648208D03*
X557533481Y-389108208D03*
D14*
X546865481Y-384028208D03*
X546865481Y-396728208D03*
D11*
X271869415Y-181183135D03*
X271285215Y-181183135D03*
X270701015Y-181183135D03*
X271869415Y-181767335D03*
X271285215Y-181767335D03*
X270701015Y-181767335D03*
X271869415Y-182351535D03*
X271285215Y-182351535D03*
X270701015Y-182351535D03*
D12*
X219155283Y-238589625D03*
X222520783Y-237319625D03*
X222520783Y-238589625D03*
X222520783Y-239859625D03*
X223790783Y-237319625D03*
X223790783Y-238589625D03*
X223790783Y-239859625D03*
X586502382Y-356495366D03*
X589867882Y-355225366D03*
X589867882Y-356495366D03*
X589867882Y-357765366D03*
X591137882Y-355225366D03*
X591137882Y-356495366D03*
X591137882Y-357765366D03*
D10*
X696796012Y-136251208D03*
D11*
X328532349Y-344363566D03*
X327948149Y-344363566D03*
X327363949Y-344363566D03*
X328532349Y-344947766D03*
X327948149Y-344947766D03*
X327363949Y-344947766D03*
X328532349Y-345531966D03*
X327948149Y-345531966D03*
X327363949Y-345531966D03*
D19*
X670284213Y-227013966D03*
D20*
X672824213Y-227013966D03*
X675364213Y-227013966D03*
X677904213Y-227013966D03*
X680444213Y-227013966D03*
X682984213Y-227013966D03*
X685524213Y-227013966D03*
X688064213Y-227013966D03*
X670284213Y-229553966D03*
X672824213Y-229553966D03*
X675364213Y-229553966D03*
X677904213Y-229553966D03*
X680444213Y-229553966D03*
X682984213Y-229553966D03*
X685524213Y-229553966D03*
X688064213Y-229553966D03*
D13*
X357156049Y-148316208D03*
X355886049Y-147046208D03*
X355886049Y-149586208D03*
X358426049Y-147046208D03*
X358426049Y-149586208D03*
D14*
X369094049Y-154666208D03*
X369094049Y-141966208D03*
D11*
X582994682Y-344363566D03*
X582410482Y-344363566D03*
X581826282Y-344363566D03*
X582994682Y-344947766D03*
X582410482Y-344947766D03*
X581826282Y-344947766D03*
X582994682Y-345531966D03*
X582410482Y-345531966D03*
X581826282Y-345531966D03*
D12*
X299783216Y-327830167D03*
X303148716Y-326560167D03*
X303148716Y-327830167D03*
X303148716Y-329100167D03*
X304418716Y-326560167D03*
X304418716Y-327830167D03*
X304418716Y-329100167D03*
D11*
X221729383Y-264472723D03*
X221729383Y-263456723D03*
X221729383Y-262440723D03*
X220713383Y-264472723D03*
X220713383Y-263456723D03*
X220713383Y-262440723D03*
X219697383Y-264472723D03*
X219697383Y-263456723D03*
X219697383Y-262440723D03*
X614244214Y-315780723D03*
X614244214Y-316796723D03*
X614244214Y-317812723D03*
X615260214Y-315780723D03*
X615260214Y-316796723D03*
X615260214Y-317812723D03*
X616276214Y-315780723D03*
X616276214Y-316796723D03*
X616276214Y-317812723D03*
X220547583Y-250805024D03*
X219963383Y-250805024D03*
X219379183Y-250805024D03*
X220547583Y-251389224D03*
X219963383Y-251389224D03*
X219379183Y-251389224D03*
X220547583Y-251973424D03*
X219963383Y-251973424D03*
X219379183Y-251973424D03*
D12*
X388403882Y-356495366D03*
X391769382Y-355225366D03*
X391769382Y-356495366D03*
X391769382Y-357765366D03*
X393039382Y-355225366D03*
X393039382Y-356495366D03*
X393039382Y-357765366D03*
D13*
X638975214Y-148316208D03*
X637705214Y-147046208D03*
X637705214Y-149586208D03*
X640245214Y-147046208D03*
X640245214Y-149586208D03*
D14*
X650913214Y-154666208D03*
X650913214Y-141966208D03*
D11*
X418646083Y-250805024D03*
X418061883Y-250805024D03*
X417477683Y-250805024D03*
X418646083Y-251389224D03*
X418061883Y-251389224D03*
X417477683Y-251389224D03*
X418646083Y-251973424D03*
X418061883Y-251973424D03*
X417477683Y-251973424D03*
X503548548Y-264472723D03*
X503548548Y-263456723D03*
X503548548Y-262440723D03*
X502532548Y-264472723D03*
X502532548Y-263456723D03*
X502532548Y-262440723D03*
X501516548Y-264472723D03*
X501516548Y-263456723D03*
X501516548Y-262440723D03*
X639059414Y-181183135D03*
X638475214Y-181183135D03*
X637891014Y-181183135D03*
X639059414Y-181767335D03*
X638475214Y-181767335D03*
X637891014Y-181767335D03*
X639059414Y-182351535D03*
X638475214Y-182351535D03*
X637891014Y-182351535D03*
D23*
X189547213Y-204389208D03*
X189547213Y-207789208D03*
X199467213Y-204389208D03*
X199467213Y-207789208D03*
D12*
X275676216Y-356495366D03*
X279041716Y-355225366D03*
X279041716Y-356495366D03*
X279041716Y-357765366D03*
X280311716Y-355225366D03*
X280311716Y-356495366D03*
X280311716Y-357765366D03*
X444610615Y-238589625D03*
X447976115Y-237319625D03*
X447976115Y-238589625D03*
X447976115Y-239859625D03*
X449246115Y-237319625D03*
X449246115Y-238589625D03*
X449246115Y-239859625D03*
D11*
X644101415Y-250805024D03*
X643517215Y-250805024D03*
X642933015Y-250805024D03*
X644101415Y-251389224D03*
X643517215Y-251389224D03*
X642933015Y-251389224D03*
X644101415Y-251973424D03*
X643517215Y-251973424D03*
X642933015Y-251973424D03*
D12*
X642709115Y-238589625D03*
X646074615Y-237319625D03*
X646074615Y-238589625D03*
X646074615Y-239859625D03*
X647344615Y-237319625D03*
X647344615Y-238589625D03*
X647344615Y-239859625D03*
X439867714Y-327830167D03*
X443233214Y-326560167D03*
X443233214Y-327830167D03*
X443233214Y-329100167D03*
X444503214Y-326560167D03*
X444503214Y-327830167D03*
X444503214Y-329100167D03*
D11*
X497623848Y-344363566D03*
X497039648Y-344363566D03*
X496455448Y-344363566D03*
X497623848Y-344947766D03*
X497039648Y-344947766D03*
X496455448Y-344947766D03*
X497623848Y-345531966D03*
X497039648Y-345531966D03*
X496455448Y-345531966D03*
D13*
X215421382Y-143236208D03*
X214151382Y-141966208D03*
X214151382Y-144506208D03*
X216691382Y-141966208D03*
X216691382Y-144506208D03*
D14*
X227359382Y-149586208D03*
X227359382Y-136886208D03*
D10*
X696796012Y-402443208D03*
D11*
X530523549Y-315780723D03*
X530523549Y-316796723D03*
X530523549Y-317812723D03*
X531539549Y-315780723D03*
X531539549Y-316796723D03*
X531539549Y-317812723D03*
X532555549Y-315780723D03*
X532555549Y-316796723D03*
X532555549Y-317812723D03*
X553688580Y-181183135D03*
X553104380Y-181183135D03*
X552520180Y-181183135D03*
X553688580Y-181767335D03*
X553104380Y-181767335D03*
X552520180Y-181767335D03*
X553688580Y-182351535D03*
X553104380Y-182351535D03*
X552520180Y-182351535D03*
X272168516Y-344363566D03*
X271584316Y-344363566D03*
X271000116Y-344363566D03*
X272168516Y-344947766D03*
X271584316Y-344947766D03*
X271000116Y-344947766D03*
X272168516Y-345531966D03*
X271584316Y-345531966D03*
X271000116Y-345531966D03*
D15*
X282423216Y-168772335D03*
X283923216Y-168772335D03*
X283173216Y-168272335D03*
X282423216Y-167772335D03*
X283923216Y-167772335D03*
D11*
X244512583Y-181183135D03*
X243928383Y-181183135D03*
X243344183Y-181183135D03*
X244512583Y-181767335D03*
X243928383Y-181767335D03*
X243344183Y-181767335D03*
X244512583Y-182351535D03*
X243928383Y-182351535D03*
X243344183Y-182351535D03*
D13*
X644174315Y-395458208D03*
X645444315Y-396728208D03*
X645444315Y-394188208D03*
X642904315Y-396728208D03*
X642904315Y-394188208D03*
D14*
X632236315Y-389108208D03*
X632236315Y-401808208D03*
D11*
X249554584Y-250805024D03*
X248970384Y-250805024D03*
X248386184Y-250805024D03*
X249554584Y-251389224D03*
X248970384Y-251389224D03*
X248386184Y-251389224D03*
X249554584Y-251973424D03*
X248970384Y-251973424D03*
X248386184Y-251973424D03*
D13*
X169111012Y-420858208D03*
X167841012Y-419588208D03*
X167841012Y-422128208D03*
X170381012Y-419588208D03*
X170381012Y-422128208D03*
D12*
X275519116Y-238589625D03*
X278884616Y-237319625D03*
X278884616Y-238589625D03*
X278884616Y-239859625D03*
X280154616Y-237319625D03*
X280154616Y-238589625D03*
X280154616Y-239859625D03*
X243419383Y-327830167D03*
X246784883Y-326560167D03*
X246784883Y-327830167D03*
X246784883Y-329100167D03*
X248054883Y-326560167D03*
X248054883Y-327830167D03*
X248054883Y-329100167D03*
D11*
X328233248Y-181183135D03*
X327649048Y-181183135D03*
X327064848Y-181183135D03*
X328233248Y-181767335D03*
X327649048Y-181767335D03*
X327064848Y-181767335D03*
X328233248Y-182351535D03*
X327649048Y-182351535D03*
X327064848Y-182351535D03*
D15*
X593249382Y-168772335D03*
X594749382Y-168772335D03*
X593999382Y-168272335D03*
X593249382Y-167772335D03*
X594749382Y-167772335D03*
D13*
X446075815Y-390378208D03*
X447345815Y-391648208D03*
X447345815Y-389108208D03*
X444805815Y-391648208D03*
X444805815Y-389108208D03*
D14*
X434137815Y-384028208D03*
X434137815Y-396728208D03*
D12*
X327140048Y-327830167D03*
X330505548Y-326560167D03*
X330505548Y-327830167D03*
X330505548Y-329100167D03*
X331775548Y-326560167D03*
X331775548Y-327830167D03*
X331775548Y-329100167D03*
D13*
X300792216Y-148316208D03*
X299522216Y-147046208D03*
X299522216Y-149586208D03*
X302062216Y-147046208D03*
X302062216Y-149586208D03*
D14*
X312730216Y-154666208D03*
X312730216Y-141966208D03*
D12*
X613702114Y-238589625D03*
X617067614Y-237319625D03*
X617067614Y-238589625D03*
X617067614Y-239859625D03*
X618337614Y-237319625D03*
X618337614Y-238589625D03*
X618337614Y-239859625D03*
D15*
X338787049Y-168772335D03*
X340287049Y-168772335D03*
X339537049Y-168272335D03*
X338787049Y-167772335D03*
X340287049Y-167772335D03*
D23*
X189288711Y-154639209D03*
X189288711Y-158039209D03*
X199208711Y-154639209D03*
X199208711Y-158039209D03*
D12*
X581602381Y-327830167D03*
X584967881Y-326560167D03*
X584967881Y-327830167D03*
X584967881Y-329100167D03*
X586237881Y-326560167D03*
X586237881Y-327830167D03*
X586237881Y-329100167D03*
X501131548Y-356495366D03*
X504497048Y-355225366D03*
X504497048Y-356495366D03*
X504497048Y-357765366D03*
X505767048Y-355225366D03*
X505767048Y-356495366D03*
X505767048Y-357765366D03*
D11*
X362282250Y-250805024D03*
X361698050Y-250805024D03*
X361113850Y-250805024D03*
X362282250Y-251389224D03*
X361698050Y-251389224D03*
X361113850Y-251389224D03*
X362282250Y-251973424D03*
X361698050Y-251973424D03*
X361113850Y-251973424D03*
X587737582Y-250805024D03*
X587153382Y-250805024D03*
X586569182Y-250805024D03*
X587737582Y-251389224D03*
X587153382Y-251389224D03*
X586569182Y-251389224D03*
X587737582Y-251973424D03*
X587153382Y-251973424D03*
X586569182Y-251973424D03*
D13*
X696161012Y-117836208D03*
X694891012Y-116566208D03*
X694891012Y-119106208D03*
X697431012Y-116566208D03*
X697431012Y-119106208D03*
D11*
X531373749Y-250805024D03*
X530789549Y-250805024D03*
X530205349Y-250805024D03*
X531373749Y-251389224D03*
X530789549Y-251389224D03*
X530205349Y-251389224D03*
X531373749Y-251973424D03*
X530789549Y-251973424D03*
X530205349Y-251973424D03*
D19*
X687065213Y-315893966D03*
D20*
X689605213Y-315893966D03*
D11*
X244811684Y-344363566D03*
X244227484Y-344363566D03*
X243643284Y-344363566D03*
X244811684Y-344947766D03*
X244227484Y-344947766D03*
X243643284Y-344947766D03*
X244811684Y-345531966D03*
X244227484Y-345531966D03*
X243643284Y-345531966D03*
D13*
X389711982Y-390378208D03*
X390981982Y-391648208D03*
X390981982Y-389108208D03*
X388441982Y-391648208D03*
X388441982Y-389108208D03*
D14*
X377773982Y-384028208D03*
X377773982Y-396728208D03*
D13*
X531446649Y-395458208D03*
X532716649Y-396728208D03*
X532716649Y-394188208D03*
X530176649Y-396728208D03*
X530176649Y-394188208D03*
D14*
X519508649Y-389108208D03*
X519508649Y-401808208D03*
D15*
X507878548Y-168772335D03*
X509378548Y-168772335D03*
X508628548Y-168272335D03*
X507878548Y-167772335D03*
X509378548Y-167772335D03*
D19*
X694823713Y-247063966D03*
D20*
X694823713Y-249603966D03*
X694823713Y-252143966D03*
X694823713Y-254683966D03*
X694823713Y-257223966D03*
X694823713Y-259763966D03*
D11*
X643251215Y-315780723D03*
X643251215Y-316796723D03*
X643251215Y-317812723D03*
X644267215Y-315780723D03*
X644267215Y-316796723D03*
X644267215Y-317812723D03*
X645283215Y-315780723D03*
X645283215Y-316796723D03*
X645283215Y-317812723D03*
X305918417Y-250805024D03*
X305334217Y-250805024D03*
X304750017Y-250805024D03*
X305918417Y-251389224D03*
X305334217Y-251389224D03*
X304750017Y-251389224D03*
X305918417Y-251973424D03*
X305334217Y-251973424D03*
X304750017Y-251973424D03*
D15*
X226059383Y-168772335D03*
X227559383Y-168772335D03*
X226809383Y-168272335D03*
X226059383Y-167772335D03*
X227559383Y-167772335D03*
D12*
X248319384Y-356495366D03*
X251684884Y-355225366D03*
X251684884Y-356495366D03*
X251684884Y-357765366D03*
X252954884Y-355225366D03*
X252954884Y-356495366D03*
X252954884Y-357765366D03*
D13*
X305991317Y-395458208D03*
X307261317Y-396728208D03*
X307261317Y-394188208D03*
X304721317Y-396728208D03*
X304721317Y-394188208D03*
D14*
X294053317Y-389108208D03*
X294053317Y-401808208D03*
D11*
X219697383Y-315780723D03*
X219697383Y-316796723D03*
X219697383Y-317812723D03*
X220713383Y-315780723D03*
X220713383Y-316796723D03*
X220713383Y-317812723D03*
X221729383Y-315780723D03*
X221729383Y-316796723D03*
X221729383Y-317812723D03*
X413604082Y-181183135D03*
X413019882Y-181183135D03*
X412435682Y-181183135D03*
X413604082Y-181767335D03*
X413019882Y-181767335D03*
X412435682Y-181767335D03*
X413604082Y-182351535D03*
X413019882Y-182351535D03*
X412435682Y-182351535D03*
D13*
X249627484Y-395458208D03*
X250897484Y-396728208D03*
X250897484Y-394188208D03*
X248357484Y-396728208D03*
X248357484Y-394188208D03*
D14*
X237689484Y-389108208D03*
X237689484Y-401808208D03*
D11*
X616276214Y-264472723D03*
X616276214Y-263456723D03*
X616276214Y-262440723D03*
X615260214Y-264472723D03*
X615260214Y-263456723D03*
X615260214Y-262440723D03*
X614244214Y-264472723D03*
X614244214Y-263456723D03*
X614244214Y-262440723D03*
D12*
X642866215Y-356495366D03*
X646231715Y-355225366D03*
X646231715Y-356495366D03*
X646231715Y-357765366D03*
X647501715Y-355225366D03*
X647501715Y-356495366D03*
X647501715Y-357765366D03*
D24*
X686001012Y-171811208D03*
D13*
X362355150Y-395458208D03*
X363625150Y-396728208D03*
X363625150Y-394188208D03*
X361085150Y-396728208D03*
X361085150Y-394188208D03*
D14*
X350417150Y-389108208D03*
X350417150Y-401808208D03*
D12*
X412510882Y-327830167D03*
X415876382Y-326560167D03*
X415876382Y-327830167D03*
X415876382Y-329100167D03*
X417146382Y-326560167D03*
X417146382Y-327830167D03*
X417146382Y-329100167D03*
D15*
X311430217Y-168772335D03*
X312930217Y-168772335D03*
X312180217Y-168272335D03*
X311430217Y-167772335D03*
X312930217Y-167772335D03*
D11*
X384597081Y-181183135D03*
X384012881Y-181183135D03*
X383428681Y-181183135D03*
X384597081Y-181767335D03*
X384012881Y-181767335D03*
X383428681Y-181767335D03*
X384597081Y-182351535D03*
X384012881Y-182351535D03*
X383428681Y-182351535D03*
X215505582Y-181183135D03*
X214921382Y-181183135D03*
X214337182Y-181183135D03*
X215505582Y-181767335D03*
X214921382Y-181767335D03*
X214337182Y-181767335D03*
X215505582Y-182351535D03*
X214921382Y-182351535D03*
X214337182Y-182351535D03*
D10*
X511253649Y-402443208D03*
D11*
X417795883Y-315780723D03*
X417795883Y-316796723D03*
X417795883Y-317812723D03*
X418811883Y-315780723D03*
X418811883Y-316796723D03*
X418811883Y-317812723D03*
X419827883Y-315780723D03*
X419827883Y-316796723D03*
X419827883Y-317812723D03*
X305068217Y-315780723D03*
X305068217Y-316796723D03*
X305068217Y-317812723D03*
X306084217Y-315780723D03*
X306084217Y-316796723D03*
X306084217Y-317812723D03*
X307100217Y-315780723D03*
X307100217Y-316796723D03*
X307100217Y-317812723D03*
X610052413Y-181183135D03*
X609468213Y-181183135D03*
X608884013Y-181183135D03*
X610052413Y-181767335D03*
X609468213Y-181767335D03*
X608884013Y-181767335D03*
X610052413Y-182351535D03*
X609468213Y-182351535D03*
X608884013Y-182351535D03*
D13*
X413519882Y-148316208D03*
X412249882Y-147046208D03*
X412249882Y-149586208D03*
X414789882Y-147046208D03*
X414789882Y-149586208D03*
D14*
X425457882Y-154666208D03*
X425457882Y-141966208D03*
D24*
X179271012Y-401173208D03*
D12*
X557495381Y-356495366D03*
X560860881Y-355225366D03*
X560860881Y-356495366D03*
X560860881Y-357765366D03*
X562130881Y-355225366D03*
X562130881Y-356495366D03*
X562130881Y-357765366D03*
D15*
X255066384Y-168772335D03*
X256566384Y-168772335D03*
X255816384Y-168272335D03*
X255066384Y-167772335D03*
X256566384Y-167772335D03*
D12*
X356147049Y-327830167D03*
X359512549Y-326560167D03*
X359512549Y-327830167D03*
X359512549Y-329100167D03*
X360782549Y-326560167D03*
X360782549Y-327830167D03*
X360782549Y-329100167D03*
D11*
X390820882Y-264472723D03*
X390820882Y-263456723D03*
X390820882Y-262440723D03*
X389804882Y-264472723D03*
X389804882Y-263456723D03*
X389804882Y-262440723D03*
X388788882Y-264472723D03*
X388788882Y-263456723D03*
X388788882Y-262440723D03*
X502366748Y-250805024D03*
X501782548Y-250805024D03*
X501198348Y-250805024D03*
X502366748Y-251389224D03*
X501782548Y-251389224D03*
X501198348Y-251389224D03*
X502366748Y-251973424D03*
X501782548Y-251973424D03*
X501198348Y-251973424D03*
X215804683Y-344363566D03*
X215220483Y-344363566D03*
X214636283Y-344363566D03*
X215804683Y-344947766D03*
X215220483Y-344947766D03*
X214636283Y-344947766D03*
X215804683Y-345531966D03*
X215220483Y-345531966D03*
X214636283Y-345531966D03*
X559912381Y-264472723D03*
X559912381Y-263456723D03*
X559912381Y-262440723D03*
X558896381Y-264472723D03*
X558896381Y-263456723D03*
X558896381Y-262440723D03*
X557880381Y-264472723D03*
X557880381Y-263456723D03*
X557880381Y-262440723D03*
X474159716Y-315780723D03*
X474159716Y-316796723D03*
X474159716Y-317812723D03*
X475175716Y-315780723D03*
X475175716Y-316796723D03*
X475175716Y-317812723D03*
X476191716Y-315780723D03*
X476191716Y-316796723D03*
X476191716Y-317812723D03*
D19*
X687065213Y-320719966D03*
D20*
X689605213Y-320719966D03*
D12*
X248162284Y-238589625D03*
X251527784Y-237319625D03*
X251527784Y-238589625D03*
X251527784Y-239859625D03*
X252797784Y-237319625D03*
X252797784Y-238589625D03*
X252797784Y-239859625D03*
D11*
X445152715Y-315780723D03*
X445152715Y-316796723D03*
X445152715Y-317812723D03*
X446168715Y-315780723D03*
X446168715Y-316796723D03*
X446168715Y-317812723D03*
X447184715Y-315780723D03*
X447184715Y-316796723D03*
X447184715Y-317812723D03*
D13*
X333348149Y-390378208D03*
X334618149Y-391648208D03*
X334618149Y-389108208D03*
X332078149Y-391648208D03*
X332078149Y-389108208D03*
D14*
X321410149Y-384028208D03*
X321410149Y-396728208D03*
D11*
X475009916Y-250805024D03*
X474425716Y-250805024D03*
X473841516Y-250805024D03*
X475009916Y-251389224D03*
X474425716Y-251389224D03*
X473841516Y-251389224D03*
X475009916Y-251973424D03*
X474425716Y-251973424D03*
X473841516Y-251973424D03*
X582695581Y-181183135D03*
X582111381Y-181183135D03*
X581527181Y-181183135D03*
X582695581Y-181767335D03*
X582111381Y-181767335D03*
X581527181Y-181767335D03*
X582695581Y-182351535D03*
X582111381Y-182351535D03*
X581527181Y-182351535D03*
D12*
X608959213Y-327830167D03*
X612324713Y-326560167D03*
X612324713Y-327830167D03*
X612324713Y-329100167D03*
X613594713Y-326560167D03*
X613594713Y-327830167D03*
X613594713Y-329100167D03*
X637966214Y-327830167D03*
X641331714Y-326560167D03*
X641331714Y-327830167D03*
X641331714Y-329100167D03*
X642601714Y-326560167D03*
X642601714Y-327830167D03*
X642601714Y-329100167D03*
D11*
X301175517Y-344363566D03*
X300591317Y-344363566D03*
X300007117Y-344363566D03*
X301175517Y-344947766D03*
X300591317Y-344947766D03*
X300007117Y-344947766D03*
X301175517Y-345531966D03*
X300591317Y-345531966D03*
X300007117Y-345531966D03*
D12*
X388246782Y-238589625D03*
X391612282Y-237319625D03*
X391612282Y-238589625D03*
X391612282Y-239859625D03*
X392882282Y-237319625D03*
X392882282Y-238589625D03*
X392882282Y-239859625D03*
D13*
X276984316Y-390378208D03*
X278254316Y-391648208D03*
X278254316Y-389108208D03*
X275714316Y-391648208D03*
X275714316Y-389108208D03*
D14*
X265046316Y-384028208D03*
X265046316Y-396728208D03*
D16*
X166783213Y-143998208D03*
X166783213Y-175968208D03*
D17*
X184358213Y-147308208D03*
X182930713Y-147308208D03*
X181503213Y-147308208D03*
X180075713Y-147308208D03*
X178648213Y-147308208D03*
D18*
X183093213Y-148748208D03*
D17*
X181503213Y-148748208D03*
D18*
X179913213Y-148748208D03*
D17*
X184358213Y-150188208D03*
X182930713Y-150188208D03*
X181503213Y-150188208D03*
X180075713Y-150188208D03*
X178648213Y-150188208D03*
D15*
X184358213Y-154798208D03*
X182930713Y-154798208D03*
X181503213Y-154798208D03*
X180075713Y-154798208D03*
X178648213Y-154798208D03*
D18*
X183093213Y-156238208D03*
D15*
X181503213Y-156238208D03*
D18*
X179913213Y-156238208D03*
D15*
X184358213Y-157678208D03*
X182930713Y-157678208D03*
X181503213Y-157678208D03*
X180075713Y-157678208D03*
X178648213Y-157678208D03*
X184358213Y-162288208D03*
X182930713Y-162288208D03*
X181503213Y-162288208D03*
X180075713Y-162288208D03*
X178648213Y-162288208D03*
D18*
X183093213Y-163728208D03*
D15*
X181503213Y-163728208D03*
D18*
X179913213Y-163728208D03*
D15*
X184358213Y-165168208D03*
X182930713Y-165168208D03*
X181503213Y-165168208D03*
X180075713Y-165168208D03*
X178648213Y-165168208D03*
X184358213Y-169778208D03*
X182930713Y-169778208D03*
X181503213Y-169778208D03*
X180075713Y-169778208D03*
X178648213Y-169778208D03*
D18*
X183093213Y-171218208D03*
D15*
X181503213Y-171218208D03*
D18*
X179913213Y-171218208D03*
D15*
X184358213Y-172658208D03*
X182930713Y-172658208D03*
X181503213Y-172658208D03*
X180075713Y-172658208D03*
X178648213Y-172658208D03*
D11*
X447184715Y-264472723D03*
X447184715Y-263456723D03*
X447184715Y-262440723D03*
X446168715Y-264472723D03*
X446168715Y-263456723D03*
X446168715Y-262440723D03*
X445152715Y-264472723D03*
X445152715Y-263456723D03*
X445152715Y-262440723D03*
D24*
X686001012Y-137521208D03*
D12*
X473774716Y-356495366D03*
X477140216Y-355225366D03*
X477140216Y-356495366D03*
X477140216Y-357765366D03*
X478410216Y-355225366D03*
X478410216Y-356495366D03*
X478410216Y-357765366D03*
X331882949Y-238589625D03*
X335248449Y-237319625D03*
X335248449Y-238589625D03*
X335248449Y-239859625D03*
X336518449Y-237319625D03*
X336518449Y-238589625D03*
X336518449Y-239859625D03*
D15*
X424157883Y-168772335D03*
X425657883Y-168772335D03*
X424907883Y-168272335D03*
X424157883Y-167772335D03*
X425657883Y-167772335D03*
D12*
X304526117Y-238589625D03*
X307891617Y-237319625D03*
X307891617Y-238589625D03*
X307891617Y-239859625D03*
X309161617Y-237319625D03*
X309161617Y-238589625D03*
X309161617Y-239859625D03*
D13*
X615167314Y-390378208D03*
X616437314Y-391648208D03*
X616437314Y-389108208D03*
X613897314Y-391648208D03*
X613897314Y-389108208D03*
D14*
X603229314Y-384028208D03*
X603229314Y-396728208D03*
D12*
X417253783Y-238589625D03*
X420619283Y-237319625D03*
X420619283Y-238589625D03*
X420619283Y-239859625D03*
X421889283Y-237319625D03*
X421889283Y-238589625D03*
X421889283Y-239859625D03*
D11*
X645283215Y-264472723D03*
X645283215Y-263456723D03*
X645283215Y-262440723D03*
X644267215Y-264472723D03*
X644267215Y-263456723D03*
X644267215Y-262440723D03*
X643251215Y-264472723D03*
X643251215Y-263456723D03*
X643251215Y-262440723D03*
D10*
X168476012Y-402443208D03*
D13*
X384512881Y-143236208D03*
X383242881Y-141966208D03*
X383242881Y-144506208D03*
X385782881Y-141966208D03*
X385782881Y-144506208D03*
D14*
X396450881Y-149586208D03*
X396450881Y-136886208D03*
D11*
X332425049Y-315780723D03*
X332425049Y-316796723D03*
X332425049Y-317812723D03*
X333441049Y-315780723D03*
X333441049Y-316796723D03*
X333441049Y-317812723D03*
X334457049Y-315780723D03*
X334457049Y-316796723D03*
X334457049Y-317812723D03*
X276061216Y-315780723D03*
X276061216Y-316796723D03*
X276061216Y-317812723D03*
X277077216Y-315780723D03*
X277077216Y-316796723D03*
X277077216Y-317812723D03*
X278093216Y-315780723D03*
X278093216Y-316796723D03*
X278093216Y-317812723D03*
D12*
X417410883Y-356495366D03*
X420776383Y-355225366D03*
X420776383Y-356495366D03*
X420776383Y-357765366D03*
X422046383Y-355225366D03*
X422046383Y-356495366D03*
X422046383Y-357765366D03*
D13*
X502439648Y-390378208D03*
X503709648Y-391648208D03*
X503709648Y-389108208D03*
X501169648Y-391648208D03*
X501169648Y-389108208D03*
D14*
X490501648Y-384028208D03*
X490501648Y-396728208D03*
D13*
X418718983Y-395458208D03*
X419988983Y-396728208D03*
X419988983Y-394188208D03*
X417448983Y-396728208D03*
X417448983Y-394188208D03*
D14*
X406780983Y-389108208D03*
X406780983Y-401808208D03*
D11*
X250736384Y-264472723D03*
X250736384Y-263456723D03*
X250736384Y-262440723D03*
X249720384Y-264472723D03*
X249720384Y-263456723D03*
X249720384Y-262440723D03*
X248704384Y-264472723D03*
X248704384Y-263456723D03*
X248704384Y-262440723D03*
X615094414Y-250805024D03*
X614510214Y-250805024D03*
X613926014Y-250805024D03*
X615094414Y-251389224D03*
X614510214Y-251389224D03*
X613926014Y-251389224D03*
X615094414Y-251973424D03*
X614510214Y-251973424D03*
X613926014Y-251973424D03*
D13*
X553604380Y-143236208D03*
X552334380Y-141966208D03*
X552334380Y-144506208D03*
X554874380Y-141966208D03*
X554874380Y-144506208D03*
D14*
X565542380Y-149586208D03*
X565542380Y-136886208D03*
D15*
X649613215Y-168772335D03*
X651113215Y-168772335D03*
X650363215Y-168272335D03*
X649613215Y-167772335D03*
X651113215Y-167772335D03*
D13*
X696161012Y-420858208D03*
X694891012Y-419588208D03*
X694891012Y-422128208D03*
X697431012Y-419588208D03*
X697431012Y-422128208D03*
D24*
X179271012Y-366883208D03*
D13*
X440876714Y-143236208D03*
X439606714Y-141966208D03*
X439606714Y-144506208D03*
X442146714Y-141966208D03*
X442146714Y-144506208D03*
D14*
X452814714Y-149586208D03*
X452814714Y-136886208D03*
D11*
X307100217Y-264472723D03*
X307100217Y-263456723D03*
X307100217Y-262440723D03*
X306084217Y-264472723D03*
X306084217Y-263456723D03*
X306084217Y-262440723D03*
X305068217Y-264472723D03*
X305068217Y-263456723D03*
X305068217Y-262440723D03*
D12*
X304683217Y-356495366D03*
X308048717Y-355225366D03*
X308048717Y-356495366D03*
X308048717Y-357765366D03*
X309318717Y-355225366D03*
X309318717Y-356495366D03*
X309318717Y-357765366D03*
D13*
X169111012Y-117836208D03*
X167841012Y-116566208D03*
X167841012Y-119106208D03*
X170381012Y-116566208D03*
X170381012Y-119106208D03*
D25*
X352965049Y-183537335D03*
X352965049Y-185612335D03*
D26*
X288846014Y-336141297D03*
X288846014Y-338141297D03*
D27*
X592094382Y-174590335D03*
X594169382Y-174590335D03*
D28*
X653495215Y-261438224D03*
X650695215Y-261438224D03*
D26*
X633671012Y-263147208D03*
X633671012Y-265147208D03*
D25*
X356394049Y-251906335D03*
X356394049Y-253981335D03*
D26*
X692128213Y-361947335D03*
X692128213Y-363947335D03*
D29*
X695718612Y-370408335D03*
X698518612Y-370408335D03*
D27*
X648458215Y-176622335D03*
X650533215Y-176622335D03*
D30*
X232482181Y-333833228D03*
X232482181Y-333183228D03*
X232482181Y-332533228D03*
X232482181Y-331883228D03*
X232482181Y-331233228D03*
X232482181Y-330583228D03*
X232482181Y-329933228D03*
X232482181Y-329283228D03*
X232482181Y-328633228D03*
X232482181Y-327983228D03*
X232482181Y-327333228D03*
X232482181Y-326683228D03*
X232482181Y-326033228D03*
X232482181Y-325383228D03*
X239682181Y-325383228D03*
X239682181Y-326033228D03*
X239682181Y-326683228D03*
X239682181Y-327333228D03*
X239682181Y-327983228D03*
X239682181Y-328633228D03*
X239682181Y-329283228D03*
X239682181Y-329933228D03*
X239682181Y-330583228D03*
X239682181Y-331233228D03*
X239682181Y-331883228D03*
X239682181Y-332533228D03*
X239682181Y-333183228D03*
X239682181Y-333833228D03*
D27*
X648458215Y-174590335D03*
X650533215Y-174590335D03*
D25*
X304445217Y-267696223D03*
X304445217Y-269771223D03*
D31*
X579100381Y-167477208D03*
D25*
X555940980Y-314721723D03*
X555940980Y-316796723D03*
D28*
X371676050Y-265375224D03*
X368876050Y-265375224D03*
D25*
X296046014Y-336143197D03*
X296046014Y-338218197D03*
D32*
X682984213Y-236633965D03*
X682984213Y-234633965D03*
X685524213Y-236633965D03*
X685524213Y-234633965D03*
D33*
X598097179Y-169747335D03*
X600097179Y-169747335D03*
D26*
X351851847Y-267084208D03*
X351851847Y-269084208D03*
D25*
X586264382Y-267696223D03*
X586264382Y-269771223D03*
X577865179Y-336143197D03*
X577865179Y-338218197D03*
D30*
X627029012Y-333833228D03*
X627029012Y-333183228D03*
X627029012Y-332533228D03*
X627029012Y-331883228D03*
X627029012Y-331233228D03*
X627029012Y-330583228D03*
X627029012Y-329933228D03*
X627029012Y-329283228D03*
X627029012Y-328633228D03*
X627029012Y-327983228D03*
X627029012Y-327333228D03*
X627029012Y-326683228D03*
X627029012Y-326033228D03*
X627029012Y-325383228D03*
X634229012Y-325383228D03*
X634229012Y-326033228D03*
X634229012Y-326683228D03*
X634229012Y-327333228D03*
X634229012Y-327983228D03*
X634229012Y-328633228D03*
X634229012Y-329283228D03*
X634229012Y-329933228D03*
X634229012Y-330583228D03*
X634229012Y-331233228D03*
X634229012Y-331883228D03*
X634229012Y-332533228D03*
X634229012Y-333183228D03*
X634229012Y-333833228D03*
D33*
X456352715Y-169737538D03*
X458352715Y-169737538D03*
D34*
X571601179Y-261654208D03*
X574726179Y-261654208D03*
D32*
X273055215Y-194102335D03*
X273055215Y-192102335D03*
D33*
X485369513Y-169747335D03*
X487369513Y-169747335D03*
D35*
X507430548Y-164335335D03*
X512430548Y-164335335D03*
D33*
X691630612Y-356327335D03*
X693630612Y-356327335D03*
D25*
X549413380Y-183537335D03*
X549413380Y-185612335D03*
D36*
X417091954Y-308532369D03*
X418041954Y-308532369D03*
X418991954Y-308532369D03*
X418991954Y-311232369D03*
X417091954Y-311232369D03*
D33*
X351860847Y-261337208D03*
X353860847Y-261337208D03*
D25*
X525485548Y-251906335D03*
X525485548Y-253981335D03*
X409328882Y-183537335D03*
X409328882Y-185612335D03*
D33*
X625444214Y-169737538D03*
X627444214Y-169737538D03*
D36*
X642547286Y-308532369D03*
X643497286Y-308532369D03*
X644447286Y-308532369D03*
X644447286Y-311232369D03*
X642547286Y-311232369D03*
D27*
X535730549Y-176622335D03*
X537805549Y-176622335D03*
D32*
X278097216Y-258358224D03*
X278097216Y-256358224D03*
X675364213Y-236633965D03*
X675364213Y-234633965D03*
D26*
X633671012Y-267084208D03*
X633671012Y-269084208D03*
D27*
X310275217Y-174590335D03*
X312350217Y-174590335D03*
X253911384Y-176622335D03*
X255986384Y-176622335D03*
D26*
X685524213Y-275773966D03*
X685524213Y-277773966D03*
D37*
X410383680Y-264600708D03*
X410383680Y-267725708D03*
D32*
X611238213Y-194102335D03*
X611238213Y-192102335D03*
D35*
X281975216Y-164335335D03*
X286975216Y-164335335D03*
D26*
X351851847Y-263147208D03*
X351851847Y-265147208D03*
D27*
X337632049Y-174590335D03*
X339707049Y-174590335D03*
D25*
X412757882Y-251906335D03*
X412757882Y-253981335D03*
D27*
X393995882Y-176622335D03*
X396070882Y-176622335D03*
D31*
X464585513Y-255504208D03*
D32*
X334461049Y-258358224D03*
X334461049Y-256358224D03*
D33*
X512716548Y-169737538D03*
X514716548Y-169737538D03*
D31*
X633677012Y-255504208D03*
D25*
X300030216Y-251906335D03*
X300030216Y-253981335D03*
D31*
X353645049Y-167477208D03*
X466372715Y-160873208D03*
D38*
X626825012Y-265147208D03*
X627965012Y-265147208D03*
D39*
X631010012Y-269552208D03*
X629105012Y-269552208D03*
X627200012Y-269552208D03*
X629105012Y-271447208D03*
D40*
X629105012Y-271447208D03*
D39*
X631010012Y-271457208D03*
X627200012Y-271457208D03*
X631010012Y-273362208D03*
X629105012Y-273362208D03*
X627200012Y-273362208D03*
D38*
X630245012Y-265147208D03*
X631385012Y-265147208D03*
D31*
X211910382Y-160873208D03*
D36*
X473455787Y-308532369D03*
X474405787Y-308532369D03*
X475355787Y-308532369D03*
X475355787Y-311232369D03*
X473455787Y-311232369D03*
D31*
X522736548Y-160873208D03*
D28*
X653495215Y-265375224D03*
X650695215Y-265375224D03*
D35*
X254618384Y-164335335D03*
X259618384Y-164335335D03*
D38*
X514097346Y-265147208D03*
X515237346Y-265147208D03*
D39*
X518282346Y-269552208D03*
X516377346Y-269552208D03*
X514472346Y-269552208D03*
X516377346Y-271447208D03*
D40*
X516377346Y-271447208D03*
D39*
X518282346Y-271457208D03*
X514472346Y-271457208D03*
X518282346Y-273362208D03*
X516377346Y-273362208D03*
X514472346Y-273362208D03*
D38*
X517517346Y-265147208D03*
X518657346Y-265147208D03*
D31*
X493729547Y-160873208D03*
D36*
X586183453Y-308532369D03*
X587133453Y-308532369D03*
X588083453Y-308532369D03*
X588083453Y-311232369D03*
X586183453Y-311232369D03*
D35*
X423709883Y-164335335D03*
X428709883Y-164335335D03*
D32*
X680444213Y-236633965D03*
X680444213Y-234633965D03*
D25*
X214659382Y-251906335D03*
X214659382Y-253981335D03*
X243666383Y-251906335D03*
X243666383Y-253981335D03*
D41*
X680444213Y-243780965D03*
X680444213Y-240980965D03*
D38*
X288642014Y-265147208D03*
X289782014Y-265147208D03*
D39*
X292827014Y-269552208D03*
X290922014Y-269552208D03*
X289017014Y-269552208D03*
X290922014Y-271447208D03*
D40*
X290922014Y-271447208D03*
D39*
X292827014Y-271457208D03*
X289017014Y-271457208D03*
X292827014Y-273362208D03*
X290922014Y-273362208D03*
X289017014Y-273362208D03*
D38*
X292062014Y-265147208D03*
X293202014Y-265147208D03*
D34*
X515237346Y-261654208D03*
X518362346Y-261654208D03*
D42*
X680444214Y-268626967D03*
X680444214Y-271426967D03*
D27*
X592094382Y-176622335D03*
X594169382Y-176622335D03*
D25*
X521501346Y-336143197D03*
X521501346Y-338218197D03*
D32*
X588923382Y-258358224D03*
X588923382Y-256358224D03*
D28*
X286305216Y-261438224D03*
X283505216Y-261438224D03*
D41*
X670284213Y-243780964D03*
X670284213Y-240980964D03*
D36*
X500812619Y-308532369D03*
X501762619Y-308532369D03*
X502712619Y-308532369D03*
X502712619Y-311232369D03*
X500812619Y-311232369D03*
D27*
X224904383Y-176622335D03*
X226979383Y-176622335D03*
D28*
X540767549Y-265375224D03*
X537967549Y-265375224D03*
D29*
X695718612Y-374091335D03*
X698518612Y-374091335D03*
D38*
X401369680Y-265147208D03*
X402509680Y-265147208D03*
D39*
X405554680Y-269552208D03*
X403649680Y-269552208D03*
X401744680Y-269552208D03*
X403649680Y-271447208D03*
D40*
X403649680Y-271447208D03*
D39*
X405554680Y-271457208D03*
X401744680Y-271457208D03*
X405554680Y-273362208D03*
X403649680Y-273362208D03*
X401744680Y-273362208D03*
D38*
X404789680Y-265147208D03*
X405929680Y-265147208D03*
D25*
X473536716Y-267696223D03*
X473536716Y-269771223D03*
D32*
X583881381Y-194102335D03*
X583881381Y-192102335D03*
D26*
X464579513Y-263147208D03*
X464579513Y-265147208D03*
D25*
X331802049Y-267696223D03*
X331802049Y-269771223D03*
D28*
X540767549Y-261438224D03*
X537967549Y-261438224D03*
D27*
X281268216Y-176622335D03*
X283343216Y-176622335D03*
D35*
X563794381Y-164335335D03*
X568794381Y-164335335D03*
D25*
X271023215Y-251906335D03*
X271023215Y-253981335D03*
X275438216Y-267696223D03*
X275438216Y-269771223D03*
D31*
X550093380Y-167477208D03*
D28*
X258948384Y-261438224D03*
X256148384Y-261438224D03*
D27*
X310275217Y-176622335D03*
X312350217Y-176622335D03*
D33*
X654461012Y-169747335D03*
X656461012Y-169747335D03*
D31*
X295494014Y-255504208D03*
D26*
X408215680Y-267084208D03*
X408215680Y-269084208D03*
D25*
X499577147Y-314721723D03*
X499577147Y-316796723D03*
D26*
X682984213Y-275773966D03*
X682984213Y-277773966D03*
X577307179Y-263147208D03*
X577307179Y-265147208D03*
X464579513Y-267084208D03*
X464579513Y-269084208D03*
D25*
X210132482Y-345447766D03*
X210132482Y-347522766D03*
D26*
X239124181Y-263147208D03*
X239124181Y-265147208D03*
D25*
X465692715Y-183537335D03*
X465692715Y-185612335D03*
X472220315Y-314721723D03*
X472220315Y-316796723D03*
D38*
X345005847Y-265147208D03*
X346145847Y-265147208D03*
D39*
X349190847Y-269552208D03*
X347285847Y-269552208D03*
X345380847Y-269552208D03*
X347285847Y-271447208D03*
D40*
X347285847Y-271447208D03*
D39*
X349190847Y-271457208D03*
X345380847Y-271457208D03*
X349190847Y-273362208D03*
X347285847Y-273362208D03*
X345380847Y-273362208D03*
D38*
X348425847Y-265147208D03*
X349565847Y-265147208D03*
D33*
X287261216Y-169737538D03*
X289261216Y-169737538D03*
D25*
X274121815Y-314721723D03*
X274121815Y-316796723D03*
D26*
X694033213Y-361947335D03*
X694033213Y-363947335D03*
D35*
X649165215Y-164335335D03*
X654165215Y-164335335D03*
D26*
X408215680Y-263147208D03*
X408215680Y-265147208D03*
D28*
X229941383Y-265375224D03*
X227141383Y-265375224D03*
D25*
X380321881Y-183537335D03*
X380321881Y-185612335D03*
D30*
X288846014Y-333833228D03*
X288846014Y-333183228D03*
X288846014Y-332533228D03*
X288846014Y-331883228D03*
X288846014Y-331233228D03*
X288846014Y-330583228D03*
X288846014Y-329933228D03*
X288846014Y-329283228D03*
X288846014Y-328633228D03*
X288846014Y-327983228D03*
X288846014Y-327333228D03*
X288846014Y-326683228D03*
X288846014Y-326033228D03*
X288846014Y-325383228D03*
X296046014Y-325383228D03*
X296046014Y-326033228D03*
X296046014Y-326683228D03*
X296046014Y-327333228D03*
X296046014Y-327983228D03*
X296046014Y-328633228D03*
X296046014Y-329283228D03*
X296046014Y-329933228D03*
X296046014Y-330583228D03*
X296046014Y-331233228D03*
X296046014Y-331883228D03*
X296046014Y-332533228D03*
X296046014Y-333183228D03*
X296046014Y-333833228D03*
D31*
X635464214Y-167477208D03*
D42*
X688064214Y-268626966D03*
X688064214Y-271426966D03*
D27*
X506723548Y-174590335D03*
X508798548Y-174590335D03*
D31*
X408221680Y-255504208D03*
D25*
X217757982Y-314721723D03*
X217757982Y-316796723D03*
D32*
X302062216Y-194102335D03*
X302062216Y-192102335D03*
D27*
X450359715Y-176622335D03*
X452434715Y-176622335D03*
D25*
X295503316Y-345447766D03*
X295503316Y-347522766D03*
D32*
X245698383Y-194102335D03*
X245698383Y-192102335D03*
D27*
X393995882Y-174590335D03*
X396070882Y-174590335D03*
D25*
X296601216Y-183537335D03*
X296601216Y-185612335D03*
X322860148Y-345447766D03*
X322860148Y-347522766D03*
X609206213Y-251906335D03*
X609206213Y-253981335D03*
D27*
X366639050Y-176622335D03*
X368714050Y-176622335D03*
X281268216Y-174590335D03*
X283343216Y-174590335D03*
D43*
X684867612Y-378504335D03*
X684867612Y-378004335D03*
X684867612Y-377504335D03*
X684867612Y-377004335D03*
X684867612Y-376504335D03*
X684867612Y-376004335D03*
X684867612Y-375504335D03*
X684867612Y-375004335D03*
X684867612Y-374504335D03*
X684867612Y-374004335D03*
X684867612Y-373504335D03*
X684867612Y-373004335D03*
X684867612Y-372504335D03*
X684867612Y-372004335D03*
X684867612Y-371504335D03*
X684867612Y-371004335D03*
X684867612Y-370504335D03*
X684867612Y-370004335D03*
X684867612Y-369504335D03*
X684867612Y-369004335D03*
X684867612Y-368504335D03*
X684867612Y-368004335D03*
X684867612Y-367504335D03*
X684867612Y-367004335D03*
X692292612Y-367004335D03*
X692292612Y-367504335D03*
X692292612Y-368004335D03*
X692292612Y-368504335D03*
X692292612Y-369004335D03*
X692292612Y-369504335D03*
X692292612Y-370004335D03*
X692292612Y-370504335D03*
X692292612Y-371004335D03*
X692292612Y-371504335D03*
X692292612Y-372004335D03*
X692292612Y-372504335D03*
X692292612Y-373004335D03*
X692292612Y-373504335D03*
X692292612Y-374004335D03*
X692292612Y-374504335D03*
X692292612Y-375004335D03*
X692292612Y-375504335D03*
X692292612Y-376004335D03*
X692292612Y-376504335D03*
X692292612Y-377004335D03*
X692292612Y-377504335D03*
X692292612Y-378004335D03*
X692292612Y-378504335D03*
D25*
X435587814Y-345447766D03*
X435587814Y-347522766D03*
D33*
X372641847Y-169747335D03*
X374641847Y-169747335D03*
D28*
X315312217Y-261438224D03*
X312512217Y-261438224D03*
D26*
X232482181Y-336141297D03*
X232482181Y-338141297D03*
D33*
X259914181Y-169747335D03*
X261914181Y-169747335D03*
D28*
X597131382Y-261438224D03*
X594331382Y-261438224D03*
D31*
X240917383Y-167477208D03*
D44*
X188161012Y-395458208D03*
D28*
X597131382Y-265375224D03*
X594331382Y-265375224D03*
X342669049Y-265375224D03*
X339869049Y-265375224D03*
D27*
X224904383Y-174590335D03*
X226979383Y-174590335D03*
D33*
X316278014Y-169747335D03*
X318278014Y-169747335D03*
D31*
X520949346Y-255504208D03*
D26*
X295488014Y-267084208D03*
X295488014Y-269084208D03*
D25*
X417172883Y-267696223D03*
X417172883Y-269771223D03*
X613621214Y-267696223D03*
X613621214Y-269771223D03*
D42*
X670284214Y-268626967D03*
X670284214Y-271426967D03*
D25*
X577322481Y-345447766D03*
X577322481Y-347522766D03*
X638213214Y-251906335D03*
X638213214Y-253981335D03*
D31*
X381001881Y-167477208D03*
D35*
X480073716Y-164335335D03*
X485073716Y-164335335D03*
X310982217Y-164335335D03*
X315982217Y-164335335D03*
D27*
X535730549Y-174590335D03*
X537805549Y-174590335D03*
D26*
X295488014Y-263147208D03*
X295488014Y-265147208D03*
D41*
X675364213Y-243780966D03*
X675364213Y-240980966D03*
D34*
X346145847Y-261654208D03*
X349270847Y-261654208D03*
D25*
X581849381Y-251906335D03*
X581849381Y-253981335D03*
D28*
X428039883Y-261438224D03*
X425239883Y-261438224D03*
X679833714Y-247904965D03*
X677033714Y-247904965D03*
X511760548Y-261438224D03*
X508960548Y-261438224D03*
D41*
X672824213Y-243780966D03*
X672824213Y-240980966D03*
D31*
X211910382Y-167477208D03*
X381001881Y-160873208D03*
D33*
X399988882Y-169737538D03*
X401988882Y-169737538D03*
D32*
X414789882Y-194102335D03*
X414789882Y-192102335D03*
D26*
X688064213Y-275773966D03*
X688064213Y-277773966D03*
X680444213Y-275773966D03*
X680444213Y-277773966D03*
D31*
X268274215Y-160873208D03*
D36*
X388084953Y-308532369D03*
X389034953Y-308532369D03*
X389984953Y-308532369D03*
X389984953Y-311232369D03*
X388084953Y-311232369D03*
D28*
X399032882Y-265375224D03*
X396232882Y-265375224D03*
D36*
X218993454Y-308532369D03*
X219943454Y-308532369D03*
X220893454Y-308532369D03*
X220893454Y-311232369D03*
X218993454Y-311232369D03*
D27*
X423002883Y-174590335D03*
X425077883Y-174590335D03*
D37*
X466747513Y-264600708D03*
X466747513Y-267725708D03*
D36*
X444448786Y-308532369D03*
X445398786Y-308532369D03*
X446348786Y-308532369D03*
X446348786Y-311232369D03*
X444448786Y-311232369D03*
D25*
X641311814Y-314721723D03*
X641311814Y-316796723D03*
X248081384Y-267696223D03*
X248081384Y-269771223D03*
X266496315Y-345447766D03*
X266496315Y-347522766D03*
X303128816Y-314721723D03*
X303128816Y-316796723D03*
D36*
X613540285Y-308532369D03*
X614490285Y-308532369D03*
X615440285Y-308532369D03*
X615440285Y-311232369D03*
X613540285Y-311232369D03*
D32*
X419831883Y-258358224D03*
X419831883Y-256358224D03*
D38*
X232278181Y-265147208D03*
X233418181Y-265147208D03*
D39*
X236463181Y-269552208D03*
X234558181Y-269552208D03*
X232653181Y-269552208D03*
X234558181Y-271447208D03*
D40*
X234558181Y-271447208D03*
D39*
X236463181Y-271457208D03*
X232653181Y-271457208D03*
X236463181Y-273362208D03*
X234558181Y-273362208D03*
X232653181Y-273362208D03*
D38*
X235698181Y-265147208D03*
X236838181Y-265147208D03*
D25*
X436685714Y-183537335D03*
X436685714Y-185612335D03*
D44*
X677111012Y-143236208D03*
D33*
X230897383Y-169737538D03*
X232897383Y-169737538D03*
D28*
X484403716Y-261438224D03*
X481603716Y-261438224D03*
X258948384Y-265375224D03*
X256148384Y-265375224D03*
D25*
X604679313Y-345447766D03*
X604679313Y-347522766D03*
D28*
X624488214Y-261438224D03*
X621688214Y-261438224D03*
D36*
X529819620Y-308532369D03*
X530769620Y-308532369D03*
X531719620Y-308532369D03*
X531719620Y-311232369D03*
X529819620Y-311232369D03*
D26*
X670284213Y-275773966D03*
X670284213Y-277773966D03*
D33*
X343625049Y-169737538D03*
X345625049Y-169737538D03*
D31*
X466372715Y-167477208D03*
D32*
X476195716Y-258358224D03*
X476195716Y-256358224D03*
D28*
X511760548Y-265375224D03*
X508960548Y-265375224D03*
D26*
X695938213Y-361947335D03*
X695938213Y-363947335D03*
D27*
X337632049Y-176622335D03*
X339707049Y-176622335D03*
D25*
X634229012Y-336143197D03*
X634229012Y-338218197D03*
D38*
X457733513Y-265147208D03*
X458873513Y-265147208D03*
D39*
X461918513Y-269552208D03*
X460013513Y-269552208D03*
X458108513Y-269552208D03*
X460013513Y-271447208D03*
D40*
X460013513Y-271447208D03*
D39*
X461918513Y-271457208D03*
X458108513Y-271457208D03*
X461918513Y-273362208D03*
X460013513Y-273362208D03*
X458108513Y-273362208D03*
D38*
X461153513Y-265147208D03*
X462293513Y-265147208D03*
D26*
X577307179Y-267084208D03*
X577307179Y-269084208D03*
D25*
X352409847Y-336143197D03*
X352409847Y-338218197D03*
X552842380Y-251906335D03*
X552842380Y-253981335D03*
D35*
X592801382Y-164335335D03*
X597801382Y-164335335D03*
D33*
X429005680Y-169747335D03*
X431005680Y-169747335D03*
D44*
X188161012Y-143236208D03*
D25*
X211230382Y-183537335D03*
X211230382Y-185612335D03*
D34*
X458873513Y-261654208D03*
X461998513Y-261654208D03*
D28*
X371676050Y-261438224D03*
X368876050Y-261438224D03*
D32*
X385782881Y-194102335D03*
X385782881Y-192102335D03*
D25*
X491951647Y-345447766D03*
X491951647Y-347522766D03*
D27*
X563087381Y-176622335D03*
X565162381Y-176622335D03*
D25*
X444529715Y-267696223D03*
X444529715Y-269771223D03*
X557257381Y-267696223D03*
X557257381Y-269771223D03*
D28*
X484403716Y-265375224D03*
X481603716Y-265375224D03*
D41*
X681692612Y-370004336D03*
X681692612Y-367204336D03*
D36*
X275357287Y-308532369D03*
X276307287Y-308532369D03*
X277257287Y-308532369D03*
X277257287Y-311232369D03*
X275357287Y-311232369D03*
D27*
X450359715Y-174590335D03*
X452434715Y-174590335D03*
D28*
X455396715Y-265375224D03*
X452596715Y-265375224D03*
D44*
X677111012Y-395458208D03*
D31*
X577313179Y-255504208D03*
D32*
X672824213Y-236633965D03*
X672824213Y-234633965D03*
D25*
X415856482Y-314721723D03*
X415856482Y-316796723D03*
D26*
X677904213Y-275773966D03*
X677904213Y-277773966D03*
D27*
X619451214Y-174590335D03*
X621526214Y-174590335D03*
D25*
X267594215Y-183537335D03*
X267594215Y-185612335D03*
X219074383Y-267696223D03*
X219074383Y-269771223D03*
D34*
X289782014Y-261654208D03*
X292907014Y-261654208D03*
D26*
X345209847Y-336141297D03*
X345209847Y-338141297D03*
D31*
X522736548Y-167477208D03*
D26*
X520943346Y-267084208D03*
X520943346Y-269084208D03*
D27*
X506723548Y-176622335D03*
X508798548Y-176622335D03*
D36*
X360728121Y-308532369D03*
X361678121Y-308532369D03*
X362628121Y-308532369D03*
X362628121Y-311232369D03*
X360728121Y-311232369D03*
D37*
X523111346Y-264600708D03*
X523111346Y-267725708D03*
D32*
X442146714Y-194102335D03*
X442146714Y-192102335D03*
X471153715Y-194102335D03*
X471153715Y-192102335D03*
X532559549Y-258358224D03*
X532559549Y-256358224D03*
D25*
X239139483Y-345447766D03*
X239139483Y-347522766D03*
X529900549Y-267696223D03*
X529900549Y-269771223D03*
X386849481Y-314721723D03*
X386849481Y-316796723D03*
X360809050Y-267696223D03*
X360809050Y-269771223D03*
D32*
X677904213Y-236633965D03*
X677904213Y-234633965D03*
X686323612Y-365185335D03*
X686323612Y-363185335D03*
D26*
X697843213Y-361947335D03*
X697843213Y-363947335D03*
D32*
X250740384Y-258358224D03*
X250740384Y-256358224D03*
D25*
X388165882Y-267696223D03*
X388165882Y-269771223D03*
D31*
X606457213Y-160873208D03*
D28*
X428039883Y-265375224D03*
X425239883Y-265375224D03*
D27*
X563087381Y-174590335D03*
X565162381Y-174590335D03*
D36*
X557176452Y-308532369D03*
X558126452Y-308532369D03*
X559076452Y-308532369D03*
X559076452Y-311232369D03*
X557176452Y-311232369D03*
D42*
X685524214Y-268626967D03*
X685524214Y-271426967D03*
D31*
X437365714Y-167477208D03*
D41*
X677904213Y-243780966D03*
X677904213Y-240980966D03*
D25*
X633686314Y-345447766D03*
X633686314Y-347522766D03*
D37*
X354019847Y-264600708D03*
X354019847Y-267725708D03*
D36*
X304364288Y-308532369D03*
X305314288Y-308532369D03*
X306264288Y-308532369D03*
X306264288Y-311232369D03*
X304364288Y-311232369D03*
D26*
X699748213Y-361947335D03*
X699748213Y-363947335D03*
D28*
X455396715Y-261438224D03*
X452596715Y-261438224D03*
D25*
X408773680Y-336143197D03*
X408773680Y-338218197D03*
D32*
X307104217Y-258358224D03*
X307104217Y-256358224D03*
X554874380Y-194102335D03*
X554874380Y-192102335D03*
D27*
X423002883Y-176622335D03*
X425077883Y-176622335D03*
D32*
X640245214Y-194102335D03*
X640245214Y-192102335D03*
D25*
X351867149Y-345447766D03*
X351867149Y-347522766D03*
D32*
X503552548Y-258358224D03*
X503552548Y-256358224D03*
D26*
X672824213Y-275773966D03*
X672824213Y-277773966D03*
D30*
X457937513Y-333833228D03*
X457937513Y-333183228D03*
X457937513Y-332533228D03*
X457937513Y-331883228D03*
X457937513Y-331233228D03*
X457937513Y-330583228D03*
X457937513Y-329933228D03*
X457937513Y-329283228D03*
X457937513Y-328633228D03*
X457937513Y-327983228D03*
X457937513Y-327333228D03*
X457937513Y-326683228D03*
X457937513Y-326033228D03*
X457937513Y-325383228D03*
X465137513Y-325383228D03*
X465137513Y-326033228D03*
X465137513Y-326683228D03*
X465137513Y-327333228D03*
X465137513Y-327983228D03*
X465137513Y-328633228D03*
X465137513Y-329283228D03*
X465137513Y-329933228D03*
X465137513Y-330583228D03*
X465137513Y-331233228D03*
X465137513Y-331883228D03*
X465137513Y-332533228D03*
X465137513Y-333183228D03*
X465137513Y-333833228D03*
D31*
X695526012Y-203388208D03*
D25*
X493049547Y-183537335D03*
X493049547Y-185612335D03*
D41*
X685524213Y-243780965D03*
X685524213Y-240980965D03*
D26*
X570665179Y-336141297D03*
X570665179Y-338141297D03*
D45*
X681946612Y-378679335D03*
X679946612Y-378679335D03*
D25*
X496478547Y-251906335D03*
X496478547Y-253981335D03*
X500893548Y-267696223D03*
X500893548Y-269771223D03*
X359492649Y-314721723D03*
X359492649Y-316796723D03*
D33*
X520952346Y-261337208D03*
X522952346Y-261337208D03*
D28*
X624488214Y-265375224D03*
X621688214Y-265375224D03*
D26*
X401573680Y-336141297D03*
X401573680Y-338141297D03*
D27*
X479366716Y-174590335D03*
X481441716Y-174590335D03*
D31*
X410008882Y-167477208D03*
D42*
X675364214Y-268626967D03*
X675364214Y-271426967D03*
D32*
X678390612Y-372795336D03*
X678390612Y-370795336D03*
D25*
X323958048Y-183537335D03*
X323958048Y-185612335D03*
D33*
X239133181Y-261337208D03*
X241133181Y-261337208D03*
D25*
X605777213Y-183537335D03*
X605777213Y-185612335D03*
D27*
X479366716Y-176622335D03*
X481441716Y-176622335D03*
D33*
X633680012Y-261337208D03*
X635680012Y-261337208D03*
D35*
X451066715Y-164335335D03*
X456066715Y-164335335D03*
D31*
X240917383Y-160873208D03*
D32*
X363468050Y-258358224D03*
X363468050Y-256358224D03*
D25*
X522056548Y-183537335D03*
X522056548Y-185612335D03*
D31*
X437365714Y-160873208D03*
D32*
X447188715Y-258358224D03*
X447188715Y-256358224D03*
D25*
X465137513Y-336143197D03*
X465137513Y-338218197D03*
D31*
X579100381Y-160873208D03*
D33*
X464588513Y-261337208D03*
X466588513Y-261337208D03*
D31*
X297281216Y-160873208D03*
D32*
X688064213Y-236633965D03*
X688064213Y-234633965D03*
D25*
X440114714Y-251906335D03*
X440114714Y-253981335D03*
X443213314Y-314721723D03*
X443213314Y-316796723D03*
D33*
X541733346Y-169747335D03*
X543733346Y-169747335D03*
D32*
X498510547Y-194102335D03*
X498510547Y-192102335D03*
D27*
X366639050Y-174590335D03*
X368714050Y-174590335D03*
D31*
X268274215Y-167477208D03*
D46*
X630334012Y-280984708D03*
X629684012Y-280984708D03*
X629034012Y-280984708D03*
X628384012Y-280984708D03*
X628384012Y-276759708D03*
X629034012Y-276759708D03*
X629684012Y-276759708D03*
X630334012Y-276759708D03*
D25*
X240237383Y-183537335D03*
X240237383Y-185612335D03*
D36*
X331721120Y-308532369D03*
X332671120Y-308532369D03*
X333621120Y-308532369D03*
X333621120Y-311232369D03*
X331721120Y-311232369D03*
D25*
X578420381Y-183537335D03*
X578420381Y-185612335D03*
D42*
X682984214Y-268626967D03*
X682984214Y-271426967D03*
D25*
X548315480Y-345447766D03*
X548315480Y-347522766D03*
D28*
X286305216Y-265375224D03*
X283505216Y-265375224D03*
D42*
X670308713Y-246380965D03*
X670308713Y-249180965D03*
D31*
X606457213Y-167477208D03*
D27*
X619451214Y-176622335D03*
X621526214Y-176622335D03*
D26*
X675364213Y-275773966D03*
X675364213Y-277773966D03*
D37*
X297656014Y-264600708D03*
X297656014Y-267725708D03*
D31*
X297281216Y-167477208D03*
D37*
X635839012Y-264600708D03*
X635839012Y-267725708D03*
D26*
X457937513Y-336141297D03*
X457937513Y-338141297D03*
D25*
X246764983Y-314721723D03*
X246764983Y-316796723D03*
D32*
X216691382Y-194102335D03*
X216691382Y-192102335D03*
D26*
X520943346Y-263147208D03*
X520943346Y-265147208D03*
D30*
X401573680Y-333833228D03*
X401573680Y-333183228D03*
X401573680Y-332533228D03*
X401573680Y-331883228D03*
X401573680Y-331233228D03*
X401573680Y-330583228D03*
X401573680Y-329933228D03*
X401573680Y-329283228D03*
X401573680Y-328633228D03*
X401573680Y-327983228D03*
X401573680Y-327333228D03*
X401573680Y-326683228D03*
X401573680Y-326033228D03*
X401573680Y-325383228D03*
X408773680Y-325383228D03*
X408773680Y-326033228D03*
X408773680Y-326683228D03*
X408773680Y-327333228D03*
X408773680Y-327983228D03*
X408773680Y-328633228D03*
X408773680Y-329283228D03*
X408773680Y-329933228D03*
X408773680Y-330583228D03*
X408773680Y-331233228D03*
X408773680Y-331883228D03*
X408773680Y-332533228D03*
X408773680Y-333183228D03*
X408773680Y-333833228D03*
D34*
X233418181Y-261654208D03*
X236543181Y-261654208D03*
D31*
X324638048Y-160873208D03*
D25*
X327387048Y-251906335D03*
X327387048Y-253981335D03*
D33*
X295497014Y-261337208D03*
X297497014Y-261337208D03*
D25*
X528584148Y-314721723D03*
X528584148Y-316796723D03*
D31*
X353645049Y-160873208D03*
D28*
X568124381Y-265375224D03*
X565324381Y-265375224D03*
D37*
X241292181Y-264600708D03*
X241292181Y-267725708D03*
D35*
X367346050Y-164335335D03*
X372346050Y-164335335D03*
D28*
X399032882Y-261438224D03*
X396232882Y-261438224D03*
D36*
X248000455Y-308532369D03*
X248950455Y-308532369D03*
X249900455Y-308532369D03*
X249900455Y-311232369D03*
X248000455Y-311232369D03*
D26*
X514301346Y-336141297D03*
X514301346Y-338141297D03*
D25*
X239682181Y-336143197D03*
X239682181Y-338218197D03*
X584947981Y-314721723D03*
X584947981Y-316796723D03*
D31*
X635464214Y-160873208D03*
D33*
X569080381Y-169737538D03*
X571080381Y-169737538D03*
D37*
X579475179Y-264600708D03*
X579475179Y-267725708D03*
D32*
X527517548Y-194102335D03*
X527517548Y-192102335D03*
D41*
X682984213Y-243780965D03*
X682984213Y-240980965D03*
D32*
X559916381Y-258358224D03*
X559916381Y-256358224D03*
D28*
X315312217Y-265375224D03*
X312512217Y-265375224D03*
D35*
X536437549Y-164335335D03*
X541437549Y-164335335D03*
D25*
X408230982Y-345447766D03*
X408230982Y-347522766D03*
D30*
X514301346Y-333833228D03*
X514301346Y-333183228D03*
X514301346Y-332533228D03*
X514301346Y-331883228D03*
X514301346Y-331233228D03*
X514301346Y-330583228D03*
X514301346Y-329933228D03*
X514301346Y-329283228D03*
X514301346Y-328633228D03*
X514301346Y-327983228D03*
X514301346Y-327333228D03*
X514301346Y-326683228D03*
X514301346Y-326033228D03*
X514301346Y-325383228D03*
X521501346Y-325383228D03*
X521501346Y-326033228D03*
X521501346Y-326683228D03*
X521501346Y-327333228D03*
X521501346Y-327983228D03*
X521501346Y-328633228D03*
X521501346Y-329283228D03*
X521501346Y-329933228D03*
X521501346Y-330583228D03*
X521501346Y-331233228D03*
X521501346Y-331883228D03*
X521501346Y-332533228D03*
X521501346Y-333183228D03*
X521501346Y-333833228D03*
D31*
X493729547Y-167477208D03*
D25*
X464594815Y-345447766D03*
X464594815Y-347522766D03*
D30*
X345209847Y-333833228D03*
X345209847Y-333183228D03*
X345209847Y-332533228D03*
X345209847Y-331883228D03*
X345209847Y-331233228D03*
X345209847Y-330583228D03*
X345209847Y-329933228D03*
X345209847Y-329283228D03*
X345209847Y-328633228D03*
X345209847Y-327983228D03*
X345209847Y-327333228D03*
X345209847Y-326683228D03*
X345209847Y-326033228D03*
X345209847Y-325383228D03*
X352409847Y-325383228D03*
X352409847Y-326033228D03*
X352409847Y-326683228D03*
X352409847Y-327333228D03*
X352409847Y-327983228D03*
X352409847Y-328633228D03*
X352409847Y-329283228D03*
X352409847Y-329933228D03*
X352409847Y-330583228D03*
X352409847Y-331233228D03*
X352409847Y-331883228D03*
X352409847Y-332533228D03*
X352409847Y-333183228D03*
X352409847Y-333833228D03*
D26*
X239124181Y-267084208D03*
X239124181Y-269084208D03*
D30*
X570665179Y-333833228D03*
X570665179Y-333183228D03*
X570665179Y-332533228D03*
X570665179Y-331883228D03*
X570665179Y-331233228D03*
X570665179Y-330583228D03*
X570665179Y-329933228D03*
X570665179Y-329283228D03*
X570665179Y-328633228D03*
X570665179Y-327983228D03*
X570665179Y-327333228D03*
X570665179Y-326683228D03*
X570665179Y-326033228D03*
X570665179Y-325383228D03*
X577865179Y-325383228D03*
X577865179Y-326033228D03*
X577865179Y-326683228D03*
X577865179Y-327333228D03*
X577865179Y-327983228D03*
X577865179Y-328633228D03*
X577865179Y-329283228D03*
X577865179Y-329933228D03*
X577865179Y-330583228D03*
X577865179Y-331233228D03*
X577865179Y-331883228D03*
X577865179Y-332533228D03*
X577865179Y-333183228D03*
X577865179Y-333833228D03*
D31*
X410008882Y-160873208D03*
D32*
X670284213Y-236633965D03*
X670284213Y-234633965D03*
D38*
X570461179Y-265147208D03*
X571601179Y-265147208D03*
D39*
X574646179Y-269552208D03*
X572741179Y-269552208D03*
X570836179Y-269552208D03*
X572741179Y-271447208D03*
D40*
X572741179Y-271447208D03*
D39*
X574646179Y-271457208D03*
X570836179Y-271457208D03*
X574646179Y-273362208D03*
X572741179Y-273362208D03*
X570836179Y-273362208D03*
D38*
X573881179Y-265147208D03*
X575021179Y-265147208D03*
D25*
X642628215Y-267696223D03*
X642628215Y-269771223D03*
X383750881Y-251906335D03*
X383750881Y-253981335D03*
X612304813Y-314721723D03*
X612304813Y-316796723D03*
D34*
X627965012Y-261654208D03*
X631090012Y-261654208D03*
D25*
X330485648Y-314721723D03*
X330485648Y-316796723D03*
D28*
X568124381Y-261438224D03*
X565324381Y-261438224D03*
D34*
X402509680Y-261654208D03*
X405634680Y-261654208D03*
D42*
X677904214Y-268626967D03*
X677904214Y-271426967D03*
D25*
X634784214Y-183537335D03*
X634784214Y-185612335D03*
D28*
X681692612Y-375504335D03*
X678892612Y-375504335D03*
X229941383Y-261438224D03*
X227141383Y-261438224D03*
D32*
X221733383Y-258358224D03*
X221733383Y-256358224D03*
D31*
X351857847Y-255504208D03*
D25*
X379223981Y-345447766D03*
X379223981Y-347522766D03*
D28*
X342669049Y-261438224D03*
X339869049Y-261438224D03*
D33*
X577316179Y-261337208D03*
X579316179Y-261337208D03*
D35*
X620158214Y-164335335D03*
X625158214Y-164335335D03*
D32*
X329419048Y-194102335D03*
X329419048Y-192102335D03*
D33*
X408224680Y-261337208D03*
X410224680Y-261337208D03*
D35*
X338339049Y-164335335D03*
X343339049Y-164335335D03*
D32*
X616280214Y-258358224D03*
X616280214Y-256358224D03*
D31*
X550093380Y-160873208D03*
X239130181Y-255504208D03*
D32*
X390824882Y-258358224D03*
X390824882Y-256358224D03*
D41*
X688064213Y-243780964D03*
X688064213Y-240980964D03*
D42*
X672824214Y-268626967D03*
X672824214Y-271426967D03*
D35*
X225611383Y-164335335D03*
X230611383Y-164335335D03*
D32*
X645287215Y-258358224D03*
X645287215Y-256358224D03*
D27*
X253911384Y-174590335D03*
X255986384Y-174590335D03*
D26*
X627029012Y-336141297D03*
X627029012Y-338141297D03*
D32*
X358426049Y-194102335D03*
X358426049Y-192102335D03*
D31*
X324638048Y-167477208D03*
D25*
X469121715Y-251906335D03*
X469121715Y-253981335D03*
X520958648Y-345447766D03*
X520958648Y-347522766D03*
D35*
X394702882Y-164335335D03*
X399702882Y-164335335D03*
M02*
