G04 #@! TF.GenerationSoftware,KiCad,Pcbnew,8.0.6-unknown-202411051418~a3eff548b7~ubuntu20.04.1*
G04 #@! TF.CreationDate,2024-11-07T21:25:44-05:00*
G04 #@! TF.ProjectId,ARX,4152582e-6b69-4636-9164-5f7063625858,Revision I*
G04 #@! TF.SameCoordinates,Original*
G04 #@! TF.FileFunction,Copper,L5,Inr*
G04 #@! TF.FilePolarity,Positive*
%FSLAX46Y46*%
G04 Gerber Fmt 4.6, Leading zero omitted, Abs format (unit mm)*
G04 Created by KiCad (PCBNEW 8.0.6-unknown-202411051418~a3eff548b7~ubuntu20.04.1) date 2024-11-07 21:25:44*
%MOMM*%
%LPD*%
G01*
G04 APERTURE LIST*
G04 #@! TA.AperFunction,ComponentPad*
%ADD10C,7.000000*%
G04 #@! TD*
G04 #@! TA.AperFunction,HeatsinkPad*
%ADD11C,0.584200*%
G04 #@! TD*
G04 #@! TA.AperFunction,HeatsinkPad*
%ADD12C,0.762000*%
G04 #@! TD*
G04 #@! TA.AperFunction,ComponentPad*
%ADD13C,1.240000*%
G04 #@! TD*
G04 #@! TA.AperFunction,ComponentPad*
%ADD14C,5.588000*%
G04 #@! TD*
G04 #@! TA.AperFunction,HeatsinkPad*
%ADD15C,0.600000*%
G04 #@! TD*
G04 #@! TA.AperFunction,ComponentPad*
%ADD16C,4.000000*%
G04 #@! TD*
G04 #@! TA.AperFunction,ComponentPad*
%ADD17R,0.600000X0.600000*%
G04 #@! TD*
G04 #@! TA.AperFunction,ComponentPad*
%ADD18R,3.430000X3.780000*%
G04 #@! TD*
G04 #@! TA.AperFunction,ComponentPad*
%ADD19C,0.600000*%
G04 #@! TD*
G04 #@! TA.AperFunction,ComponentPad*
%ADD20R,1.700000X1.700000*%
G04 #@! TD*
G04 #@! TA.AperFunction,ComponentPad*
%ADD21O,1.700000X1.700000*%
G04 #@! TD*
G04 #@! TA.AperFunction,ComponentPad*
%ADD22R,1.905000X1.905000*%
G04 #@! TD*
G04 #@! TA.AperFunction,ComponentPad*
%ADD23O,1.905000X1.905000*%
G04 #@! TD*
G04 #@! TA.AperFunction,ComponentPad*
%ADD24C,2.780000*%
G04 #@! TD*
G04 #@! TA.AperFunction,ComponentPad*
%ADD25C,6.807200*%
G04 #@! TD*
G04 #@! TA.AperFunction,HeatsinkPad*
%ADD26C,0.800000*%
G04 #@! TD*
G04 #@! TA.AperFunction,ViaPad*
%ADD27C,0.800000*%
G04 #@! TD*
G04 #@! TA.AperFunction,ViaPad*
%ADD28C,0.800001*%
G04 #@! TD*
G04 #@! TA.AperFunction,ViaPad*
%ADD29C,1.016000*%
G04 #@! TD*
G04 #@! TA.AperFunction,ViaPad*
%ADD30C,0.762000*%
G04 #@! TD*
G04 #@! TA.AperFunction,Conductor*
%ADD31C,0.381000*%
G04 #@! TD*
G04 #@! TA.AperFunction,Conductor*
%ADD32C,0.250000*%
G04 #@! TD*
G04 #@! TA.AperFunction,Conductor*
%ADD33C,0.254000*%
G04 #@! TD*
G04 APERTURE END LIST*
D10*
X342162150Y-402443208D03*
D11*
X389639082Y-250805024D03*
X389054882Y-250805024D03*
X388470682Y-250805024D03*
X389639082Y-251389224D03*
X389054882Y-251389224D03*
X388470682Y-251389224D03*
X389639082Y-251973424D03*
X389054882Y-251973424D03*
X388470682Y-251973424D03*
D12*
X586345282Y-238589625D03*
X589710782Y-237319625D03*
X589710782Y-238589625D03*
X589710782Y-239859625D03*
X590980782Y-237319625D03*
X590980782Y-238589625D03*
X590980782Y-239859625D03*
D11*
X384896182Y-344363566D03*
X384311982Y-344363566D03*
X383727782Y-344363566D03*
X384896182Y-344947766D03*
X384311982Y-344947766D03*
X383727782Y-344947766D03*
X384896182Y-345531966D03*
X384311982Y-345531966D03*
X383727782Y-345531966D03*
X413903183Y-344363566D03*
X413318983Y-344363566D03*
X412734783Y-344363566D03*
X413903183Y-344947766D03*
X413318983Y-344947766D03*
X412734783Y-344947766D03*
X413903183Y-345531966D03*
X413318983Y-345531966D03*
X412734783Y-345531966D03*
X248704384Y-315780723D03*
X248704384Y-316796723D03*
X248704384Y-317812723D03*
X249720384Y-315780723D03*
X249720384Y-316796723D03*
X249720384Y-317812723D03*
X250736384Y-315780723D03*
X250736384Y-316796723D03*
X250736384Y-317812723D03*
D12*
X529981449Y-238589625D03*
X533346949Y-237319625D03*
X533346949Y-238589625D03*
X533346949Y-239859625D03*
X534616949Y-237319625D03*
X534616949Y-238589625D03*
X534616949Y-239859625D03*
D11*
X470267016Y-344363566D03*
X469682816Y-344363566D03*
X469098616Y-344363566D03*
X470267016Y-344947766D03*
X469682816Y-344947766D03*
X469098616Y-344947766D03*
X470267016Y-345531966D03*
X469682816Y-345531966D03*
X469098616Y-345531966D03*
D12*
X444767715Y-356495366D03*
X448133215Y-355225366D03*
X448133215Y-356495366D03*
X448133215Y-357765366D03*
X449403215Y-355225366D03*
X449403215Y-356495366D03*
X449403215Y-357765366D03*
D13*
X609968213Y-143236208D03*
X608698213Y-141966208D03*
X608698213Y-144506208D03*
X611238213Y-141966208D03*
X611238213Y-144506208D03*
D14*
X621906213Y-149586208D03*
X621906213Y-136886208D03*
D11*
X469967915Y-181183135D03*
X469383715Y-181183135D03*
X468799515Y-181183135D03*
X469967915Y-181767335D03*
X469383715Y-181767335D03*
X468799515Y-181767335D03*
X469967915Y-182351535D03*
X469383715Y-182351535D03*
X468799515Y-182351535D03*
D12*
X383503881Y-327830167D03*
X386869381Y-326560167D03*
X386869381Y-327830167D03*
X386869381Y-329100167D03*
X388139381Y-326560167D03*
X388139381Y-327830167D03*
X388139381Y-329100167D03*
D11*
X639358515Y-344363566D03*
X638774315Y-344363566D03*
X638190115Y-344363566D03*
X639358515Y-344947766D03*
X638774315Y-344947766D03*
X638190115Y-344947766D03*
X639358515Y-345531966D03*
X638774315Y-345531966D03*
X638190115Y-345531966D03*
D13*
X244428383Y-148316208D03*
X243158383Y-147046208D03*
X243158383Y-149586208D03*
X245698383Y-147046208D03*
X245698383Y-149586208D03*
D14*
X256366383Y-154666208D03*
X256366383Y-141966208D03*
D13*
X526247548Y-148316208D03*
X524977548Y-147046208D03*
X524977548Y-149586208D03*
X527517548Y-147046208D03*
X527517548Y-149586208D03*
D14*
X538185548Y-154666208D03*
X538185548Y-141966208D03*
D11*
X586887382Y-315780723D03*
X586887382Y-316796723D03*
X586887382Y-317812723D03*
X587903382Y-315780723D03*
X587903382Y-316796723D03*
X587903382Y-317812723D03*
X588919382Y-315780723D03*
X588919382Y-316796723D03*
X588919382Y-317812723D03*
X357539350Y-344363566D03*
X356955150Y-344363566D03*
X356370950Y-344363566D03*
X357539350Y-344947766D03*
X356955150Y-344947766D03*
X356370950Y-344947766D03*
X357539350Y-345531966D03*
X356955150Y-345531966D03*
X356370950Y-345531966D03*
D15*
X367794050Y-168772335D03*
X369294050Y-168772335D03*
X368544050Y-168272335D03*
X367794050Y-167772335D03*
X369294050Y-167772335D03*
D11*
X476191716Y-264472723D03*
X476191716Y-263456723D03*
X476191716Y-262440723D03*
X475175716Y-264472723D03*
X475175716Y-263456723D03*
X475175716Y-262440723D03*
X474159716Y-264472723D03*
X474159716Y-263456723D03*
X474159716Y-262440723D03*
D12*
X270776215Y-327830167D03*
X274141715Y-326560167D03*
X274141715Y-327830167D03*
X274141715Y-329100167D03*
X275411715Y-326560167D03*
X275411715Y-327830167D03*
X275411715Y-329100167D03*
D16*
X166783213Y-193748208D03*
X166783213Y-240698208D03*
D17*
X184358213Y-197058208D03*
X182930713Y-197058208D03*
X181503213Y-197058208D03*
X180075713Y-197058208D03*
X178648213Y-197058208D03*
D18*
X183093213Y-198498208D03*
D17*
X181503213Y-198498208D03*
D18*
X179913213Y-198498208D03*
D17*
X184358213Y-199938208D03*
X182930713Y-199938208D03*
X181503213Y-199938208D03*
X180075713Y-199938208D03*
X178648213Y-199938208D03*
D19*
X184358213Y-204548208D03*
X182930713Y-204548208D03*
X181503213Y-204548208D03*
X180075713Y-204548208D03*
X178648213Y-204548208D03*
D18*
X183093213Y-205988208D03*
D19*
X181503213Y-205988208D03*
D18*
X179913213Y-205988208D03*
D19*
X184358213Y-207428208D03*
X182930713Y-207428208D03*
X181503213Y-207428208D03*
X180075713Y-207428208D03*
X178648213Y-207428208D03*
X184358213Y-212038208D03*
X182930713Y-212038208D03*
X181503213Y-212038208D03*
X180075713Y-212038208D03*
X178648213Y-212038208D03*
D18*
X183093213Y-213478208D03*
D19*
X181503213Y-213478208D03*
D18*
X179913213Y-213478208D03*
D19*
X184358213Y-214918208D03*
X182930713Y-214918208D03*
X181503213Y-214918208D03*
X180075713Y-214918208D03*
X178648213Y-214918208D03*
X184358213Y-219528208D03*
X182930713Y-219528208D03*
X181503213Y-219528208D03*
X180075713Y-219528208D03*
X178648213Y-219528208D03*
D18*
X183093213Y-220968208D03*
D19*
X181503213Y-220968208D03*
D18*
X179913213Y-220968208D03*
D19*
X184358213Y-222408208D03*
X182930713Y-222408208D03*
X181503213Y-222408208D03*
X180075713Y-222408208D03*
X178648213Y-222408208D03*
X184358213Y-227018208D03*
X182930713Y-227018208D03*
X181503213Y-227018208D03*
X180075713Y-227018208D03*
X178648213Y-227018208D03*
D18*
X183093213Y-228458208D03*
D19*
X181503213Y-228458208D03*
D18*
X179913213Y-228458208D03*
D19*
X184358213Y-229898208D03*
X182930713Y-229898208D03*
X181503213Y-229898208D03*
X180075713Y-229898208D03*
X178648213Y-229898208D03*
X184358213Y-234508208D03*
X182930713Y-234508208D03*
X181503213Y-234508208D03*
X180075713Y-234508208D03*
X178648213Y-234508208D03*
D18*
X183093213Y-235948208D03*
D19*
X181503213Y-235948208D03*
D18*
X179913213Y-235948208D03*
D19*
X184358213Y-237388208D03*
X182930713Y-237388208D03*
X181503213Y-237388208D03*
X180075713Y-237388208D03*
X178648213Y-237388208D03*
D13*
X328149048Y-143236208D03*
X326879048Y-141966208D03*
X326879048Y-144506208D03*
X329419048Y-141966208D03*
X329419048Y-144506208D03*
D14*
X340087048Y-149586208D03*
X340087048Y-136886208D03*
D12*
X500974448Y-238589625D03*
X504339948Y-237319625D03*
X504339948Y-238589625D03*
X504339948Y-239859625D03*
X505609948Y-237319625D03*
X505609948Y-238589625D03*
X505609948Y-239859625D03*
D11*
X278093216Y-264472723D03*
X278093216Y-263456723D03*
X278093216Y-262440723D03*
X277077216Y-264472723D03*
X277077216Y-263456723D03*
X277077216Y-262440723D03*
X276061216Y-264472723D03*
X276061216Y-263456723D03*
X276061216Y-262440723D03*
D15*
X451514715Y-168772335D03*
X453014715Y-168772335D03*
X452264715Y-168272335D03*
X451514715Y-167772335D03*
X453014715Y-167772335D03*
D11*
X553987681Y-344363566D03*
X553403481Y-344363566D03*
X552819281Y-344363566D03*
X553987681Y-344947766D03*
X553403481Y-344947766D03*
X552819281Y-344947766D03*
X553987681Y-345531966D03*
X553403481Y-345531966D03*
X552819281Y-345531966D03*
D12*
X214412382Y-327830167D03*
X217777882Y-326560167D03*
X217777882Y-327830167D03*
X217777882Y-329100167D03*
X219047882Y-326560167D03*
X219047882Y-327830167D03*
X219047882Y-329100167D03*
D11*
X441260015Y-344363566D03*
X440675815Y-344363566D03*
X440091615Y-344363566D03*
X441260015Y-344947766D03*
X440675815Y-344947766D03*
X440091615Y-344947766D03*
X441260015Y-345531966D03*
X440675815Y-345531966D03*
X440091615Y-345531966D03*
D13*
X475082816Y-395458208D03*
X476352816Y-396728208D03*
X476352816Y-394188208D03*
X473812816Y-396728208D03*
X473812816Y-394188208D03*
D14*
X463144816Y-389108208D03*
X463144816Y-401808208D03*
D12*
X361047050Y-356495366D03*
X364412550Y-355225366D03*
X364412550Y-356495366D03*
X364412550Y-357765366D03*
X365682550Y-355225366D03*
X365682550Y-356495366D03*
X365682550Y-357765366D03*
X613859214Y-356495366D03*
X617224714Y-355225366D03*
X617224714Y-356495366D03*
X617224714Y-357765366D03*
X618494714Y-355225366D03*
X618494714Y-356495366D03*
X618494714Y-357765366D03*
D15*
X395150882Y-168772335D03*
X396650882Y-168772335D03*
X395900882Y-168272335D03*
X395150882Y-167772335D03*
X396650882Y-167772335D03*
D11*
X526331748Y-181183135D03*
X525747548Y-181183135D03*
X525163348Y-181183135D03*
X526331748Y-181767335D03*
X525747548Y-181767335D03*
X525163348Y-181767335D03*
X526331748Y-182351535D03*
X525747548Y-182351535D03*
X525163348Y-182351535D03*
D20*
X670284213Y-282853966D03*
D21*
X672824213Y-282853966D03*
X675364213Y-282853966D03*
X677904213Y-282853966D03*
X680444213Y-282853966D03*
X682984213Y-282853966D03*
X685524213Y-282853966D03*
X688064213Y-282853966D03*
X670284213Y-285393966D03*
X672824213Y-285393966D03*
X675364213Y-285393966D03*
X677904213Y-285393966D03*
X680444213Y-285393966D03*
X682984213Y-285393966D03*
X685524213Y-285393966D03*
X688064213Y-285393966D03*
D12*
X557338281Y-238589625D03*
X560703781Y-237319625D03*
X560703781Y-238589625D03*
X560703781Y-239859625D03*
X561973781Y-237319625D03*
X561973781Y-238589625D03*
X561973781Y-239859625D03*
D20*
X689969213Y-390416850D03*
D21*
X687429213Y-390416850D03*
X689969213Y-387876850D03*
X687429213Y-387876850D03*
X689969213Y-385336850D03*
X687429213Y-385336850D03*
X689969213Y-382796850D03*
X687429213Y-382796850D03*
D11*
X610351514Y-344363566D03*
X609767314Y-344363566D03*
X609183114Y-344363566D03*
X610351514Y-344947766D03*
X609767314Y-344947766D03*
X609183114Y-344947766D03*
X610351514Y-345531966D03*
X609767314Y-345531966D03*
X609183114Y-345531966D03*
D15*
X564242381Y-168772335D03*
X565742381Y-168772335D03*
X564992381Y-168272335D03*
X564242381Y-167772335D03*
X565742381Y-167772335D03*
X620606214Y-168772335D03*
X622106214Y-168772335D03*
X621356214Y-168272335D03*
X620606214Y-167772335D03*
X622106214Y-167772335D03*
D11*
X588919382Y-264472723D03*
X588919382Y-263456723D03*
X588919382Y-262440723D03*
X587903382Y-264472723D03*
X587903382Y-263456723D03*
X587903382Y-262440723D03*
X586887382Y-264472723D03*
X586887382Y-263456723D03*
X586887382Y-262440723D03*
D15*
X480521716Y-168772335D03*
X482021716Y-168772335D03*
X481271716Y-168272335D03*
X480521716Y-167772335D03*
X482021716Y-167772335D03*
D11*
X446002915Y-250805024D03*
X445418715Y-250805024D03*
X444834515Y-250805024D03*
X446002915Y-251389224D03*
X445418715Y-251389224D03*
X444834515Y-251389224D03*
X446002915Y-251973424D03*
X445418715Y-251973424D03*
X444834515Y-251973424D03*
D12*
X473617616Y-238589625D03*
X476983116Y-237319625D03*
X476983116Y-238589625D03*
X476983116Y-239859625D03*
X478253116Y-237319625D03*
X478253116Y-238589625D03*
X478253116Y-239859625D03*
X552595380Y-327830167D03*
X555960880Y-326560167D03*
X555960880Y-327830167D03*
X555960880Y-329100167D03*
X557230880Y-326560167D03*
X557230880Y-327830167D03*
X557230880Y-329100167D03*
X468874715Y-327830167D03*
X472240215Y-326560167D03*
X472240215Y-327830167D03*
X472240215Y-329100167D03*
X473510215Y-326560167D03*
X473510215Y-327830167D03*
X473510215Y-329100167D03*
D11*
X361432050Y-315780723D03*
X361432050Y-316796723D03*
X361432050Y-317812723D03*
X362448050Y-315780723D03*
X362448050Y-316796723D03*
X362448050Y-317812723D03*
X363464050Y-315780723D03*
X363464050Y-316796723D03*
X363464050Y-317812723D03*
X388788882Y-315780723D03*
X388788882Y-316796723D03*
X388788882Y-317812723D03*
X389804882Y-315780723D03*
X389804882Y-316796723D03*
X389804882Y-317812723D03*
X390820882Y-315780723D03*
X390820882Y-316796723D03*
X390820882Y-317812723D03*
D12*
X219312383Y-356495366D03*
X222677883Y-355225366D03*
X222677883Y-356495366D03*
X222677883Y-357765366D03*
X223947883Y-355225366D03*
X223947883Y-356495366D03*
X223947883Y-357765366D03*
D11*
X501516548Y-315780723D03*
X501516548Y-316796723D03*
X501516548Y-317812723D03*
X502532548Y-315780723D03*
X502532548Y-316796723D03*
X502532548Y-317812723D03*
X503548548Y-315780723D03*
X503548548Y-316796723D03*
X503548548Y-317812723D03*
D13*
X469883715Y-148316208D03*
X468613715Y-147046208D03*
X468613715Y-149586208D03*
X471153715Y-147046208D03*
X471153715Y-149586208D03*
D14*
X481821715Y-154666208D03*
X481821715Y-141966208D03*
D13*
X220620483Y-390378208D03*
X221890483Y-391648208D03*
X221890483Y-389108208D03*
X219350483Y-391648208D03*
X219350483Y-389108208D03*
D14*
X208682483Y-384028208D03*
X208682483Y-396728208D03*
D11*
X497324747Y-181183135D03*
X496740547Y-181183135D03*
X496156347Y-181183135D03*
X497324747Y-181767335D03*
X496740547Y-181767335D03*
X496156347Y-181767335D03*
X497324747Y-182351535D03*
X496740547Y-182351535D03*
X496156347Y-182351535D03*
X357240249Y-181183135D03*
X356656049Y-181183135D03*
X356071849Y-181183135D03*
X357240249Y-181767335D03*
X356656049Y-181767335D03*
X356071849Y-181767335D03*
X357240249Y-182351535D03*
X356656049Y-182351535D03*
X356071849Y-182351535D03*
D10*
X518996012Y-136251208D03*
D20*
X689969213Y-352374335D03*
D21*
X687429213Y-352374335D03*
X689969213Y-349834335D03*
X687429213Y-349834335D03*
X689969213Y-347294335D03*
X687429213Y-347294335D03*
X689969213Y-344754335D03*
X687429213Y-344754335D03*
D11*
X532555549Y-264472723D03*
X532555549Y-263456723D03*
X532555549Y-262440723D03*
X531539549Y-264472723D03*
X531539549Y-263456723D03*
X531539549Y-262440723D03*
X530523549Y-264472723D03*
X530523549Y-263456723D03*
X530523549Y-262440723D03*
D15*
X536885549Y-168772335D03*
X538385549Y-168772335D03*
X537635549Y-168272335D03*
X536885549Y-167772335D03*
X538385549Y-167772335D03*
D12*
X525238548Y-327830167D03*
X528604048Y-326560167D03*
X528604048Y-327830167D03*
X528604048Y-329100167D03*
X529874048Y-326560167D03*
X529874048Y-327830167D03*
X529874048Y-329100167D03*
X496231547Y-327830167D03*
X499597047Y-326560167D03*
X499597047Y-327830167D03*
X499597047Y-329100167D03*
X500867047Y-326560167D03*
X500867047Y-327830167D03*
X500867047Y-329100167D03*
D10*
X349451012Y-136251208D03*
D11*
X419827883Y-264472723D03*
X419827883Y-263456723D03*
X419827883Y-262440723D03*
X418811883Y-264472723D03*
X418811883Y-263456723D03*
X418811883Y-262440723D03*
X417795883Y-264472723D03*
X417795883Y-263456723D03*
X417795883Y-262440723D03*
X440960914Y-181183135D03*
X440376714Y-181183135D03*
X439792514Y-181183135D03*
X440960914Y-181767335D03*
X440376714Y-181767335D03*
X439792514Y-181767335D03*
X440960914Y-182351535D03*
X440376714Y-182351535D03*
X439792514Y-182351535D03*
D10*
X168476012Y-136251208D03*
D11*
X276911416Y-250805024D03*
X276327216Y-250805024D03*
X275743016Y-250805024D03*
X276911416Y-251389224D03*
X276327216Y-251389224D03*
X275743016Y-251389224D03*
X276911416Y-251973424D03*
X276327216Y-251973424D03*
X275743016Y-251973424D03*
X558730581Y-250805024D03*
X558146381Y-250805024D03*
X557562181Y-250805024D03*
X558730581Y-251389224D03*
X558146381Y-251389224D03*
X557562181Y-251389224D03*
X558730581Y-251973424D03*
X558146381Y-251973424D03*
X557562181Y-251973424D03*
D13*
X587810482Y-395458208D03*
X589080482Y-396728208D03*
X589080482Y-394188208D03*
X586540482Y-396728208D03*
X586540482Y-394188208D03*
D14*
X575872482Y-389108208D03*
X575872482Y-401808208D03*
D13*
X497240547Y-143236208D03*
X495970547Y-141966208D03*
X495970547Y-144506208D03*
X498510547Y-141966208D03*
X498510547Y-144506208D03*
D14*
X509178547Y-149586208D03*
X509178547Y-136886208D03*
D22*
X686667213Y-325682966D03*
D23*
X686667213Y-328222966D03*
X686667213Y-330762966D03*
X686667213Y-333302966D03*
D11*
X334457049Y-264472723D03*
X334457049Y-263456723D03*
X334457049Y-262440723D03*
X333441049Y-264472723D03*
X333441049Y-263456723D03*
X333441049Y-262440723D03*
X332425049Y-264472723D03*
X332425049Y-263456723D03*
X332425049Y-262440723D03*
D13*
X271785215Y-143236208D03*
X270515215Y-141966208D03*
X270515215Y-144506208D03*
X273055215Y-141966208D03*
X273055215Y-144506208D03*
D14*
X283723215Y-149586208D03*
X283723215Y-136886208D03*
D11*
X363464050Y-264472723D03*
X363464050Y-263456723D03*
X363464050Y-262440723D03*
X362448050Y-264472723D03*
X362448050Y-263456723D03*
X362448050Y-262440723D03*
X361432050Y-264472723D03*
X361432050Y-263456723D03*
X361432050Y-262440723D03*
X557880381Y-315780723D03*
X557880381Y-316796723D03*
X557880381Y-317812723D03*
X558896381Y-315780723D03*
X558896381Y-316796723D03*
X558896381Y-317812723D03*
X559912381Y-315780723D03*
X559912381Y-316796723D03*
X559912381Y-317812723D03*
X300876416Y-181183135D03*
X300292216Y-181183135D03*
X299708016Y-181183135D03*
X300876416Y-181767335D03*
X300292216Y-181767335D03*
X299708016Y-181767335D03*
X300876416Y-182351535D03*
X300292216Y-182351535D03*
X299708016Y-182351535D03*
D13*
X582611381Y-148316208D03*
X581341381Y-147046208D03*
X581341381Y-149586208D03*
X583881381Y-147046208D03*
X583881381Y-149586208D03*
D14*
X594549381Y-154666208D03*
X594549381Y-141966208D03*
D12*
X530138549Y-356495366D03*
X533504049Y-355225366D03*
X533504049Y-356495366D03*
X533504049Y-357765366D03*
X534774049Y-355225366D03*
X534774049Y-356495366D03*
X534774049Y-357765366D03*
D11*
X333275249Y-250805024D03*
X332691049Y-250805024D03*
X332106849Y-250805024D03*
X333275249Y-251389224D03*
X332691049Y-251389224D03*
X332106849Y-251389224D03*
X333275249Y-251973424D03*
X332691049Y-251973424D03*
X332106849Y-251973424D03*
D12*
X360889950Y-238589625D03*
X364255450Y-237319625D03*
X364255450Y-238589625D03*
X364255450Y-239859625D03*
X365525450Y-237319625D03*
X365525450Y-238589625D03*
X365525450Y-239859625D03*
X332040049Y-356495366D03*
X335405549Y-355225366D03*
X335405549Y-356495366D03*
X335405549Y-357765366D03*
X336675549Y-355225366D03*
X336675549Y-356495366D03*
X336675549Y-357765366D03*
D11*
X526630849Y-344363566D03*
X526046649Y-344363566D03*
X525462449Y-344363566D03*
X526630849Y-344947766D03*
X526046649Y-344947766D03*
X525462449Y-344947766D03*
X526630849Y-345531966D03*
X526046649Y-345531966D03*
X525462449Y-345531966D03*
D13*
X558803481Y-390378208D03*
X560073481Y-391648208D03*
X560073481Y-389108208D03*
X557533481Y-391648208D03*
X557533481Y-389108208D03*
D14*
X546865481Y-384028208D03*
X546865481Y-396728208D03*
D11*
X271869415Y-181183135D03*
X271285215Y-181183135D03*
X270701015Y-181183135D03*
X271869415Y-181767335D03*
X271285215Y-181767335D03*
X270701015Y-181767335D03*
X271869415Y-182351535D03*
X271285215Y-182351535D03*
X270701015Y-182351535D03*
D12*
X219155283Y-238589625D03*
X222520783Y-237319625D03*
X222520783Y-238589625D03*
X222520783Y-239859625D03*
X223790783Y-237319625D03*
X223790783Y-238589625D03*
X223790783Y-239859625D03*
X586502382Y-356495366D03*
X589867882Y-355225366D03*
X589867882Y-356495366D03*
X589867882Y-357765366D03*
X591137882Y-355225366D03*
X591137882Y-356495366D03*
X591137882Y-357765366D03*
D10*
X696796012Y-136251208D03*
D11*
X328532349Y-344363566D03*
X327948149Y-344363566D03*
X327363949Y-344363566D03*
X328532349Y-344947766D03*
X327948149Y-344947766D03*
X327363949Y-344947766D03*
X328532349Y-345531966D03*
X327948149Y-345531966D03*
X327363949Y-345531966D03*
D20*
X670284213Y-227013966D03*
D21*
X672824213Y-227013966D03*
X675364213Y-227013966D03*
X677904213Y-227013966D03*
X680444213Y-227013966D03*
X682984213Y-227013966D03*
X685524213Y-227013966D03*
X688064213Y-227013966D03*
X670284213Y-229553966D03*
X672824213Y-229553966D03*
X675364213Y-229553966D03*
X677904213Y-229553966D03*
X680444213Y-229553966D03*
X682984213Y-229553966D03*
X685524213Y-229553966D03*
X688064213Y-229553966D03*
D13*
X357156049Y-148316208D03*
X355886049Y-147046208D03*
X355886049Y-149586208D03*
X358426049Y-147046208D03*
X358426049Y-149586208D03*
D14*
X369094049Y-154666208D03*
X369094049Y-141966208D03*
D11*
X582994682Y-344363566D03*
X582410482Y-344363566D03*
X581826282Y-344363566D03*
X582994682Y-344947766D03*
X582410482Y-344947766D03*
X581826282Y-344947766D03*
X582994682Y-345531966D03*
X582410482Y-345531966D03*
X581826282Y-345531966D03*
D12*
X299783216Y-327830167D03*
X303148716Y-326560167D03*
X303148716Y-327830167D03*
X303148716Y-329100167D03*
X304418716Y-326560167D03*
X304418716Y-327830167D03*
X304418716Y-329100167D03*
D11*
X221729383Y-264472723D03*
X221729383Y-263456723D03*
X221729383Y-262440723D03*
X220713383Y-264472723D03*
X220713383Y-263456723D03*
X220713383Y-262440723D03*
X219697383Y-264472723D03*
X219697383Y-263456723D03*
X219697383Y-262440723D03*
X614244214Y-315780723D03*
X614244214Y-316796723D03*
X614244214Y-317812723D03*
X615260214Y-315780723D03*
X615260214Y-316796723D03*
X615260214Y-317812723D03*
X616276214Y-315780723D03*
X616276214Y-316796723D03*
X616276214Y-317812723D03*
X220547583Y-250805024D03*
X219963383Y-250805024D03*
X219379183Y-250805024D03*
X220547583Y-251389224D03*
X219963383Y-251389224D03*
X219379183Y-251389224D03*
X220547583Y-251973424D03*
X219963383Y-251973424D03*
X219379183Y-251973424D03*
D12*
X388403882Y-356495366D03*
X391769382Y-355225366D03*
X391769382Y-356495366D03*
X391769382Y-357765366D03*
X393039382Y-355225366D03*
X393039382Y-356495366D03*
X393039382Y-357765366D03*
D13*
X638975214Y-148316208D03*
X637705214Y-147046208D03*
X637705214Y-149586208D03*
X640245214Y-147046208D03*
X640245214Y-149586208D03*
D14*
X650913214Y-154666208D03*
X650913214Y-141966208D03*
D11*
X418646083Y-250805024D03*
X418061883Y-250805024D03*
X417477683Y-250805024D03*
X418646083Y-251389224D03*
X418061883Y-251389224D03*
X417477683Y-251389224D03*
X418646083Y-251973424D03*
X418061883Y-251973424D03*
X417477683Y-251973424D03*
X503548548Y-264472723D03*
X503548548Y-263456723D03*
X503548548Y-262440723D03*
X502532548Y-264472723D03*
X502532548Y-263456723D03*
X502532548Y-262440723D03*
X501516548Y-264472723D03*
X501516548Y-263456723D03*
X501516548Y-262440723D03*
X639059414Y-181183135D03*
X638475214Y-181183135D03*
X637891014Y-181183135D03*
X639059414Y-181767335D03*
X638475214Y-181767335D03*
X637891014Y-181767335D03*
X639059414Y-182351535D03*
X638475214Y-182351535D03*
X637891014Y-182351535D03*
D24*
X189547213Y-204389208D03*
X189547213Y-207789208D03*
X199467213Y-204389208D03*
X199467213Y-207789208D03*
D12*
X275676216Y-356495366D03*
X279041716Y-355225366D03*
X279041716Y-356495366D03*
X279041716Y-357765366D03*
X280311716Y-355225366D03*
X280311716Y-356495366D03*
X280311716Y-357765366D03*
X444610615Y-238589625D03*
X447976115Y-237319625D03*
X447976115Y-238589625D03*
X447976115Y-239859625D03*
X449246115Y-237319625D03*
X449246115Y-238589625D03*
X449246115Y-239859625D03*
D11*
X644101415Y-250805024D03*
X643517215Y-250805024D03*
X642933015Y-250805024D03*
X644101415Y-251389224D03*
X643517215Y-251389224D03*
X642933015Y-251389224D03*
X644101415Y-251973424D03*
X643517215Y-251973424D03*
X642933015Y-251973424D03*
D12*
X642709115Y-238589625D03*
X646074615Y-237319625D03*
X646074615Y-238589625D03*
X646074615Y-239859625D03*
X647344615Y-237319625D03*
X647344615Y-238589625D03*
X647344615Y-239859625D03*
X439867714Y-327830167D03*
X443233214Y-326560167D03*
X443233214Y-327830167D03*
X443233214Y-329100167D03*
X444503214Y-326560167D03*
X444503214Y-327830167D03*
X444503214Y-329100167D03*
D11*
X497623848Y-344363566D03*
X497039648Y-344363566D03*
X496455448Y-344363566D03*
X497623848Y-344947766D03*
X497039648Y-344947766D03*
X496455448Y-344947766D03*
X497623848Y-345531966D03*
X497039648Y-345531966D03*
X496455448Y-345531966D03*
D13*
X215421382Y-143236208D03*
X214151382Y-141966208D03*
X214151382Y-144506208D03*
X216691382Y-141966208D03*
X216691382Y-144506208D03*
D14*
X227359382Y-149586208D03*
X227359382Y-136886208D03*
D10*
X696796012Y-402443208D03*
D11*
X530523549Y-315780723D03*
X530523549Y-316796723D03*
X530523549Y-317812723D03*
X531539549Y-315780723D03*
X531539549Y-316796723D03*
X531539549Y-317812723D03*
X532555549Y-315780723D03*
X532555549Y-316796723D03*
X532555549Y-317812723D03*
X553688580Y-181183135D03*
X553104380Y-181183135D03*
X552520180Y-181183135D03*
X553688580Y-181767335D03*
X553104380Y-181767335D03*
X552520180Y-181767335D03*
X553688580Y-182351535D03*
X553104380Y-182351535D03*
X552520180Y-182351535D03*
X272168516Y-344363566D03*
X271584316Y-344363566D03*
X271000116Y-344363566D03*
X272168516Y-344947766D03*
X271584316Y-344947766D03*
X271000116Y-344947766D03*
X272168516Y-345531966D03*
X271584316Y-345531966D03*
X271000116Y-345531966D03*
D15*
X282423216Y-168772335D03*
X283923216Y-168772335D03*
X283173216Y-168272335D03*
X282423216Y-167772335D03*
X283923216Y-167772335D03*
D11*
X244512583Y-181183135D03*
X243928383Y-181183135D03*
X243344183Y-181183135D03*
X244512583Y-181767335D03*
X243928383Y-181767335D03*
X243344183Y-181767335D03*
X244512583Y-182351535D03*
X243928383Y-182351535D03*
X243344183Y-182351535D03*
D13*
X644174315Y-395458208D03*
X645444315Y-396728208D03*
X645444315Y-394188208D03*
X642904315Y-396728208D03*
X642904315Y-394188208D03*
D14*
X632236315Y-389108208D03*
X632236315Y-401808208D03*
D11*
X249554584Y-250805024D03*
X248970384Y-250805024D03*
X248386184Y-250805024D03*
X249554584Y-251389224D03*
X248970384Y-251389224D03*
X248386184Y-251389224D03*
X249554584Y-251973424D03*
X248970384Y-251973424D03*
X248386184Y-251973424D03*
D13*
X169111012Y-420858208D03*
X167841012Y-419588208D03*
X167841012Y-422128208D03*
X170381012Y-419588208D03*
X170381012Y-422128208D03*
D12*
X275519116Y-238589625D03*
X278884616Y-237319625D03*
X278884616Y-238589625D03*
X278884616Y-239859625D03*
X280154616Y-237319625D03*
X280154616Y-238589625D03*
X280154616Y-239859625D03*
X243419383Y-327830167D03*
X246784883Y-326560167D03*
X246784883Y-327830167D03*
X246784883Y-329100167D03*
X248054883Y-326560167D03*
X248054883Y-327830167D03*
X248054883Y-329100167D03*
D11*
X328233248Y-181183135D03*
X327649048Y-181183135D03*
X327064848Y-181183135D03*
X328233248Y-181767335D03*
X327649048Y-181767335D03*
X327064848Y-181767335D03*
X328233248Y-182351535D03*
X327649048Y-182351535D03*
X327064848Y-182351535D03*
D15*
X593249382Y-168772335D03*
X594749382Y-168772335D03*
X593999382Y-168272335D03*
X593249382Y-167772335D03*
X594749382Y-167772335D03*
D13*
X446075815Y-390378208D03*
X447345815Y-391648208D03*
X447345815Y-389108208D03*
X444805815Y-391648208D03*
X444805815Y-389108208D03*
D14*
X434137815Y-384028208D03*
X434137815Y-396728208D03*
D12*
X327140048Y-327830167D03*
X330505548Y-326560167D03*
X330505548Y-327830167D03*
X330505548Y-329100167D03*
X331775548Y-326560167D03*
X331775548Y-327830167D03*
X331775548Y-329100167D03*
D13*
X300792216Y-148316208D03*
X299522216Y-147046208D03*
X299522216Y-149586208D03*
X302062216Y-147046208D03*
X302062216Y-149586208D03*
D14*
X312730216Y-154666208D03*
X312730216Y-141966208D03*
D12*
X613702114Y-238589625D03*
X617067614Y-237319625D03*
X617067614Y-238589625D03*
X617067614Y-239859625D03*
X618337614Y-237319625D03*
X618337614Y-238589625D03*
X618337614Y-239859625D03*
D15*
X338787049Y-168772335D03*
X340287049Y-168772335D03*
X339537049Y-168272335D03*
X338787049Y-167772335D03*
X340287049Y-167772335D03*
D24*
X189288711Y-154639209D03*
X189288711Y-158039209D03*
X199208711Y-154639209D03*
X199208711Y-158039209D03*
D12*
X581602381Y-327830167D03*
X584967881Y-326560167D03*
X584967881Y-327830167D03*
X584967881Y-329100167D03*
X586237881Y-326560167D03*
X586237881Y-327830167D03*
X586237881Y-329100167D03*
X501131548Y-356495366D03*
X504497048Y-355225366D03*
X504497048Y-356495366D03*
X504497048Y-357765366D03*
X505767048Y-355225366D03*
X505767048Y-356495366D03*
X505767048Y-357765366D03*
D11*
X362282250Y-250805024D03*
X361698050Y-250805024D03*
X361113850Y-250805024D03*
X362282250Y-251389224D03*
X361698050Y-251389224D03*
X361113850Y-251389224D03*
X362282250Y-251973424D03*
X361698050Y-251973424D03*
X361113850Y-251973424D03*
X587737582Y-250805024D03*
X587153382Y-250805024D03*
X586569182Y-250805024D03*
X587737582Y-251389224D03*
X587153382Y-251389224D03*
X586569182Y-251389224D03*
X587737582Y-251973424D03*
X587153382Y-251973424D03*
X586569182Y-251973424D03*
D13*
X696161012Y-117836208D03*
X694891012Y-116566208D03*
X694891012Y-119106208D03*
X697431012Y-116566208D03*
X697431012Y-119106208D03*
D11*
X531373749Y-250805024D03*
X530789549Y-250805024D03*
X530205349Y-250805024D03*
X531373749Y-251389224D03*
X530789549Y-251389224D03*
X530205349Y-251389224D03*
X531373749Y-251973424D03*
X530789549Y-251973424D03*
X530205349Y-251973424D03*
D20*
X687065213Y-315893966D03*
D21*
X689605213Y-315893966D03*
D11*
X244811684Y-344363566D03*
X244227484Y-344363566D03*
X243643284Y-344363566D03*
X244811684Y-344947766D03*
X244227484Y-344947766D03*
X243643284Y-344947766D03*
X244811684Y-345531966D03*
X244227484Y-345531966D03*
X243643284Y-345531966D03*
D13*
X389711982Y-390378208D03*
X390981982Y-391648208D03*
X390981982Y-389108208D03*
X388441982Y-391648208D03*
X388441982Y-389108208D03*
D14*
X377773982Y-384028208D03*
X377773982Y-396728208D03*
D13*
X531446649Y-395458208D03*
X532716649Y-396728208D03*
X532716649Y-394188208D03*
X530176649Y-396728208D03*
X530176649Y-394188208D03*
D14*
X519508649Y-389108208D03*
X519508649Y-401808208D03*
D15*
X507878548Y-168772335D03*
X509378548Y-168772335D03*
X508628548Y-168272335D03*
X507878548Y-167772335D03*
X509378548Y-167772335D03*
D20*
X694823713Y-247063966D03*
D21*
X694823713Y-249603966D03*
X694823713Y-252143966D03*
X694823713Y-254683966D03*
X694823713Y-257223966D03*
X694823713Y-259763966D03*
D11*
X643251215Y-315780723D03*
X643251215Y-316796723D03*
X643251215Y-317812723D03*
X644267215Y-315780723D03*
X644267215Y-316796723D03*
X644267215Y-317812723D03*
X645283215Y-315780723D03*
X645283215Y-316796723D03*
X645283215Y-317812723D03*
X305918417Y-250805024D03*
X305334217Y-250805024D03*
X304750017Y-250805024D03*
X305918417Y-251389224D03*
X305334217Y-251389224D03*
X304750017Y-251389224D03*
X305918417Y-251973424D03*
X305334217Y-251973424D03*
X304750017Y-251973424D03*
D15*
X226059383Y-168772335D03*
X227559383Y-168772335D03*
X226809383Y-168272335D03*
X226059383Y-167772335D03*
X227559383Y-167772335D03*
D12*
X248319384Y-356495366D03*
X251684884Y-355225366D03*
X251684884Y-356495366D03*
X251684884Y-357765366D03*
X252954884Y-355225366D03*
X252954884Y-356495366D03*
X252954884Y-357765366D03*
D13*
X305991317Y-395458208D03*
X307261317Y-396728208D03*
X307261317Y-394188208D03*
X304721317Y-396728208D03*
X304721317Y-394188208D03*
D14*
X294053317Y-389108208D03*
X294053317Y-401808208D03*
D11*
X219697383Y-315780723D03*
X219697383Y-316796723D03*
X219697383Y-317812723D03*
X220713383Y-315780723D03*
X220713383Y-316796723D03*
X220713383Y-317812723D03*
X221729383Y-315780723D03*
X221729383Y-316796723D03*
X221729383Y-317812723D03*
X413604082Y-181183135D03*
X413019882Y-181183135D03*
X412435682Y-181183135D03*
X413604082Y-181767335D03*
X413019882Y-181767335D03*
X412435682Y-181767335D03*
X413604082Y-182351535D03*
X413019882Y-182351535D03*
X412435682Y-182351535D03*
D13*
X249627484Y-395458208D03*
X250897484Y-396728208D03*
X250897484Y-394188208D03*
X248357484Y-396728208D03*
X248357484Y-394188208D03*
D14*
X237689484Y-389108208D03*
X237689484Y-401808208D03*
D11*
X616276214Y-264472723D03*
X616276214Y-263456723D03*
X616276214Y-262440723D03*
X615260214Y-264472723D03*
X615260214Y-263456723D03*
X615260214Y-262440723D03*
X614244214Y-264472723D03*
X614244214Y-263456723D03*
X614244214Y-262440723D03*
D12*
X642866215Y-356495366D03*
X646231715Y-355225366D03*
X646231715Y-356495366D03*
X646231715Y-357765366D03*
X647501715Y-355225366D03*
X647501715Y-356495366D03*
X647501715Y-357765366D03*
D25*
X686001012Y-171811208D03*
D13*
X362355150Y-395458208D03*
X363625150Y-396728208D03*
X363625150Y-394188208D03*
X361085150Y-396728208D03*
X361085150Y-394188208D03*
D14*
X350417150Y-389108208D03*
X350417150Y-401808208D03*
D12*
X412510882Y-327830167D03*
X415876382Y-326560167D03*
X415876382Y-327830167D03*
X415876382Y-329100167D03*
X417146382Y-326560167D03*
X417146382Y-327830167D03*
X417146382Y-329100167D03*
D15*
X311430217Y-168772335D03*
X312930217Y-168772335D03*
X312180217Y-168272335D03*
X311430217Y-167772335D03*
X312930217Y-167772335D03*
D11*
X384597081Y-181183135D03*
X384012881Y-181183135D03*
X383428681Y-181183135D03*
X384597081Y-181767335D03*
X384012881Y-181767335D03*
X383428681Y-181767335D03*
X384597081Y-182351535D03*
X384012881Y-182351535D03*
X383428681Y-182351535D03*
X215505582Y-181183135D03*
X214921382Y-181183135D03*
X214337182Y-181183135D03*
X215505582Y-181767335D03*
X214921382Y-181767335D03*
X214337182Y-181767335D03*
X215505582Y-182351535D03*
X214921382Y-182351535D03*
X214337182Y-182351535D03*
D10*
X511253649Y-402443208D03*
D11*
X417795883Y-315780723D03*
X417795883Y-316796723D03*
X417795883Y-317812723D03*
X418811883Y-315780723D03*
X418811883Y-316796723D03*
X418811883Y-317812723D03*
X419827883Y-315780723D03*
X419827883Y-316796723D03*
X419827883Y-317812723D03*
X305068217Y-315780723D03*
X305068217Y-316796723D03*
X305068217Y-317812723D03*
X306084217Y-315780723D03*
X306084217Y-316796723D03*
X306084217Y-317812723D03*
X307100217Y-315780723D03*
X307100217Y-316796723D03*
X307100217Y-317812723D03*
X610052413Y-181183135D03*
X609468213Y-181183135D03*
X608884013Y-181183135D03*
X610052413Y-181767335D03*
X609468213Y-181767335D03*
X608884013Y-181767335D03*
X610052413Y-182351535D03*
X609468213Y-182351535D03*
X608884013Y-182351535D03*
D13*
X413519882Y-148316208D03*
X412249882Y-147046208D03*
X412249882Y-149586208D03*
X414789882Y-147046208D03*
X414789882Y-149586208D03*
D14*
X425457882Y-154666208D03*
X425457882Y-141966208D03*
D25*
X179271012Y-401173208D03*
D12*
X557495381Y-356495366D03*
X560860881Y-355225366D03*
X560860881Y-356495366D03*
X560860881Y-357765366D03*
X562130881Y-355225366D03*
X562130881Y-356495366D03*
X562130881Y-357765366D03*
D15*
X255066384Y-168772335D03*
X256566384Y-168772335D03*
X255816384Y-168272335D03*
X255066384Y-167772335D03*
X256566384Y-167772335D03*
D12*
X356147049Y-327830167D03*
X359512549Y-326560167D03*
X359512549Y-327830167D03*
X359512549Y-329100167D03*
X360782549Y-326560167D03*
X360782549Y-327830167D03*
X360782549Y-329100167D03*
D11*
X390820882Y-264472723D03*
X390820882Y-263456723D03*
X390820882Y-262440723D03*
X389804882Y-264472723D03*
X389804882Y-263456723D03*
X389804882Y-262440723D03*
X388788882Y-264472723D03*
X388788882Y-263456723D03*
X388788882Y-262440723D03*
X502366748Y-250805024D03*
X501782548Y-250805024D03*
X501198348Y-250805024D03*
X502366748Y-251389224D03*
X501782548Y-251389224D03*
X501198348Y-251389224D03*
X502366748Y-251973424D03*
X501782548Y-251973424D03*
X501198348Y-251973424D03*
X215804683Y-344363566D03*
X215220483Y-344363566D03*
X214636283Y-344363566D03*
X215804683Y-344947766D03*
X215220483Y-344947766D03*
X214636283Y-344947766D03*
X215804683Y-345531966D03*
X215220483Y-345531966D03*
X214636283Y-345531966D03*
X559912381Y-264472723D03*
X559912381Y-263456723D03*
X559912381Y-262440723D03*
X558896381Y-264472723D03*
X558896381Y-263456723D03*
X558896381Y-262440723D03*
X557880381Y-264472723D03*
X557880381Y-263456723D03*
X557880381Y-262440723D03*
X474159716Y-315780723D03*
X474159716Y-316796723D03*
X474159716Y-317812723D03*
X475175716Y-315780723D03*
X475175716Y-316796723D03*
X475175716Y-317812723D03*
X476191716Y-315780723D03*
X476191716Y-316796723D03*
X476191716Y-317812723D03*
D20*
X687065213Y-320719966D03*
D21*
X689605213Y-320719966D03*
D12*
X248162284Y-238589625D03*
X251527784Y-237319625D03*
X251527784Y-238589625D03*
X251527784Y-239859625D03*
X252797784Y-237319625D03*
X252797784Y-238589625D03*
X252797784Y-239859625D03*
D11*
X445152715Y-315780723D03*
X445152715Y-316796723D03*
X445152715Y-317812723D03*
X446168715Y-315780723D03*
X446168715Y-316796723D03*
X446168715Y-317812723D03*
X447184715Y-315780723D03*
X447184715Y-316796723D03*
X447184715Y-317812723D03*
D13*
X333348149Y-390378208D03*
X334618149Y-391648208D03*
X334618149Y-389108208D03*
X332078149Y-391648208D03*
X332078149Y-389108208D03*
D14*
X321410149Y-384028208D03*
X321410149Y-396728208D03*
D11*
X475009916Y-250805024D03*
X474425716Y-250805024D03*
X473841516Y-250805024D03*
X475009916Y-251389224D03*
X474425716Y-251389224D03*
X473841516Y-251389224D03*
X475009916Y-251973424D03*
X474425716Y-251973424D03*
X473841516Y-251973424D03*
X582695581Y-181183135D03*
X582111381Y-181183135D03*
X581527181Y-181183135D03*
X582695581Y-181767335D03*
X582111381Y-181767335D03*
X581527181Y-181767335D03*
X582695581Y-182351535D03*
X582111381Y-182351535D03*
X581527181Y-182351535D03*
D12*
X608959213Y-327830167D03*
X612324713Y-326560167D03*
X612324713Y-327830167D03*
X612324713Y-329100167D03*
X613594713Y-326560167D03*
X613594713Y-327830167D03*
X613594713Y-329100167D03*
X637966214Y-327830167D03*
X641331714Y-326560167D03*
X641331714Y-327830167D03*
X641331714Y-329100167D03*
X642601714Y-326560167D03*
X642601714Y-327830167D03*
X642601714Y-329100167D03*
D11*
X301175517Y-344363566D03*
X300591317Y-344363566D03*
X300007117Y-344363566D03*
X301175517Y-344947766D03*
X300591317Y-344947766D03*
X300007117Y-344947766D03*
X301175517Y-345531966D03*
X300591317Y-345531966D03*
X300007117Y-345531966D03*
D12*
X388246782Y-238589625D03*
X391612282Y-237319625D03*
X391612282Y-238589625D03*
X391612282Y-239859625D03*
X392882282Y-237319625D03*
X392882282Y-238589625D03*
X392882282Y-239859625D03*
D13*
X276984316Y-390378208D03*
X278254316Y-391648208D03*
X278254316Y-389108208D03*
X275714316Y-391648208D03*
X275714316Y-389108208D03*
D14*
X265046316Y-384028208D03*
X265046316Y-396728208D03*
D16*
X166783213Y-143998208D03*
X166783213Y-175968208D03*
D17*
X184358213Y-147308208D03*
X182930713Y-147308208D03*
X181503213Y-147308208D03*
X180075713Y-147308208D03*
X178648213Y-147308208D03*
D18*
X183093213Y-148748208D03*
D17*
X181503213Y-148748208D03*
D18*
X179913213Y-148748208D03*
D17*
X184358213Y-150188208D03*
X182930713Y-150188208D03*
X181503213Y-150188208D03*
X180075713Y-150188208D03*
X178648213Y-150188208D03*
D19*
X184358213Y-154798208D03*
X182930713Y-154798208D03*
X181503213Y-154798208D03*
X180075713Y-154798208D03*
X178648213Y-154798208D03*
D18*
X183093213Y-156238208D03*
D19*
X181503213Y-156238208D03*
D18*
X179913213Y-156238208D03*
D19*
X184358213Y-157678208D03*
X182930713Y-157678208D03*
X181503213Y-157678208D03*
X180075713Y-157678208D03*
X178648213Y-157678208D03*
X184358213Y-162288208D03*
X182930713Y-162288208D03*
X181503213Y-162288208D03*
X180075713Y-162288208D03*
X178648213Y-162288208D03*
D18*
X183093213Y-163728208D03*
D19*
X181503213Y-163728208D03*
D18*
X179913213Y-163728208D03*
D19*
X184358213Y-165168208D03*
X182930713Y-165168208D03*
X181503213Y-165168208D03*
X180075713Y-165168208D03*
X178648213Y-165168208D03*
X184358213Y-169778208D03*
X182930713Y-169778208D03*
X181503213Y-169778208D03*
X180075713Y-169778208D03*
X178648213Y-169778208D03*
D18*
X183093213Y-171218208D03*
D19*
X181503213Y-171218208D03*
D18*
X179913213Y-171218208D03*
D19*
X184358213Y-172658208D03*
X182930713Y-172658208D03*
X181503213Y-172658208D03*
X180075713Y-172658208D03*
X178648213Y-172658208D03*
D11*
X447184715Y-264472723D03*
X447184715Y-263456723D03*
X447184715Y-262440723D03*
X446168715Y-264472723D03*
X446168715Y-263456723D03*
X446168715Y-262440723D03*
X445152715Y-264472723D03*
X445152715Y-263456723D03*
X445152715Y-262440723D03*
D25*
X686001012Y-137521208D03*
D12*
X473774716Y-356495366D03*
X477140216Y-355225366D03*
X477140216Y-356495366D03*
X477140216Y-357765366D03*
X478410216Y-355225366D03*
X478410216Y-356495366D03*
X478410216Y-357765366D03*
X331882949Y-238589625D03*
X335248449Y-237319625D03*
X335248449Y-238589625D03*
X335248449Y-239859625D03*
X336518449Y-237319625D03*
X336518449Y-238589625D03*
X336518449Y-239859625D03*
D15*
X424157883Y-168772335D03*
X425657883Y-168772335D03*
X424907883Y-168272335D03*
X424157883Y-167772335D03*
X425657883Y-167772335D03*
D12*
X304526117Y-238589625D03*
X307891617Y-237319625D03*
X307891617Y-238589625D03*
X307891617Y-239859625D03*
X309161617Y-237319625D03*
X309161617Y-238589625D03*
X309161617Y-239859625D03*
D13*
X615167314Y-390378208D03*
X616437314Y-391648208D03*
X616437314Y-389108208D03*
X613897314Y-391648208D03*
X613897314Y-389108208D03*
D14*
X603229314Y-384028208D03*
X603229314Y-396728208D03*
D12*
X417253783Y-238589625D03*
X420619283Y-237319625D03*
X420619283Y-238589625D03*
X420619283Y-239859625D03*
X421889283Y-237319625D03*
X421889283Y-238589625D03*
X421889283Y-239859625D03*
D11*
X645283215Y-264472723D03*
X645283215Y-263456723D03*
X645283215Y-262440723D03*
X644267215Y-264472723D03*
X644267215Y-263456723D03*
X644267215Y-262440723D03*
X643251215Y-264472723D03*
X643251215Y-263456723D03*
X643251215Y-262440723D03*
D10*
X168476012Y-402443208D03*
D13*
X384512881Y-143236208D03*
X383242881Y-141966208D03*
X383242881Y-144506208D03*
X385782881Y-141966208D03*
X385782881Y-144506208D03*
D14*
X396450881Y-149586208D03*
X396450881Y-136886208D03*
D11*
X332425049Y-315780723D03*
X332425049Y-316796723D03*
X332425049Y-317812723D03*
X333441049Y-315780723D03*
X333441049Y-316796723D03*
X333441049Y-317812723D03*
X334457049Y-315780723D03*
X334457049Y-316796723D03*
X334457049Y-317812723D03*
X276061216Y-315780723D03*
X276061216Y-316796723D03*
X276061216Y-317812723D03*
X277077216Y-315780723D03*
X277077216Y-316796723D03*
X277077216Y-317812723D03*
X278093216Y-315780723D03*
X278093216Y-316796723D03*
X278093216Y-317812723D03*
D12*
X417410883Y-356495366D03*
X420776383Y-355225366D03*
X420776383Y-356495366D03*
X420776383Y-357765366D03*
X422046383Y-355225366D03*
X422046383Y-356495366D03*
X422046383Y-357765366D03*
D13*
X502439648Y-390378208D03*
X503709648Y-391648208D03*
X503709648Y-389108208D03*
X501169648Y-391648208D03*
X501169648Y-389108208D03*
D14*
X490501648Y-384028208D03*
X490501648Y-396728208D03*
D13*
X418718983Y-395458208D03*
X419988983Y-396728208D03*
X419988983Y-394188208D03*
X417448983Y-396728208D03*
X417448983Y-394188208D03*
D14*
X406780983Y-389108208D03*
X406780983Y-401808208D03*
D11*
X250736384Y-264472723D03*
X250736384Y-263456723D03*
X250736384Y-262440723D03*
X249720384Y-264472723D03*
X249720384Y-263456723D03*
X249720384Y-262440723D03*
X248704384Y-264472723D03*
X248704384Y-263456723D03*
X248704384Y-262440723D03*
X615094414Y-250805024D03*
X614510214Y-250805024D03*
X613926014Y-250805024D03*
X615094414Y-251389224D03*
X614510214Y-251389224D03*
X613926014Y-251389224D03*
X615094414Y-251973424D03*
X614510214Y-251973424D03*
X613926014Y-251973424D03*
D13*
X553604380Y-143236208D03*
X552334380Y-141966208D03*
X552334380Y-144506208D03*
X554874380Y-141966208D03*
X554874380Y-144506208D03*
D14*
X565542380Y-149586208D03*
X565542380Y-136886208D03*
D15*
X649613215Y-168772335D03*
X651113215Y-168772335D03*
X650363215Y-168272335D03*
X649613215Y-167772335D03*
X651113215Y-167772335D03*
D13*
X696161012Y-420858208D03*
X694891012Y-419588208D03*
X694891012Y-422128208D03*
X697431012Y-419588208D03*
X697431012Y-422128208D03*
D25*
X179271012Y-366883208D03*
D13*
X440876714Y-143236208D03*
X439606714Y-141966208D03*
X439606714Y-144506208D03*
X442146714Y-141966208D03*
X442146714Y-144506208D03*
D14*
X452814714Y-149586208D03*
X452814714Y-136886208D03*
D11*
X307100217Y-264472723D03*
X307100217Y-263456723D03*
X307100217Y-262440723D03*
X306084217Y-264472723D03*
X306084217Y-263456723D03*
X306084217Y-262440723D03*
X305068217Y-264472723D03*
X305068217Y-263456723D03*
X305068217Y-262440723D03*
D12*
X304683217Y-356495366D03*
X308048717Y-355225366D03*
X308048717Y-356495366D03*
X308048717Y-357765366D03*
X309318717Y-355225366D03*
X309318717Y-356495366D03*
X309318717Y-357765366D03*
D13*
X169111012Y-117836208D03*
X167841012Y-116566208D03*
X167841012Y-119106208D03*
X170381012Y-116566208D03*
X170381012Y-119106208D03*
D26*
X631010012Y-269552208D03*
X629105012Y-269552208D03*
X627200012Y-269552208D03*
X629105012Y-271447208D03*
X631010012Y-271457208D03*
X627200012Y-271457208D03*
X631010012Y-273362208D03*
X629105012Y-273362208D03*
X627200012Y-273362208D03*
X518282346Y-269552208D03*
X516377346Y-269552208D03*
X514472346Y-269552208D03*
X516377346Y-271447208D03*
X518282346Y-271457208D03*
X514472346Y-271457208D03*
X518282346Y-273362208D03*
X516377346Y-273362208D03*
X514472346Y-273362208D03*
X292827014Y-269552208D03*
X290922014Y-269552208D03*
X289017014Y-269552208D03*
X290922014Y-271447208D03*
X292827014Y-271457208D03*
X289017014Y-271457208D03*
X292827014Y-273362208D03*
X290922014Y-273362208D03*
X289017014Y-273362208D03*
X405554680Y-269552208D03*
X403649680Y-269552208D03*
X401744680Y-269552208D03*
X403649680Y-271447208D03*
X405554680Y-271457208D03*
X401744680Y-271457208D03*
X405554680Y-273362208D03*
X403649680Y-273362208D03*
X401744680Y-273362208D03*
X349190847Y-269552208D03*
X347285847Y-269552208D03*
X345380847Y-269552208D03*
X347285847Y-271447208D03*
X349190847Y-271457208D03*
X345380847Y-271457208D03*
X349190847Y-273362208D03*
X347285847Y-273362208D03*
X345380847Y-273362208D03*
X236463181Y-269552208D03*
X234558181Y-269552208D03*
X232653181Y-269552208D03*
X234558181Y-271447208D03*
X236463181Y-271457208D03*
X232653181Y-271457208D03*
X236463181Y-273362208D03*
X234558181Y-273362208D03*
X232653181Y-273362208D03*
X461918513Y-269552208D03*
X460013513Y-269552208D03*
X458108513Y-269552208D03*
X460013513Y-271447208D03*
X461918513Y-271457208D03*
X458108513Y-271457208D03*
X461918513Y-273362208D03*
X460013513Y-273362208D03*
X458108513Y-273362208D03*
X574646179Y-269552208D03*
X572741179Y-269552208D03*
X570836179Y-269552208D03*
X572741179Y-271447208D03*
X574646179Y-271457208D03*
X570836179Y-271457208D03*
X574646179Y-273362208D03*
X572741179Y-273362208D03*
X570836179Y-273362208D03*
D27*
X288846014Y-339360498D03*
D28*
X587003382Y-225124027D03*
D27*
X363829048Y-310563274D03*
X352409847Y-339437398D03*
X523374549Y-198092135D03*
D28*
X480533716Y-186863335D03*
D27*
X297885213Y-291267774D03*
D28*
X529789549Y-254072224D03*
X213434482Y-348392766D03*
D27*
X436871715Y-211884335D03*
D28*
X558716379Y-178132335D03*
X211230382Y-360758276D03*
X458225715Y-164335335D03*
X267850315Y-347522766D03*
X327273249Y-363183966D03*
D27*
X653972913Y-218170836D03*
D28*
X557146381Y-313862223D03*
D27*
X510410548Y-249970225D03*
D28*
X299292216Y-185612335D03*
D27*
X653415215Y-251189425D03*
D28*
X579862082Y-366485966D03*
X298506216Y-185612335D03*
D29*
X448585715Y-251151224D03*
D27*
X510567648Y-367875966D03*
X608193210Y-292915292D03*
X315710215Y-199311335D03*
D28*
X338799049Y-191689335D03*
X436685714Y-360758276D03*
X214220482Y-347630766D03*
X340850049Y-176622335D03*
X508261646Y-349297766D03*
D27*
X399109982Y-369095166D03*
D28*
X372346050Y-162684335D03*
X482584716Y-176622335D03*
D27*
X252233382Y-309344074D03*
D28*
X252232385Y-247754224D03*
X417061883Y-319731224D03*
X620989312Y-349297766D03*
D27*
X597208482Y-369095166D03*
D28*
X362268048Y-178132335D03*
X649625215Y-186863335D03*
X504282548Y-266391224D03*
X637315512Y-267725708D03*
X623380214Y-174538335D03*
D27*
X296787217Y-205597835D03*
D28*
X429214883Y-257882224D03*
X359912050Y-253132424D03*
X500782548Y-260522222D03*
X458098715Y-162684335D03*
X477687717Y-247754224D03*
X646017215Y-313862222D03*
X445268715Y-225124027D03*
X532690549Y-162303335D03*
D27*
X605963214Y-218170835D03*
X392826882Y-205597835D03*
D28*
X304568315Y-339153766D03*
X167828012Y-259641208D03*
X580951679Y-267725708D03*
X276177216Y-225124027D03*
D27*
X420192882Y-297990274D03*
X421324881Y-309344074D03*
D28*
X627766271Y-280984708D03*
D27*
X238412180Y-338218197D03*
X370276051Y-278701556D03*
D28*
X220679182Y-175004334D03*
D27*
X466911716Y-271941491D03*
X410547881Y-286445256D03*
D28*
X399702882Y-162684335D03*
X438590714Y-183510535D03*
X304334217Y-319731224D03*
X274541216Y-254834224D03*
X167968010Y-249063708D03*
X533289549Y-319731224D03*
D27*
X653572315Y-369095166D03*
D28*
X438889814Y-346690966D03*
X464803715Y-174054334D03*
X529003549Y-254834224D03*
X408471882Y-178894334D03*
D27*
X457937513Y-339360498D03*
X213646382Y-307419058D03*
D28*
X402927280Y-333183228D03*
X368177148Y-349297766D03*
X331925147Y-339153766D03*
D27*
X559838452Y-308532369D03*
D28*
X593629481Y-344447766D03*
X323958048Y-360758276D03*
X261650384Y-160652335D03*
D27*
X566724382Y-278701556D03*
D28*
X634784214Y-360758276D03*
D27*
X563050380Y-204378635D03*
X325276049Y-198092135D03*
X309106217Y-205597835D03*
D28*
X401988882Y-165351335D03*
X654670215Y-257882224D03*
D27*
X466911715Y-275898337D03*
D28*
X248204482Y-339153766D03*
X495740547Y-184450335D03*
X641576314Y-337978767D03*
D29*
X279494216Y-251151224D03*
D28*
X607981313Y-346690966D03*
X480904814Y-349297766D03*
X686323612Y-362036334D03*
X243227483Y-347630766D03*
D27*
X240324382Y-284797737D03*
D29*
X387179881Y-181529335D03*
D28*
X613510214Y-319731224D03*
D27*
X524908547Y-297300456D03*
D28*
X220679182Y-173104334D03*
X418561883Y-222232026D03*
X397213882Y-174590335D03*
X417061883Y-313862223D03*
X642517215Y-313862223D03*
X395162882Y-189276335D03*
D27*
X532481620Y-308532369D03*
D28*
X335953050Y-247754224D03*
D27*
X285571215Y-198092138D03*
X392939981Y-339210767D03*
D28*
X507890548Y-189276335D03*
X218963383Y-313862223D03*
D27*
X645648214Y-297990274D03*
X396417880Y-290135773D03*
D28*
X335191049Y-313862222D03*
X333009249Y-168872335D03*
X261777384Y-164335335D03*
X333406848Y-173104334D03*
D27*
X597299384Y-270230474D03*
X286473218Y-270230474D03*
D28*
X498350147Y-316796723D03*
X299132514Y-267725708D03*
X617010214Y-319731224D03*
D27*
X494769546Y-298519656D03*
X257984387Y-283086720D03*
D28*
X474806716Y-269771223D03*
X382525981Y-348392766D03*
X444418715Y-319731224D03*
X688064212Y-211519968D03*
D27*
X550697379Y-305771539D03*
D28*
X275327216Y-260522222D03*
X326948148Y-347630766D03*
X480904814Y-351710766D03*
X270909416Y-363183966D03*
D27*
X561409379Y-309344074D03*
X230109386Y-284734239D03*
D28*
X270584315Y-347630766D03*
X644233014Y-173104334D03*
X523961548Y-185612335D03*
X620986313Y-344447766D03*
X693943612Y-373424335D03*
D27*
X636068211Y-291267774D03*
X634871213Y-270293973D03*
X409415881Y-284797737D03*
D28*
X610476213Y-253981335D03*
X276827216Y-222232026D03*
D27*
X467010716Y-219390035D03*
D28*
X385622481Y-316796723D03*
D27*
X510360549Y-278701556D03*
X258206883Y-219302835D03*
D28*
X395533980Y-349297766D03*
X495253647Y-348392766D03*
X388054882Y-254834224D03*
X247970384Y-254072224D03*
X242204084Y-369467966D03*
X358265649Y-316796723D03*
X690866642Y-374278319D03*
X678390612Y-369646335D03*
X296857316Y-347522766D03*
X612724214Y-254072224D03*
D27*
X505667647Y-339210767D03*
D28*
X641731215Y-254834224D03*
X287480216Y-257882224D03*
X304334217Y-254072224D03*
X388054882Y-254072224D03*
X412338883Y-247341224D03*
X620618214Y-191689335D03*
D27*
X383173880Y-297300456D03*
D28*
X580624481Y-347630766D03*
D27*
X252742384Y-205597835D03*
D28*
X318014217Y-162684335D03*
D27*
X354249046Y-291267774D03*
D28*
X564254381Y-186863335D03*
D27*
X398291381Y-219302835D03*
X561409378Y-303057574D03*
D28*
X642517215Y-266391224D03*
D27*
X524472545Y-292915292D03*
D28*
X420561883Y-313862222D03*
X529789549Y-319731224D03*
X313493217Y-174590335D03*
X332541049Y-225124027D03*
X637774314Y-348392766D03*
X495016248Y-369467966D03*
D27*
X646780212Y-303057574D03*
D28*
X538948549Y-174590335D03*
X683699212Y-367004335D03*
X399194882Y-160652335D03*
X420561883Y-319731224D03*
D27*
X381540880Y-286445256D03*
D28*
X412019882Y-185612335D03*
X242441483Y-347630766D03*
X557146381Y-254072224D03*
X593261382Y-191689335D03*
X524587846Y-267725708D03*
D27*
X370483150Y-367875966D03*
D28*
X299591316Y-348392766D03*
X476925716Y-319731224D03*
D27*
X455316715Y-251189425D03*
X268912216Y-219390035D03*
D29*
X218088382Y-181529335D03*
D28*
X346608289Y-230685226D03*
X360698050Y-319731224D03*
X326649048Y-185612335D03*
X495740547Y-185612335D03*
D27*
X534052546Y-303057574D03*
X268813215Y-275898337D03*
D28*
X693943612Y-371424335D03*
X355496347Y-267725708D03*
D27*
X466911714Y-286445256D03*
D29*
X443543714Y-181529335D03*
D28*
X338799049Y-194102335D03*
X691022612Y-377004335D03*
D27*
X653663217Y-270230474D03*
D28*
X443632715Y-254834224D03*
X464835715Y-178894334D03*
X343844050Y-253945224D03*
X682984214Y-267359967D03*
X242928383Y-184450335D03*
X531107749Y-168872335D03*
D27*
X299017216Y-307419058D03*
D28*
X451894814Y-344447766D03*
D27*
X455794713Y-199311335D03*
D28*
X383012881Y-185612335D03*
D27*
X503474619Y-308532369D03*
D28*
X369857050Y-176622335D03*
X502163548Y-269771223D03*
D27*
X314570716Y-219302835D03*
D28*
X501016646Y-339153766D03*
X346563447Y-333183228D03*
D27*
X503913546Y-310563274D03*
X286382316Y-369095166D03*
X467010716Y-198092135D03*
D28*
X494954547Y-183510535D03*
D27*
X337846148Y-340429967D03*
X549500379Y-270293973D03*
X270446214Y-297300456D03*
D28*
X315982217Y-162684335D03*
D27*
X212548383Y-204378635D03*
X484135717Y-277482356D03*
D28*
X564254381Y-191689335D03*
D27*
X438003715Y-198092135D03*
X230018483Y-369095166D03*
D28*
X255078384Y-194102335D03*
D27*
X363829048Y-304276774D03*
D29*
X335858049Y-251151224D03*
D28*
X298567917Y-369467966D03*
X348809847Y-164826210D03*
X480533716Y-189276335D03*
D27*
X342837051Y-270230474D03*
D28*
X552104380Y-185612335D03*
D27*
X294776013Y-338218197D03*
D28*
X504282548Y-319731224D03*
D27*
X421833883Y-205597835D03*
D28*
X627444214Y-165351335D03*
X558862180Y-175004334D03*
D27*
X595735580Y-291267774D03*
D28*
X564622480Y-344447766D03*
D27*
X354283050Y-219390035D03*
X326374048Y-307419058D03*
D28*
X380321881Y-360758276D03*
X255449483Y-342042766D03*
X444418715Y-260522222D03*
D27*
X223226382Y-296771074D03*
X230419081Y-218170836D03*
X523275547Y-286445256D03*
D28*
X637774314Y-347630766D03*
X362016250Y-168872335D03*
X270584315Y-348392766D03*
X551380081Y-369467966D03*
D27*
X280212315Y-339210767D03*
D28*
X395533981Y-346884766D03*
X213434482Y-346690966D03*
X360932148Y-339153766D03*
X585367382Y-254072224D03*
D27*
X325177047Y-286445256D03*
D28*
X472639716Y-254072224D03*
D27*
X590925382Y-211884335D03*
D28*
X613510214Y-254072224D03*
X524747548Y-185612335D03*
X249351384Y-269771223D03*
X286975216Y-162684335D03*
X382226881Y-185612335D03*
X451526715Y-186863335D03*
X697843213Y-365090335D03*
D27*
X410547883Y-271941491D03*
X335954046Y-303057574D03*
X428116983Y-369095166D03*
D28*
X316487218Y-253945224D03*
X330905049Y-253132424D03*
D27*
X241555384Y-219390035D03*
X450573814Y-340429967D03*
D28*
X438652415Y-369467966D03*
X215929382Y-253981335D03*
X564625480Y-346884766D03*
D27*
X242653380Y-292915292D03*
X493235548Y-218170835D03*
D28*
X213921382Y-185612335D03*
D27*
X335954048Y-296771074D03*
D28*
X595312382Y-176622335D03*
X617010214Y-266391224D03*
X374505050Y-164335335D03*
X607981313Y-348392766D03*
X367806050Y-194102335D03*
X401734882Y-162684335D03*
D27*
X437969711Y-291267774D03*
D28*
X326968049Y-247341224D03*
X343844049Y-261438224D03*
D27*
X382737878Y-292915292D03*
X534561549Y-211884335D03*
D28*
X298043316Y-337724767D03*
D27*
X510796551Y-283086720D03*
D28*
X258948384Y-264200225D03*
X669412213Y-309416966D03*
X255078384Y-186863335D03*
D27*
X594516380Y-290135773D03*
X589284381Y-297990274D03*
X449190715Y-211884335D03*
X532920547Y-310563274D03*
X341273247Y-291267774D03*
X495465547Y-307419058D03*
X252233383Y-296771074D03*
D28*
X497748547Y-253981335D03*
X446134514Y-173104334D03*
X593632481Y-342042766D03*
D27*
X448681714Y-296771074D03*
X211317381Y-277545856D03*
D28*
X564625479Y-351710766D03*
X243552584Y-363183966D03*
X695526012Y-200767208D03*
D27*
X549599381Y-211884335D03*
D28*
X514462548Y-162684335D03*
D27*
X270010215Y-307419058D03*
X364961049Y-296771074D03*
D28*
X222463383Y-319731224D03*
D27*
X567390380Y-198092138D03*
D28*
X537265648Y-344447766D03*
D27*
X522242549Y-218170835D03*
D28*
X484565716Y-160652335D03*
X391554882Y-266391224D03*
X698518612Y-372824335D03*
X247970384Y-319731224D03*
D27*
X380408880Y-284797737D03*
D28*
X694033213Y-365090335D03*
D27*
X522143547Y-277545856D03*
X354685048Y-298519656D03*
D28*
X618947214Y-246579225D03*
X444652813Y-339153766D03*
X580624481Y-348392766D03*
D27*
X580836378Y-292915292D03*
D28*
X226071383Y-194102335D03*
X580325381Y-184450335D03*
X508261646Y-351710766D03*
D27*
X549599380Y-199311335D03*
X477688715Y-296771074D03*
X310238216Y-204378635D03*
D28*
X233835781Y-333183228D03*
X239348383Y-174054334D03*
D27*
X436871714Y-199311335D03*
D28*
X236082181Y-164826210D03*
X272293215Y-253981335D03*
X412019882Y-184450335D03*
X614360214Y-225124027D03*
D27*
X380507882Y-218170835D03*
D28*
X360698050Y-254072224D03*
X408439882Y-174054334D03*
D27*
X354249048Y-305771539D03*
X483439718Y-271877992D03*
X552265379Y-297300456D03*
X297820215Y-286445256D03*
X494367548Y-198092135D03*
X534561549Y-205597835D03*
D28*
X579862481Y-337724767D03*
D27*
X646780213Y-309344074D03*
D28*
X632752215Y-177719335D03*
D27*
X560277379Y-304276774D03*
X392317879Y-303057574D03*
D28*
X439695715Y-247341224D03*
X467134815Y-337724767D03*
X510652548Y-174538335D03*
X589653382Y-260522222D03*
D27*
X561918381Y-211884335D03*
X467010716Y-204378635D03*
D28*
X693689612Y-378504335D03*
D29*
X472550715Y-181529335D03*
D27*
X624408214Y-251189425D03*
D28*
X652387215Y-174538335D03*
X360698050Y-254834224D03*
X191217213Y-231661209D03*
X475141515Y-175004334D03*
X334592049Y-162303335D03*
D27*
X623092412Y-291267774D03*
X382041880Y-298519656D03*
X222094381Y-304276774D03*
D28*
X303548217Y-253132424D03*
D27*
X401573680Y-339360498D03*
D28*
X533289549Y-260522222D03*
D27*
X438003715Y-219390035D03*
D28*
X210341382Y-174054334D03*
X216530982Y-316796723D03*
X364198050Y-313862222D03*
D27*
X588845453Y-308532369D03*
X363829049Y-297990274D03*
X436772713Y-284797737D03*
D28*
X585367382Y-254834224D03*
D27*
X325242047Y-305771539D03*
D28*
X447918715Y-260522222D03*
X331691049Y-319731224D03*
D27*
X561918381Y-205597835D03*
X370712053Y-283086720D03*
D28*
X275327216Y-313862223D03*
X253407384Y-246579225D03*
X382525981Y-347630766D03*
X441986314Y-316796723D03*
X570826381Y-162684335D03*
X214545583Y-363183966D03*
X276708216Y-269771223D03*
X418777682Y-175004334D03*
X689384012Y-203388208D03*
X680088213Y-197525208D03*
X335191049Y-266391224D03*
X411532982Y-346690966D03*
D27*
X315389317Y-369095166D03*
D28*
X557146381Y-319731224D03*
D27*
X286782914Y-218170836D03*
D28*
X625663214Y-257882224D03*
X474925716Y-222232026D03*
D27*
X577865179Y-339437398D03*
X535944648Y-340429967D03*
D28*
X383637082Y-363183966D03*
D27*
X483003717Y-278701556D03*
D28*
X538948549Y-176622335D03*
X439376714Y-184450335D03*
D29*
X274452215Y-181529335D03*
D28*
X278228216Y-162303335D03*
X607219313Y-337724767D03*
X307834217Y-260522222D03*
D27*
X581272380Y-297300456D03*
X297919217Y-204378635D03*
X380507881Y-199311335D03*
D28*
X480533716Y-191689335D03*
D27*
X258680385Y-277482356D03*
X310489316Y-340429967D03*
D28*
X649625215Y-191689335D03*
D27*
X381540881Y-275898337D03*
D28*
X569299381Y-257882224D03*
X523961548Y-184450335D03*
X531359547Y-178132335D03*
X439675814Y-347630766D03*
X261904384Y-165351335D03*
X304334217Y-254834224D03*
X686137613Y-374004335D03*
X487105716Y-162684335D03*
X255449482Y-349297766D03*
D27*
X370280248Y-291267774D03*
X465779714Y-277545856D03*
X483439719Y-283086720D03*
D28*
X530639549Y-225124027D03*
X218177383Y-254834224D03*
X564254381Y-194102335D03*
D27*
X535693548Y-204378635D03*
D28*
X272894815Y-316796723D03*
X536897549Y-194102335D03*
D27*
X393958881Y-204378635D03*
X476556715Y-297990274D03*
X278458214Y-310563274D03*
D28*
X269560916Y-369467966D03*
D27*
X353052048Y-270293973D03*
D28*
X453577715Y-176622335D03*
X417295981Y-339153766D03*
X587723380Y-178132335D03*
X537268647Y-349297766D03*
D27*
X340054047Y-290135773D03*
X427075886Y-283086720D03*
D28*
X541437549Y-162684335D03*
X642517215Y-319731224D03*
X552423381Y-247341224D03*
X303548217Y-254072224D03*
X472484815Y-337978767D03*
D27*
X297885215Y-305771539D03*
D28*
X636226314Y-337724767D03*
X636750915Y-369467966D03*
X514716548Y-165351335D03*
X653657215Y-160652335D03*
X473425716Y-319731224D03*
D27*
X652531217Y-271877992D03*
D28*
X191217214Y-236511208D03*
X627444214Y-168526335D03*
X278827216Y-260522222D03*
X343339049Y-162684335D03*
X574726179Y-260257208D03*
D27*
X354283050Y-204378635D03*
X495465544Y-292915292D03*
D28*
X585212481Y-337978767D03*
X508261647Y-346884766D03*
D27*
X579639381Y-275898337D03*
X624220215Y-277482356D03*
D28*
X388054882Y-319731224D03*
X308596218Y-247754224D03*
X218177383Y-254072224D03*
D27*
X412180881Y-297300456D03*
D28*
X467896815Y-348392766D03*
X597293382Y-160652335D03*
X449855715Y-246579225D03*
D27*
X427771884Y-277482356D03*
D28*
X355656049Y-185612335D03*
X415573611Y-196973619D03*
X625663214Y-261438224D03*
D27*
X223226380Y-303057574D03*
X324144049Y-218170835D03*
D28*
X444418715Y-254072224D03*
X325400148Y-337724767D03*
D27*
X426644081Y-291267774D03*
D28*
X682247213Y-199684208D03*
X587869181Y-173104334D03*
D27*
X560277379Y-310563274D03*
D28*
X487232716Y-164335335D03*
X276897214Y-178132335D03*
D27*
X550632379Y-286445256D03*
D28*
X282806315Y-342042766D03*
D27*
X579738382Y-219390035D03*
D28*
X564254381Y-189276335D03*
D27*
X314578216Y-198092138D03*
X634871213Y-277545856D03*
D28*
X395533981Y-342042766D03*
X405634680Y-260257208D03*
X368177149Y-346884766D03*
D27*
X391185880Y-310563274D03*
X454662714Y-198092138D03*
D28*
X656197215Y-160652335D03*
X251470384Y-266391224D03*
X226442481Y-349297766D03*
X190958712Y-181911210D03*
X311442217Y-191689335D03*
D27*
X428207885Y-270230474D03*
X242653383Y-307419058D03*
X353151050Y-205597835D03*
D28*
X295744216Y-178894334D03*
D27*
X478197716Y-205597835D03*
X597051382Y-251189425D03*
D28*
X269798315Y-348392766D03*
X680444213Y-300887965D03*
X687827213Y-258318965D03*
X643835415Y-168872335D03*
D27*
X241521382Y-305771539D03*
X212449381Y-286445256D03*
X315480220Y-284734239D03*
D28*
X298506216Y-184450335D03*
D29*
X504949548Y-251151224D03*
D28*
X499996548Y-254834224D03*
X473659814Y-339153766D03*
X443632715Y-253132424D03*
X354870049Y-185612335D03*
X315312217Y-264200225D03*
X482584716Y-174590335D03*
X543469549Y-162684335D03*
X193733712Y-184336209D03*
X691022612Y-378004335D03*
X611077813Y-316796723D03*
D27*
X371844052Y-270230474D03*
D28*
X391554882Y-313862222D03*
D27*
X606996212Y-268646455D03*
X580140380Y-298519656D03*
D28*
X389435882Y-269771223D03*
X463660716Y-177719335D03*
X552403480Y-348392766D03*
D27*
X571935180Y-338141297D03*
X342837052Y-284734239D03*
X380408880Y-277545856D03*
X354184049Y-275898337D03*
X437904713Y-268646455D03*
X550632380Y-275898337D03*
D28*
X244936383Y-253981335D03*
X360698050Y-266391224D03*
X607218914Y-366485966D03*
D27*
X257552582Y-291267774D03*
D28*
X511922548Y-160652335D03*
X323101048Y-178894334D03*
X520024549Y-177719335D03*
D27*
X365470050Y-205597835D03*
X465779714Y-284797737D03*
D28*
X326162148Y-347630766D03*
D27*
X607061212Y-305771539D03*
D28*
X298805316Y-346690966D03*
D27*
X476556714Y-310563274D03*
D29*
X364865050Y-251151224D03*
D28*
X247970384Y-313862223D03*
D27*
X286703214Y-199311335D03*
X313916415Y-291267774D03*
D28*
X473425716Y-260522222D03*
D27*
X270010212Y-292915292D03*
D28*
X523498249Y-366485966D03*
X326948148Y-348392766D03*
X315312217Y-262613223D03*
X628382612Y-333183228D03*
D27*
X411048881Y-298519656D03*
D28*
X213135382Y-185612335D03*
X220463383Y-222232026D03*
X409584982Y-347522766D03*
D27*
X596167385Y-283086720D03*
D28*
X608767313Y-347630766D03*
D27*
X549599381Y-205597835D03*
D28*
X326162148Y-348392766D03*
X203070213Y-211726209D03*
X261650384Y-162684335D03*
X289134216Y-164335335D03*
X417061883Y-254834224D03*
D29*
X303459216Y-181529335D03*
D27*
X229199882Y-219302835D03*
X230339381Y-199311335D03*
X420192881Y-310563274D03*
X607095214Y-204378635D03*
D28*
X551318380Y-183510535D03*
X654165215Y-162684335D03*
D27*
X465779714Y-270293973D03*
D28*
X607682213Y-185612335D03*
D27*
X421946982Y-339210767D03*
X493235547Y-199311335D03*
D28*
X586153382Y-319731224D03*
X311442217Y-186863335D03*
D27*
X647289215Y-205597835D03*
D28*
X698447012Y-375389208D03*
X258948384Y-262613223D03*
X269036315Y-337724767D03*
X188499213Y-217602208D03*
X692128213Y-365090335D03*
X492160547Y-174054334D03*
X439376714Y-185612335D03*
X277043015Y-173104334D03*
D27*
X308597214Y-303057574D03*
X296688215Y-284797737D03*
X645648213Y-304276774D03*
X342589049Y-251189425D03*
D28*
X249288584Y-168872335D03*
X314204217Y-174538335D03*
D27*
X241456382Y-286445256D03*
D28*
X255449483Y-346884766D03*
X531505348Y-173104334D03*
D27*
X283690214Y-290135773D03*
X511026547Y-198092138D03*
D28*
X615226013Y-173104334D03*
D27*
X353052048Y-277545856D03*
X592308481Y-340429967D03*
X211317381Y-270293973D03*
D28*
X587534382Y-269771223D03*
X275327216Y-254072224D03*
X360698050Y-313862223D03*
D27*
X634871213Y-284797737D03*
D28*
X465692715Y-360758276D03*
X411233882Y-185612335D03*
X531505348Y-175004334D03*
X441384714Y-253981335D03*
X571080381Y-168526335D03*
X188240712Y-167852209D03*
X331691049Y-313862223D03*
D27*
X595938482Y-367875966D03*
X366853149Y-340429967D03*
X268878214Y-305771539D03*
D28*
X636988314Y-346690966D03*
D27*
X439101711Y-292915292D03*
D28*
X213135382Y-184450335D03*
X515654946Y-333183228D03*
X617010214Y-260522222D03*
X196508712Y-186761209D03*
X581735582Y-363183966D03*
D27*
X365583149Y-339210767D03*
D28*
X367806050Y-189276335D03*
X467597715Y-185612335D03*
X656197215Y-162684335D03*
D27*
X637636213Y-297300456D03*
D28*
X614828414Y-168872335D03*
X395162882Y-194102335D03*
D27*
X465878716Y-205597835D03*
D28*
X247184384Y-254072224D03*
X507890548Y-191689335D03*
X574265179Y-164826210D03*
X298805316Y-348392766D03*
X243227483Y-348392766D03*
X282435216Y-191689335D03*
D27*
X392317880Y-309344074D03*
D28*
X483295716Y-174538335D03*
X677904213Y-300887965D03*
D29*
X359823049Y-181529335D03*
D27*
X578606382Y-218170835D03*
X251101383Y-297990274D03*
X372153748Y-218170836D03*
X421833883Y-211884335D03*
X232482181Y-339360498D03*
X211416383Y-205597835D03*
D28*
X242142383Y-184450335D03*
X417061883Y-266391224D03*
X274541216Y-253132424D03*
X646017215Y-260522222D03*
X218963383Y-266391224D03*
X607682213Y-184450335D03*
X196767213Y-231661208D03*
X528848648Y-337978767D03*
X222463383Y-313862222D03*
X478862716Y-246579225D03*
D27*
X511492549Y-277482356D03*
D28*
X646017215Y-319731224D03*
D27*
X314348219Y-271877992D03*
D28*
X294569217Y-177719335D03*
X480904815Y-342042766D03*
D27*
X493136546Y-284797737D03*
D28*
X524260648Y-348392766D03*
X395162882Y-186863335D03*
X302845945Y-196973619D03*
D27*
X580836381Y-307419058D03*
D28*
X670284213Y-245047965D03*
X230611383Y-162684335D03*
D27*
X595731383Y-278701556D03*
X539574649Y-367875966D03*
D28*
X620618214Y-194102335D03*
X345625049Y-165351335D03*
D27*
X493136546Y-270293973D03*
D28*
X558464581Y-168872335D03*
X502282548Y-222232026D03*
D27*
X410646883Y-198092135D03*
D28*
X558646381Y-222232026D03*
X638099415Y-363183966D03*
D27*
X335954047Y-309344074D03*
D28*
X438590714Y-184450335D03*
X307834217Y-319731224D03*
X521199548Y-178894334D03*
X202077012Y-227011209D03*
D27*
X394209981Y-340429967D03*
X279590214Y-309344074D03*
X534674648Y-339210767D03*
X623138214Y-249970225D03*
X579639382Y-271941491D03*
D28*
X599960382Y-164335335D03*
X470391715Y-253981335D03*
X543723549Y-168526335D03*
X589653382Y-266391224D03*
D29*
X612635213Y-181529335D03*
D28*
X569299382Y-253945224D03*
X282435216Y-194102335D03*
D27*
X428517581Y-218170836D03*
X523275548Y-275898337D03*
D28*
X627190214Y-162684335D03*
X631090012Y-260257208D03*
D27*
X307026288Y-308532369D03*
D28*
X476925716Y-260522222D03*
X649625215Y-194102335D03*
D27*
X540026048Y-219302835D03*
D28*
X484403716Y-264200225D03*
X251470384Y-313862222D03*
D27*
X252742384Y-211884335D03*
D28*
X436941814Y-347522766D03*
X508258647Y-344447766D03*
D27*
X565509379Y-290135773D03*
D28*
X583119381Y-253981335D03*
D27*
X619414213Y-204378635D03*
X437904713Y-286445256D03*
D28*
X587653382Y-222232026D03*
D27*
X410646883Y-204378635D03*
X390746953Y-308532369D03*
D29*
X308501217Y-251151224D03*
D28*
X443632715Y-254072224D03*
D27*
X353052048Y-284797737D03*
D28*
X517901346Y-164826210D03*
D27*
X281482315Y-340429967D03*
D28*
X451526715Y-194102335D03*
D27*
X326810047Y-297300456D03*
X267681214Y-277545856D03*
D28*
X685524213Y-300887965D03*
D27*
X296787217Y-211884335D03*
D28*
X417061883Y-260522222D03*
D27*
X596397381Y-198092138D03*
D28*
X213135382Y-183510535D03*
X633927214Y-178894334D03*
X240493483Y-347522766D03*
X554112380Y-253981335D03*
D27*
X257598384Y-249970225D03*
X521501346Y-339437398D03*
D28*
X282806314Y-351710766D03*
X515699788Y-230685226D03*
X304334217Y-266391224D03*
X468224013Y-267725708D03*
X289007216Y-162684335D03*
X424169883Y-194102335D03*
X518362346Y-260257208D03*
D27*
X568044381Y-251189425D03*
X409514883Y-218170835D03*
D28*
X444418715Y-254834224D03*
X608468213Y-184450335D03*
X473425716Y-254072224D03*
D27*
X562031480Y-339210767D03*
X392317881Y-296771074D03*
D28*
X570826381Y-160652335D03*
D27*
X466976712Y-291267774D03*
D28*
X430995883Y-165351335D03*
X311442217Y-194102335D03*
D27*
X522242549Y-205597835D03*
D28*
X598306382Y-257882224D03*
D27*
X240324382Y-277545856D03*
X597609080Y-218170836D03*
X427298382Y-219302835D03*
D28*
X587471582Y-168872335D03*
X411233882Y-183510535D03*
X438127415Y-366485966D03*
X578420381Y-360758276D03*
X213921382Y-184450335D03*
X315474217Y-160652335D03*
X644017215Y-222232026D03*
D27*
X624565314Y-369095166D03*
D28*
X580325381Y-183510535D03*
X277043015Y-175004334D03*
D27*
X422965882Y-204378635D03*
D28*
X586387480Y-339153766D03*
X269499215Y-185612335D03*
D27*
X596863383Y-277482356D03*
D28*
X636988314Y-347630766D03*
X485578716Y-257882224D03*
D27*
X466976714Y-305771539D03*
X428437881Y-199311335D03*
D28*
X593632481Y-346884766D03*
D27*
X314119317Y-367875966D03*
X336576148Y-339210767D03*
D28*
X589653382Y-319731224D03*
D27*
X296046014Y-339437398D03*
D28*
X514589548Y-164335335D03*
D29*
X223130383Y-251151224D03*
D28*
X632731472Y-354102708D03*
D27*
X494333546Y-305771539D03*
D28*
X409328882Y-360758276D03*
X598306383Y-253945224D03*
D27*
X578507380Y-277545856D03*
D28*
X502498347Y-173104334D03*
X447319715Y-162303335D03*
D27*
X251101382Y-304276774D03*
X241957382Y-298519656D03*
X411744879Y-292915292D03*
D28*
X509941548Y-176622335D03*
X543469549Y-160652335D03*
D27*
X605864212Y-277545856D03*
X627029012Y-339360498D03*
D28*
X597131382Y-264200225D03*
X507890548Y-186863335D03*
X231116384Y-253945224D03*
X355169149Y-346690966D03*
D27*
X550632379Y-268646455D03*
D28*
X261904384Y-168526335D03*
X339170147Y-349297766D03*
D27*
X402843681Y-338141297D03*
X267780216Y-211884335D03*
D28*
X581111381Y-185612335D03*
X540767549Y-264200225D03*
D29*
X392221882Y-251151224D03*
D27*
X278019287Y-308532369D03*
D28*
X530023647Y-339153766D03*
D27*
X551829377Y-292915292D03*
X494333544Y-291267774D03*
X563301480Y-340429967D03*
X452781713Y-290135773D03*
X523340547Y-305771539D03*
D29*
X330816048Y-181529335D03*
D27*
X522242548Y-199311335D03*
D28*
X615010214Y-222232026D03*
D27*
X449303814Y-339210767D03*
D28*
X374632050Y-168526335D03*
D27*
X228591383Y-249970225D03*
D28*
X585367382Y-253132424D03*
X257840384Y-174538335D03*
D27*
X624656216Y-270230474D03*
D28*
X282435216Y-189276335D03*
X504282548Y-313862222D03*
D27*
X596389881Y-219302835D03*
D28*
X646017215Y-266391224D03*
X465948815Y-347522766D03*
D27*
X315480219Y-270230474D03*
X637200211Y-292915292D03*
D28*
X367806050Y-191689335D03*
X625158214Y-162684335D03*
X345498049Y-164335335D03*
D27*
X290116015Y-338141297D03*
X341319049Y-249970225D03*
X224867382Y-204378635D03*
D28*
X529789549Y-266391224D03*
D27*
X341927548Y-219302835D03*
D28*
X453577715Y-174590335D03*
X549413380Y-360758276D03*
X514716548Y-168526335D03*
X218963383Y-319731224D03*
X485578717Y-253945224D03*
D27*
X494268546Y-286445256D03*
X267780216Y-205597835D03*
X241456383Y-275898337D03*
D28*
X259618384Y-162684335D03*
D27*
X268912216Y-198092135D03*
X213646379Y-292915292D03*
D28*
X368177149Y-342042766D03*
D27*
X568292383Y-270230474D03*
D28*
X593261382Y-189276335D03*
X560646381Y-266391224D03*
D27*
X427959883Y-251189425D03*
X343146747Y-218170836D03*
D28*
X416120982Y-337978767D03*
X551617480Y-346690966D03*
D27*
X425424881Y-290135773D03*
X223848482Y-339210767D03*
D28*
X496364748Y-363183966D03*
X681000213Y-204658208D03*
D27*
X484323716Y-251189425D03*
D28*
X226442482Y-342042766D03*
X500782548Y-266391224D03*
D27*
X592057381Y-204378635D03*
X447110786Y-308532369D03*
D28*
X581111381Y-184450335D03*
X636689214Y-185612335D03*
X395162882Y-191689335D03*
D27*
X398298881Y-198092138D03*
X285341219Y-283086720D03*
D28*
X247184384Y-253132424D03*
D27*
X503913546Y-304276774D03*
D28*
X224400383Y-246579225D03*
X166571012Y-182933208D03*
D27*
X353151050Y-211884335D03*
D28*
X242441483Y-348392766D03*
D27*
X567160383Y-271877992D03*
X309106217Y-211884335D03*
D28*
X303393316Y-337978767D03*
D27*
X511928551Y-284734239D03*
X578606381Y-199311335D03*
D28*
X395533980Y-351710766D03*
X428201883Y-160652335D03*
D27*
X523374549Y-219390035D03*
D28*
X586153382Y-266391224D03*
D27*
X505554548Y-211884335D03*
D28*
X476925716Y-313862222D03*
D27*
X454000913Y-291267774D03*
D28*
X387268882Y-254072224D03*
X550855081Y-366485966D03*
D27*
X539417549Y-249970225D03*
X399200885Y-284734239D03*
D28*
X605777213Y-360758276D03*
X355656049Y-184450335D03*
X693943612Y-372424335D03*
X480904815Y-346884766D03*
X683699212Y-368504335D03*
X342669049Y-264200225D03*
X232643383Y-160652335D03*
X525066549Y-247341224D03*
X500782548Y-254072224D03*
D27*
X617773213Y-296771074D03*
D28*
X418631881Y-178132335D03*
D27*
X278458215Y-297990274D03*
D28*
X201668711Y-160672210D03*
X523961548Y-183510535D03*
D27*
X551829380Y-307419058D03*
X540687549Y-251189425D03*
X579704378Y-291267774D03*
X570665179Y-339360498D03*
D28*
X558862180Y-173104334D03*
X424169883Y-189276335D03*
X451897814Y-342042766D03*
X428039883Y-264200225D03*
D27*
X212548383Y-219390035D03*
D28*
X480901815Y-344447766D03*
D27*
X423216982Y-340429967D03*
D28*
X620618214Y-186863335D03*
X636689214Y-184450335D03*
X468383715Y-185612335D03*
X604920213Y-178894334D03*
X340850049Y-174590335D03*
X430995883Y-168526335D03*
D27*
X524472548Y-307419058D03*
X342401050Y-277482356D03*
D28*
X670284214Y-267359968D03*
D27*
X447549713Y-310563274D03*
D28*
X468702716Y-247341224D03*
X527357148Y-316796723D03*
D27*
X230109385Y-270230474D03*
X617773212Y-309344074D03*
D28*
X389373082Y-168872335D03*
X318014217Y-160652335D03*
X468682815Y-348392766D03*
D27*
X540935552Y-284734239D03*
X645209286Y-308532369D03*
D28*
X339170147Y-351710766D03*
X330202777Y-196973619D03*
X305715217Y-269771223D03*
X241679084Y-366485966D03*
X670301213Y-316782966D03*
D27*
X484571719Y-284734239D03*
X652099413Y-291267774D03*
D28*
X287480217Y-253945224D03*
X355955149Y-348392766D03*
X613510214Y-254834224D03*
X679333713Y-251986967D03*
D27*
X494367548Y-204378635D03*
D28*
X422498883Y-246579225D03*
D27*
X465137513Y-339437398D03*
X566728579Y-291267774D03*
D28*
X364960051Y-247754224D03*
X656451215Y-168526335D03*
X260123384Y-257882224D03*
D27*
X595781382Y-249970225D03*
D28*
X417061883Y-254072224D03*
X512935548Y-257882224D03*
X647954215Y-246579225D03*
D27*
X397632883Y-278701556D03*
D28*
X257129384Y-176622335D03*
X495253647Y-347630766D03*
D27*
X381639882Y-204378635D03*
D28*
X557146381Y-260522222D03*
X386566610Y-196973619D03*
D27*
X398764883Y-277482356D03*
D28*
X556360381Y-254072224D03*
X503683548Y-162303335D03*
D27*
X468108715Y-307419058D03*
D28*
X473425716Y-313862223D03*
X339170148Y-346884766D03*
X205748711Y-160579209D03*
X581410481Y-347630766D03*
X430741883Y-160652335D03*
X446134514Y-175004334D03*
X593261382Y-194102335D03*
X612569313Y-337978767D03*
X383012881Y-184450335D03*
D27*
X439537713Y-297300456D03*
D28*
X692292612Y-366321335D03*
D27*
X605963214Y-205597835D03*
X307465215Y-310563274D03*
D28*
X560646381Y-313862222D03*
D27*
X267681214Y-284797737D03*
D28*
X383331882Y-247341224D03*
D27*
X268912216Y-204378635D03*
D28*
X637475214Y-184450335D03*
X613510214Y-313862223D03*
X622669214Y-176622335D03*
D27*
X463867512Y-338218197D03*
D28*
X606033313Y-347522766D03*
X496039647Y-347630766D03*
D27*
X307465215Y-304276774D03*
X309219316Y-339210767D03*
D28*
X577531381Y-174054334D03*
D27*
X607095214Y-219390035D03*
D28*
X374378050Y-160652335D03*
D27*
X240423384Y-211884335D03*
X370326050Y-249970225D03*
X381540880Y-268646455D03*
D28*
X196767213Y-236511208D03*
X535226549Y-246579225D03*
X541942550Y-253945224D03*
D27*
X355817048Y-297300456D03*
D28*
X214220482Y-348392766D03*
X552728581Y-363183966D03*
D27*
X636102215Y-198092135D03*
X539803552Y-283086720D03*
D28*
X698147012Y-203388208D03*
X698518612Y-369141335D03*
X241679483Y-337724767D03*
X624488214Y-264200225D03*
D27*
X409514883Y-205597835D03*
X634970214Y-199311335D03*
D28*
X571080381Y-165351335D03*
X683500213Y-309797966D03*
X500782548Y-254834224D03*
D27*
X225118482Y-340429967D03*
D28*
X355169149Y-348392766D03*
X581410481Y-348392766D03*
X412644083Y-363183966D03*
X451526715Y-189276335D03*
X576388382Y-177719335D03*
X456571715Y-261438224D03*
X613510214Y-266391224D03*
X193992213Y-234086208D03*
D27*
X483662215Y-219302835D03*
D28*
X411532982Y-348392766D03*
X304334217Y-260522222D03*
X540929549Y-160652335D03*
X299292216Y-184450335D03*
X512935548Y-261438224D03*
X568124381Y-264200225D03*
X368177148Y-351710766D03*
X247029483Y-337978767D03*
X572063621Y-230685226D03*
D27*
X636003214Y-275898337D03*
D28*
X656451215Y-165351335D03*
X278827216Y-313862222D03*
X301901816Y-316796723D03*
X306050016Y-173104334D03*
X644233014Y-175004334D03*
D27*
X227326381Y-290135773D03*
D28*
X350933050Y-177719335D03*
X599833382Y-162684335D03*
D27*
X618282214Y-205597835D03*
D28*
X525046648Y-348392766D03*
X540767549Y-262613223D03*
D27*
X253874383Y-204378635D03*
D28*
X620989313Y-342042766D03*
X238205384Y-177719335D03*
X324214148Y-347522766D03*
D27*
X605963213Y-199311335D03*
D28*
X230103383Y-160652335D03*
X580387082Y-369467966D03*
D27*
X550697377Y-291267774D03*
D28*
X326649048Y-184450335D03*
X397213882Y-176622335D03*
X411860180Y-267725708D03*
D27*
X212514381Y-305771539D03*
D28*
X426220883Y-176622335D03*
X333072049Y-269771223D03*
X529789549Y-313862223D03*
X448680716Y-247754224D03*
D27*
X426689883Y-249970225D03*
D28*
X456571715Y-257882224D03*
X296601216Y-360758276D03*
X562583381Y-246579225D03*
D27*
X426846983Y-367875966D03*
D28*
X355955149Y-347630766D03*
X410770583Y-366485966D03*
X387113981Y-337978767D03*
X401734882Y-160652335D03*
X165174013Y-184076208D03*
X682984213Y-245047965D03*
D27*
X409415881Y-270293973D03*
D28*
X468383715Y-184450335D03*
X364198050Y-319731224D03*
D27*
X538152547Y-290135773D03*
X578507380Y-284797737D03*
X624656217Y-284734239D03*
D28*
X680444214Y-267359967D03*
D27*
X606996213Y-275898337D03*
D28*
X639483214Y-253981335D03*
X506219548Y-246579225D03*
X335191049Y-260522222D03*
X677904214Y-267359967D03*
X249686183Y-173104334D03*
X458098715Y-160652335D03*
X607981313Y-347630766D03*
X438127814Y-337724767D03*
X428709883Y-162684335D03*
X255078384Y-189276335D03*
D27*
X354184050Y-271941491D03*
D28*
X604888213Y-174054334D03*
D27*
X634970215Y-205597835D03*
X568201481Y-369095166D03*
D28*
X305904215Y-178132335D03*
D27*
X493136546Y-277545856D03*
X436772713Y-277545856D03*
D28*
X529789549Y-260522222D03*
X694359142Y-369100335D03*
X584665110Y-196973619D03*
X269499215Y-183510535D03*
X494954547Y-184450335D03*
X524260648Y-346690966D03*
D27*
X312697215Y-290135773D03*
D28*
X333191049Y-222232026D03*
X683699212Y-371504335D03*
D27*
X354184048Y-286445256D03*
D28*
X454288715Y-174538335D03*
X331691049Y-266391224D03*
D27*
X334822048Y-297990274D03*
D28*
X226442482Y-346884766D03*
X282806314Y-349297766D03*
X499996548Y-254072224D03*
X487359716Y-168526335D03*
X504282548Y-260522222D03*
X342831049Y-160652335D03*
X625663215Y-253945224D03*
X270285215Y-184450335D03*
D29*
X421228883Y-251151224D03*
D28*
X426931883Y-174538335D03*
D27*
X370934549Y-219302835D03*
X259116387Y-284734239D03*
D28*
X536897549Y-186863335D03*
X305652417Y-168872335D03*
D27*
X314348220Y-283086720D03*
D28*
X537268648Y-342042766D03*
X355169149Y-347630766D03*
X388054882Y-266391224D03*
D27*
X616641213Y-297990274D03*
D28*
X414629482Y-316796723D03*
D27*
X532920547Y-304276774D03*
D28*
X379464881Y-178894334D03*
D27*
X228541384Y-278701556D03*
D28*
X688064213Y-300887965D03*
D27*
X421324880Y-303057574D03*
X605864212Y-270293973D03*
X568602079Y-218170836D03*
D28*
X245537983Y-316796723D03*
X612724214Y-253132424D03*
X282803315Y-344447766D03*
D27*
X258868384Y-251189425D03*
D28*
X196508712Y-181911209D03*
X411233882Y-184450335D03*
X512935549Y-253945224D03*
D27*
X567382880Y-219302835D03*
D28*
X289261216Y-165351335D03*
X502100748Y-168872335D03*
D27*
X591038481Y-339210767D03*
X268878212Y-291267774D03*
X511928550Y-270230474D03*
X410612881Y-305771539D03*
X550731381Y-219390035D03*
D28*
X467896815Y-347630766D03*
X388288980Y-339153766D03*
D27*
X398068884Y-271877992D03*
X381639882Y-219390035D03*
X428207886Y-284734239D03*
D28*
X232643383Y-162684335D03*
X226071383Y-186863335D03*
X257129384Y-174590335D03*
X586153382Y-260522222D03*
D27*
X336463049Y-205597835D03*
D28*
X549669480Y-347522766D03*
D27*
X634229012Y-339437398D03*
D28*
X357664049Y-253981335D03*
D27*
X510796550Y-271877992D03*
X239682181Y-339437398D03*
D28*
X217475111Y-196973619D03*
D27*
X450322714Y-204378635D03*
X286473219Y-284734239D03*
X532920548Y-297990274D03*
D28*
X371838050Y-160652335D03*
X278827216Y-266391224D03*
D27*
X455128716Y-277482356D03*
D28*
X383311981Y-348392766D03*
D27*
X297820216Y-275898337D03*
D28*
X651676215Y-176622335D03*
X381763582Y-366485966D03*
D27*
X391185881Y-297990274D03*
X211416383Y-211884335D03*
X364961048Y-309344074D03*
D28*
X232897383Y-165351335D03*
D27*
X326374045Y-292915292D03*
X252855483Y-339210767D03*
D28*
X642517215Y-260522222D03*
X617010214Y-313862222D03*
X359912050Y-254072224D03*
X270285215Y-185612335D03*
D27*
X325177048Y-275898337D03*
D28*
X534051550Y-247754224D03*
D27*
X284905217Y-278701556D03*
X285341218Y-271877992D03*
X366602049Y-204378635D03*
X478197716Y-211884335D03*
D28*
X242768681Y-267725708D03*
X424169883Y-191689335D03*
X213197083Y-369467966D03*
X303548217Y-254834224D03*
D27*
X324045047Y-277545856D03*
X522242549Y-211884335D03*
D28*
X292907014Y-260257208D03*
X387268882Y-253132424D03*
X339170148Y-342042766D03*
X412318982Y-347630766D03*
D27*
X212950381Y-298519656D03*
X411744882Y-307419058D03*
D28*
X458352715Y-165351335D03*
X382226881Y-184450335D03*
D27*
X268813214Y-286445256D03*
D28*
X543723549Y-165351335D03*
X677904212Y-211519967D03*
X418777682Y-173104334D03*
D27*
X568522379Y-199311335D03*
X636102215Y-204378635D03*
D28*
X548524380Y-174054334D03*
D29*
X556271380Y-181529335D03*
D28*
X309771217Y-246579225D03*
X684255213Y-317398966D03*
D27*
X607497212Y-298519656D03*
D28*
X511760548Y-264200225D03*
X354870049Y-183510535D03*
X366135050Y-246579225D03*
X279589217Y-247754224D03*
X364198050Y-266391224D03*
D27*
X392826882Y-211884335D03*
X465878716Y-211884335D03*
D28*
X368174149Y-344447766D03*
X651676215Y-174590335D03*
D27*
X325276049Y-204378635D03*
D28*
X407296883Y-177719335D03*
D27*
X453996716Y-278701556D03*
D28*
X608767313Y-348392766D03*
D27*
X618395313Y-339210767D03*
X652145215Y-249970225D03*
D28*
X523498648Y-337724767D03*
D27*
X372074048Y-199311335D03*
X505045546Y-309344074D03*
X285112316Y-367875966D03*
D28*
X470993315Y-316796723D03*
D27*
X454432717Y-271877992D03*
D28*
X325863048Y-183510535D03*
D27*
X522143547Y-270293973D03*
X550731381Y-204378635D03*
D28*
X298042917Y-366485966D03*
X345371049Y-160652335D03*
D27*
X648672314Y-340429967D03*
D28*
X416275883Y-254834224D03*
X645418215Y-162303335D03*
X251470384Y-260522222D03*
X468682815Y-347630766D03*
D27*
X228977385Y-271877992D03*
D28*
X301300216Y-253981335D03*
X439675814Y-348392766D03*
D27*
X483210816Y-367875966D03*
D28*
X577563381Y-178894334D03*
D27*
X468544714Y-297300456D03*
X495901546Y-297300456D03*
X448681713Y-309344074D03*
D28*
X269035916Y-366485966D03*
X299591316Y-347630766D03*
X242142383Y-183510535D03*
D27*
X353151049Y-199311335D03*
D28*
X259110384Y-160652335D03*
X222463383Y-260522222D03*
X675364213Y-245047965D03*
D27*
X279590215Y-296771074D03*
D28*
X612021942Y-196973619D03*
X615080212Y-178132335D03*
D27*
X409514882Y-199311335D03*
D28*
X228122383Y-176622335D03*
X476925716Y-266391224D03*
D27*
X240423383Y-199311335D03*
D28*
X411532982Y-347630766D03*
X311813315Y-351710766D03*
X242142383Y-185612335D03*
X682247213Y-195366208D03*
X531170549Y-269771223D03*
X430868883Y-164335335D03*
X363599050Y-162303335D03*
X529003549Y-254072224D03*
X608787214Y-247341224D03*
D27*
X477688714Y-309344074D03*
X267780215Y-199311335D03*
X617773211Y-303057574D03*
X284955216Y-249970225D03*
D28*
X354407149Y-337724767D03*
X355975050Y-247341224D03*
X218022482Y-337978767D03*
X552104380Y-184450335D03*
X213434482Y-347630766D03*
X541942549Y-257882224D03*
X566305381Y-174590335D03*
D27*
X369061048Y-290135773D03*
D28*
X349270847Y-260257208D03*
D27*
X523776547Y-298519656D03*
X479329715Y-204378635D03*
D28*
X505044549Y-247754224D03*
X266737215Y-178894334D03*
D27*
X523275549Y-271941491D03*
D28*
X539659549Y-174538335D03*
X642517215Y-254834224D03*
X476326716Y-162303335D03*
X269499215Y-184450335D03*
D27*
X229207382Y-198092138D03*
X455564717Y-270230474D03*
D28*
X447918715Y-266391224D03*
X622669214Y-174590335D03*
X654670216Y-253945224D03*
D27*
X578606382Y-211884335D03*
X380408880Y-270293973D03*
D28*
X330905049Y-254072224D03*
X388904882Y-225124027D03*
X289007216Y-160652335D03*
X682016213Y-203388208D03*
D27*
X647402314Y-339210767D03*
X286225216Y-251189425D03*
X523340545Y-291267774D03*
X438405713Y-298519656D03*
D28*
X537268648Y-346884766D03*
X242441483Y-346690966D03*
X218963383Y-254072224D03*
X681099213Y-316764468D03*
D27*
X324045047Y-284797737D03*
D28*
X670284213Y-300887965D03*
X474995714Y-178132335D03*
X445799715Y-269771223D03*
X494491647Y-337724767D03*
D27*
X345209847Y-339360498D03*
D28*
X557380479Y-339153766D03*
D27*
X579639380Y-286445256D03*
D28*
X500782548Y-319731224D03*
D27*
X484881414Y-218170836D03*
X618282214Y-211884335D03*
D28*
X247970384Y-260522222D03*
D27*
X447549714Y-297990274D03*
D28*
X430741883Y-162684335D03*
X333261047Y-178132335D03*
X249540382Y-178132335D03*
D27*
X484801714Y-199311335D03*
X211416383Y-218170835D03*
D28*
X564625479Y-349297766D03*
X459335955Y-230685226D03*
X345625049Y-168526335D03*
X311442217Y-189276335D03*
X354870049Y-184450335D03*
X543596549Y-164335335D03*
X533289549Y-313862222D03*
D29*
X416186882Y-181529335D03*
D27*
X399200884Y-270230474D03*
D28*
X531289549Y-222232026D03*
X270604216Y-247341224D03*
X556360381Y-254834224D03*
X304334217Y-313862223D03*
X557996381Y-225124027D03*
D29*
X247095383Y-181529335D03*
D28*
X500782548Y-313862223D03*
X681692612Y-365836335D03*
X617772215Y-247754224D03*
X335191049Y-319731224D03*
D27*
X576595178Y-338218197D03*
D28*
X593632480Y-351710766D03*
X359209778Y-196973619D03*
X567016381Y-174538335D03*
X442930443Y-196973619D03*
X305834217Y-222232026D03*
X529789549Y-254834224D03*
X443477814Y-337978767D03*
X612724214Y-254834224D03*
D27*
X652095216Y-278701556D03*
D28*
X556360381Y-253132424D03*
D27*
X365470050Y-211884335D03*
D28*
X269798315Y-347630766D03*
X614891214Y-269771223D03*
D27*
X522143547Y-284797737D03*
D28*
X232770383Y-164335335D03*
X583720981Y-316796723D03*
D27*
X436772713Y-270293973D03*
X566931481Y-367875966D03*
D28*
X247970384Y-254834224D03*
D27*
X299017213Y-292915292D03*
D28*
X331691049Y-254072224D03*
X417911883Y-225124027D03*
D27*
X256333382Y-290135773D03*
D28*
X275327216Y-254834224D03*
D27*
X520231345Y-338218197D03*
D28*
X473425716Y-254834224D03*
X389770681Y-173104334D03*
X275561314Y-339153766D03*
X593632480Y-349297766D03*
X289261216Y-168526335D03*
X570953381Y-164335335D03*
D27*
X438003715Y-204378635D03*
X324144049Y-205597835D03*
X634970215Y-211884335D03*
X241555384Y-198092135D03*
X355381046Y-292915292D03*
X636102215Y-219390035D03*
X476556714Y-304276774D03*
D28*
X641731215Y-254072224D03*
D27*
X228545581Y-291267774D03*
D28*
X352965049Y-360758276D03*
X325399749Y-366485966D03*
D27*
X296787216Y-199311335D03*
D28*
X685524214Y-267359968D03*
D27*
X398068885Y-283086720D03*
X421324882Y-296771074D03*
X397839982Y-367875966D03*
D28*
X242928383Y-185612335D03*
X677929213Y-195366208D03*
X620618214Y-189276335D03*
X644087213Y-178132335D03*
X201927212Y-210422207D03*
X435796714Y-174054334D03*
X557146381Y-254834224D03*
X220344383Y-269771223D03*
X328657048Y-253981335D03*
X380577981Y-347522766D03*
D27*
X228748483Y-367875966D03*
X539367550Y-278701556D03*
D28*
X282806315Y-346884766D03*
D27*
X459207514Y-338141297D03*
D28*
X459291113Y-333183228D03*
X494954547Y-185612335D03*
D29*
X499907547Y-181529335D03*
D28*
X356280250Y-363183966D03*
X472639716Y-254834224D03*
X370568050Y-174538335D03*
X694646612Y-356327335D03*
X613510214Y-260522222D03*
X499996548Y-253132424D03*
X495253647Y-346690966D03*
X627190214Y-160652335D03*
D27*
X652761214Y-198092138D03*
X211416382Y-199311335D03*
X597529380Y-199311335D03*
D28*
X325863048Y-184450335D03*
X536897549Y-191689335D03*
X416275883Y-254072224D03*
X390955882Y-162303335D03*
D27*
X540844649Y-369095166D03*
D28*
X326162148Y-346690966D03*
D27*
X436871715Y-205597835D03*
X267681214Y-270293973D03*
D28*
X526755548Y-253981335D03*
X260123385Y-253945224D03*
X318141217Y-164335335D03*
D27*
X325177047Y-268646455D03*
D28*
X360698050Y-260522222D03*
D27*
X341476149Y-367875966D03*
D28*
X445736915Y-168872335D03*
D27*
X212548383Y-198092135D03*
D28*
X461537513Y-164826210D03*
X420561883Y-266391224D03*
X307235217Y-162303335D03*
X251470384Y-319731224D03*
X615226013Y-175004334D03*
D27*
X447549713Y-304276774D03*
D28*
X593261382Y-186863335D03*
D27*
X597299385Y-284734239D03*
X370942049Y-198092138D03*
D28*
X223225384Y-247754224D03*
X330905049Y-254834224D03*
D27*
X298321215Y-298519656D03*
D28*
X389624880Y-178132335D03*
X451897813Y-351710766D03*
D27*
X259346382Y-199311335D03*
D28*
X493305647Y-347522766D03*
X447918715Y-313862222D03*
X203734711Y-178404209D03*
D27*
X540499550Y-277482356D03*
X280099216Y-211884335D03*
D28*
X243247384Y-247341224D03*
D27*
X636003215Y-271941491D03*
D28*
X286305216Y-264200225D03*
D27*
X534052547Y-309344074D03*
X510364746Y-291267774D03*
D28*
X472639716Y-253132424D03*
D27*
X624965912Y-218170836D03*
X241456384Y-271941491D03*
D28*
X383311981Y-347630766D03*
X484403716Y-262613223D03*
D27*
X381605878Y-291267774D03*
D28*
X359912050Y-254834224D03*
X435828714Y-178894334D03*
X493049547Y-360758276D03*
X236543181Y-260257208D03*
X686763012Y-206009208D03*
D27*
X484480816Y-369095166D03*
D28*
X551318380Y-185612335D03*
X684255213Y-322224966D03*
X487105716Y-160652335D03*
D29*
X641642214Y-181529335D03*
D28*
X429214884Y-253945224D03*
X226442481Y-351710766D03*
D27*
X624886212Y-199311335D03*
D28*
X381763981Y-337724767D03*
X389770681Y-175004334D03*
X536897549Y-189276335D03*
D27*
X596167384Y-271877992D03*
X229861383Y-251189425D03*
D28*
X496059548Y-247341224D03*
X607682213Y-183510535D03*
X273838944Y-196973619D03*
D29*
X252137384Y-251151224D03*
D28*
X649996314Y-342042766D03*
X240237383Y-360758276D03*
D29*
X646684215Y-251151224D03*
D28*
X299916417Y-363183966D03*
D27*
X590416379Y-303057574D03*
D28*
X414027882Y-253981335D03*
X200773012Y-228154208D03*
X438889814Y-347630766D03*
X352076049Y-174054334D03*
X524747548Y-184450335D03*
X688064213Y-245047965D03*
D27*
X439101714Y-307419058D03*
D28*
X642751313Y-339153766D03*
D27*
X285563715Y-219302835D03*
X325678047Y-298519656D03*
D28*
X274386315Y-337978767D03*
X166571012Y-247920708D03*
X502498347Y-175004334D03*
D27*
X607095214Y-198092135D03*
D28*
X222463383Y-266391224D03*
D27*
X634970215Y-218170835D03*
D28*
X560047381Y-162303335D03*
D27*
X351139846Y-338218197D03*
D28*
X438590714Y-185612335D03*
X589054382Y-162303335D03*
D27*
X549599381Y-218170835D03*
D28*
X352108049Y-178894334D03*
X586153382Y-254834224D03*
D27*
X483669715Y-198092138D03*
D28*
X589653382Y-313862222D03*
D27*
X578507380Y-270293973D03*
D28*
X675364213Y-300887965D03*
D27*
X509145546Y-290135773D03*
X380507882Y-205597835D03*
D28*
X212672482Y-337724767D03*
X596023382Y-174538335D03*
D27*
X259426082Y-218170836D03*
X653663218Y-284734239D03*
D28*
X382288582Y-369467966D03*
X371676050Y-264200225D03*
X371676050Y-262613223D03*
X680444212Y-211519967D03*
X649993314Y-344447766D03*
D27*
X324144048Y-199311335D03*
X268813214Y-268646455D03*
D28*
X564625480Y-342042766D03*
X451897813Y-349297766D03*
X424540981Y-351710766D03*
D27*
X324144049Y-211884335D03*
X467412714Y-298519656D03*
D28*
X557146381Y-266391224D03*
D27*
X409415881Y-277545856D03*
D28*
X305184217Y-225124027D03*
X374378050Y-162684335D03*
X369857050Y-174590335D03*
X325863048Y-185612335D03*
X387268882Y-254834224D03*
D29*
X528914548Y-181529335D03*
D27*
X476117787Y-308532369D03*
D28*
X331691049Y-254834224D03*
D27*
X296688215Y-277545856D03*
X483053716Y-249970225D03*
D29*
X477592716Y-251151224D03*
D27*
X511680548Y-251189425D03*
X427075885Y-271877992D03*
D29*
X533956549Y-251151224D03*
D27*
X397637080Y-291267774D03*
D28*
X670284212Y-211519966D03*
D27*
X579738382Y-204378635D03*
X337595048Y-204378635D03*
D28*
X389554882Y-222232026D03*
D27*
X243089382Y-297300456D03*
X541245247Y-218170836D03*
D28*
X307834217Y-313862222D03*
D27*
X354283050Y-198092135D03*
D28*
X458352715Y-168526335D03*
D27*
X252233381Y-303057574D03*
X382737881Y-307419058D03*
X568292384Y-284734239D03*
X346479848Y-338141297D03*
D28*
X591590382Y-246579225D03*
X445918715Y-222232026D03*
X656324215Y-164335335D03*
D27*
X212449382Y-275898337D03*
D28*
X636225915Y-366485966D03*
D27*
X399430880Y-199311335D03*
X241555384Y-204378635D03*
D28*
X226071383Y-189276335D03*
X292446014Y-164826210D03*
X226071383Y-191689335D03*
X362198050Y-222232026D03*
X426220883Y-174590335D03*
X295712216Y-174054334D03*
X686763012Y-200767208D03*
D27*
X632959011Y-338218197D03*
D28*
X219197481Y-339153766D03*
X640084814Y-316796723D03*
D27*
X511019047Y-219302835D03*
D28*
X467597715Y-184450335D03*
X287480216Y-261438224D03*
X316487217Y-257882224D03*
D27*
X623295314Y-367875966D03*
D28*
X228122383Y-174590335D03*
X558527381Y-269771223D03*
X379432881Y-174054334D03*
X522056548Y-360758276D03*
D27*
X297919217Y-219390035D03*
D28*
X649996314Y-346884766D03*
D27*
X454432718Y-283086720D03*
X299453215Y-297300456D03*
X616641212Y-310563274D03*
X223735383Y-205597835D03*
D28*
X400207882Y-257882224D03*
X399032882Y-264200225D03*
D27*
X652531218Y-283086720D03*
X410612879Y-291267774D03*
D28*
X595312382Y-174590335D03*
X628427454Y-230685226D03*
X473425716Y-266391224D03*
D27*
X551133379Y-298519656D03*
X650880213Y-290135773D03*
D28*
X411295583Y-369467966D03*
D27*
X257984386Y-271877992D03*
D28*
X354931750Y-369467966D03*
X410770982Y-337724767D03*
D27*
X334383120Y-308532369D03*
D28*
X445988713Y-178132335D03*
D27*
X483007914Y-291267774D03*
X286037217Y-277482356D03*
D28*
X568794381Y-162684335D03*
X633895214Y-174054334D03*
D27*
X399510580Y-218170836D03*
D28*
X451897814Y-346884766D03*
X205038712Y-177261210D03*
D27*
X506686547Y-204378635D03*
X567160384Y-283086720D03*
X455874413Y-218170836D03*
D28*
X451526715Y-191689335D03*
D27*
X648421214Y-204378635D03*
D28*
X672824214Y-267359968D03*
D27*
X371844053Y-284734239D03*
D28*
X630629012Y-164826210D03*
X494491248Y-366485966D03*
X331691049Y-260522222D03*
D27*
X636068213Y-305771539D03*
D28*
X440000915Y-363183966D03*
D27*
X579738382Y-198092135D03*
D28*
X548556380Y-178894334D03*
D27*
X279590213Y-303057574D03*
D28*
X400207883Y-253945224D03*
X202811711Y-161976210D03*
D27*
X436871715Y-218170835D03*
D28*
X672824212Y-211519968D03*
X649996313Y-349297766D03*
X467896815Y-346690966D03*
D27*
X494268546Y-268646455D03*
D28*
X507890548Y-194102335D03*
D27*
X653227216Y-277482356D03*
D28*
X338799049Y-186863335D03*
D27*
X223226381Y-309344074D03*
D28*
X616411214Y-162303335D03*
X418380083Y-168872335D03*
D27*
X493235548Y-211884335D03*
X477688713Y-303057574D03*
X540033548Y-198092138D03*
D28*
X212672083Y-366485966D03*
D27*
X408773680Y-339437398D03*
D28*
X367806050Y-186863335D03*
X290199614Y-333183228D03*
X580624481Y-346690966D03*
X597131382Y-262613223D03*
X188415012Y-277019967D03*
X323069048Y-174054334D03*
D27*
X228977386Y-283086720D03*
D28*
X345371049Y-162684335D03*
X524260648Y-347630766D03*
X190958712Y-186761209D03*
D27*
X420192881Y-304276774D03*
X221655454Y-308532369D03*
X647289215Y-211884335D03*
X645648213Y-310563274D03*
D28*
X311813316Y-346884766D03*
X274541216Y-254072224D03*
D27*
X623754213Y-198092138D03*
D28*
X586153382Y-313862223D03*
D27*
X579704380Y-305771539D03*
D28*
X306050016Y-175004334D03*
D27*
X454655214Y-219302835D03*
X315232217Y-251189425D03*
D29*
X617677214Y-251151224D03*
D28*
X229941383Y-264200225D03*
D27*
X534052548Y-296771074D03*
X407503679Y-338218197D03*
D28*
X333406848Y-175004334D03*
X402972122Y-230685226D03*
X231116383Y-261438224D03*
D27*
X296688215Y-270293973D03*
D28*
X455396715Y-264200225D03*
X388054882Y-313862223D03*
D27*
X381605880Y-305771539D03*
D28*
X337128049Y-246579225D03*
D27*
X652302315Y-367875966D03*
D28*
X424540981Y-349297766D03*
X362079050Y-269771223D03*
X608468213Y-185612335D03*
X590415383Y-247754224D03*
X388054882Y-260522222D03*
X382525981Y-346690966D03*
X552403480Y-347630766D03*
X695938213Y-365090335D03*
X221864383Y-162303335D03*
X325924749Y-369467966D03*
X226439482Y-344447766D03*
X492192547Y-178894334D03*
D27*
X240423384Y-218170835D03*
X308597216Y-296771074D03*
D28*
X447918715Y-319731224D03*
D27*
X539371747Y-291267774D03*
X503913547Y-297990274D03*
D28*
X620989312Y-351710766D03*
X641731215Y-253132424D03*
D27*
X646780214Y-296771074D03*
X623524217Y-283086720D03*
D28*
X276645416Y-168872335D03*
X232897383Y-168526335D03*
X405173680Y-164826210D03*
X418442883Y-269771223D03*
X499294276Y-196973619D03*
X637475214Y-185612335D03*
X285197216Y-174538335D03*
X218963383Y-260522222D03*
X330750148Y-337978767D03*
D27*
X549500379Y-277545856D03*
X605963214Y-211884335D03*
D28*
X424537982Y-344447766D03*
X214240383Y-247341224D03*
X620989313Y-346884766D03*
X677743612Y-375504335D03*
D27*
X313912218Y-278701556D03*
X419753954Y-308532369D03*
D28*
X372851050Y-257882224D03*
D27*
X550731381Y-198092135D03*
D28*
X684867612Y-379187335D03*
D27*
X652753714Y-219302835D03*
X566774381Y-249970225D03*
D28*
X646779216Y-247754224D03*
X247184384Y-254834224D03*
D27*
X616202285Y-308532369D03*
X637200214Y-307419058D03*
D28*
X374632050Y-165351335D03*
X580325381Y-185612335D03*
D27*
X505554548Y-205597835D03*
D28*
X362413849Y-175004334D03*
D27*
X250662455Y-308532369D03*
D28*
X424540982Y-342042766D03*
X512430548Y-162684335D03*
X382226881Y-183510535D03*
X682984212Y-211519966D03*
D29*
X561313381Y-251151224D03*
D27*
X619665313Y-340429967D03*
X623524216Y-271877992D03*
X325276049Y-219390035D03*
X636003213Y-286445256D03*
D28*
X278827216Y-319731224D03*
X613744312Y-339153766D03*
X643898215Y-269771223D03*
X255446483Y-344447766D03*
X568286381Y-160652335D03*
D27*
X606996212Y-286445256D03*
X315789915Y-218170836D03*
D28*
X412318982Y-348392766D03*
D27*
X506937647Y-340429967D03*
X484571718Y-270230474D03*
X561409380Y-296771074D03*
D28*
X444418715Y-313862223D03*
X688064214Y-267359966D03*
D27*
X605864212Y-284797737D03*
D28*
X467659416Y-369467966D03*
D27*
X539803551Y-271877992D03*
X380507882Y-211884335D03*
X523374549Y-204378635D03*
D28*
X485073716Y-162684335D03*
D27*
X567856382Y-277482356D03*
X623088215Y-278701556D03*
D28*
X207145710Y-162294210D03*
D27*
X448681712Y-303057574D03*
X409514883Y-211884335D03*
X465878715Y-199311335D03*
D28*
X474275716Y-225124027D03*
D27*
X549500379Y-284797737D03*
D28*
X502352546Y-178132335D03*
X525046648Y-347630766D03*
X250871384Y-162303335D03*
X284486216Y-176622335D03*
D27*
X540935551Y-270230474D03*
D28*
X424540982Y-346884766D03*
X397924882Y-174538335D03*
D27*
X410646883Y-219390035D03*
D28*
X255078384Y-191689335D03*
X385020881Y-253981335D03*
X311813316Y-342042766D03*
D27*
X336463049Y-211884335D03*
X653893213Y-199311335D03*
D29*
X590320382Y-251151224D03*
D28*
X581430382Y-247341224D03*
D27*
X589284380Y-304276774D03*
D28*
X311813315Y-349297766D03*
X220281583Y-168872335D03*
X649996313Y-351710766D03*
X609092414Y-363183966D03*
X551318380Y-184450335D03*
X267594215Y-360758276D03*
D27*
X494367548Y-219390035D03*
X628299013Y-338141297D03*
D28*
X679561429Y-261122965D03*
D27*
X621873212Y-290135773D03*
D28*
X524023249Y-369467966D03*
X555658109Y-196973619D03*
X698518612Y-371675335D03*
X635040314Y-347522766D03*
D27*
X370712052Y-271877992D03*
D28*
X636988314Y-348392766D03*
X682984213Y-300887965D03*
X219813383Y-225124027D03*
D27*
X454203815Y-367875966D03*
D28*
X566305381Y-176622335D03*
X624650214Y-160652335D03*
X600087382Y-165351335D03*
X496039647Y-348392766D03*
X233880623Y-230685226D03*
D27*
X334822047Y-310563274D03*
D28*
X569299381Y-261438224D03*
D27*
X355381049Y-307419058D03*
D28*
X362413849Y-173104334D03*
D27*
X616641212Y-304276774D03*
D28*
X641028943Y-196973619D03*
D27*
X254125483Y-340429967D03*
D28*
X649625215Y-189276335D03*
X298805316Y-347630766D03*
X282435216Y-186863335D03*
D27*
X281231215Y-204378635D03*
D28*
X239380383Y-178894334D03*
X684142012Y-203388208D03*
X597801382Y-162684335D03*
X556205480Y-337978767D03*
X361548050Y-225124027D03*
D27*
X397682882Y-249970225D03*
D28*
X692323713Y-221469966D03*
X210373382Y-178894334D03*
D27*
X578606382Y-205597835D03*
D28*
X228833383Y-174538335D03*
D27*
X455473815Y-369095166D03*
X449190715Y-205597835D03*
X222094382Y-297990274D03*
D28*
X372851051Y-253945224D03*
D27*
X259116386Y-270230474D03*
X241521380Y-291267774D03*
D28*
X280764216Y-246579225D03*
D29*
X585278381Y-181529335D03*
D27*
X391185880Y-304276774D03*
D28*
X421323884Y-247754224D03*
X695526012Y-206009208D03*
X416275883Y-253132424D03*
D27*
X257548385Y-278701556D03*
X515571347Y-338141297D03*
D28*
X537268647Y-351710766D03*
X572018779Y-333183228D03*
X533289549Y-266391224D03*
X675364212Y-211519967D03*
D27*
X437969713Y-305771539D03*
X297919217Y-198092135D03*
X398952882Y-251189425D03*
D28*
X529003549Y-253132424D03*
D27*
X341935048Y-198092138D03*
X479580815Y-340429967D03*
D28*
X637794215Y-247341224D03*
X499841647Y-337978767D03*
X528301277Y-196973619D03*
X600087382Y-168526335D03*
X471937444Y-196973619D03*
X438889814Y-348392766D03*
D27*
X505045545Y-303057574D03*
D28*
X299611217Y-247341224D03*
X675364214Y-267359966D03*
D27*
X269314214Y-298519656D03*
D28*
X284486216Y-174590335D03*
X501632548Y-225124027D03*
D27*
X512238246Y-218170836D03*
X623746713Y-219302835D03*
X371753150Y-369095166D03*
X251101382Y-310563274D03*
D28*
X672824213Y-300887965D03*
D27*
X426639884Y-278701556D03*
D28*
X560646381Y-260522222D03*
X680444213Y-245047965D03*
D27*
X608629212Y-297300456D03*
X512158546Y-199311335D03*
D28*
X318268217Y-165351335D03*
D27*
X590925382Y-205597835D03*
X465878716Y-218170835D03*
X541165547Y-199311335D03*
D28*
X561408382Y-247754224D03*
D27*
X296787217Y-218170835D03*
X437904714Y-275898337D03*
X608193213Y-307419058D03*
D28*
X455558715Y-160652335D03*
X586153382Y-254072224D03*
X393491882Y-246579225D03*
X672824213Y-245047965D03*
X341561049Y-174538335D03*
X678102213Y-192423208D03*
D27*
X371596050Y-251189425D03*
X240324382Y-270293973D03*
D28*
X401988882Y-168526335D03*
D27*
X233752182Y-338141297D03*
D28*
X248820384Y-225124027D03*
D27*
X381639882Y-198092135D03*
D28*
X424169883Y-186863335D03*
X522312648Y-347522766D03*
D27*
X371408051Y-277482356D03*
D28*
X359757149Y-337978767D03*
X554713980Y-316796723D03*
X508261647Y-342042766D03*
D27*
X341705052Y-283086720D03*
D28*
X474743916Y-168872335D03*
X307834217Y-266391224D03*
X550855480Y-337724767D03*
D27*
X511837648Y-369095166D03*
D28*
X467134416Y-366485966D03*
X677904213Y-245047965D03*
X653495215Y-264200225D03*
X246482112Y-196973619D03*
D27*
X259025484Y-369095166D03*
D28*
X587869181Y-175004334D03*
X269798315Y-346690966D03*
X218963383Y-254834224D03*
X298506216Y-183510535D03*
X487359716Y-165351335D03*
D27*
X590416380Y-309344074D03*
X315044218Y-277482356D03*
D28*
X653495215Y-262613223D03*
X467597715Y-183510535D03*
X392316883Y-247754224D03*
D27*
X589284380Y-310563274D03*
X607061210Y-291267774D03*
X267780216Y-218170835D03*
X223735383Y-211884335D03*
X494268547Y-275898337D03*
X280099216Y-205597835D03*
X341269050Y-278701556D03*
D28*
X275327216Y-319731224D03*
X560646381Y-319731224D03*
D27*
X342746149Y-369095166D03*
D28*
X525371749Y-363183966D03*
D27*
X212449381Y-268646455D03*
D28*
X400207882Y-261438224D03*
D27*
X478310815Y-339210767D03*
D28*
X456066715Y-162684335D03*
D27*
X313962217Y-249970225D03*
D28*
X679832213Y-315497468D03*
D27*
X590416381Y-296771074D03*
X353151050Y-218170835D03*
X214082381Y-297300456D03*
X505045547Y-296771074D03*
X229673384Y-277482356D03*
D28*
X678797612Y-378679335D03*
X642517215Y-254072224D03*
X255449482Y-351710766D03*
X509941548Y-174590335D03*
D27*
X325242045Y-291267774D03*
X284909414Y-291267774D03*
D28*
X286467216Y-160652335D03*
X456571716Y-253945224D03*
D27*
X493235548Y-205597835D03*
D28*
X220533381Y-178132335D03*
X675716214Y-247904965D03*
X339167148Y-344447766D03*
X311810316Y-344447766D03*
D27*
X454046715Y-249970225D03*
X211317381Y-284797737D03*
D28*
X480533716Y-194102335D03*
D27*
X222094381Y-310563274D03*
X324045047Y-270293973D03*
D28*
X329258648Y-316796723D03*
X318268217Y-168526335D03*
X343844049Y-257882224D03*
X636689214Y-183510535D03*
X643367215Y-225124027D03*
X338799049Y-189276335D03*
X420561883Y-260522222D03*
D27*
X341705051Y-271877992D03*
D28*
X391554882Y-319731224D03*
D27*
X636504213Y-298519656D03*
D28*
X211486482Y-347522766D03*
D27*
X468108712Y-292915292D03*
D28*
X218177383Y-253132424D03*
X514462548Y-160652335D03*
D27*
X560277380Y-297990274D03*
D28*
X677929213Y-199684208D03*
D27*
X257755484Y-367875966D03*
D28*
X354406750Y-366485966D03*
X692905012Y-203388208D03*
D27*
X278458214Y-304276774D03*
D28*
X673095213Y-324097466D03*
X627317214Y-164335335D03*
X521167548Y-174054334D03*
D27*
X307465216Y-297990274D03*
D28*
X275327216Y-266391224D03*
X249686183Y-175004334D03*
D27*
X297820217Y-271941491D03*
D28*
X686682466Y-376672743D03*
X685524213Y-245047965D03*
X475141515Y-173104334D03*
D27*
X427305882Y-198092138D03*
D28*
X313493217Y-176622335D03*
D27*
X343067047Y-199311335D03*
D28*
X395530981Y-344447766D03*
D27*
X308597215Y-309344074D03*
D28*
X444418715Y-266391224D03*
D27*
X364961047Y-303057574D03*
D28*
X166571012Y-258371208D03*
D27*
X212514379Y-291267774D03*
D28*
X578676481Y-347522766D03*
D27*
X514301346Y-339360498D03*
D28*
X685524212Y-211519968D03*
X290244456Y-230685226D03*
X551617480Y-347630766D03*
X391554882Y-260522222D03*
X364198050Y-260522222D03*
D27*
X363390121Y-308532369D03*
D28*
X247970384Y-266391224D03*
D27*
X334822047Y-304276774D03*
D28*
X428039883Y-262613223D03*
X607743914Y-369467966D03*
D27*
X481788714Y-290135773D03*
X410547882Y-275898337D03*
D28*
X551617480Y-348392766D03*
X266705215Y-174054334D03*
X353221149Y-347522766D03*
X401861882Y-164335335D03*
D27*
X455564718Y-284734239D03*
D28*
X599833382Y-160652335D03*
D27*
X240423384Y-205597835D03*
D28*
X419962883Y-162303335D03*
D27*
X258214383Y-198092138D03*
D28*
X231116383Y-257882224D03*
X469007916Y-363183966D03*
X249470384Y-222232026D03*
X461998513Y-260257208D03*
X534611550Y-172717335D03*
X225809383Y-170939335D03*
X423907883Y-170939335D03*
X200414711Y-164770209D03*
X449343716Y-176622335D03*
X647442216Y-176622335D03*
X534714550Y-176622335D03*
X254816384Y-170939335D03*
X202954711Y-167818209D03*
X252792385Y-172717335D03*
X590975383Y-172717335D03*
X421986884Y-174590335D03*
X202827711Y-164770209D03*
X562071382Y-174590335D03*
X336616050Y-176622335D03*
X223888384Y-176622335D03*
X618332215Y-172717335D03*
X647442216Y-174590335D03*
X562071382Y-176622335D03*
X647339216Y-172717335D03*
X592999382Y-170939335D03*
X392979883Y-176622335D03*
X478350717Y-174590335D03*
X338537049Y-170939335D03*
X252895385Y-176622335D03*
X449240716Y-172717335D03*
X561968382Y-172717335D03*
X280252217Y-176622335D03*
X336616050Y-174590335D03*
X505604549Y-172717335D03*
X252895385Y-174590335D03*
X280149217Y-172717335D03*
X478350717Y-176622335D03*
X480271716Y-170939335D03*
X478247717Y-172717335D03*
X563992381Y-170939335D03*
X394900882Y-170939335D03*
X449343716Y-174590335D03*
X505707549Y-174590335D03*
X392876883Y-172717335D03*
X365623051Y-174590335D03*
X618435215Y-176622335D03*
X392979883Y-174590335D03*
X591078383Y-174590335D03*
X591078383Y-176622335D03*
X536635549Y-170939335D03*
X309259218Y-176622335D03*
X367544050Y-170939335D03*
X311180217Y-170939335D03*
X620356214Y-170939335D03*
X309156218Y-172717335D03*
X200541711Y-167818209D03*
X618435215Y-174590335D03*
X534714550Y-174590335D03*
X280252217Y-174590335D03*
X421883884Y-172717335D03*
X201684711Y-166294209D03*
X505707549Y-176622335D03*
X365623051Y-176622335D03*
X223785384Y-172717335D03*
X336513050Y-172717335D03*
X649363215Y-170939335D03*
X282173216Y-170939335D03*
X223888384Y-174590335D03*
X365520051Y-172717335D03*
X451264715Y-170939335D03*
X309259218Y-174590335D03*
X507628548Y-170939335D03*
X421986884Y-176622335D03*
X628954213Y-237633208D03*
X204925012Y-236293208D03*
X289755215Y-238522208D03*
X404387881Y-238522208D03*
X573479380Y-236617208D03*
X459862714Y-237633208D03*
X291660215Y-236617208D03*
X290771215Y-237633208D03*
X234407382Y-237633208D03*
X573479380Y-238522208D03*
X346119048Y-238522208D03*
X515210547Y-236617208D03*
X291660215Y-238522208D03*
X235296382Y-236617208D03*
X515210547Y-238522208D03*
X517115547Y-236617208D03*
X627938213Y-236617208D03*
X629843213Y-236617208D03*
X348024048Y-236617208D03*
X403498881Y-237633208D03*
X458846714Y-236617208D03*
X661338213Y-188127208D03*
X460751714Y-238522208D03*
X233391382Y-238522208D03*
X662862213Y-189651208D03*
X516226547Y-237633208D03*
X402482881Y-236617208D03*
X203401012Y-237817208D03*
X348024048Y-238522208D03*
X571574380Y-238522208D03*
X517115547Y-238522208D03*
X572590380Y-237633208D03*
X206449012Y-237817208D03*
X460751714Y-236617208D03*
X206449012Y-234769208D03*
X458846714Y-238522208D03*
X627938213Y-238522208D03*
X664386213Y-188127208D03*
X629843213Y-238522208D03*
X289755215Y-236617208D03*
X203401012Y-234769208D03*
X664386213Y-191175208D03*
X346119048Y-236617208D03*
X661338213Y-191175208D03*
X571574380Y-236617208D03*
X402482881Y-238522208D03*
X347135048Y-237633208D03*
X233391382Y-236617208D03*
X404387881Y-236617208D03*
X235296382Y-238522208D03*
D27*
X303602289Y-311232369D03*
D28*
X614510214Y-266391224D03*
X555941081Y-366485966D03*
X630951753Y-276759708D03*
X323958048Y-182267335D03*
X522355648Y-345447766D03*
D27*
X274595288Y-311232369D03*
D28*
X330485749Y-366485966D03*
X296601216Y-182267335D03*
X610961914Y-373338966D03*
X465991815Y-345447766D03*
X296601216Y-180767335D03*
X360698050Y-248357224D03*
X353264149Y-343947766D03*
X385506582Y-373338966D03*
X353264149Y-345447766D03*
X586153382Y-248357224D03*
X326948148Y-341915766D03*
X642517215Y-248357224D03*
X465692715Y-182267335D03*
X578719481Y-343947766D03*
D27*
X359966122Y-311232369D03*
D28*
X274121916Y-366485966D03*
X417061883Y-248357224D03*
X267893315Y-345447766D03*
X216272383Y-251889224D03*
X272636216Y-251889224D03*
X358007050Y-251889224D03*
D27*
X352409847Y-334923996D03*
D28*
X439376714Y-178735335D03*
X326649048Y-178735335D03*
X635083314Y-343947766D03*
X559646380Y-313862222D03*
X419561882Y-313862222D03*
X246765084Y-366485966D03*
D27*
X472693788Y-311232369D03*
D28*
X446918714Y-313862222D03*
X216415083Y-373338966D03*
X436685714Y-180767335D03*
X306834216Y-313862222D03*
X272636216Y-250389224D03*
X583462382Y-250389224D03*
X552104380Y-178735335D03*
X299591316Y-341915766D03*
X472220416Y-366485966D03*
X493049547Y-180767335D03*
X554455381Y-250389224D03*
X639826215Y-251889224D03*
X496039647Y-341915766D03*
X501782548Y-266391224D03*
X613510214Y-248357224D03*
X414370883Y-250389224D03*
X412318982Y-341915766D03*
X608767313Y-341915766D03*
X470734716Y-251889224D03*
X439675814Y-341915766D03*
X414370883Y-251889224D03*
X296900316Y-343947766D03*
X693816612Y-374599335D03*
X643517215Y-266391224D03*
X277827215Y-313862222D03*
D27*
X521501346Y-334923996D03*
D28*
X608468213Y-178735335D03*
X275327216Y-248357224D03*
X352965049Y-182267335D03*
D27*
X387322954Y-311232369D03*
D28*
X211529482Y-345447766D03*
X635916954Y-358327708D03*
X211529482Y-343947766D03*
X587153382Y-266391224D03*
D27*
X296046014Y-334923996D03*
D28*
X352965049Y-180767335D03*
X361698050Y-266391224D03*
X554598081Y-373338966D03*
X581111381Y-178735335D03*
X498234248Y-373338966D03*
X528584249Y-366485966D03*
X436984814Y-343947766D03*
X552403480Y-341915766D03*
X267594215Y-182267335D03*
X386849582Y-366485966D03*
X218963383Y-248357224D03*
X441727715Y-250389224D03*
X522056548Y-180767335D03*
X605777213Y-180767335D03*
X211230382Y-182267335D03*
X441727715Y-251889224D03*
X606076313Y-343947766D03*
X498091548Y-250389224D03*
X583605082Y-373338966D03*
X303128917Y-366485966D03*
X470877416Y-373338966D03*
X651917213Y-180528208D03*
X389054882Y-266391224D03*
X383012881Y-178735335D03*
X247970384Y-248357224D03*
X250470383Y-313862222D03*
X588653381Y-313862222D03*
X498091548Y-251889224D03*
X358007050Y-250389224D03*
X332691049Y-266391224D03*
X475925715Y-313862222D03*
D27*
X443686787Y-311232369D03*
X465137513Y-334923996D03*
D28*
X499577248Y-366485966D03*
X465991815Y-343947766D03*
X676730012Y-342372208D03*
X240237383Y-182267335D03*
X610819214Y-251889224D03*
X530789549Y-266391224D03*
X683699212Y-370004335D03*
X634784214Y-180767335D03*
X651917213Y-183576208D03*
X436984814Y-345447766D03*
D27*
X529057621Y-311232369D03*
D28*
X493348647Y-345447766D03*
X500782548Y-248357224D03*
X549712480Y-343947766D03*
X444418715Y-248357224D03*
X549413380Y-180767335D03*
X390554881Y-313862222D03*
X169111012Y-259359208D03*
X527241249Y-373338966D03*
D27*
X612778286Y-311232369D03*
D28*
X663117213Y-243221208D03*
X612304914Y-366485966D03*
D27*
X634229012Y-334923996D03*
D28*
X578420381Y-182267335D03*
X474425716Y-266391224D03*
X557146381Y-248357224D03*
X522056548Y-182267335D03*
X245279384Y-251889224D03*
X583462382Y-251889224D03*
X272778916Y-373338966D03*
X270285215Y-178735335D03*
D27*
X556414453Y-311232369D03*
D28*
X301785917Y-373338966D03*
X245279384Y-250389224D03*
D27*
X218231455Y-311232369D03*
D28*
X240536483Y-345447766D03*
X245422084Y-373338966D03*
X324257148Y-343947766D03*
X267594215Y-180767335D03*
X473425716Y-248357224D03*
X650393213Y-182052208D03*
X584948082Y-366485966D03*
X549712480Y-345447766D03*
X216272383Y-250389224D03*
X503282547Y-313862222D03*
X213180012Y-257028208D03*
X380321881Y-180767335D03*
X409627982Y-345447766D03*
X645017214Y-313862222D03*
X522355648Y-343947766D03*
X677762012Y-341340208D03*
X385363882Y-250389224D03*
X242928383Y-178735335D03*
X301643217Y-251889224D03*
X525046648Y-341915766D03*
D27*
X577865179Y-334923996D03*
D28*
X334191048Y-313862222D03*
X610819214Y-250389224D03*
X441870415Y-373338966D03*
D27*
X500050620Y-311232369D03*
D28*
X240237383Y-180767335D03*
X412019882Y-178735335D03*
X240536483Y-343947766D03*
X380321881Y-182267335D03*
X383311981Y-341915766D03*
X301643217Y-250389224D03*
X358149750Y-373338966D03*
X221463382Y-313862222D03*
X660069213Y-246269208D03*
X304334217Y-248357224D03*
X184190012Y-280205449D03*
X495740547Y-178735335D03*
X331691049Y-248357224D03*
X605777213Y-182267335D03*
X634784214Y-182267335D03*
X409627982Y-343947766D03*
X468383715Y-178735335D03*
X329000049Y-250389224D03*
X418061883Y-266391224D03*
X663117213Y-246269208D03*
X648869213Y-180528208D03*
X363198049Y-313862222D03*
X682962612Y-375504335D03*
X606076313Y-345447766D03*
X415856583Y-366485966D03*
X270584315Y-341915766D03*
X414513583Y-373338966D03*
X558146381Y-266391224D03*
X380620981Y-345447766D03*
X635083314Y-345447766D03*
X465692715Y-180767335D03*
X549413380Y-182267335D03*
X409328882Y-182267335D03*
X445418715Y-266391224D03*
X436685714Y-182267335D03*
X385363882Y-251889224D03*
X639968915Y-373338966D03*
X493049547Y-182267335D03*
D27*
X585421454Y-311232369D03*
X408773680Y-334923996D03*
D28*
X217758083Y-366485966D03*
D27*
X330959121Y-311232369D03*
D28*
X554455381Y-251889224D03*
X323958048Y-180767335D03*
X388054882Y-248357224D03*
X355955149Y-341915766D03*
X648869213Y-183576208D03*
X639826215Y-250389224D03*
X219963383Y-266391224D03*
X527098549Y-250389224D03*
X532289548Y-313862222D03*
D27*
X239682181Y-334923996D03*
D28*
X243227483Y-341915766D03*
X355656049Y-178735335D03*
X329142749Y-373338966D03*
X248970384Y-266391224D03*
X661593213Y-244745208D03*
X267893315Y-343947766D03*
X299292216Y-178735335D03*
X305334217Y-266391224D03*
X211230382Y-180767335D03*
X493348647Y-343947766D03*
X660069213Y-243221208D03*
X296900316Y-345447766D03*
X694197612Y-370408335D03*
X578719481Y-345447766D03*
X637475214Y-178735335D03*
X581410481Y-341915766D03*
D27*
X416329955Y-311232369D03*
D28*
X409328882Y-180767335D03*
X527098549Y-251889224D03*
X380620981Y-343947766D03*
X213921382Y-178735335D03*
X578420381Y-180767335D03*
X524747548Y-178735335D03*
X468682815Y-341915766D03*
X637774314Y-341915766D03*
X443213415Y-366485966D03*
D27*
X247238456Y-311232369D03*
D28*
X470734716Y-250389224D03*
X359492750Y-366485966D03*
X329000049Y-251889224D03*
X276327216Y-266391224D03*
X616010213Y-313862222D03*
D27*
X641785287Y-311232369D03*
D28*
X529789549Y-248357224D03*
X641311915Y-366485966D03*
X324257148Y-345447766D03*
X214220482Y-341915766D03*
X644005214Y-186863335D03*
X653813192Y-326653693D03*
X632875412Y-327983228D03*
X614998213Y-186863335D03*
X635582612Y-327333228D03*
X652670192Y-325637693D03*
X644005214Y-189276335D03*
X614998213Y-189276335D03*
X644005214Y-191689335D03*
X632875412Y-326683228D03*
X652670192Y-324494693D03*
X614998213Y-191689335D03*
X644418215Y-194102335D03*
X652670192Y-323351693D03*
X615411214Y-194102335D03*
X635582612Y-328633228D03*
X644535313Y-342042766D03*
X615528312Y-342042766D03*
X615525312Y-344447766D03*
X644532313Y-344447766D03*
X642846314Y-346884766D03*
X644716214Y-346884766D03*
X615525312Y-346884766D03*
X644532314Y-349297766D03*
X615525313Y-349297766D03*
X644532314Y-351710766D03*
X615525313Y-351710766D03*
X652670192Y-322208693D03*
X649209215Y-253945224D03*
X620202214Y-253945224D03*
X632875412Y-325383228D03*
X620202214Y-257882224D03*
X628382612Y-326033228D03*
X652670192Y-321065693D03*
X649209215Y-257882224D03*
X652670192Y-319922693D03*
X650695215Y-260206223D03*
X621688214Y-260206223D03*
X625675412Y-325383228D03*
X622405213Y-267486966D03*
X652670192Y-318809943D03*
X645287215Y-259739966D03*
X635582612Y-326033228D03*
X605777213Y-365246276D03*
X618003414Y-164335335D03*
X677904213Y-294280965D03*
X680333713Y-251986967D03*
X675364213Y-238440965D03*
X681333713Y-251986967D03*
X675364213Y-294280965D03*
X670308713Y-250571965D03*
X677547713Y-254254965D03*
X677333712Y-257880965D03*
X670284213Y-273966966D03*
X670284212Y-218126966D03*
X677833712Y-260311964D03*
X678333713Y-257880964D03*
X672824213Y-273966966D03*
X672824213Y-218126966D03*
X678441213Y-261216166D03*
X682984213Y-238440965D03*
X675421213Y-251377966D03*
X685524213Y-294280965D03*
X685524213Y-238440965D03*
X676636714Y-253183966D03*
X688064213Y-294280965D03*
X682333712Y-260311965D03*
X680444213Y-273966966D03*
X680444213Y-218126966D03*
X684961712Y-257683965D03*
X682530712Y-257183965D03*
X682984213Y-273966966D03*
X684961712Y-256683965D03*
X682984214Y-218126966D03*
X634784214Y-365246276D03*
X682530711Y-253683966D03*
X688064214Y-273966966D03*
X684961712Y-253183965D03*
X688064213Y-218126966D03*
X688064213Y-238440965D03*
X670284213Y-294280965D03*
X682530712Y-252683964D03*
X682984213Y-294280965D03*
X677333713Y-251986967D03*
X647010415Y-164335335D03*
X670284213Y-238440965D03*
X680444213Y-238440965D03*
X672824213Y-294280965D03*
X683012713Y-250771466D03*
X684961712Y-255683965D03*
X685524213Y-218126966D03*
X672824213Y-238440965D03*
X682530711Y-256183966D03*
X685524213Y-273966966D03*
X680444213Y-294280965D03*
X678333713Y-251986967D03*
X677904213Y-218126966D03*
X681833712Y-257880965D03*
X677904213Y-238440965D03*
X677904213Y-273966966D03*
X681333711Y-260311965D03*
X680833712Y-257880965D03*
X675364213Y-218126966D03*
X680333712Y-260311964D03*
X675364212Y-273966966D03*
X611238213Y-178608335D03*
X616280214Y-248230224D03*
X578420381Y-365246276D03*
X640245214Y-178608335D03*
X645287215Y-248230224D03*
X558634380Y-186863335D03*
X576511579Y-327983228D03*
X597449359Y-326653693D03*
X587641381Y-186863335D03*
X558634380Y-189276335D03*
X579218779Y-327333228D03*
X596306359Y-325637693D03*
X587641381Y-189276335D03*
X576511579Y-326683228D03*
X558634380Y-191689335D03*
X596306359Y-324494693D03*
X587641381Y-191689335D03*
X588054382Y-194102335D03*
X559047381Y-194102335D03*
X579218779Y-328633228D03*
X596306359Y-323351693D03*
X559164479Y-342042766D03*
X588171480Y-342042766D03*
X559161479Y-344447766D03*
X588168480Y-344447766D03*
X586482481Y-346884766D03*
X588352381Y-346884766D03*
X559161479Y-346884766D03*
X559161480Y-349297766D03*
X588168481Y-349297766D03*
X559161480Y-351710766D03*
X588168481Y-351710766D03*
X563838381Y-253945224D03*
X576511579Y-325383228D03*
X592845382Y-253945224D03*
X596306359Y-322208693D03*
X563838381Y-257882224D03*
X572018779Y-326033228D03*
X596306359Y-321065693D03*
X592845382Y-257882224D03*
X596306359Y-319922693D03*
X594331382Y-260206223D03*
X565324381Y-260206223D03*
X569311579Y-325383228D03*
X566041380Y-267486966D03*
X588923382Y-259739966D03*
X579218779Y-326033228D03*
X596306359Y-318809943D03*
X549413380Y-365246276D03*
X590646582Y-164335335D03*
X561639581Y-164335335D03*
X493049547Y-365246276D03*
X520147746Y-327983228D03*
X531277548Y-186863335D03*
X541085526Y-326653693D03*
X502270547Y-186863335D03*
X531277548Y-189276335D03*
X522854946Y-327333228D03*
X539942526Y-325637693D03*
X502270547Y-189276335D03*
X539942526Y-324494693D03*
X520147746Y-326683228D03*
X502270547Y-191689335D03*
X531277548Y-191689335D03*
X531690549Y-194102335D03*
X522854946Y-328633228D03*
X539942526Y-323351693D03*
X502683548Y-194102335D03*
X522056548Y-365246276D03*
X436685714Y-365246276D03*
X465692715Y-365246276D03*
X267594215Y-365246276D03*
X296601216Y-365246276D03*
X211230382Y-365246276D03*
X352965049Y-365246276D03*
X323958048Y-365246276D03*
X409328882Y-365246276D03*
X240237383Y-365246276D03*
X687048213Y-368445850D03*
X694105142Y-367356819D03*
X681235213Y-253756965D03*
X616411214Y-160889208D03*
X645418215Y-160889208D03*
X665729213Y-260592465D03*
X678572247Y-256175432D03*
X189731512Y-279587708D03*
X630334012Y-279587708D03*
X635299213Y-352024208D03*
X363599050Y-160889208D03*
X278228216Y-160889208D03*
X250871384Y-160889208D03*
X532690549Y-160889208D03*
X503683548Y-160889208D03*
X675000213Y-310565966D03*
X676833711Y-260311964D03*
X675421213Y-258899466D03*
X673730213Y-308530967D03*
X447319715Y-160889208D03*
X419962883Y-160889208D03*
X390955882Y-160889208D03*
X334592049Y-160889208D03*
X589054382Y-160889208D03*
X560047381Y-160889208D03*
X476326716Y-160889208D03*
X307235217Y-160889208D03*
X221864383Y-160889208D03*
X614490285Y-307041369D03*
X644087144Y-267624077D03*
X643497286Y-307041369D03*
X615080143Y-267624077D03*
X645447286Y-267624077D03*
X616440285Y-267624077D03*
X614182185Y-313151905D03*
X643189186Y-313151905D03*
X613012743Y-192655619D03*
X641359143Y-229647026D03*
X642375143Y-189480619D03*
X607007012Y-330942208D03*
X607007012Y-323576208D03*
X612358214Y-229647026D03*
X612358214Y-228631026D03*
X641365215Y-228631026D03*
X605991012Y-326497208D03*
X641973215Y-188541535D03*
X612966214Y-188541535D03*
X605991012Y-323576208D03*
X624015214Y-169747335D03*
X653022215Y-169747335D03*
X625675412Y-331883228D03*
X576170179Y-333101208D03*
X630502012Y-322560208D03*
X630629012Y-196322208D03*
X635582612Y-331883228D03*
X241035781Y-331883228D03*
X297399614Y-331883228D03*
X675024698Y-377504335D03*
X353763447Y-331883228D03*
X522854946Y-331883228D03*
X466491113Y-331883228D03*
X579218779Y-331883228D03*
X410127280Y-331883228D03*
X676126213Y-376155335D03*
X632534012Y-333101208D03*
X676126213Y-379964208D03*
X579218779Y-333183228D03*
X466491113Y-333183228D03*
X241035781Y-333183228D03*
X522854946Y-333183228D03*
X410127280Y-333183228D03*
X635582612Y-333183228D03*
X297399614Y-333183228D03*
X687908862Y-374200585D03*
X689660142Y-374200585D03*
X353763447Y-333183228D03*
X673603213Y-257981966D03*
X670301213Y-311832966D03*
X615440285Y-312416619D03*
D30*
X644447286Y-312464936D03*
D28*
X380321881Y-365246276D03*
X568044381Y-236577225D03*
X563301480Y-325817766D03*
X597051382Y-236577225D03*
X592308481Y-325817766D03*
X694823714Y-238559467D03*
X679833712Y-257880965D03*
X677762012Y-339340208D03*
X683753713Y-259588965D03*
X676730012Y-338308208D03*
X678299213Y-313829967D03*
X665729213Y-265023467D03*
X679833713Y-249555965D03*
X502800646Y-342042766D03*
X531807647Y-342042766D03*
X502797646Y-344447766D03*
X531804647Y-344447766D03*
X530118648Y-346884766D03*
X502797646Y-346884766D03*
X531988548Y-346884766D03*
X531804648Y-349297766D03*
X502797647Y-349297766D03*
X502797647Y-351710766D03*
X531804648Y-351710766D03*
X539942526Y-322208693D03*
X520147746Y-325383228D03*
X507474548Y-253945224D03*
X536481549Y-253945224D03*
X515654946Y-326033228D03*
X536481549Y-257882224D03*
X507474548Y-257882224D03*
X539942526Y-321065693D03*
X537967549Y-260206223D03*
X539942526Y-319922693D03*
X512947746Y-325383228D03*
X508960548Y-260206223D03*
X522854946Y-326033228D03*
X532559549Y-259739966D03*
X539942526Y-318809943D03*
X509677547Y-267486966D03*
X534282749Y-164335335D03*
X505275748Y-164335335D03*
X463783913Y-327983228D03*
X474913715Y-186863335D03*
X484721693Y-326653693D03*
X445906714Y-186863335D03*
X483578693Y-325637693D03*
X445906714Y-189276335D03*
X466491113Y-327333228D03*
X474913715Y-189276335D03*
X445906714Y-191689335D03*
X483578693Y-324494693D03*
X474913715Y-191689335D03*
X463783913Y-326683228D03*
X475326716Y-194102335D03*
X446319715Y-194102335D03*
X466491113Y-328633228D03*
X483578693Y-323351693D03*
X475443814Y-342042766D03*
X446436813Y-342042766D03*
X475440814Y-344447766D03*
X446433813Y-344447766D03*
X446433813Y-346884766D03*
X473754815Y-346884766D03*
X475624715Y-346884766D03*
X446433814Y-349297766D03*
X475440815Y-349297766D03*
X475440815Y-351710766D03*
X446433814Y-351710766D03*
X483578693Y-322208693D03*
X480117716Y-253945224D03*
X451110715Y-253945224D03*
X463783913Y-325383228D03*
X480117716Y-257882224D03*
X483578693Y-321065693D03*
X459291113Y-326033228D03*
X451110715Y-257882224D03*
X456583913Y-325383228D03*
X481603716Y-260206223D03*
X483578693Y-319922693D03*
X452596715Y-260206223D03*
X483578693Y-318809943D03*
X466491113Y-326033228D03*
X476195716Y-259739966D03*
X453313714Y-267486966D03*
X477918916Y-164335335D03*
X448911915Y-164335335D03*
X418549882Y-186863335D03*
X407420080Y-327983228D03*
X389542881Y-186863335D03*
X428357860Y-326653693D03*
X418549882Y-189276335D03*
X410127280Y-327333228D03*
X389542881Y-189276335D03*
X427214860Y-325637693D03*
X427214860Y-324494693D03*
X418549882Y-191689335D03*
X407420080Y-326683228D03*
X389542881Y-191689335D03*
X410127280Y-328633228D03*
X427214860Y-323351693D03*
X418962883Y-194102335D03*
X389955882Y-194102335D03*
X419079981Y-342042766D03*
X390072980Y-342042766D03*
X390069980Y-344447766D03*
X419076981Y-344447766D03*
X417390982Y-346884766D03*
X419260882Y-346884766D03*
X390069980Y-346884766D03*
X419076982Y-349297766D03*
X390069981Y-349297766D03*
X419076982Y-351710766D03*
X390069981Y-351710766D03*
X394746882Y-253945224D03*
X407420080Y-325383228D03*
X427214860Y-322208693D03*
X423753883Y-253945224D03*
X394746882Y-257882224D03*
X423753883Y-257882224D03*
X402927280Y-326033228D03*
X427214860Y-321065693D03*
X400220080Y-325383228D03*
X427214860Y-319922693D03*
X425239883Y-260206223D03*
X396232882Y-260206223D03*
X427214860Y-318809943D03*
X396949881Y-267486966D03*
X419831883Y-259739966D03*
X410127280Y-326033228D03*
X421555083Y-164335335D03*
X392548082Y-164335335D03*
X351056247Y-327983228D03*
X333179048Y-186863335D03*
X371994027Y-326653693D03*
X362186049Y-186863335D03*
X370851027Y-325637693D03*
X353763447Y-327333228D03*
X333179048Y-189276335D03*
X362186049Y-189276335D03*
X362186049Y-191689335D03*
X370851027Y-324494693D03*
X333179048Y-191689335D03*
X351056247Y-326683228D03*
X333592049Y-194102335D03*
X362599050Y-194102335D03*
X370851027Y-323351693D03*
X353763447Y-328633228D03*
X362716148Y-342042766D03*
X333709147Y-342042766D03*
X362713148Y-344447766D03*
X333706147Y-344447766D03*
X361027149Y-346884766D03*
X333706147Y-346884766D03*
X362897049Y-346884766D03*
X333706148Y-349297766D03*
X362713149Y-349297766D03*
X362713149Y-351710766D03*
X333706148Y-351710766D03*
X367390050Y-253945224D03*
X370851027Y-322208693D03*
X338383049Y-253945224D03*
X351056247Y-325383228D03*
X346563447Y-326033228D03*
X370851027Y-321065693D03*
X367390050Y-257882224D03*
X338383049Y-257882224D03*
X339869049Y-260206223D03*
X368876050Y-260206223D03*
X370851027Y-319922693D03*
X343856247Y-325383228D03*
X370851027Y-318809943D03*
X353763447Y-326033228D03*
X363468050Y-259739966D03*
X340586048Y-267486966D03*
X365191250Y-164335335D03*
X336184249Y-164335335D03*
X294692414Y-327983228D03*
X276815215Y-186863335D03*
X315630194Y-326653693D03*
X305822216Y-186863335D03*
X314487194Y-325637693D03*
X305822216Y-189276335D03*
X297399614Y-327333228D03*
X276815215Y-189276335D03*
X314487194Y-324494693D03*
X276815215Y-191689335D03*
X305822216Y-191689335D03*
X294692414Y-326683228D03*
X314487194Y-323351693D03*
X297399614Y-328633228D03*
X306235217Y-194102335D03*
X277228216Y-194102335D03*
X306352315Y-342042766D03*
X277345314Y-342042766D03*
X277342314Y-344447766D03*
X306349315Y-344447766D03*
X304663316Y-346884766D03*
X306533216Y-346884766D03*
X277342314Y-346884766D03*
X306349316Y-349297766D03*
X277342315Y-349297766D03*
X306349316Y-351710766D03*
X277342315Y-351710766D03*
X314487194Y-322208693D03*
X311026217Y-253945224D03*
X294692414Y-325383228D03*
X282019216Y-253945224D03*
X311026217Y-257882224D03*
X290199614Y-326033228D03*
X314487194Y-321065693D03*
X282019216Y-257882224D03*
X283505216Y-260206223D03*
X314487194Y-319922693D03*
X312512217Y-260206223D03*
X287492414Y-325383228D03*
X307104217Y-259739966D03*
X284222215Y-267486966D03*
X297399614Y-326033228D03*
X314487194Y-318809943D03*
X308827417Y-164335335D03*
X279820416Y-164335335D03*
X259266361Y-326653693D03*
X238328581Y-327983228D03*
X220451382Y-186863335D03*
X249458383Y-186863335D03*
X241035781Y-327333228D03*
X249458383Y-189276335D03*
X258123361Y-325637693D03*
X220451382Y-189276335D03*
X249458383Y-191689335D03*
X220451382Y-191689335D03*
X258123361Y-324494693D03*
X238328581Y-326683228D03*
X258123361Y-323351693D03*
X241035781Y-328633228D03*
X249871384Y-194102335D03*
X220864383Y-194102335D03*
X220981481Y-342042766D03*
X249988482Y-342042766D03*
X220978481Y-344447766D03*
X249985482Y-344447766D03*
X220978481Y-346884766D03*
X250169383Y-346884766D03*
X248299483Y-346884766D03*
X249985483Y-349297766D03*
X220978482Y-349297766D03*
X249985483Y-351710766D03*
X220978482Y-351710766D03*
X254662384Y-253945224D03*
X258123361Y-322208693D03*
X238328581Y-325383228D03*
X225655383Y-253945224D03*
X258123361Y-321065693D03*
X254662384Y-257882224D03*
X225655383Y-257882224D03*
X233835781Y-326033228D03*
X256148384Y-260206223D03*
X258123361Y-319922693D03*
X231128581Y-325383228D03*
X227141383Y-260206223D03*
X227858382Y-267486966D03*
X258123361Y-318809943D03*
X241035781Y-326033228D03*
X250740384Y-259739966D03*
X252463584Y-164335335D03*
X223456583Y-164335335D03*
X574265179Y-196322208D03*
X574138179Y-322560208D03*
X583881381Y-178608335D03*
X619665313Y-325817766D03*
X624408214Y-236577225D03*
X653415215Y-236577225D03*
X648672314Y-325817766D03*
X588923382Y-248230224D03*
X554874380Y-178608335D03*
X559916381Y-248230224D03*
X596658382Y-169747335D03*
X567651381Y-169747335D03*
X517774346Y-322560208D03*
X517901346Y-196322208D03*
X527517548Y-178608335D03*
X540687549Y-236577225D03*
X511680548Y-236577225D03*
X535944648Y-325817766D03*
X506937647Y-325817766D03*
X532559549Y-248230224D03*
X498510547Y-178608335D03*
X503552548Y-248230224D03*
X540294549Y-169747335D03*
X511287548Y-169747335D03*
X461537513Y-196322208D03*
X461410513Y-322560208D03*
X471153715Y-178608335D03*
X450573814Y-325817766D03*
X484323716Y-236577225D03*
X479580815Y-325817766D03*
X455316715Y-236577225D03*
X476195716Y-248230224D03*
X442146714Y-178608335D03*
X447188715Y-248230224D03*
X483930716Y-169747335D03*
X454923715Y-169747335D03*
X405046680Y-322560208D03*
X405173680Y-196322208D03*
X414789882Y-178608335D03*
X423216982Y-325817766D03*
X398952882Y-236577225D03*
X427959883Y-236577225D03*
X394209981Y-325817766D03*
X419831883Y-248230224D03*
X385782881Y-178608335D03*
X390824882Y-248230224D03*
X427566883Y-169747335D03*
X398559882Y-169747335D03*
X348809847Y-196322208D03*
X348682847Y-322560208D03*
X358426049Y-178608335D03*
X366853149Y-325817766D03*
X371596050Y-236577225D03*
X337846148Y-325817766D03*
X342589049Y-236577225D03*
X363468050Y-248230224D03*
X329419048Y-178608335D03*
X334461049Y-248230224D03*
X371203050Y-169747335D03*
X342196049Y-169747335D03*
X292446014Y-196322208D03*
X292319014Y-322560208D03*
X302062216Y-178608335D03*
X315232217Y-236577225D03*
X286225216Y-236577225D03*
X310489316Y-325817766D03*
X281482315Y-325817766D03*
X307104217Y-248230224D03*
X273055215Y-178608335D03*
X278097216Y-248230224D03*
X314839217Y-169747335D03*
X285832216Y-169747335D03*
X235955181Y-322560208D03*
X236082181Y-196322208D03*
X245698383Y-178608335D03*
X229861383Y-236577225D03*
X258868384Y-236577225D03*
X225118482Y-325817766D03*
X254125483Y-325817766D03*
X250740384Y-248230224D03*
X216691382Y-178608335D03*
X221733383Y-248230224D03*
X258475384Y-169747335D03*
X229468383Y-169747335D03*
X549627179Y-323576208D03*
X549627179Y-326497208D03*
X556602381Y-188541535D03*
X555994381Y-228631026D03*
X585001382Y-228631026D03*
X585609382Y-188541535D03*
X560076452Y-267624077D03*
X589083453Y-267624077D03*
X586825353Y-313151905D03*
X557818352Y-313151905D03*
X584995310Y-229647026D03*
X550643179Y-323576208D03*
X550643179Y-330942208D03*
X555994381Y-229647026D03*
X586011310Y-189480619D03*
X556648910Y-192655619D03*
X558126452Y-307041369D03*
X558716310Y-267624077D03*
X587723311Y-267624077D03*
X587133453Y-307041369D03*
X569311579Y-331883228D03*
X519806346Y-333101208D03*
D30*
X588083453Y-312464936D03*
D28*
X231128581Y-331883228D03*
X676126213Y-381484225D03*
X559076452Y-312416619D03*
X494279346Y-323576208D03*
X500285077Y-192655619D03*
X499630548Y-229647026D03*
X529647477Y-189480619D03*
X494279346Y-330942208D03*
X528631477Y-229647026D03*
X501762619Y-307041369D03*
X530769620Y-307041369D03*
X531359478Y-267624077D03*
X502352477Y-267624077D03*
X463442513Y-333101208D03*
X512947746Y-331883228D03*
X530461520Y-313151905D03*
X532719620Y-267624077D03*
X503712619Y-267624077D03*
X501454519Y-313151905D03*
X493263346Y-323576208D03*
X499630548Y-228631026D03*
X493263346Y-326497208D03*
X529245549Y-188541535D03*
X528637549Y-228631026D03*
X500238548Y-188541535D03*
D30*
X531719620Y-312464936D03*
D28*
X502712619Y-312416619D03*
X456583913Y-331883228D03*
X407078680Y-333101208D03*
X443921244Y-192655619D03*
X472267644Y-229647026D03*
X473283644Y-189480619D03*
X443266715Y-229647026D03*
X437915513Y-330942208D03*
X437915513Y-323576208D03*
X447348786Y-267624077D03*
X476355787Y-267624077D03*
X445090686Y-313151905D03*
X474097687Y-313151905D03*
X436899513Y-326497208D03*
X443874715Y-188541535D03*
X436899513Y-323576208D03*
X472881716Y-188541535D03*
X443266715Y-228631026D03*
X472273716Y-228631026D03*
X445398786Y-307041369D03*
X474405787Y-307041369D03*
X474995645Y-267624077D03*
X445988644Y-267624077D03*
D30*
X475355787Y-312464936D03*
D28*
X446348786Y-312416619D03*
X387510882Y-188541535D03*
X386902882Y-228631026D03*
X415909883Y-228631026D03*
X380535680Y-326497208D03*
X380535680Y-323576208D03*
X416517883Y-188541535D03*
X350714847Y-333101208D03*
X400220080Y-331883228D03*
X388726853Y-313151905D03*
X417733854Y-313151905D03*
X390984953Y-267624077D03*
X419991954Y-267624077D03*
X416919811Y-189480619D03*
X387557411Y-192655619D03*
X381551680Y-330942208D03*
X386902882Y-229647026D03*
X415903811Y-229647026D03*
X381551680Y-323576208D03*
X389034953Y-307041369D03*
X418631812Y-267624077D03*
X389624811Y-267624077D03*
X418041954Y-307041369D03*
D30*
X418991954Y-312464936D03*
D28*
X389984953Y-312416619D03*
X361678121Y-307041369D03*
X332671120Y-307041369D03*
X362267979Y-267624077D03*
X333260978Y-267624077D03*
X324171847Y-326497208D03*
X331147049Y-188541535D03*
X359546050Y-228631026D03*
X330539049Y-228631026D03*
X324171847Y-323576208D03*
X360154050Y-188541535D03*
X363628121Y-267624077D03*
X334621120Y-267624077D03*
X361370021Y-313151905D03*
X332363020Y-313151905D03*
X359539978Y-229647026D03*
X325187847Y-323576208D03*
X325187847Y-330942208D03*
X360555978Y-189480619D03*
X331193578Y-192655619D03*
X330539049Y-229647026D03*
X343856247Y-331883228D03*
X294351014Y-333101208D03*
D30*
X362628121Y-312464936D03*
D28*
X333621120Y-312416619D03*
X274175216Y-228631026D03*
X303182217Y-228631026D03*
X274783216Y-188541535D03*
X267808014Y-323576208D03*
X303790217Y-188541535D03*
X267808014Y-326497208D03*
X287492414Y-331883228D03*
X237987181Y-333101208D03*
X305314288Y-307041369D03*
X305904146Y-267624077D03*
X276897145Y-267624077D03*
X276307287Y-307041369D03*
X274175216Y-229647026D03*
X274829745Y-192655619D03*
X303176145Y-229647026D03*
X304192145Y-189480619D03*
X268824014Y-323576208D03*
X268824014Y-330942208D03*
X305006188Y-313151905D03*
X278257287Y-267624077D03*
X307264288Y-267624077D03*
X275999187Y-313151905D03*
D30*
X306264288Y-312464936D03*
D28*
X277257287Y-312416619D03*
X212460181Y-323576208D03*
X212460181Y-330942208D03*
X246812312Y-229647026D03*
X247828312Y-189480619D03*
X217811383Y-229647026D03*
X218465912Y-192655619D03*
X219943454Y-307041369D03*
X248950455Y-307041369D03*
X249540313Y-267624077D03*
X220533312Y-267624077D03*
X250900455Y-267624077D03*
X221893454Y-267624077D03*
X248642355Y-313151905D03*
X219635354Y-313151905D03*
X218419383Y-188541535D03*
X246818384Y-228631026D03*
X247426384Y-188541535D03*
X211444181Y-326497208D03*
X211444181Y-323576208D03*
X217811383Y-228631026D03*
D30*
X249900455Y-312464936D03*
D28*
X220893454Y-312416619D03*
D31*
X181049012Y-258298208D02*
X182319012Y-257028208D01*
X182319012Y-257028208D02*
X213180012Y-257028208D01*
X181049012Y-259314208D02*
X181049012Y-258298208D01*
X184190012Y-280205449D02*
X182128253Y-280205449D01*
X181049012Y-279126208D02*
X181049012Y-259314208D01*
X182128253Y-280205449D02*
X181049012Y-279126208D01*
X181004012Y-259359208D02*
X181049012Y-259314208D01*
X169111012Y-259359208D02*
X181004012Y-259359208D01*
D32*
X652289192Y-326653693D02*
X653813192Y-326653693D01*
X634701351Y-329809167D02*
X649133718Y-329809167D01*
X632875412Y-327983228D02*
X634701351Y-329809167D01*
X649133718Y-329809167D02*
X652289192Y-326653693D01*
X644005214Y-188229225D02*
X644005214Y-189276335D01*
X614998213Y-189276335D02*
X616726192Y-187548356D01*
X647590192Y-326653693D02*
X649622192Y-326653693D01*
X643324345Y-187548356D02*
X644005214Y-188229225D01*
X649622192Y-326653693D02*
X650638192Y-325637693D01*
X650638192Y-325637693D02*
X652670192Y-325637693D01*
X646193192Y-325256693D02*
X647590192Y-326653693D01*
X637659147Y-325256693D02*
X646193192Y-325256693D01*
X635582612Y-327333228D02*
X637659147Y-325256693D01*
X616726192Y-187548356D02*
X643324345Y-187548356D01*
X620912143Y-340813819D02*
X620404143Y-341321819D01*
X616249259Y-341321819D02*
X615528312Y-342042766D01*
X644535313Y-342042766D02*
X643705513Y-341212966D01*
X620404143Y-341321819D02*
X616249259Y-341321819D01*
X638800996Y-340813819D02*
X620912143Y-340813819D01*
X643705513Y-341212966D02*
X639200143Y-341212966D01*
X639200143Y-341212966D02*
X638800996Y-340813819D01*
X642930366Y-342845819D02*
X644532313Y-344447766D01*
X617127259Y-342845819D02*
X642930366Y-342845819D01*
X615525312Y-344447766D02*
X617127259Y-342845819D01*
X616734743Y-345675335D02*
X628079214Y-345675335D01*
X615525312Y-346884766D02*
X616734743Y-345675335D01*
X628079214Y-345675335D02*
X631853698Y-349449819D01*
X631853698Y-349449819D02*
X640281261Y-349449819D01*
X640281261Y-349449819D02*
X642846314Y-346884766D01*
X642236783Y-349297766D02*
X644532314Y-349297766D01*
X616734744Y-348088335D02*
X628079214Y-348088335D01*
X630202698Y-350211819D02*
X641322730Y-350211819D01*
X628079214Y-348088335D02*
X630202698Y-350211819D01*
X641322730Y-350211819D02*
X642236783Y-349297766D01*
X615525313Y-349297766D02*
X616734744Y-348088335D01*
X644532314Y-351710766D02*
X641855783Y-351710766D01*
X615525313Y-351710766D02*
X617858645Y-351710766D01*
X618935214Y-352787335D02*
X640779214Y-352787335D01*
X641855783Y-351710766D02*
X640779214Y-352787335D01*
X617858645Y-351710766D02*
X618935214Y-352787335D01*
X620202214Y-254740335D02*
X621312698Y-255850819D01*
X621312698Y-255850819D02*
X648180730Y-255850819D01*
X649209215Y-254822334D02*
X649209215Y-253945224D01*
X648180730Y-255850819D02*
X649209215Y-254822334D01*
X620202214Y-253945224D02*
X620202214Y-254740335D01*
X620202214Y-257032335D02*
X620713214Y-256521335D01*
X649209215Y-257077336D02*
X649209215Y-257882224D01*
X648653214Y-256521335D02*
X649209215Y-257077336D01*
X620202214Y-257882224D02*
X620202214Y-257032335D01*
X620713214Y-256521335D02*
X648653214Y-256521335D01*
X621688214Y-259483335D02*
X622365341Y-258806208D01*
X649922087Y-258806208D02*
X650695215Y-259579336D01*
X622365341Y-258806208D02*
X649922087Y-258806208D01*
X621688214Y-260206223D02*
X621688214Y-259483335D01*
X650695215Y-259579336D02*
X650695215Y-260206223D01*
X624152012Y-259314208D02*
X622405213Y-261061007D01*
X650988942Y-318809943D02*
X645177192Y-324621693D01*
X645177192Y-324621693D02*
X636994147Y-324621693D01*
X636994147Y-324621693D02*
X635582612Y-326033228D01*
X622405213Y-261061007D02*
X622405213Y-267486966D01*
X652670192Y-318809943D02*
X650988942Y-318809943D01*
X645287215Y-259739966D02*
X644861457Y-259314208D01*
X644861457Y-259314208D02*
X624152012Y-259314208D01*
D33*
X666491213Y-280968966D02*
X663649012Y-283811167D01*
X672824213Y-281967966D02*
X671825213Y-280968966D01*
X672824213Y-282853966D02*
X672824213Y-281967966D01*
X671825213Y-280968966D02*
X666491213Y-280968966D01*
X606996523Y-364026966D02*
X605777213Y-365246276D01*
X663649012Y-283811167D02*
X663649012Y-359364808D01*
X658986854Y-364026966D02*
X606996523Y-364026966D01*
X663649012Y-359364808D02*
X658986854Y-364026966D01*
X670284213Y-282853966D02*
X666003213Y-282853966D01*
X664665012Y-284192167D02*
X664665012Y-359630167D01*
X659048903Y-365246276D02*
X634784214Y-365246276D01*
X664665012Y-359630167D02*
X659048903Y-365246276D01*
X666003213Y-282853966D02*
X664665012Y-284192167D01*
X662760012Y-283291808D02*
X662760012Y-358907608D01*
X579905212Y-362311208D02*
X578420381Y-363796039D01*
X666036612Y-280015208D02*
X662760012Y-283291808D01*
X672525455Y-280015208D02*
X666036612Y-280015208D01*
X675364213Y-282853966D02*
X672525455Y-280015208D01*
X662760012Y-358907608D02*
X659356412Y-362311208D01*
X578420381Y-363796039D02*
X578420381Y-365246276D01*
X659356412Y-362311208D02*
X579905212Y-362311208D01*
D32*
X578337518Y-329809167D02*
X592769885Y-329809167D01*
X595925359Y-326653693D02*
X597449359Y-326653693D01*
X576511579Y-327983228D02*
X578337518Y-329809167D01*
X592769885Y-329809167D02*
X595925359Y-326653693D01*
X589829359Y-325256693D02*
X591226359Y-326653693D01*
X560362359Y-187548356D02*
X586960512Y-187548356D01*
X586960512Y-187548356D02*
X587641381Y-188229225D01*
X594274359Y-325637693D02*
X596306359Y-325637693D01*
X581295314Y-325256693D02*
X589829359Y-325256693D01*
X587641381Y-188229225D02*
X587641381Y-189276335D01*
X593258359Y-326653693D02*
X594274359Y-325637693D01*
X591226359Y-326653693D02*
X593258359Y-326653693D01*
X579218779Y-327333228D02*
X581295314Y-325256693D01*
X558634380Y-189276335D02*
X560362359Y-187548356D01*
X582836310Y-341212966D02*
X582437163Y-340813819D01*
X582437163Y-340813819D02*
X564548310Y-340813819D01*
X587341680Y-341212966D02*
X582836310Y-341212966D01*
X564040310Y-341321819D02*
X559885426Y-341321819D01*
X559885426Y-341321819D02*
X559164479Y-342042766D01*
X588171480Y-342042766D02*
X587341680Y-341212966D01*
X564548310Y-340813819D02*
X564040310Y-341321819D01*
X586566533Y-342845819D02*
X588168480Y-344447766D01*
X560763426Y-342845819D02*
X586566533Y-342845819D01*
X559161479Y-344447766D02*
X560763426Y-342845819D01*
X559161479Y-346884766D02*
X560370910Y-345675335D01*
X571715381Y-345675335D02*
X575489865Y-349449819D01*
X560370910Y-345675335D02*
X571715381Y-345675335D01*
X575489865Y-349449819D02*
X583917428Y-349449819D01*
X583917428Y-349449819D02*
X586482481Y-346884766D01*
X573838865Y-350211819D02*
X584958897Y-350211819D01*
X560370911Y-348088335D02*
X571715381Y-348088335D01*
X584958897Y-350211819D02*
X585872950Y-349297766D01*
X585872950Y-349297766D02*
X588168481Y-349297766D01*
X571715381Y-348088335D02*
X573838865Y-350211819D01*
X559161480Y-349297766D02*
X560370911Y-348088335D01*
X585491950Y-351710766D02*
X584415381Y-352787335D01*
X561494812Y-351710766D02*
X562571381Y-352787335D01*
X559161480Y-351710766D02*
X561494812Y-351710766D01*
X562571381Y-352787335D02*
X584415381Y-352787335D01*
X588168481Y-351710766D02*
X585491950Y-351710766D01*
X591816897Y-255850819D02*
X592845382Y-254822334D01*
X563838381Y-254740335D02*
X564948865Y-255850819D01*
X564948865Y-255850819D02*
X591816897Y-255850819D01*
X563838381Y-253945224D02*
X563838381Y-254740335D01*
X592845382Y-254822334D02*
X592845382Y-253945224D01*
X592289381Y-256521335D02*
X592845382Y-257077336D01*
X564349381Y-256521335D02*
X592289381Y-256521335D01*
X563838381Y-257032335D02*
X564349381Y-256521335D01*
X563838381Y-257882224D02*
X563838381Y-257032335D01*
X592845382Y-257077336D02*
X592845382Y-257882224D01*
X565324381Y-259483335D02*
X566001508Y-258806208D01*
X593558254Y-258806208D02*
X594331382Y-259579336D01*
X594331382Y-259579336D02*
X594331382Y-260206223D01*
X566001508Y-258806208D02*
X593558254Y-258806208D01*
X565324381Y-260206223D02*
X565324381Y-259483335D01*
X566041380Y-261061007D02*
X566041380Y-267486966D01*
X580630314Y-324621693D02*
X579218779Y-326033228D01*
X588497624Y-259314208D02*
X567788179Y-259314208D01*
X588923382Y-259739966D02*
X588497624Y-259314208D01*
X588813359Y-324621693D02*
X580630314Y-324621693D01*
X567788179Y-259314208D02*
X566041380Y-261061007D01*
X594625109Y-318809943D02*
X588813359Y-324621693D01*
X596306359Y-318809943D02*
X594625109Y-318809943D01*
D33*
X657781612Y-361549208D02*
X661871012Y-357459808D01*
X665579412Y-279202408D02*
X674252655Y-279202408D01*
X674252655Y-279202408D02*
X677904213Y-282853966D01*
X549413380Y-363796039D02*
X551660211Y-361549208D01*
X661871012Y-282910808D02*
X665579412Y-279202408D01*
X661871012Y-357459808D02*
X661871012Y-282910808D01*
X549413380Y-365246276D02*
X549413380Y-363796039D01*
X551660211Y-361549208D02*
X657781612Y-361549208D01*
X664919012Y-277475208D02*
X677605455Y-277475208D01*
X496517012Y-359263208D02*
X656918012Y-359263208D01*
X493049547Y-362730673D02*
X496517012Y-359263208D01*
X656918012Y-359263208D02*
X660093012Y-356088208D01*
X493049547Y-365246276D02*
X493049547Y-362730673D01*
X660093012Y-356088208D02*
X660093012Y-282301208D01*
X677605455Y-277475208D02*
X682984213Y-282853966D01*
X660093012Y-282301208D02*
X664919012Y-277475208D01*
D32*
X536406052Y-329809167D02*
X539561526Y-326653693D01*
X521973685Y-329809167D02*
X536406052Y-329809167D01*
X520147746Y-327983228D02*
X521973685Y-329809167D01*
X539561526Y-326653693D02*
X541085526Y-326653693D01*
X534862526Y-326653693D02*
X536894526Y-326653693D01*
X536894526Y-326653693D02*
X537910526Y-325637693D01*
X524931481Y-325256693D02*
X533465526Y-325256693D01*
X531277548Y-188229225D02*
X531277548Y-189276335D01*
X530596679Y-187548356D02*
X531277548Y-188229225D01*
X502270547Y-189276335D02*
X503998526Y-187548356D01*
X503998526Y-187548356D02*
X530596679Y-187548356D01*
X537910526Y-325637693D02*
X539942526Y-325637693D01*
X533465526Y-325256693D02*
X534862526Y-326653693D01*
X522854946Y-327333228D02*
X524931481Y-325256693D01*
D33*
X661007412Y-282783808D02*
X665554012Y-278237208D01*
X657756212Y-360025208D02*
X661007412Y-356774008D01*
X665554012Y-278237208D02*
X675827455Y-278237208D01*
X675827455Y-278237208D02*
X680444213Y-282853966D01*
X522056548Y-363796039D02*
X525827379Y-360025208D01*
X522056548Y-365246276D02*
X522056548Y-363796039D01*
X525827379Y-360025208D02*
X657756212Y-360025208D01*
X661007412Y-356774008D02*
X661007412Y-282783808D01*
X656542532Y-353415688D02*
X613108532Y-353415688D01*
X658569012Y-281666208D02*
X658569012Y-351389208D01*
X680907455Y-275697208D02*
X664538012Y-275697208D01*
X664538012Y-275697208D02*
X658569012Y-281666208D01*
X613108532Y-353415688D02*
X613103012Y-353421208D01*
X613103012Y-353421208D02*
X446225012Y-353421208D01*
X446225012Y-353421208D02*
X436685714Y-362960506D01*
X688064213Y-282853966D02*
X680907455Y-275697208D01*
X658569012Y-351389208D02*
X656542532Y-353415688D01*
X436685714Y-362960506D02*
X436685714Y-365246276D01*
X659331012Y-281920208D02*
X659331012Y-351777261D01*
X644472012Y-355072208D02*
X630756012Y-355072208D01*
X473784012Y-354310208D02*
X467688012Y-360406208D01*
X659331012Y-351777261D02*
X656798065Y-354310208D01*
X467688012Y-360406208D02*
X467688012Y-363250979D01*
X664665012Y-276586208D02*
X659331012Y-281920208D01*
X679256455Y-276586208D02*
X664665012Y-276586208D01*
X685524213Y-282853966D02*
X679256455Y-276586208D01*
X656798065Y-354310208D02*
X645234012Y-354310208D01*
X630756012Y-355072208D02*
X629994012Y-354310208D01*
X467688012Y-363250979D02*
X465692715Y-365246276D01*
X645234012Y-354310208D02*
X644472012Y-355072208D01*
X629994012Y-354310208D02*
X473784012Y-354310208D01*
D32*
X691779713Y-257223966D02*
X695462713Y-257223966D01*
X688981713Y-254425966D02*
X691779713Y-257223966D01*
X681235213Y-253756965D02*
X681904214Y-254425966D01*
X681904214Y-254425966D02*
X688981713Y-254425966D01*
D33*
X616411214Y-160889208D02*
X617300214Y-161778208D01*
X641932012Y-161778208D02*
X643964012Y-159746208D01*
X657801213Y-160830074D02*
X657801213Y-211990966D01*
X617300214Y-161778208D02*
X641932012Y-161778208D01*
X643964012Y-159746208D02*
X656717347Y-159746208D01*
X656717347Y-159746208D02*
X657801213Y-160830074D01*
X657801213Y-211990966D02*
X672824213Y-227013966D01*
X616411214Y-160889208D02*
X616411214Y-160895410D01*
X657347213Y-162715409D02*
X656410012Y-161778208D01*
X657347213Y-215674409D02*
X657347213Y-162715409D01*
X670284213Y-227013966D02*
X668686770Y-227013966D01*
X668686770Y-227013966D02*
X657347213Y-215674409D01*
X656410012Y-161778208D02*
X646307215Y-161778208D01*
X646307215Y-161778208D02*
X645418215Y-160889208D01*
D31*
X678572247Y-256175432D02*
X678563713Y-256183966D01*
X660867213Y-260592465D02*
X665729213Y-260592465D01*
X602261512Y-279587708D02*
X630334012Y-279587708D01*
X657692213Y-263767465D02*
X660867213Y-260592465D01*
X656502713Y-279587708D02*
X657692213Y-280777208D01*
X665729213Y-257981966D02*
X665729213Y-260592465D01*
X667527213Y-256183966D02*
X665729213Y-257981966D01*
X657692213Y-348595208D02*
X657692213Y-280777208D01*
X657692213Y-280777208D02*
X657692213Y-263767465D01*
X630334012Y-279587708D02*
X656502713Y-279587708D01*
X635299213Y-352024208D02*
X636442213Y-350881208D01*
X678563713Y-256183966D02*
X667527213Y-256183966D01*
X602261512Y-279587708D02*
X189731512Y-279587708D01*
X655406213Y-350881208D02*
X657692213Y-348595208D01*
X636442213Y-350881208D02*
X655406213Y-350881208D01*
D33*
X278228216Y-160889208D02*
X278228216Y-160895410D01*
X671396012Y-216388208D02*
X660220012Y-205212208D01*
X533452549Y-161651208D02*
X532690549Y-160889208D01*
X680444213Y-227013966D02*
X671396012Y-217965765D01*
X558112012Y-161651208D02*
X533452549Y-161651208D01*
X603501812Y-157130008D02*
X597482012Y-151110208D01*
X658950012Y-151237208D02*
X647647012Y-151237208D01*
X660220012Y-152507208D02*
X658950012Y-151237208D01*
X562176012Y-157587208D02*
X558112012Y-161651208D01*
X671396012Y-217965765D02*
X671396012Y-216388208D01*
X590319212Y-151110208D02*
X583842212Y-157587208D01*
X647647012Y-151237208D02*
X641754212Y-157130008D01*
X583842212Y-157587208D02*
X562176012Y-157587208D01*
X597482012Y-151110208D02*
X590319212Y-151110208D01*
X641754212Y-157130008D02*
X603501812Y-157130008D01*
X660220012Y-205212208D02*
X660220012Y-152507208D01*
X640916012Y-156037808D02*
X604441612Y-156037808D01*
X646707212Y-150246608D02*
X640916012Y-156037808D01*
X604441612Y-156037808D02*
X598625012Y-150221208D01*
X558874012Y-159619208D02*
X504953548Y-159619208D01*
X674053860Y-216261208D02*
X665427012Y-207634360D01*
X665427012Y-154412208D02*
X661261412Y-150246608D01*
X583105612Y-156698208D02*
X561795012Y-156698208D01*
X665427012Y-207634360D02*
X665427012Y-154412208D01*
X589582612Y-150221208D02*
X583105612Y-156698208D01*
X661261412Y-150246608D02*
X646707212Y-150246608D01*
X682984213Y-227013966D02*
X674063012Y-218092765D01*
X561795012Y-156698208D02*
X558874012Y-159619208D01*
X674063012Y-216261208D02*
X674053860Y-216261208D01*
X674063012Y-218092765D02*
X674063012Y-216261208D01*
X598625012Y-150221208D02*
X589582612Y-150221208D01*
X503683548Y-160889208D02*
X503683548Y-160895410D01*
X504953548Y-159619208D02*
X503683548Y-160889208D01*
D32*
X676833711Y-260958464D02*
X677794213Y-261918966D01*
X677794213Y-261918966D02*
X690768814Y-261918966D01*
X676833711Y-260311964D02*
X676833711Y-260958464D01*
X693288213Y-303955966D02*
X691637213Y-305606966D01*
X675889213Y-305606966D02*
X675000213Y-306495966D01*
X693288213Y-264438365D02*
X693288213Y-303955966D01*
X675000213Y-306495966D02*
X675000213Y-310565966D01*
X690768814Y-261918966D02*
X693288213Y-264438365D01*
X691637213Y-305606966D02*
X675889213Y-305606966D01*
X673730213Y-308530967D02*
X673730213Y-306495966D01*
X692780213Y-264839966D02*
X690494213Y-262553966D01*
X692780213Y-303193966D02*
X692780213Y-264839966D01*
X675508213Y-260902966D02*
X675421213Y-260815966D01*
X677159213Y-262553966D02*
X675508213Y-260902966D01*
X675508213Y-304717966D02*
X691256213Y-304717966D01*
X675421213Y-260815966D02*
X675421213Y-258899466D01*
X691256213Y-304717966D02*
X692780213Y-303193966D01*
X690494213Y-262553966D02*
X677159213Y-262553966D01*
X673730213Y-306495966D02*
X675508213Y-304717966D01*
D33*
X450342315Y-157866608D02*
X447319715Y-160889208D01*
X581378412Y-154920208D02*
X560271012Y-154920208D01*
X688064213Y-227013966D02*
X679143012Y-218092765D01*
X644903812Y-148113008D02*
X639290412Y-153726408D01*
X639290412Y-153726408D02*
X605533812Y-153726408D01*
X672851152Y-210832948D02*
X667662212Y-205644008D01*
X557324612Y-157866608D02*
X450342315Y-157866608D01*
X667662212Y-152024608D02*
X663750612Y-148113008D01*
X679143012Y-216867174D02*
X673108786Y-210832948D01*
X663750612Y-148113008D02*
X644903812Y-148113008D01*
X673108786Y-210832948D02*
X672851152Y-210832948D01*
X667662212Y-205644008D02*
X667662212Y-152024608D01*
X447319715Y-160889208D02*
X447319715Y-160895410D01*
X587855412Y-148443208D02*
X581378412Y-154920208D01*
X560271012Y-154920208D02*
X557324612Y-157866608D01*
X605533812Y-153726408D02*
X600250612Y-148443208D01*
X600250612Y-148443208D02*
X587855412Y-148443208D01*
X679143012Y-218092765D02*
X679143012Y-216867174D01*
X390955882Y-160889208D02*
X390955882Y-160895410D01*
X334592049Y-160889208D02*
X334592049Y-160895410D01*
X657553012Y-159111208D02*
X641543960Y-159111208D01*
X658569012Y-160127208D02*
X657553012Y-159111208D01*
X675364213Y-227013966D02*
X658569012Y-210218765D01*
X590070382Y-159873208D02*
X589054382Y-160889208D01*
X658569012Y-210218765D02*
X658569012Y-160127208D01*
X641543960Y-159111208D02*
X640781960Y-159873208D01*
X640781960Y-159873208D02*
X590070382Y-159873208D01*
X659331012Y-208440765D02*
X659331012Y-159873208D01*
X562460381Y-158476208D02*
X560047381Y-160889208D01*
X659331012Y-159873208D02*
X657934012Y-158476208D01*
X657934012Y-158476208D02*
X562460381Y-158476208D01*
X560047381Y-160889208D02*
X560047381Y-160895410D01*
X677904213Y-227013966D02*
X659331012Y-208440765D01*
X676603012Y-216642208D02*
X666544612Y-206583808D01*
X558188212Y-158781008D02*
X478434916Y-158781008D01*
X478434916Y-158781008D02*
X476326716Y-160889208D01*
X645742012Y-149230608D02*
X640154012Y-154818608D01*
X588642812Y-149332208D02*
X582165812Y-155809208D01*
X685524213Y-227013966D02*
X676603012Y-218092765D01*
X604898812Y-154818608D02*
X599412412Y-149332208D01*
X599412412Y-149332208D02*
X588642812Y-149332208D01*
X662810812Y-149230608D02*
X645742012Y-149230608D01*
X640154012Y-154818608D02*
X604898812Y-154818608D01*
X666544612Y-152964408D02*
X662810812Y-149230608D01*
X582165812Y-155809208D02*
X561160012Y-155809208D01*
X561160012Y-155809208D02*
X558188212Y-158781008D01*
X676603012Y-218092765D02*
X676603012Y-216642208D01*
X666544612Y-206583808D02*
X666544612Y-152964408D01*
X221864383Y-160889208D02*
X221864383Y-160895410D01*
D32*
X617004248Y-307041369D02*
X614490285Y-307041369D01*
X618554214Y-308591335D02*
X617004248Y-307041369D01*
X637223214Y-308591335D02*
X618554214Y-308591335D01*
X639128214Y-308591335D02*
X637223214Y-308591335D01*
X640678180Y-307041369D02*
X639128214Y-308591335D01*
X643497286Y-307041369D02*
X640678180Y-307041369D01*
X614182185Y-313151905D02*
X643189186Y-313151905D01*
X613012743Y-192655619D02*
X613368142Y-193011018D01*
X641781936Y-229647026D02*
X641365215Y-229647026D01*
X612774935Y-229647026D02*
X612358214Y-229647026D01*
X613368142Y-229053819D02*
X612774935Y-229647026D01*
X613368142Y-193011018D02*
X613368142Y-229053819D01*
X642375143Y-229053819D02*
X641781936Y-229647026D01*
X642375143Y-189480619D02*
X642375143Y-229053819D01*
X610955142Y-188972820D02*
X611387143Y-188540819D01*
X610955142Y-227227954D02*
X610955142Y-188972820D01*
X612965498Y-188540819D02*
X612966214Y-188541535D01*
X639962143Y-227227954D02*
X639962143Y-188972820D01*
X641365215Y-228631026D02*
X639962143Y-227227954D01*
X611387143Y-188540819D02*
X612965498Y-188540819D01*
X612358214Y-228631026D02*
X610955142Y-227227954D01*
X641972499Y-188540819D02*
X641973215Y-188541535D01*
X639962143Y-188972820D02*
X640394144Y-188540819D01*
X640394144Y-188540819D02*
X641972499Y-188540819D01*
X578277759Y-330942208D02*
X567534179Y-330942208D01*
X566593159Y-331883228D02*
X522854946Y-331883228D01*
X341137827Y-331883228D02*
X297399614Y-331883228D01*
X579218779Y-331883228D02*
X578277759Y-330942208D01*
X454806513Y-330942208D02*
X453865493Y-331883228D01*
X466491113Y-331883228D02*
X465550093Y-330942208D01*
X453865493Y-331883228D02*
X410127280Y-331883228D01*
X352822427Y-330942208D02*
X342078847Y-330942208D01*
X353763447Y-331883228D02*
X352822427Y-330942208D01*
X567534179Y-330942208D02*
X566593159Y-331883228D01*
X342078847Y-330942208D02*
X341137827Y-331883228D01*
X465550093Y-330942208D02*
X454806513Y-330942208D01*
X406864013Y-335895208D02*
X458489513Y-335895208D01*
X297399614Y-333183228D02*
X296821867Y-333183228D01*
X571217179Y-335895208D02*
X575027179Y-332085208D01*
X408324513Y-331958208D02*
X406800513Y-331958208D01*
X405911513Y-334942708D02*
X406864013Y-335895208D01*
X465393093Y-332085208D02*
X466491113Y-333183228D01*
X522277199Y-333183228D02*
X521052179Y-331958208D01*
X296821867Y-333183228D02*
X295596847Y-331958208D01*
X293183847Y-334942708D02*
X294136347Y-335895208D01*
X294072847Y-331958208D02*
X293183847Y-332847208D01*
X295596847Y-331958208D02*
X294072847Y-331958208D01*
X349571847Y-332085208D02*
X352665427Y-332085208D01*
X458489513Y-335895208D02*
X462299513Y-332085208D01*
X345761847Y-335895208D02*
X349571847Y-332085208D01*
X518639179Y-332847208D02*
X518639179Y-334942708D01*
X410127280Y-333183228D02*
X409549533Y-333183228D01*
X521052179Y-331958208D02*
X519528179Y-331958208D01*
X522854946Y-333183228D02*
X522277199Y-333183228D01*
X575027179Y-332085208D02*
X578120759Y-332085208D01*
X405911513Y-332847208D02*
X405911513Y-334942708D01*
X293183847Y-332847208D02*
X293183847Y-334942708D01*
X352665427Y-332085208D02*
X353763447Y-333183228D01*
X409549533Y-333183228D02*
X408324513Y-331958208D01*
X578120759Y-332085208D02*
X579218779Y-333183228D01*
X518639179Y-334942708D02*
X519591679Y-335895208D01*
X519528179Y-331958208D02*
X518639179Y-332847208D01*
X519591679Y-335895208D02*
X571217179Y-335895208D01*
X294136347Y-335895208D02*
X345761847Y-335895208D01*
X406800513Y-331958208D02*
X405911513Y-332847208D01*
X462299513Y-332085208D02*
X465393093Y-332085208D01*
X676016213Y-263442966D02*
X673603213Y-261029966D01*
X670301213Y-311832966D02*
X669161213Y-311832966D01*
X690494213Y-263442966D02*
X676016213Y-263442966D01*
X670174213Y-304082966D02*
X691002213Y-304082966D01*
X668535213Y-311206966D02*
X668535213Y-305721966D01*
X673603213Y-261029966D02*
X673603213Y-257981966D01*
X692145213Y-265093966D02*
X690494213Y-263442966D01*
X691002213Y-304082966D02*
X692145213Y-302939966D01*
X669161213Y-311832966D02*
X668535213Y-311206966D01*
X692145213Y-302939966D02*
X692145213Y-265093966D01*
X668535213Y-305721966D02*
X670174213Y-304082966D01*
X531807647Y-342042766D02*
X530977847Y-341212966D01*
X508184477Y-340813819D02*
X507676477Y-341321819D01*
X503521593Y-341321819D02*
X502800646Y-342042766D01*
X507676477Y-341321819D02*
X503521593Y-341321819D01*
X530977847Y-341212966D02*
X526472477Y-341212966D01*
X526472477Y-341212966D02*
X526073330Y-340813819D01*
X526073330Y-340813819D02*
X508184477Y-340813819D01*
X504399593Y-342845819D02*
X530202700Y-342845819D01*
X530202700Y-342845819D02*
X531804647Y-344447766D01*
X502797646Y-344447766D02*
X504399593Y-342845819D01*
X527553595Y-349449819D02*
X530118648Y-346884766D01*
X504007077Y-345675335D02*
X515351548Y-345675335D01*
X502797646Y-346884766D02*
X504007077Y-345675335D01*
X515351548Y-345675335D02*
X519126032Y-349449819D01*
X519126032Y-349449819D02*
X527553595Y-349449819D01*
X529509117Y-349297766D02*
X531804648Y-349297766D01*
X515351548Y-348088335D02*
X517475032Y-350211819D01*
X528595064Y-350211819D02*
X529509117Y-349297766D01*
X504007078Y-348088335D02*
X515351548Y-348088335D01*
X517475032Y-350211819D02*
X528595064Y-350211819D01*
X502797647Y-349297766D02*
X504007078Y-348088335D01*
X529128117Y-351710766D02*
X528051548Y-352787335D01*
X502797647Y-351710766D02*
X505130979Y-351710766D01*
X505130979Y-351710766D02*
X506207548Y-352787335D01*
X506207548Y-352787335D02*
X528051548Y-352787335D01*
X531804648Y-351710766D02*
X529128117Y-351710766D01*
X507474548Y-253945224D02*
X507474548Y-254740335D01*
X535453064Y-255850819D02*
X536481549Y-254822334D01*
X507474548Y-254740335D02*
X508585032Y-255850819D01*
X536481549Y-254822334D02*
X536481549Y-253945224D01*
X508585032Y-255850819D02*
X535453064Y-255850819D01*
X507474548Y-257882224D02*
X507474548Y-257032335D01*
X507985548Y-256521335D02*
X535925548Y-256521335D01*
X535925548Y-256521335D02*
X536481549Y-257077336D01*
X536481549Y-257077336D02*
X536481549Y-257882224D01*
X507474548Y-257032335D02*
X507985548Y-256521335D01*
X508960548Y-259483335D02*
X509637675Y-258806208D01*
X537967549Y-259579336D02*
X537967549Y-260206223D01*
X508960548Y-260206223D02*
X508960548Y-259483335D01*
X509637675Y-258806208D02*
X537194421Y-258806208D01*
X537194421Y-258806208D02*
X537967549Y-259579336D01*
X509677547Y-261061007D02*
X509677547Y-267486966D01*
X511424346Y-259314208D02*
X509677547Y-261061007D01*
X524266481Y-324621693D02*
X522854946Y-326033228D01*
X532449526Y-324621693D02*
X524266481Y-324621693D01*
X532559549Y-259739966D02*
X532133791Y-259314208D01*
X539942526Y-318809943D02*
X538261276Y-318809943D01*
X538261276Y-318809943D02*
X532449526Y-324621693D01*
X532133791Y-259314208D02*
X511424346Y-259314208D01*
X465609852Y-329809167D02*
X480042219Y-329809167D01*
X480042219Y-329809167D02*
X483197693Y-326653693D01*
X463783913Y-327983228D02*
X465609852Y-329809167D01*
X483197693Y-326653693D02*
X484721693Y-326653693D01*
X474913715Y-188229225D02*
X474913715Y-189276335D01*
X477101693Y-325256693D02*
X478498693Y-326653693D01*
X445906714Y-189276335D02*
X447634693Y-187548356D01*
X468567648Y-325256693D02*
X477101693Y-325256693D01*
X478498693Y-326653693D02*
X480530693Y-326653693D01*
X447634693Y-187548356D02*
X474232846Y-187548356D01*
X474232846Y-187548356D02*
X474913715Y-188229225D01*
X481546693Y-325637693D02*
X483578693Y-325637693D01*
X480530693Y-326653693D02*
X481546693Y-325637693D01*
X466491113Y-327333228D02*
X468567648Y-325256693D01*
X470108644Y-341212966D02*
X469709497Y-340813819D01*
X447157760Y-341321819D02*
X446436813Y-342042766D01*
X475443814Y-342042766D02*
X474614014Y-341212966D01*
X469709497Y-340813819D02*
X451820644Y-340813819D01*
X451820644Y-340813819D02*
X451312644Y-341321819D01*
X451312644Y-341321819D02*
X447157760Y-341321819D01*
X474614014Y-341212966D02*
X470108644Y-341212966D01*
X448035760Y-342845819D02*
X473838867Y-342845819D01*
X473838867Y-342845819D02*
X475440814Y-344447766D01*
X446433813Y-344447766D02*
X448035760Y-342845819D01*
X471189762Y-349449819D02*
X473754815Y-346884766D01*
X447643244Y-345675335D02*
X458987715Y-345675335D01*
X446433813Y-346884766D02*
X447643244Y-345675335D01*
X458987715Y-345675335D02*
X462762199Y-349449819D01*
X462762199Y-349449819D02*
X471189762Y-349449819D01*
X473145284Y-349297766D02*
X475440815Y-349297766D01*
X447643245Y-348088335D02*
X458987715Y-348088335D01*
X458987715Y-348088335D02*
X461111199Y-350211819D01*
X446433814Y-349297766D02*
X447643245Y-348088335D01*
X461111199Y-350211819D02*
X472231231Y-350211819D01*
X472231231Y-350211819D02*
X473145284Y-349297766D01*
X475440815Y-351710766D02*
X472764284Y-351710766D01*
X472764284Y-351710766D02*
X471687715Y-352787335D01*
X449843715Y-352787335D02*
X471687715Y-352787335D01*
X448767146Y-351710766D02*
X449843715Y-352787335D01*
X446433814Y-351710766D02*
X448767146Y-351710766D01*
X452221199Y-255850819D02*
X479089231Y-255850819D01*
X451110715Y-253945224D02*
X451110715Y-254740335D01*
X451110715Y-254740335D02*
X452221199Y-255850819D01*
X480117716Y-254822334D02*
X480117716Y-253945224D01*
X479089231Y-255850819D02*
X480117716Y-254822334D01*
X479561715Y-256521335D02*
X480117716Y-257077336D01*
X451110715Y-257882224D02*
X451110715Y-257032335D01*
X480117716Y-257077336D02*
X480117716Y-257882224D01*
X451110715Y-257032335D02*
X451621715Y-256521335D01*
X451621715Y-256521335D02*
X479561715Y-256521335D01*
X452596715Y-259483335D02*
X453273842Y-258806208D01*
X480830588Y-258806208D02*
X481603716Y-259579336D01*
X453273842Y-258806208D02*
X480830588Y-258806208D01*
X452596715Y-260206223D02*
X452596715Y-259483335D01*
X481603716Y-259579336D02*
X481603716Y-260206223D01*
X453313714Y-261061007D02*
X453313714Y-267486966D01*
X481897443Y-318809943D02*
X476085693Y-324621693D01*
X476085693Y-324621693D02*
X467902648Y-324621693D01*
X455060513Y-259314208D02*
X453313714Y-261061007D01*
X475769958Y-259314208D02*
X455060513Y-259314208D01*
X467902648Y-324621693D02*
X466491113Y-326033228D01*
X483578693Y-318809943D02*
X481897443Y-318809943D01*
X476195716Y-259739966D02*
X475769958Y-259314208D01*
X426833860Y-326653693D02*
X428357860Y-326653693D01*
X407420080Y-327983228D02*
X409246019Y-329809167D01*
X423678386Y-329809167D02*
X426833860Y-326653693D01*
X409246019Y-329809167D02*
X423678386Y-329809167D01*
X391270860Y-187548356D02*
X417869013Y-187548356D01*
X422134860Y-326653693D02*
X424166860Y-326653693D01*
X424166860Y-326653693D02*
X425182860Y-325637693D01*
X417869013Y-187548356D02*
X418549882Y-188229225D01*
X410127280Y-327333228D02*
X412203815Y-325256693D01*
X425182860Y-325637693D02*
X427214860Y-325637693D01*
X420737860Y-325256693D02*
X422134860Y-326653693D01*
X418549882Y-188229225D02*
X418549882Y-189276335D01*
X389542881Y-189276335D02*
X391270860Y-187548356D01*
X412203815Y-325256693D02*
X420737860Y-325256693D01*
X418250181Y-341212966D02*
X413744811Y-341212966D01*
X413345664Y-340813819D02*
X395456811Y-340813819D01*
X395456811Y-340813819D02*
X394948811Y-341321819D01*
X413744811Y-341212966D02*
X413345664Y-340813819D01*
X390793927Y-341321819D02*
X390072980Y-342042766D01*
X394948811Y-341321819D02*
X390793927Y-341321819D01*
X419079981Y-342042766D02*
X418250181Y-341212966D01*
X391671927Y-342845819D02*
X417475034Y-342845819D01*
X417475034Y-342845819D02*
X419076981Y-344447766D01*
X390069980Y-344447766D02*
X391671927Y-342845819D01*
X391279411Y-345675335D02*
X402623882Y-345675335D01*
X390069980Y-346884766D02*
X391279411Y-345675335D01*
X402623882Y-345675335D02*
X406398366Y-349449819D01*
X406398366Y-349449819D02*
X414825929Y-349449819D01*
X414825929Y-349449819D02*
X417390982Y-346884766D01*
X402623882Y-348088335D02*
X404747366Y-350211819D01*
X391279412Y-348088335D02*
X402623882Y-348088335D01*
X404747366Y-350211819D02*
X415867398Y-350211819D01*
X415867398Y-350211819D02*
X416781451Y-349297766D01*
X390069981Y-349297766D02*
X391279412Y-348088335D01*
X416781451Y-349297766D02*
X419076982Y-349297766D01*
X390069981Y-351710766D02*
X392403313Y-351710766D01*
X393479882Y-352787335D02*
X415323882Y-352787335D01*
X419076982Y-351710766D02*
X416400451Y-351710766D01*
X416400451Y-351710766D02*
X415323882Y-352787335D01*
X392403313Y-351710766D02*
X393479882Y-352787335D01*
X394746882Y-254740335D02*
X395857366Y-255850819D01*
X422725398Y-255850819D02*
X423753883Y-254822334D01*
X395857366Y-255850819D02*
X422725398Y-255850819D01*
X394746882Y-253945224D02*
X394746882Y-254740335D01*
X423753883Y-254822334D02*
X423753883Y-253945224D01*
X394746882Y-257882224D02*
X394746882Y-257032335D01*
X395257882Y-256521335D02*
X423197882Y-256521335D01*
X394746882Y-257032335D02*
X395257882Y-256521335D01*
X423753883Y-257077336D02*
X423753883Y-257882224D01*
X423197882Y-256521335D02*
X423753883Y-257077336D01*
X424466755Y-258806208D02*
X425239883Y-259579336D01*
X396232882Y-260206223D02*
X396232882Y-259483335D01*
X396232882Y-259483335D02*
X396910009Y-258806208D01*
X425239883Y-259579336D02*
X425239883Y-260206223D01*
X396910009Y-258806208D02*
X424466755Y-258806208D01*
X419406125Y-259314208D02*
X398696680Y-259314208D01*
X427214860Y-318809943D02*
X425533610Y-318809943D01*
X419721860Y-324621693D02*
X411538815Y-324621693D01*
X419831883Y-259739966D02*
X419406125Y-259314208D01*
X398696680Y-259314208D02*
X396949881Y-261061007D01*
X425533610Y-318809943D02*
X419721860Y-324621693D01*
X411538815Y-324621693D02*
X410127280Y-326033228D01*
X396949881Y-261061007D02*
X396949881Y-267486966D01*
X370470027Y-326653693D02*
X371994027Y-326653693D01*
X352882186Y-329809167D02*
X367314553Y-329809167D01*
X351056247Y-327983228D02*
X352882186Y-329809167D01*
X367314553Y-329809167D02*
X370470027Y-326653693D01*
X361505180Y-187548356D02*
X362186049Y-188229225D01*
X355839982Y-325256693D02*
X364374027Y-325256693D01*
X353763447Y-327333228D02*
X355839982Y-325256693D01*
X364374027Y-325256693D02*
X365771027Y-326653693D01*
X367803027Y-326653693D02*
X368819027Y-325637693D01*
X334907027Y-187548356D02*
X361505180Y-187548356D01*
X365771027Y-326653693D02*
X367803027Y-326653693D01*
X362186049Y-188229225D02*
X362186049Y-189276335D01*
X333179048Y-189276335D02*
X334907027Y-187548356D01*
X368819027Y-325637693D02*
X370851027Y-325637693D01*
X334430094Y-341321819D02*
X333709147Y-342042766D01*
X357380978Y-341212966D02*
X356981831Y-340813819D01*
X361886348Y-341212966D02*
X357380978Y-341212966D01*
X339092978Y-340813819D02*
X338584978Y-341321819D01*
X356981831Y-340813819D02*
X339092978Y-340813819D01*
X362716148Y-342042766D02*
X361886348Y-341212966D01*
X338584978Y-341321819D02*
X334430094Y-341321819D01*
X333706147Y-344447766D02*
X335308094Y-342845819D01*
X335308094Y-342845819D02*
X361111201Y-342845819D01*
X361111201Y-342845819D02*
X362713148Y-344447766D01*
X334915578Y-345675335D02*
X346260049Y-345675335D01*
X346260049Y-345675335D02*
X350034533Y-349449819D01*
X350034533Y-349449819D02*
X358462096Y-349449819D01*
X358462096Y-349449819D02*
X361027149Y-346884766D01*
X333706147Y-346884766D02*
X334915578Y-345675335D01*
X348383533Y-350211819D02*
X359503565Y-350211819D01*
X359503565Y-350211819D02*
X360417618Y-349297766D01*
X334915579Y-348088335D02*
X346260049Y-348088335D01*
X346260049Y-348088335D02*
X348383533Y-350211819D01*
X360417618Y-349297766D02*
X362713149Y-349297766D01*
X333706148Y-349297766D02*
X334915579Y-348088335D01*
X360036618Y-351710766D02*
X358960049Y-352787335D01*
X333706148Y-351710766D02*
X336039480Y-351710766D01*
X337116049Y-352787335D02*
X358960049Y-352787335D01*
X336039480Y-351710766D02*
X337116049Y-352787335D01*
X362713149Y-351710766D02*
X360036618Y-351710766D01*
X338383049Y-253945224D02*
X338383049Y-254740335D01*
X339493533Y-255850819D02*
X366361565Y-255850819D01*
X366361565Y-255850819D02*
X367390050Y-254822334D01*
X367390050Y-254822334D02*
X367390050Y-253945224D01*
X338383049Y-254740335D02*
X339493533Y-255850819D01*
X367390050Y-257077336D02*
X367390050Y-257882224D01*
X338894049Y-256521335D02*
X366834049Y-256521335D01*
X338383049Y-257882224D02*
X338383049Y-257032335D01*
X338383049Y-257032335D02*
X338894049Y-256521335D01*
X366834049Y-256521335D02*
X367390050Y-257077336D01*
X340546176Y-258806208D02*
X368102922Y-258806208D01*
X339869049Y-259483335D02*
X340546176Y-258806208D01*
X368876050Y-259579336D02*
X368876050Y-260206223D01*
X339869049Y-260206223D02*
X339869049Y-259483335D01*
X368102922Y-258806208D02*
X368876050Y-259579336D01*
X363042292Y-259314208D02*
X342332847Y-259314208D01*
X369169777Y-318809943D02*
X363358027Y-324621693D01*
X355174982Y-324621693D02*
X353763447Y-326033228D01*
X340586048Y-261061007D02*
X340586048Y-267486966D01*
X342332847Y-259314208D02*
X340586048Y-261061007D01*
X370851027Y-318809943D02*
X369169777Y-318809943D01*
X363358027Y-324621693D02*
X355174982Y-324621693D01*
X363468050Y-259739966D02*
X363042292Y-259314208D01*
X310950720Y-329809167D02*
X314106194Y-326653693D01*
X294692414Y-327983228D02*
X296518353Y-329809167D01*
X296518353Y-329809167D02*
X310950720Y-329809167D01*
X314106194Y-326653693D02*
X315630194Y-326653693D01*
X297399614Y-327333228D02*
X299476149Y-325256693D01*
X278543194Y-187548356D02*
X305141347Y-187548356D01*
X276815215Y-189276335D02*
X278543194Y-187548356D01*
X309407194Y-326653693D02*
X311439194Y-326653693D01*
X311439194Y-326653693D02*
X312455194Y-325637693D01*
X308010194Y-325256693D02*
X309407194Y-326653693D01*
X305822216Y-188229225D02*
X305822216Y-189276335D01*
X312455194Y-325637693D02*
X314487194Y-325637693D01*
X299476149Y-325256693D02*
X308010194Y-325256693D01*
X305141347Y-187548356D02*
X305822216Y-188229225D01*
X282729145Y-340813819D02*
X282221145Y-341321819D01*
X301017145Y-341212966D02*
X300617998Y-340813819D01*
X305522515Y-341212966D02*
X301017145Y-341212966D01*
X282221145Y-341321819D02*
X278066261Y-341321819D01*
X306352315Y-342042766D02*
X305522515Y-341212966D01*
X300617998Y-340813819D02*
X282729145Y-340813819D01*
X278066261Y-341321819D02*
X277345314Y-342042766D01*
X278944261Y-342845819D02*
X304747368Y-342845819D01*
X277342314Y-344447766D02*
X278944261Y-342845819D01*
X304747368Y-342845819D02*
X306349315Y-344447766D01*
X293670700Y-349449819D02*
X302098263Y-349449819D01*
X278551745Y-345675335D02*
X289896216Y-345675335D01*
X277342314Y-346884766D02*
X278551745Y-345675335D01*
X289896216Y-345675335D02*
X293670700Y-349449819D01*
X302098263Y-349449819D02*
X304663316Y-346884766D01*
X277342315Y-349297766D02*
X278551746Y-348088335D01*
X303139732Y-350211819D02*
X304053785Y-349297766D01*
X289896216Y-348088335D02*
X292019700Y-350211819D01*
X278551746Y-348088335D02*
X289896216Y-348088335D01*
X292019700Y-350211819D02*
X303139732Y-350211819D01*
X304053785Y-349297766D02*
X306349316Y-349297766D01*
X277342315Y-351710766D02*
X279675647Y-351710766D01*
X306349316Y-351710766D02*
X303672785Y-351710766D01*
X279675647Y-351710766D02*
X280752216Y-352787335D01*
X280752216Y-352787335D02*
X302596216Y-352787335D01*
X303672785Y-351710766D02*
X302596216Y-352787335D01*
X282019216Y-254740335D02*
X283129700Y-255850819D01*
X282019216Y-253945224D02*
X282019216Y-254740335D01*
X283129700Y-255850819D02*
X309997732Y-255850819D01*
X309997732Y-255850819D02*
X311026217Y-254822334D01*
X311026217Y-254822334D02*
X311026217Y-253945224D01*
X310470216Y-256521335D02*
X311026217Y-257077336D01*
X282019216Y-257882224D02*
X282019216Y-257032335D01*
X282530216Y-256521335D02*
X310470216Y-256521335D01*
X282019216Y-257032335D02*
X282530216Y-256521335D01*
X311026217Y-257077336D02*
X311026217Y-257882224D01*
X284182343Y-258806208D02*
X311739089Y-258806208D01*
X311739089Y-258806208D02*
X312512217Y-259579336D01*
X283505216Y-260206223D02*
X283505216Y-259483335D01*
X312512217Y-259579336D02*
X312512217Y-260206223D01*
X283505216Y-259483335D02*
X284182343Y-258806208D01*
X285969014Y-259314208D02*
X284222215Y-261061007D01*
X312805944Y-318809943D02*
X306994194Y-324621693D01*
X298811149Y-324621693D02*
X297399614Y-326033228D01*
X307104217Y-259739966D02*
X306678459Y-259314208D01*
X314487194Y-318809943D02*
X312805944Y-318809943D01*
X306678459Y-259314208D02*
X285969014Y-259314208D01*
X306994194Y-324621693D02*
X298811149Y-324621693D01*
X284222215Y-261061007D02*
X284222215Y-267486966D01*
X257742361Y-326653693D02*
X259266361Y-326653693D01*
X240154520Y-329809167D02*
X254586887Y-329809167D01*
X254586887Y-329809167D02*
X257742361Y-326653693D01*
X238328581Y-327983228D02*
X240154520Y-329809167D01*
X222179361Y-187548356D02*
X248777514Y-187548356D01*
X249458383Y-188229225D02*
X249458383Y-189276335D01*
X256091361Y-325637693D02*
X258123361Y-325637693D01*
X251646361Y-325256693D02*
X253043361Y-326653693D01*
X255075361Y-326653693D02*
X256091361Y-325637693D01*
X220451382Y-189276335D02*
X222179361Y-187548356D01*
X243112316Y-325256693D02*
X251646361Y-325256693D01*
X248777514Y-187548356D02*
X249458383Y-188229225D01*
X253043361Y-326653693D02*
X255075361Y-326653693D01*
X241035781Y-327333228D02*
X243112316Y-325256693D01*
X244254165Y-340813819D02*
X226365312Y-340813819D01*
X221702428Y-341321819D02*
X220981481Y-342042766D01*
X225857312Y-341321819D02*
X221702428Y-341321819D01*
X249158682Y-341212966D02*
X244653312Y-341212966D01*
X226365312Y-340813819D02*
X225857312Y-341321819D01*
X249988482Y-342042766D02*
X249158682Y-341212966D01*
X244653312Y-341212966D02*
X244254165Y-340813819D01*
X220978481Y-344447766D02*
X222580428Y-342845819D01*
X248383535Y-342845819D02*
X249985482Y-344447766D01*
X222580428Y-342845819D02*
X248383535Y-342845819D01*
X220978481Y-346884766D02*
X222187912Y-345675335D01*
X233532383Y-345675335D02*
X237306867Y-349449819D01*
X245734430Y-349449819D02*
X248299483Y-346884766D01*
X222187912Y-345675335D02*
X233532383Y-345675335D01*
X237306867Y-349449819D02*
X245734430Y-349449819D01*
X222187913Y-348088335D02*
X233532383Y-348088335D01*
X220978482Y-349297766D02*
X222187913Y-348088335D01*
X235655867Y-350211819D02*
X246775899Y-350211819D01*
X247689952Y-349297766D02*
X249985483Y-349297766D01*
X233532383Y-348088335D02*
X235655867Y-350211819D01*
X246775899Y-350211819D02*
X247689952Y-349297766D01*
X220978482Y-351710766D02*
X223311814Y-351710766D01*
X223311814Y-351710766D02*
X224388383Y-352787335D01*
X247308952Y-351710766D02*
X246232383Y-352787335D01*
X249985483Y-351710766D02*
X247308952Y-351710766D01*
X224388383Y-352787335D02*
X246232383Y-352787335D01*
X254662384Y-254822334D02*
X254662384Y-253945224D01*
X225655383Y-254740335D02*
X226765867Y-255850819D01*
X225655383Y-253945224D02*
X225655383Y-254740335D01*
X226765867Y-255850819D02*
X253633899Y-255850819D01*
X253633899Y-255850819D02*
X254662384Y-254822334D01*
X225655383Y-257032335D02*
X226166383Y-256521335D01*
X226166383Y-256521335D02*
X254106383Y-256521335D01*
X254662384Y-257077336D02*
X254662384Y-257882224D01*
X225655383Y-257882224D02*
X225655383Y-257032335D01*
X254106383Y-256521335D02*
X254662384Y-257077336D01*
X227818510Y-258806208D02*
X255375256Y-258806208D01*
X227141383Y-260206223D02*
X227141383Y-259483335D01*
X256148384Y-259579336D02*
X256148384Y-260206223D01*
X255375256Y-258806208D02*
X256148384Y-259579336D01*
X227141383Y-259483335D02*
X227818510Y-258806208D01*
X250314626Y-259314208D02*
X229605181Y-259314208D01*
X242447316Y-324621693D02*
X241035781Y-326033228D01*
X250630361Y-324621693D02*
X242447316Y-324621693D01*
X258123361Y-318809943D02*
X256442111Y-318809943D01*
X227858382Y-261061007D02*
X227858382Y-267486966D01*
X229605181Y-259314208D02*
X227858382Y-261061007D01*
X256442111Y-318809943D02*
X250630361Y-324621693D01*
X250740384Y-259739966D02*
X250314626Y-259314208D01*
X554591309Y-188972820D02*
X555023310Y-188540819D01*
X585608666Y-188540819D02*
X585609382Y-188541535D01*
X584030311Y-188540819D02*
X585608666Y-188540819D01*
X555023310Y-188540819D02*
X556601665Y-188540819D01*
X554591309Y-227227954D02*
X554591309Y-188972820D01*
X556601665Y-188540819D02*
X556602381Y-188541535D01*
X555994381Y-228631026D02*
X554591309Y-227227954D01*
X583598310Y-227227954D02*
X583598310Y-188972820D01*
X583598310Y-188972820D02*
X584030311Y-188540819D01*
X585001382Y-228631026D02*
X583598310Y-227227954D01*
X557818352Y-313151905D02*
X586825353Y-313151905D01*
X586011310Y-229053819D02*
X585418103Y-229647026D01*
X586011310Y-189480619D02*
X586011310Y-229053819D01*
X585418103Y-229647026D02*
X585001382Y-229647026D01*
X557004309Y-229053819D02*
X556411102Y-229647026D01*
X556648910Y-192655619D02*
X557004309Y-193011018D01*
X556411102Y-229647026D02*
X555994381Y-229647026D01*
X557004309Y-193011018D02*
X557004309Y-229053819D01*
X587133453Y-307041369D02*
X584314347Y-307041369D01*
X562190381Y-308591335D02*
X560640415Y-307041369D01*
X584314347Y-307041369D02*
X582764381Y-308591335D01*
X580859381Y-308591335D02*
X562190381Y-308591335D01*
X582764381Y-308591335D02*
X580859381Y-308591335D01*
X560640415Y-307041369D02*
X558126452Y-307041369D01*
X521663323Y-334117208D02*
X520647323Y-333101208D01*
X568371159Y-331883228D02*
X567534179Y-332720208D01*
X527910179Y-334117208D02*
X521663323Y-334117208D01*
X529307179Y-332720208D02*
X527910179Y-334117208D01*
X520647323Y-333101208D02*
X519806346Y-333101208D01*
X567534179Y-332720208D02*
X529307179Y-332720208D01*
X569311579Y-331883228D02*
X568371159Y-331883228D01*
X529647477Y-229053819D02*
X529054270Y-229647026D01*
X500285077Y-192655619D02*
X500640476Y-193011018D01*
X500047269Y-229647026D02*
X499630548Y-229647026D01*
X529054270Y-229647026D02*
X528637549Y-229647026D01*
X529647477Y-189480619D02*
X529647477Y-229053819D01*
X500640476Y-229053819D02*
X500047269Y-229647026D01*
X500640476Y-193011018D02*
X500640476Y-229053819D01*
X526400548Y-308591335D02*
X524495548Y-308591335D01*
X524495548Y-308591335D02*
X505826548Y-308591335D01*
X504276582Y-307041369D02*
X501762619Y-307041369D01*
X530769620Y-307041369D02*
X527950514Y-307041369D01*
X527950514Y-307041369D02*
X526400548Y-308591335D01*
X505826548Y-308591335D02*
X504276582Y-307041369D01*
X501454519Y-313151905D02*
X530461520Y-313151905D01*
X527234477Y-227227954D02*
X527234477Y-188972820D01*
X500237832Y-188540819D02*
X500238548Y-188541535D01*
X529244833Y-188540819D02*
X529245549Y-188541535D01*
X527234477Y-188972820D02*
X527666478Y-188540819D01*
X498227476Y-227227954D02*
X498227476Y-188972820D01*
X498659477Y-188540819D02*
X500237832Y-188540819D01*
X527666478Y-188540819D02*
X529244833Y-188540819D01*
X499630548Y-228631026D02*
X498227476Y-227227954D01*
X528637549Y-228631026D02*
X527234477Y-227227954D01*
X498227476Y-188972820D02*
X498659477Y-188540819D01*
X408935657Y-334117208D02*
X407919657Y-333101208D01*
X407919657Y-333101208D02*
X407078680Y-333101208D01*
X416579513Y-332720208D02*
X415182513Y-334117208D01*
X454806513Y-332720208D02*
X416579513Y-332720208D01*
X455643493Y-331883228D02*
X454806513Y-332720208D01*
X456583913Y-331883228D02*
X455643493Y-331883228D01*
X415182513Y-334117208D02*
X408935657Y-334117208D01*
X443683436Y-229647026D02*
X443266715Y-229647026D01*
X473283644Y-229053819D02*
X472690437Y-229647026D01*
X472690437Y-229647026D02*
X472273716Y-229647026D01*
X444276643Y-193011018D02*
X444276643Y-229053819D01*
X443921244Y-192655619D02*
X444276643Y-193011018D01*
X444276643Y-229053819D02*
X443683436Y-229647026D01*
X473283644Y-189480619D02*
X473283644Y-229053819D01*
X445090686Y-313151905D02*
X474097687Y-313151905D01*
X470870644Y-227227954D02*
X470870644Y-188972820D01*
X441863643Y-188972820D02*
X442295644Y-188540819D01*
X472273716Y-228631026D02*
X470870644Y-227227954D01*
X441863643Y-227227954D02*
X441863643Y-188972820D01*
X443873999Y-188540819D02*
X443874715Y-188541535D01*
X442295644Y-188540819D02*
X443873999Y-188540819D01*
X443266715Y-228631026D02*
X441863643Y-227227954D01*
X472881000Y-188540819D02*
X472881716Y-188541535D01*
X470870644Y-188972820D02*
X471302645Y-188540819D01*
X471302645Y-188540819D02*
X472881000Y-188540819D01*
X471586681Y-307041369D02*
X470036715Y-308591335D01*
X449462715Y-308591335D02*
X447912749Y-307041369D01*
X468131715Y-308591335D02*
X449462715Y-308591335D01*
X470036715Y-308591335D02*
X468131715Y-308591335D01*
X447912749Y-307041369D02*
X445398786Y-307041369D01*
X474405787Y-307041369D02*
X471586681Y-307041369D01*
X414506811Y-227227954D02*
X414506811Y-188972820D01*
X416517167Y-188540819D02*
X416517883Y-188541535D01*
X387510166Y-188540819D02*
X387510882Y-188541535D01*
X385499810Y-227227954D02*
X385499810Y-188972820D01*
X414938812Y-188540819D02*
X416517167Y-188540819D01*
X414506811Y-188972820D02*
X414938812Y-188540819D01*
X386902882Y-228631026D02*
X385499810Y-227227954D01*
X385499810Y-188972820D02*
X385931811Y-188540819D01*
X415909883Y-228631026D02*
X414506811Y-227227954D01*
X385931811Y-188540819D02*
X387510166Y-188540819D01*
X388726853Y-313151905D02*
X417733854Y-313151905D01*
X416919811Y-189480619D02*
X416919811Y-229053819D01*
X416326604Y-229647026D02*
X415909883Y-229647026D01*
X387912810Y-229053819D02*
X387319603Y-229647026D01*
X416919811Y-229053819D02*
X416326604Y-229647026D01*
X387557411Y-192655619D02*
X387912810Y-193011018D01*
X387319603Y-229647026D02*
X386902882Y-229647026D01*
X387912810Y-193011018D02*
X387912810Y-229053819D01*
X418041954Y-307041369D02*
X415222848Y-307041369D01*
X415222848Y-307041369D02*
X413672882Y-308591335D01*
X391548916Y-307041369D02*
X389034953Y-307041369D01*
X411767882Y-308591335D02*
X393098882Y-308591335D01*
X413672882Y-308591335D02*
X411767882Y-308591335D01*
X393098882Y-308591335D02*
X391548916Y-307041369D01*
X358859015Y-307041369D02*
X357309049Y-308591335D01*
X357309049Y-308591335D02*
X355404049Y-308591335D01*
X361678121Y-307041369D02*
X358859015Y-307041369D01*
X335185083Y-307041369D02*
X332671120Y-307041369D01*
X355404049Y-308591335D02*
X336735049Y-308591335D01*
X336735049Y-308591335D02*
X335185083Y-307041369D01*
X329135977Y-227227954D02*
X329135977Y-188972820D01*
X331146333Y-188540819D02*
X331147049Y-188541535D01*
X359546050Y-228631026D02*
X358142978Y-227227954D01*
X329567978Y-188540819D02*
X331146333Y-188540819D01*
X330539049Y-228631026D02*
X329135977Y-227227954D01*
X358574979Y-188540819D02*
X360153334Y-188540819D01*
X358142978Y-227227954D02*
X358142978Y-188972820D01*
X329135977Y-188972820D02*
X329567978Y-188540819D01*
X358142978Y-188972820D02*
X358574979Y-188540819D01*
X360153334Y-188540819D02*
X360154050Y-188541535D01*
X332363020Y-313151905D02*
X361370021Y-313151905D01*
X330955770Y-229647026D02*
X330539049Y-229647026D01*
X360555978Y-229053819D02*
X359962771Y-229647026D01*
X359962771Y-229647026D02*
X359546050Y-229647026D01*
X331193578Y-192655619D02*
X331548977Y-193011018D01*
X331548977Y-229053819D02*
X330955770Y-229647026D01*
X331548977Y-193011018D02*
X331548977Y-229053819D01*
X360555978Y-189480619D02*
X360555978Y-229053819D01*
X343856247Y-331883228D02*
X342915827Y-331883228D01*
X303851847Y-332720208D02*
X302454847Y-334117208D01*
X342078847Y-332720208D02*
X303851847Y-332720208D01*
X296207991Y-334117208D02*
X295191991Y-333101208D01*
X342915827Y-331883228D02*
X342078847Y-332720208D01*
X302454847Y-334117208D02*
X296207991Y-334117208D01*
X295191991Y-333101208D02*
X294351014Y-333101208D01*
X301779145Y-188972820D02*
X302211146Y-188540819D01*
X272772144Y-227227954D02*
X272772144Y-188972820D01*
X303182217Y-228631026D02*
X301779145Y-227227954D01*
X303789501Y-188540819D02*
X303790217Y-188541535D01*
X272772144Y-188972820D02*
X273204145Y-188540819D01*
X274782500Y-188540819D02*
X274783216Y-188541535D01*
X274175216Y-228631026D02*
X272772144Y-227227954D01*
X273204145Y-188540819D02*
X274782500Y-188540819D01*
X301779145Y-227227954D02*
X301779145Y-188972820D01*
X302211146Y-188540819D02*
X303789501Y-188540819D01*
X300945216Y-308591335D02*
X299040216Y-308591335D01*
X302495182Y-307041369D02*
X300945216Y-308591335D01*
X305314288Y-307041369D02*
X302495182Y-307041369D01*
X280371216Y-308591335D02*
X278821250Y-307041369D01*
X278821250Y-307041369D02*
X276307287Y-307041369D01*
X299040216Y-308591335D02*
X280371216Y-308591335D01*
X274829745Y-192655619D02*
X275185144Y-193011018D01*
X304192145Y-189480619D02*
X304192145Y-229053819D01*
X303598938Y-229647026D02*
X303182217Y-229647026D01*
X304192145Y-229053819D02*
X303598938Y-229647026D01*
X274591937Y-229647026D02*
X274175216Y-229647026D01*
X275185144Y-229053819D02*
X274591937Y-229647026D01*
X275185144Y-193011018D02*
X275185144Y-229053819D01*
X275999187Y-313151905D02*
X305006188Y-313151905D01*
X218821311Y-229053819D02*
X218228104Y-229647026D01*
X247235105Y-229647026D02*
X246818384Y-229647026D01*
X218228104Y-229647026D02*
X217811383Y-229647026D01*
X218821311Y-193011018D02*
X218821311Y-229053819D01*
X247828312Y-229053819D02*
X247235105Y-229647026D01*
X247828312Y-189480619D02*
X247828312Y-229053819D01*
X218465912Y-192655619D02*
X218821311Y-193011018D01*
X222457417Y-307041369D02*
X219943454Y-307041369D01*
X224007383Y-308591335D02*
X222457417Y-307041369D01*
X242676383Y-308591335D02*
X224007383Y-308591335D01*
X248950455Y-307041369D02*
X246131349Y-307041369D01*
X246131349Y-307041369D02*
X244581383Y-308591335D01*
X244581383Y-308591335D02*
X242676383Y-308591335D01*
X219635354Y-313151905D02*
X248642355Y-313151905D01*
X245847313Y-188540819D02*
X247425668Y-188540819D01*
X218418667Y-188540819D02*
X218419383Y-188541535D01*
X216840312Y-188540819D02*
X218418667Y-188540819D01*
X216408311Y-227227954D02*
X216408311Y-188972820D01*
X246818384Y-228631026D02*
X245415312Y-227227954D01*
X245415312Y-227227954D02*
X245415312Y-188972820D01*
X216408311Y-188972820D02*
X216840312Y-188540819D01*
X217811383Y-228631026D02*
X216408311Y-227227954D01*
X247425668Y-188540819D02*
X247426384Y-188541535D01*
X245415312Y-188972820D02*
X245847313Y-188540819D01*
M02*
