G04 #@! TF.GenerationSoftware,KiCad,Pcbnew,8.0.6-unknown-202411051418~a3eff548b7~ubuntu20.04.1*
G04 #@! TF.CreationDate,2024-11-07T21:25:44-05:00*
G04 #@! TF.ProjectId,ARX,4152582e-6b69-4636-9164-5f7063625858,Revision I*
G04 #@! TF.SameCoordinates,Original*
G04 #@! TF.FileFunction,Profile,NP*
%FSLAX46Y46*%
G04 Gerber Fmt 4.6, Leading zero omitted, Abs format (unit mm)*
G04 Created by KiCad (PCBNEW 8.0.6-unknown-202411051418~a3eff548b7~ubuntu20.04.1) date 2024-11-07 21:25:44*
%MOMM*%
%LPD*%
G01*
G04 APERTURE LIST*
G04 #@! TA.AperFunction,Profile*
%ADD10C,0.150000*%
G04 #@! TD*
%ADD11C,0.150000*%
G04 APERTURE END LIST*
D10*
X160856013Y-130536208D02*
X157046012Y-128631208D01*
X162761012Y-130536208D02*
X702511012Y-130536208D01*
X704416011Y-130536208D02*
X716481012Y-130536208D01*
X162761012Y-408158208D02*
X702511012Y-408158208D01*
X704416011Y-408158208D02*
X708226012Y-406253208D01*
X160856013Y-408158208D02*
X157046012Y-406253208D01*
X160856013Y-408158208D02*
X157046012Y-410063208D01*
X704416011Y-408158208D02*
X708226012Y-410063208D01*
X162761012Y-105136208D02*
X702511012Y-105136208D01*
X702511012Y-105136208D02*
X702511012Y-433558208D01*
X704416011Y-408158208D02*
X716481012Y-408158208D01*
X160856013Y-408158208D02*
X148791012Y-408158208D01*
X704416011Y-130536208D02*
X708226012Y-128631208D01*
X704416011Y-130536208D02*
X708226012Y-132441208D01*
X702511012Y-433558208D02*
X162761012Y-433558208D01*
X160856013Y-130536208D02*
X157046012Y-132441208D01*
X162761012Y-433558208D02*
X162761012Y-105136208D01*
X160856013Y-130536208D02*
X148791012Y-130536208D01*
D11*
X716942553Y-128157136D02*
X718212553Y-131967136D01*
X718212553Y-131967136D02*
X719482553Y-128157136D01*
X720752552Y-130515708D02*
X723655410Y-130515708D01*
X727646838Y-131604279D02*
X727465410Y-131785708D01*
X727465410Y-131785708D02*
X726921124Y-131967136D01*
X726921124Y-131967136D02*
X726558267Y-131967136D01*
X726558267Y-131967136D02*
X726013981Y-131785708D01*
X726013981Y-131785708D02*
X725651124Y-131422850D01*
X725651124Y-131422850D02*
X725469695Y-131059993D01*
X725469695Y-131059993D02*
X725288267Y-130334279D01*
X725288267Y-130334279D02*
X725288267Y-129789993D01*
X725288267Y-129789993D02*
X725469695Y-129064279D01*
X725469695Y-129064279D02*
X725651124Y-128701422D01*
X725651124Y-128701422D02*
X726013981Y-128338565D01*
X726013981Y-128338565D02*
X726558267Y-128157136D01*
X726558267Y-128157136D02*
X726921124Y-128157136D01*
X726921124Y-128157136D02*
X727465410Y-128338565D01*
X727465410Y-128338565D02*
X727646838Y-128519993D01*
X729279695Y-128157136D02*
X729279695Y-131241422D01*
X729279695Y-131241422D02*
X729461124Y-131604279D01*
X729461124Y-131604279D02*
X729642553Y-131785708D01*
X729642553Y-131785708D02*
X730005410Y-131967136D01*
X730005410Y-131967136D02*
X730731124Y-131967136D01*
X730731124Y-131967136D02*
X731093981Y-131785708D01*
X731093981Y-131785708D02*
X731275410Y-131604279D01*
X731275410Y-131604279D02*
X731456838Y-131241422D01*
X731456838Y-131241422D02*
X731456838Y-128157136D01*
X732726839Y-128157136D02*
X734903982Y-128157136D01*
X733815410Y-131967136D02*
X733815410Y-128157136D01*
X129440553Y-405906136D02*
X130710553Y-409716136D01*
X130710553Y-409716136D02*
X131980553Y-405906136D01*
X133250552Y-408264708D02*
X136153410Y-408264708D01*
X140144838Y-409353279D02*
X139963410Y-409534708D01*
X139963410Y-409534708D02*
X139419124Y-409716136D01*
X139419124Y-409716136D02*
X139056267Y-409716136D01*
X139056267Y-409716136D02*
X138511981Y-409534708D01*
X138511981Y-409534708D02*
X138149124Y-409171850D01*
X138149124Y-409171850D02*
X137967695Y-408808993D01*
X137967695Y-408808993D02*
X137786267Y-408083279D01*
X137786267Y-408083279D02*
X137786267Y-407538993D01*
X137786267Y-407538993D02*
X137967695Y-406813279D01*
X137967695Y-406813279D02*
X138149124Y-406450422D01*
X138149124Y-406450422D02*
X138511981Y-406087565D01*
X138511981Y-406087565D02*
X139056267Y-405906136D01*
X139056267Y-405906136D02*
X139419124Y-405906136D01*
X139419124Y-405906136D02*
X139963410Y-406087565D01*
X139963410Y-406087565D02*
X140144838Y-406268993D01*
X141777695Y-405906136D02*
X141777695Y-408990422D01*
X141777695Y-408990422D02*
X141959124Y-409353279D01*
X141959124Y-409353279D02*
X142140553Y-409534708D01*
X142140553Y-409534708D02*
X142503410Y-409716136D01*
X142503410Y-409716136D02*
X143229124Y-409716136D01*
X143229124Y-409716136D02*
X143591981Y-409534708D01*
X143591981Y-409534708D02*
X143773410Y-409353279D01*
X143773410Y-409353279D02*
X143954838Y-408990422D01*
X143954838Y-408990422D02*
X143954838Y-405906136D01*
X145224839Y-405906136D02*
X147401982Y-405906136D01*
X146313410Y-409716136D02*
X146313410Y-405906136D01*
X716942553Y-405779136D02*
X718212553Y-409589136D01*
X718212553Y-409589136D02*
X719482553Y-405779136D01*
X720752552Y-408137708D02*
X723655410Y-408137708D01*
X727646838Y-409226279D02*
X727465410Y-409407708D01*
X727465410Y-409407708D02*
X726921124Y-409589136D01*
X726921124Y-409589136D02*
X726558267Y-409589136D01*
X726558267Y-409589136D02*
X726013981Y-409407708D01*
X726013981Y-409407708D02*
X725651124Y-409044850D01*
X725651124Y-409044850D02*
X725469695Y-408681993D01*
X725469695Y-408681993D02*
X725288267Y-407956279D01*
X725288267Y-407956279D02*
X725288267Y-407411993D01*
X725288267Y-407411993D02*
X725469695Y-406686279D01*
X725469695Y-406686279D02*
X725651124Y-406323422D01*
X725651124Y-406323422D02*
X726013981Y-405960565D01*
X726013981Y-405960565D02*
X726558267Y-405779136D01*
X726558267Y-405779136D02*
X726921124Y-405779136D01*
X726921124Y-405779136D02*
X727465410Y-405960565D01*
X727465410Y-405960565D02*
X727646838Y-406141993D01*
X729279695Y-405779136D02*
X729279695Y-408863422D01*
X729279695Y-408863422D02*
X729461124Y-409226279D01*
X729461124Y-409226279D02*
X729642553Y-409407708D01*
X729642553Y-409407708D02*
X730005410Y-409589136D01*
X730005410Y-409589136D02*
X730731124Y-409589136D01*
X730731124Y-409589136D02*
X731093981Y-409407708D01*
X731093981Y-409407708D02*
X731275410Y-409226279D01*
X731275410Y-409226279D02*
X731456838Y-408863422D01*
X731456838Y-408863422D02*
X731456838Y-405779136D01*
X732726839Y-405779136D02*
X734903982Y-405779136D01*
X733815410Y-409589136D02*
X733815410Y-405779136D01*
X129440553Y-128284136D02*
X130710553Y-132094136D01*
X130710553Y-132094136D02*
X131980553Y-128284136D01*
X133250552Y-130642708D02*
X136153410Y-130642708D01*
X140144838Y-131731279D02*
X139963410Y-131912708D01*
X139963410Y-131912708D02*
X139419124Y-132094136D01*
X139419124Y-132094136D02*
X139056267Y-132094136D01*
X139056267Y-132094136D02*
X138511981Y-131912708D01*
X138511981Y-131912708D02*
X138149124Y-131549850D01*
X138149124Y-131549850D02*
X137967695Y-131186993D01*
X137967695Y-131186993D02*
X137786267Y-130461279D01*
X137786267Y-130461279D02*
X137786267Y-129916993D01*
X137786267Y-129916993D02*
X137967695Y-129191279D01*
X137967695Y-129191279D02*
X138149124Y-128828422D01*
X138149124Y-128828422D02*
X138511981Y-128465565D01*
X138511981Y-128465565D02*
X139056267Y-128284136D01*
X139056267Y-128284136D02*
X139419124Y-128284136D01*
X139419124Y-128284136D02*
X139963410Y-128465565D01*
X139963410Y-128465565D02*
X140144838Y-128646993D01*
X141777695Y-128284136D02*
X141777695Y-131368422D01*
X141777695Y-131368422D02*
X141959124Y-131731279D01*
X141959124Y-131731279D02*
X142140553Y-131912708D01*
X142140553Y-131912708D02*
X142503410Y-132094136D01*
X142503410Y-132094136D02*
X143229124Y-132094136D01*
X143229124Y-132094136D02*
X143591981Y-131912708D01*
X143591981Y-131912708D02*
X143773410Y-131731279D01*
X143773410Y-131731279D02*
X143954838Y-131368422D01*
X143954838Y-131368422D02*
X143954838Y-128284136D01*
X145224839Y-128284136D02*
X147401982Y-128284136D01*
X146313410Y-132094136D02*
X146313410Y-128284136D01*
M02*
