G04 #@! TF.GenerationSoftware,KiCad,Pcbnew,8.0.6-unknown-202411051418~a3eff548b7~ubuntu20.04.1*
G04 #@! TF.CreationDate,2024-11-07T21:25:44-05:00*
G04 #@! TF.ProjectId,ARX,4152582e-6b69-4636-9164-5f7063625858,Revision I*
G04 #@! TF.SameCoordinates,Original*
G04 #@! TF.FileFunction,Other,Comment*
%FSLAX46Y46*%
G04 Gerber Fmt 4.6, Leading zero omitted, Abs format (unit mm)*
G04 Created by KiCad (PCBNEW 8.0.6-unknown-202411051418~a3eff548b7~ubuntu20.04.1) date 2024-11-07 21:25:44*
%MOMM*%
%LPD*%
G01*
G04 APERTURE LIST*
%ADD10C,0.100000*%
%ADD11C,0.150000*%
G04 APERTURE END LIST*
D10*
X702511012Y-406570708D02*
X162761012Y-406570708D01*
X162761012Y-130536208D02*
X702511012Y-130536208D01*
X702511012Y-408158208D01*
X162761012Y-408158208D01*
X162761012Y-130536208D01*
X702511012Y-132123708D02*
X162761012Y-132123708D01*
D11*
X723609553Y-290513873D02*
X723609553Y-293053873D01*
X723609553Y-291783873D02*
X719164553Y-291783873D01*
X719164553Y-291783873D02*
X719799553Y-292207206D01*
X719799553Y-292207206D02*
X720222887Y-292630540D01*
X720222887Y-292630540D02*
X720434553Y-293053873D01*
X719164553Y-287762207D02*
X719164553Y-287338873D01*
X719164553Y-287338873D02*
X719376220Y-286915540D01*
X719376220Y-286915540D02*
X719587887Y-286703873D01*
X719587887Y-286703873D02*
X720011220Y-286492207D01*
X720011220Y-286492207D02*
X720857887Y-286280540D01*
X720857887Y-286280540D02*
X721916220Y-286280540D01*
X721916220Y-286280540D02*
X722762887Y-286492207D01*
X722762887Y-286492207D02*
X723186220Y-286703873D01*
X723186220Y-286703873D02*
X723397887Y-286915540D01*
X723397887Y-286915540D02*
X723609553Y-287338873D01*
X723609553Y-287338873D02*
X723609553Y-287762207D01*
X723609553Y-287762207D02*
X723397887Y-288185540D01*
X723397887Y-288185540D02*
X723186220Y-288397207D01*
X723186220Y-288397207D02*
X722762887Y-288608873D01*
X722762887Y-288608873D02*
X721916220Y-288820540D01*
X721916220Y-288820540D02*
X720857887Y-288820540D01*
X720857887Y-288820540D02*
X720011220Y-288608873D01*
X720011220Y-288608873D02*
X719587887Y-288397207D01*
X719587887Y-288397207D02*
X719376220Y-288185540D01*
X719376220Y-288185540D02*
X719164553Y-287762207D01*
X723609553Y-284163874D02*
X723609553Y-283317207D01*
X723609553Y-283317207D02*
X723397887Y-282893874D01*
X723397887Y-282893874D02*
X723186220Y-282682207D01*
X723186220Y-282682207D02*
X722551220Y-282258874D01*
X722551220Y-282258874D02*
X721704553Y-282047207D01*
X721704553Y-282047207D02*
X720011220Y-282047207D01*
X720011220Y-282047207D02*
X719587887Y-282258874D01*
X719587887Y-282258874D02*
X719376220Y-282470540D01*
X719376220Y-282470540D02*
X719164553Y-282893874D01*
X719164553Y-282893874D02*
X719164553Y-283740540D01*
X719164553Y-283740540D02*
X719376220Y-284163874D01*
X719376220Y-284163874D02*
X719587887Y-284375540D01*
X719587887Y-284375540D02*
X720011220Y-284587207D01*
X720011220Y-284587207D02*
X721069553Y-284587207D01*
X721069553Y-284587207D02*
X721492887Y-284375540D01*
X721492887Y-284375540D02*
X721704553Y-284163874D01*
X721704553Y-284163874D02*
X721916220Y-283740540D01*
X721916220Y-283740540D02*
X721916220Y-282893874D01*
X721916220Y-282893874D02*
X721704553Y-282470540D01*
X721704553Y-282470540D02*
X721492887Y-282258874D01*
X721492887Y-282258874D02*
X721069553Y-282047207D01*
X719164553Y-280565541D02*
X719164553Y-277813874D01*
X719164553Y-277813874D02*
X720857887Y-279295541D01*
X720857887Y-279295541D02*
X720857887Y-278660541D01*
X720857887Y-278660541D02*
X721069553Y-278237207D01*
X721069553Y-278237207D02*
X721281220Y-278025541D01*
X721281220Y-278025541D02*
X721704553Y-277813874D01*
X721704553Y-277813874D02*
X722762887Y-277813874D01*
X722762887Y-277813874D02*
X723186220Y-278025541D01*
X723186220Y-278025541D02*
X723397887Y-278237207D01*
X723397887Y-278237207D02*
X723609553Y-278660541D01*
X723609553Y-278660541D02*
X723609553Y-279930541D01*
X723609553Y-279930541D02*
X723397887Y-280353874D01*
X723397887Y-280353874D02*
X723186220Y-280565541D01*
X719164553Y-275062208D02*
X719164553Y-274638874D01*
X719164553Y-274638874D02*
X719376220Y-274215541D01*
X719376220Y-274215541D02*
X719587887Y-274003874D01*
X719587887Y-274003874D02*
X720011220Y-273792208D01*
X720011220Y-273792208D02*
X720857887Y-273580541D01*
X720857887Y-273580541D02*
X721916220Y-273580541D01*
X721916220Y-273580541D02*
X722762887Y-273792208D01*
X722762887Y-273792208D02*
X723186220Y-274003874D01*
X723186220Y-274003874D02*
X723397887Y-274215541D01*
X723397887Y-274215541D02*
X723609553Y-274638874D01*
X723609553Y-274638874D02*
X723609553Y-275062208D01*
X723609553Y-275062208D02*
X723397887Y-275485541D01*
X723397887Y-275485541D02*
X723186220Y-275697208D01*
X723186220Y-275697208D02*
X722762887Y-275908874D01*
X722762887Y-275908874D02*
X721916220Y-276120541D01*
X721916220Y-276120541D02*
X720857887Y-276120541D01*
X720857887Y-276120541D02*
X720011220Y-275908874D01*
X720011220Y-275908874D02*
X719587887Y-275697208D01*
X719587887Y-275697208D02*
X719376220Y-275485541D01*
X719376220Y-275485541D02*
X719164553Y-275062208D01*
X723186220Y-271675541D02*
X723397887Y-271463875D01*
X723397887Y-271463875D02*
X723609553Y-271675541D01*
X723609553Y-271675541D02*
X723397887Y-271887208D01*
X723397887Y-271887208D02*
X723186220Y-271675541D01*
X723186220Y-271675541D02*
X723609553Y-271675541D01*
X719164553Y-268712208D02*
X719164553Y-268288874D01*
X719164553Y-268288874D02*
X719376220Y-267865541D01*
X719376220Y-267865541D02*
X719587887Y-267653874D01*
X719587887Y-267653874D02*
X720011220Y-267442208D01*
X720011220Y-267442208D02*
X720857887Y-267230541D01*
X720857887Y-267230541D02*
X721916220Y-267230541D01*
X721916220Y-267230541D02*
X722762887Y-267442208D01*
X722762887Y-267442208D02*
X723186220Y-267653874D01*
X723186220Y-267653874D02*
X723397887Y-267865541D01*
X723397887Y-267865541D02*
X723609553Y-268288874D01*
X723609553Y-268288874D02*
X723609553Y-268712208D01*
X723609553Y-268712208D02*
X723397887Y-269135541D01*
X723397887Y-269135541D02*
X723186220Y-269347208D01*
X723186220Y-269347208D02*
X722762887Y-269558874D01*
X722762887Y-269558874D02*
X721916220Y-269770541D01*
X721916220Y-269770541D02*
X720857887Y-269770541D01*
X720857887Y-269770541D02*
X720011220Y-269558874D01*
X720011220Y-269558874D02*
X719587887Y-269347208D01*
X719587887Y-269347208D02*
X719376220Y-269135541D01*
X719376220Y-269135541D02*
X719164553Y-268712208D01*
X719164553Y-264478875D02*
X719164553Y-264055541D01*
X719164553Y-264055541D02*
X719376220Y-263632208D01*
X719376220Y-263632208D02*
X719587887Y-263420541D01*
X719587887Y-263420541D02*
X720011220Y-263208875D01*
X720011220Y-263208875D02*
X720857887Y-262997208D01*
X720857887Y-262997208D02*
X721916220Y-262997208D01*
X721916220Y-262997208D02*
X722762887Y-263208875D01*
X722762887Y-263208875D02*
X723186220Y-263420541D01*
X723186220Y-263420541D02*
X723397887Y-263632208D01*
X723397887Y-263632208D02*
X723609553Y-264055541D01*
X723609553Y-264055541D02*
X723609553Y-264478875D01*
X723609553Y-264478875D02*
X723397887Y-264902208D01*
X723397887Y-264902208D02*
X723186220Y-265113875D01*
X723186220Y-265113875D02*
X722762887Y-265325541D01*
X722762887Y-265325541D02*
X721916220Y-265537208D01*
X721916220Y-265537208D02*
X720857887Y-265537208D01*
X720857887Y-265537208D02*
X720011220Y-265325541D01*
X720011220Y-265325541D02*
X719587887Y-265113875D01*
X719587887Y-265113875D02*
X719376220Y-264902208D01*
X719376220Y-264902208D02*
X719164553Y-264478875D01*
X723609553Y-257705541D02*
X720646220Y-257705541D01*
X721069553Y-257705541D02*
X720857887Y-257493875D01*
X720857887Y-257493875D02*
X720646220Y-257070541D01*
X720646220Y-257070541D02*
X720646220Y-256435541D01*
X720646220Y-256435541D02*
X720857887Y-256012208D01*
X720857887Y-256012208D02*
X721281220Y-255800541D01*
X721281220Y-255800541D02*
X723609553Y-255800541D01*
X721281220Y-255800541D02*
X720857887Y-255588875D01*
X720857887Y-255588875D02*
X720646220Y-255165541D01*
X720646220Y-255165541D02*
X720646220Y-254530541D01*
X720646220Y-254530541D02*
X720857887Y-254107208D01*
X720857887Y-254107208D02*
X721281220Y-253895541D01*
X721281220Y-253895541D02*
X723609553Y-253895541D01*
X723609553Y-251778874D02*
X720646220Y-251778874D01*
X719164553Y-251778874D02*
X719376220Y-251990541D01*
X719376220Y-251990541D02*
X719587887Y-251778874D01*
X719587887Y-251778874D02*
X719376220Y-251567208D01*
X719376220Y-251567208D02*
X719164553Y-251778874D01*
X719164553Y-251778874D02*
X719587887Y-251778874D01*
X723609553Y-249027207D02*
X723397887Y-249450541D01*
X723397887Y-249450541D02*
X722974553Y-249662207D01*
X722974553Y-249662207D02*
X719164553Y-249662207D01*
X723397887Y-247545541D02*
X723609553Y-247122208D01*
X723609553Y-247122208D02*
X723609553Y-246275541D01*
X723609553Y-246275541D02*
X723397887Y-245852208D01*
X723397887Y-245852208D02*
X722974553Y-245640541D01*
X722974553Y-245640541D02*
X722762887Y-245640541D01*
X722762887Y-245640541D02*
X722339553Y-245852208D01*
X722339553Y-245852208D02*
X722127887Y-246275541D01*
X722127887Y-246275541D02*
X722127887Y-246910541D01*
X722127887Y-246910541D02*
X721916220Y-247333874D01*
X721916220Y-247333874D02*
X721492887Y-247545541D01*
X721492887Y-247545541D02*
X721281220Y-247545541D01*
X721281220Y-247545541D02*
X720857887Y-247333874D01*
X720857887Y-247333874D02*
X720646220Y-246910541D01*
X720646220Y-246910541D02*
X720646220Y-246275541D01*
X720646220Y-246275541D02*
X720857887Y-245852208D01*
X703011012Y-130536208D02*
X722147432Y-130536208D01*
X703011012Y-408158208D02*
X722147432Y-408158208D01*
X721561012Y-130536208D02*
X721561012Y-248082541D01*
X721561012Y-290611874D02*
X721561012Y-408158208D01*
X721561012Y-130536208D02*
X723320274Y-133915719D01*
X721561012Y-130536208D02*
X719801750Y-133915719D01*
X721561012Y-408158208D02*
X719801750Y-404778697D01*
X721561012Y-408158208D02*
X723320274Y-404778697D01*
X408929346Y-95035083D02*
X409141013Y-94823416D01*
X409141013Y-94823416D02*
X409564346Y-94611749D01*
X409564346Y-94611749D02*
X410622680Y-94611749D01*
X410622680Y-94611749D02*
X411046013Y-94823416D01*
X411046013Y-94823416D02*
X411257680Y-95035083D01*
X411257680Y-95035083D02*
X411469346Y-95458416D01*
X411469346Y-95458416D02*
X411469346Y-95881749D01*
X411469346Y-95881749D02*
X411257680Y-96516749D01*
X411257680Y-96516749D02*
X408717680Y-99056749D01*
X408717680Y-99056749D02*
X411469346Y-99056749D01*
X415702679Y-99056749D02*
X413162679Y-99056749D01*
X414432679Y-99056749D02*
X414432679Y-94611749D01*
X414432679Y-94611749D02*
X414009346Y-95246749D01*
X414009346Y-95246749D02*
X413586013Y-95670083D01*
X413586013Y-95670083D02*
X413162679Y-95881749D01*
X417396012Y-95035083D02*
X417607679Y-94823416D01*
X417607679Y-94823416D02*
X418031012Y-94611749D01*
X418031012Y-94611749D02*
X419089346Y-94611749D01*
X419089346Y-94611749D02*
X419512679Y-94823416D01*
X419512679Y-94823416D02*
X419724346Y-95035083D01*
X419724346Y-95035083D02*
X419936012Y-95458416D01*
X419936012Y-95458416D02*
X419936012Y-95881749D01*
X419936012Y-95881749D02*
X419724346Y-96516749D01*
X419724346Y-96516749D02*
X417184346Y-99056749D01*
X417184346Y-99056749D02*
X419936012Y-99056749D01*
X423957679Y-94611749D02*
X421841012Y-94611749D01*
X421841012Y-94611749D02*
X421629345Y-96728416D01*
X421629345Y-96728416D02*
X421841012Y-96516749D01*
X421841012Y-96516749D02*
X422264345Y-96305083D01*
X422264345Y-96305083D02*
X423322679Y-96305083D01*
X423322679Y-96305083D02*
X423746012Y-96516749D01*
X423746012Y-96516749D02*
X423957679Y-96728416D01*
X423957679Y-96728416D02*
X424169345Y-97151749D01*
X424169345Y-97151749D02*
X424169345Y-98210083D01*
X424169345Y-98210083D02*
X423957679Y-98633416D01*
X423957679Y-98633416D02*
X423746012Y-98845083D01*
X423746012Y-98845083D02*
X423322679Y-99056749D01*
X423322679Y-99056749D02*
X422264345Y-99056749D01*
X422264345Y-99056749D02*
X421841012Y-98845083D01*
X421841012Y-98845083D02*
X421629345Y-98633416D01*
X426921012Y-94611749D02*
X427344345Y-94611749D01*
X427344345Y-94611749D02*
X427767678Y-94823416D01*
X427767678Y-94823416D02*
X427979345Y-95035083D01*
X427979345Y-95035083D02*
X428191012Y-95458416D01*
X428191012Y-95458416D02*
X428402678Y-96305083D01*
X428402678Y-96305083D02*
X428402678Y-97363416D01*
X428402678Y-97363416D02*
X428191012Y-98210083D01*
X428191012Y-98210083D02*
X427979345Y-98633416D01*
X427979345Y-98633416D02*
X427767678Y-98845083D01*
X427767678Y-98845083D02*
X427344345Y-99056749D01*
X427344345Y-99056749D02*
X426921012Y-99056749D01*
X426921012Y-99056749D02*
X426497678Y-98845083D01*
X426497678Y-98845083D02*
X426286012Y-98633416D01*
X426286012Y-98633416D02*
X426074345Y-98210083D01*
X426074345Y-98210083D02*
X425862678Y-97363416D01*
X425862678Y-97363416D02*
X425862678Y-96305083D01*
X425862678Y-96305083D02*
X426074345Y-95458416D01*
X426074345Y-95458416D02*
X426286012Y-95035083D01*
X426286012Y-95035083D02*
X426497678Y-94823416D01*
X426497678Y-94823416D02*
X426921012Y-94611749D01*
X430307678Y-98633416D02*
X430519345Y-98845083D01*
X430519345Y-98845083D02*
X430307678Y-99056749D01*
X430307678Y-99056749D02*
X430096011Y-98845083D01*
X430096011Y-98845083D02*
X430307678Y-98633416D01*
X430307678Y-98633416D02*
X430307678Y-99056749D01*
X433271012Y-94611749D02*
X433694345Y-94611749D01*
X433694345Y-94611749D02*
X434117678Y-94823416D01*
X434117678Y-94823416D02*
X434329345Y-95035083D01*
X434329345Y-95035083D02*
X434541012Y-95458416D01*
X434541012Y-95458416D02*
X434752678Y-96305083D01*
X434752678Y-96305083D02*
X434752678Y-97363416D01*
X434752678Y-97363416D02*
X434541012Y-98210083D01*
X434541012Y-98210083D02*
X434329345Y-98633416D01*
X434329345Y-98633416D02*
X434117678Y-98845083D01*
X434117678Y-98845083D02*
X433694345Y-99056749D01*
X433694345Y-99056749D02*
X433271012Y-99056749D01*
X433271012Y-99056749D02*
X432847678Y-98845083D01*
X432847678Y-98845083D02*
X432636012Y-98633416D01*
X432636012Y-98633416D02*
X432424345Y-98210083D01*
X432424345Y-98210083D02*
X432212678Y-97363416D01*
X432212678Y-97363416D02*
X432212678Y-96305083D01*
X432212678Y-96305083D02*
X432424345Y-95458416D01*
X432424345Y-95458416D02*
X432636012Y-95035083D01*
X432636012Y-95035083D02*
X432847678Y-94823416D01*
X432847678Y-94823416D02*
X433271012Y-94611749D01*
X437504345Y-94611749D02*
X437927678Y-94611749D01*
X437927678Y-94611749D02*
X438351011Y-94823416D01*
X438351011Y-94823416D02*
X438562678Y-95035083D01*
X438562678Y-95035083D02*
X438774345Y-95458416D01*
X438774345Y-95458416D02*
X438986011Y-96305083D01*
X438986011Y-96305083D02*
X438986011Y-97363416D01*
X438986011Y-97363416D02*
X438774345Y-98210083D01*
X438774345Y-98210083D02*
X438562678Y-98633416D01*
X438562678Y-98633416D02*
X438351011Y-98845083D01*
X438351011Y-98845083D02*
X437927678Y-99056749D01*
X437927678Y-99056749D02*
X437504345Y-99056749D01*
X437504345Y-99056749D02*
X437081011Y-98845083D01*
X437081011Y-98845083D02*
X436869345Y-98633416D01*
X436869345Y-98633416D02*
X436657678Y-98210083D01*
X436657678Y-98210083D02*
X436446011Y-97363416D01*
X436446011Y-97363416D02*
X436446011Y-96305083D01*
X436446011Y-96305083D02*
X436657678Y-95458416D01*
X436657678Y-95458416D02*
X436869345Y-95035083D01*
X436869345Y-95035083D02*
X437081011Y-94823416D01*
X437081011Y-94823416D02*
X437504345Y-94611749D01*
X444277678Y-99056749D02*
X444277678Y-96093416D01*
X444277678Y-96516749D02*
X444489345Y-96305083D01*
X444489345Y-96305083D02*
X444912678Y-96093416D01*
X444912678Y-96093416D02*
X445547678Y-96093416D01*
X445547678Y-96093416D02*
X445971011Y-96305083D01*
X445971011Y-96305083D02*
X446182678Y-96728416D01*
X446182678Y-96728416D02*
X446182678Y-99056749D01*
X446182678Y-96728416D02*
X446394345Y-96305083D01*
X446394345Y-96305083D02*
X446817678Y-96093416D01*
X446817678Y-96093416D02*
X447452678Y-96093416D01*
X447452678Y-96093416D02*
X447876011Y-96305083D01*
X447876011Y-96305083D02*
X448087678Y-96728416D01*
X448087678Y-96728416D02*
X448087678Y-99056749D01*
X450204345Y-99056749D02*
X450204345Y-96093416D01*
X450204345Y-94611749D02*
X449992678Y-94823416D01*
X449992678Y-94823416D02*
X450204345Y-95035083D01*
X450204345Y-95035083D02*
X450416012Y-94823416D01*
X450416012Y-94823416D02*
X450204345Y-94611749D01*
X450204345Y-94611749D02*
X450204345Y-95035083D01*
X452956012Y-99056749D02*
X452532679Y-98845083D01*
X452532679Y-98845083D02*
X452321012Y-98421749D01*
X452321012Y-98421749D02*
X452321012Y-94611749D01*
X454437678Y-98845083D02*
X454861012Y-99056749D01*
X454861012Y-99056749D02*
X455707678Y-99056749D01*
X455707678Y-99056749D02*
X456131012Y-98845083D01*
X456131012Y-98845083D02*
X456342678Y-98421749D01*
X456342678Y-98421749D02*
X456342678Y-98210083D01*
X456342678Y-98210083D02*
X456131012Y-97786749D01*
X456131012Y-97786749D02*
X455707678Y-97575083D01*
X455707678Y-97575083D02*
X455072678Y-97575083D01*
X455072678Y-97575083D02*
X454649345Y-97363416D01*
X454649345Y-97363416D02*
X454437678Y-96940083D01*
X454437678Y-96940083D02*
X454437678Y-96728416D01*
X454437678Y-96728416D02*
X454649345Y-96305083D01*
X454649345Y-96305083D02*
X455072678Y-96093416D01*
X455072678Y-96093416D02*
X455707678Y-96093416D01*
X455707678Y-96093416D02*
X456131012Y-96305083D01*
X162761012Y-130036208D02*
X162761012Y-96421788D01*
X702511012Y-130036208D02*
X702511012Y-96421788D01*
X162761012Y-97008208D02*
X411371346Y-97008208D01*
X453900679Y-97008208D02*
X702511012Y-97008208D01*
X162761012Y-97008208D02*
X166140523Y-95248946D01*
X162761012Y-97008208D02*
X166140523Y-98767470D01*
X702511012Y-97008208D02*
X699131501Y-98767470D01*
X702511012Y-97008208D02*
X699131501Y-95248946D01*
X345662150Y-402443208D02*
G75*
G02*
X338662150Y-402443208I-3500000J0D01*
G01*
X338662150Y-402443208D02*
G75*
G02*
X345662150Y-402443208I3500000J0D01*
G01*
X522496012Y-136251208D02*
G75*
G02*
X515496012Y-136251208I-3500000J0D01*
G01*
X515496012Y-136251208D02*
G75*
G02*
X522496012Y-136251208I3500000J0D01*
G01*
X352951012Y-136251208D02*
G75*
G02*
X345951012Y-136251208I-3500000J0D01*
G01*
X345951012Y-136251208D02*
G75*
G02*
X352951012Y-136251208I3500000J0D01*
G01*
X171976012Y-136251208D02*
G75*
G02*
X164976012Y-136251208I-3500000J0D01*
G01*
X164976012Y-136251208D02*
G75*
G02*
X171976012Y-136251208I3500000J0D01*
G01*
X700296012Y-136251208D02*
G75*
G02*
X693296012Y-136251208I-3500000J0D01*
G01*
X693296012Y-136251208D02*
G75*
G02*
X700296012Y-136251208I3500000J0D01*
G01*
X700296012Y-402443208D02*
G75*
G02*
X693296012Y-402443208I-3500000J0D01*
G01*
X693296012Y-402443208D02*
G75*
G02*
X700296012Y-402443208I3500000J0D01*
G01*
X514753649Y-402443208D02*
G75*
G02*
X507753649Y-402443208I-3500000J0D01*
G01*
X507753649Y-402443208D02*
G75*
G02*
X514753649Y-402443208I3500000J0D01*
G01*
X171976012Y-402443208D02*
G75*
G02*
X164976012Y-402443208I-3500000J0D01*
G01*
X164976012Y-402443208D02*
G75*
G02*
X171976012Y-402443208I3500000J0D01*
G01*
M02*
